G04 #@! TF.FileFunction,Copper,L1,Top,Signal*
%FSLAX46Y46*%
G04 Gerber Fmt 4.6, Leading zero omitted, Abs format (unit mm)*
G04 Created by KiCad (PCBNEW 201611221049+7374~55~ubuntu16.04.1-product) date Sun Nov 27 19:54:39 2016*
%MOMM*%
%LPD*%
G01*
G04 APERTURE LIST*
%ADD10C,0.100000*%
%ADD11R,2.032000X1.727200*%
%ADD12O,2.032000X1.727200*%
%ADD13R,1.727200X2.032000*%
%ADD14O,1.727200X2.032000*%
%ADD15C,2.600000*%
%ADD16C,3.000000*%
%ADD17R,1.727200X1.727200*%
%ADD18O,1.727200X1.727200*%
%ADD19C,4.000000*%
%ADD20C,8.000000*%
%ADD21C,1.400000*%
%ADD22C,0.800000*%
%ADD23C,1.600000*%
%ADD24C,0.600000*%
%ADD25C,1.000000*%
%ADD26C,1.500000*%
%ADD27C,0.300000*%
%ADD28C,2.000000*%
%ADD29C,0.600000*%
%ADD30C,0.200000*%
%ADD31C,1.000000*%
%ADD32C,0.400000*%
G04 APERTURE END LIST*
D10*
D11*
X38100000Y-127000000D03*
D12*
X38100000Y-129540000D03*
X38100000Y-132080000D03*
X38100000Y-134620000D03*
X38100000Y-137160000D03*
X38100000Y-139700000D03*
D13*
X48260000Y-149860000D03*
D14*
X50800000Y-149860000D03*
X53340000Y-149860000D03*
X55880000Y-149860000D03*
X58420000Y-149860000D03*
X60960000Y-149860000D03*
X63500000Y-149860000D03*
X66040000Y-149860000D03*
X68580000Y-149860000D03*
X71120000Y-149860000D03*
D13*
X91440000Y-149860000D03*
D14*
X88900000Y-149860000D03*
X86360000Y-149860000D03*
X83820000Y-149860000D03*
X81280000Y-149860000D03*
X78740000Y-149860000D03*
D13*
X78740000Y-106680000D03*
D14*
X81280000Y-106680000D03*
X83820000Y-106680000D03*
X86360000Y-106680000D03*
X88900000Y-106680000D03*
X91440000Y-106680000D03*
D15*
X132080000Y-137160000D03*
D16*
X134620000Y-139700000D03*
X134620000Y-134620000D03*
X129540000Y-134620000D03*
X129540000Y-139700000D03*
D15*
X132080000Y-114935000D03*
D16*
X129540000Y-117475000D03*
X134620000Y-117475000D03*
X134620000Y-112395000D03*
X129540000Y-112395000D03*
D17*
X62770000Y-115070000D03*
D18*
X60230000Y-115070000D03*
X62770000Y-117610000D03*
X60230000Y-117610000D03*
X62770000Y-120150000D03*
X60230000Y-120150000D03*
X62770000Y-122690000D03*
X60230000Y-122690000D03*
X62770000Y-125230000D03*
X60230000Y-125230000D03*
X62770000Y-127770000D03*
X60230000Y-127770000D03*
X62770000Y-130310000D03*
X60230000Y-130310000D03*
X62770000Y-132850000D03*
X60230000Y-132850000D03*
X62770000Y-135390000D03*
X60230000Y-135390000D03*
X62770000Y-137930000D03*
X60230000Y-137930000D03*
D17*
X71120000Y-104140000D03*
D18*
X71120000Y-106680000D03*
X68580000Y-104140000D03*
X68580000Y-106680000D03*
X66040000Y-104140000D03*
X66040000Y-106680000D03*
X63500000Y-104140000D03*
X63500000Y-106680000D03*
X60960000Y-104140000D03*
X60960000Y-106680000D03*
X58420000Y-104140000D03*
X58420000Y-106680000D03*
X55880000Y-104140000D03*
X55880000Y-106680000D03*
X53340000Y-104140000D03*
X53340000Y-106680000D03*
X50800000Y-104140000D03*
X50800000Y-106680000D03*
X48260000Y-104140000D03*
X48260000Y-106680000D03*
D19*
X120500000Y-140500000D03*
X54500000Y-114500000D03*
X120500000Y-114500000D03*
X54500000Y-140500000D03*
D20*
X40640000Y-147320000D03*
X132080000Y-147320000D03*
X132080000Y-106680000D03*
X40640000Y-106680000D03*
D21*
X47300000Y-139400000D03*
X50250000Y-139350000D03*
X56800000Y-134450000D03*
D22*
X53350000Y-136175000D03*
X52100000Y-136175000D03*
X50825000Y-136175000D03*
X49550000Y-136175000D03*
X49550000Y-132150000D03*
D23*
X38650000Y-114350000D03*
X41000000Y-112950000D03*
D22*
X123500000Y-132950000D03*
D24*
X117550000Y-142050000D03*
D22*
X99500000Y-121400000D03*
X99500000Y-124600000D03*
X99500000Y-120100000D03*
X103700000Y-140400000D03*
X73500000Y-132400000D03*
X65600000Y-142400000D03*
X64900000Y-132600000D03*
D24*
X66000000Y-134300000D03*
X85300000Y-122600000D03*
X85300000Y-119600000D03*
X66200000Y-124100000D03*
X66200000Y-122100000D03*
X65000000Y-124400000D03*
X64900000Y-115400000D03*
X69200000Y-117100000D03*
X77500000Y-113300000D03*
X73500000Y-113300000D03*
X75000000Y-113300000D03*
X80600000Y-118700000D03*
X73000000Y-127600000D03*
X72500000Y-118100000D03*
X71000000Y-121100000D03*
D21*
X90300000Y-144300000D03*
X85300000Y-144300000D03*
X69500000Y-142300000D03*
X74700000Y-142300000D03*
D22*
X78100000Y-145900000D03*
X79400000Y-145900000D03*
X80600000Y-145900000D03*
X81900000Y-145900000D03*
X126700000Y-107000000D03*
X126700000Y-104600000D03*
X125100000Y-104600000D03*
X122000000Y-104600000D03*
X119100000Y-104600000D03*
X116000000Y-104600000D03*
X113100000Y-104600000D03*
X110000000Y-104600000D03*
X107100000Y-104600000D03*
X104000000Y-104600000D03*
X101100000Y-104600000D03*
X98000000Y-104600000D03*
X96400000Y-104600000D03*
X96400000Y-107000000D03*
X96400000Y-110100000D03*
X96400000Y-113000000D03*
X96400000Y-116100000D03*
X96400000Y-119000000D03*
X96400000Y-122100000D03*
X96400000Y-125000000D03*
X96400000Y-128100000D03*
X96400000Y-131000000D03*
X96400000Y-137000000D03*
X96400000Y-134100000D03*
X96400000Y-140100000D03*
X96400000Y-143000000D03*
X96300000Y-146100000D03*
X96300000Y-148500000D03*
X98000000Y-148500000D03*
X101100000Y-148400000D03*
X104000000Y-148400000D03*
X107100000Y-148400000D03*
X110000000Y-148400000D03*
X113100000Y-148400000D03*
X116000000Y-148400000D03*
X119100000Y-148400000D03*
X122000000Y-148400000D03*
X125100000Y-148500000D03*
X126700000Y-148500000D03*
X126700000Y-146100000D03*
X126700000Y-143000000D03*
X126700000Y-140100000D03*
X126700000Y-137000000D03*
X126700000Y-134100000D03*
X126700000Y-131000000D03*
X126700000Y-128100000D03*
X126700000Y-125000000D03*
X126700000Y-122100000D03*
X126700000Y-119000000D03*
X126700000Y-116100000D03*
X126700000Y-113000000D03*
X126700000Y-110100000D03*
X99500000Y-118500000D03*
X99500000Y-123000000D03*
X102800000Y-112500000D03*
X105000000Y-112500000D03*
X98700000Y-131800000D03*
X107700000Y-115700000D03*
X105500000Y-121900000D03*
X104700000Y-121100000D03*
X106300000Y-121100000D03*
X106300000Y-122700000D03*
X104700000Y-122700000D03*
X107600000Y-132900000D03*
X107400000Y-131300000D03*
X109200000Y-116600000D03*
X114200000Y-124100000D03*
X114200000Y-122600000D03*
X103500000Y-126000000D03*
X108700000Y-129800000D03*
X108700000Y-128300000D03*
X108700000Y-126800000D03*
X108700000Y-125300000D03*
X94100000Y-147000000D03*
X102900000Y-133600000D03*
X102900000Y-135100000D03*
X102900000Y-136600000D03*
X111300000Y-136400000D03*
X111300000Y-134900000D03*
X111300000Y-133400000D03*
X110200000Y-137300000D03*
X108782500Y-140137500D03*
X108782500Y-139262500D03*
X109657500Y-140137500D03*
X109657500Y-139262500D03*
X114700000Y-139600000D03*
X114700000Y-141100000D03*
X103700000Y-138800000D03*
X101500000Y-145200000D03*
X103000000Y-145200000D03*
X104500000Y-145200000D03*
X109000000Y-146800000D03*
X111200000Y-146800000D03*
X114200000Y-146800000D03*
X116300000Y-146800000D03*
X118400000Y-132900000D03*
X122500000Y-125900000D03*
X120200000Y-129500000D03*
X120300000Y-126700000D03*
X117900000Y-129500000D03*
X117900000Y-126700000D03*
X119100000Y-129500000D03*
X119100000Y-126700000D03*
X115000000Y-128100000D03*
X113600000Y-116500000D03*
X114700000Y-115300000D03*
X117500000Y-115300000D03*
X118600000Y-116500000D03*
X113600000Y-119500000D03*
X114700000Y-120700000D03*
X118600000Y-119200000D03*
X117700000Y-120800000D03*
X119300000Y-120900000D03*
X115100000Y-137500000D03*
X124900000Y-134400000D03*
X120600000Y-134400000D03*
D23*
X49800000Y-109950000D03*
D22*
X65600000Y-139100000D03*
D24*
X65300000Y-138000000D03*
D22*
X69200000Y-135900000D03*
X100000000Y-110000000D03*
X111800000Y-128700000D03*
X100200000Y-131800000D03*
X121500000Y-129700000D03*
X43500000Y-132500000D03*
X70600000Y-110700000D03*
D23*
X56800000Y-132400000D03*
D21*
X69400000Y-144200000D03*
X44300000Y-135700000D03*
D25*
X113800000Y-132000000D03*
X98400000Y-141000000D03*
X105500000Y-132200000D03*
D22*
X72700000Y-130100000D03*
D24*
X56500000Y-109900000D03*
X61000000Y-109900000D03*
X64000000Y-109900000D03*
X69000000Y-109900000D03*
X71900000Y-109900000D03*
X80500000Y-119600000D03*
X75000000Y-118200000D03*
X72000000Y-116200000D03*
X71000000Y-122100000D03*
D22*
X69200000Y-131700000D03*
D24*
X117900000Y-143100000D03*
X106000000Y-118450000D03*
D22*
X106800000Y-119000000D03*
X122900000Y-129700000D03*
D24*
X57200000Y-139250000D03*
X80300000Y-125700000D03*
X88050000Y-110350000D03*
X74500000Y-112400000D03*
X74150000Y-118200000D03*
X94800000Y-126100000D03*
X93200000Y-124500000D03*
X88800000Y-121500000D03*
X88800000Y-119650000D03*
X80400000Y-121900000D03*
X83100000Y-118400000D03*
X91700000Y-120700000D03*
X82500000Y-124100000D03*
X80300000Y-123700000D03*
X85100000Y-118300000D03*
X72300000Y-126400000D03*
X80250000Y-126850000D03*
X71400000Y-113700000D03*
X79500000Y-125000000D03*
X71200000Y-136800000D03*
X76500000Y-127350000D03*
X64900000Y-114150000D03*
X70200000Y-137500000D03*
X74400000Y-132900000D03*
X72300000Y-132900000D03*
X65700000Y-113950000D03*
X68100000Y-126600000D03*
X67500000Y-114150000D03*
X68400000Y-125600000D03*
X67600000Y-125200000D03*
X66700000Y-113800000D03*
D26*
X38900000Y-116550000D02*
X38900000Y-116450000D01*
D27*
X60230000Y-130310000D02*
X61500000Y-129040000D01*
X61500000Y-123960000D02*
X60230000Y-122690000D01*
X61500000Y-129040000D02*
X61500000Y-123960000D01*
D28*
X38650000Y-114350000D02*
X38650000Y-114400000D01*
D29*
X117550000Y-142050000D02*
X117600000Y-142050000D01*
D30*
X126700000Y-107000000D02*
X126690000Y-107010000D01*
X126700000Y-104600000D02*
X126690000Y-104610000D01*
X125100000Y-104600000D02*
X125090000Y-104610000D01*
X121965000Y-104560000D02*
X122000000Y-104595000D01*
X122000000Y-104595000D02*
X122000000Y-104600000D01*
X119065000Y-104560000D02*
X119100000Y-104595000D01*
X119100000Y-104595000D02*
X119100000Y-104600000D01*
X115965000Y-104560000D02*
X116000000Y-104595000D01*
X116000000Y-104595000D02*
X116000000Y-104600000D01*
X113065000Y-104560000D02*
X113100000Y-104595000D01*
X113100000Y-104595000D02*
X113100000Y-104600000D01*
X109965000Y-104560000D02*
X110000000Y-104595000D01*
X110000000Y-104595000D02*
X110000000Y-104600000D01*
X107065000Y-104560000D02*
X107100000Y-104595000D01*
X107100000Y-104595000D02*
X107100000Y-104600000D01*
X103965000Y-104560000D02*
X104000000Y-104595000D01*
X104000000Y-104595000D02*
X104000000Y-104600000D01*
X101065000Y-104560000D02*
X101100000Y-104595000D01*
X101100000Y-104595000D02*
X101100000Y-104600000D01*
X98040000Y-104610000D02*
X98030000Y-104600000D01*
X98030000Y-104600000D02*
X98000000Y-104600000D01*
X96340000Y-104610000D02*
X96350000Y-104600000D01*
X96350000Y-104600000D02*
X96400000Y-104600000D01*
X96340000Y-107010000D02*
X96350000Y-107000000D01*
X96350000Y-107000000D02*
X96400000Y-107000000D01*
X96415000Y-110060000D02*
X96400000Y-110075000D01*
X96400000Y-110075000D02*
X96400000Y-110100000D01*
X96415000Y-112960000D02*
X96400000Y-112975000D01*
X96400000Y-112975000D02*
X96400000Y-113000000D01*
X96415000Y-116060000D02*
X96400000Y-116075000D01*
X96400000Y-116075000D02*
X96400000Y-116100000D01*
X96415000Y-118960000D02*
X96400000Y-118975000D01*
X96400000Y-118975000D02*
X96400000Y-119000000D01*
X96415000Y-122060000D02*
X96400000Y-122075000D01*
X96400000Y-122075000D02*
X96400000Y-122100000D01*
X96415000Y-124960000D02*
X96400000Y-124975000D01*
X96400000Y-124975000D02*
X96400000Y-125000000D01*
X96415000Y-128060000D02*
X96400000Y-128075000D01*
X96400000Y-128075000D02*
X96400000Y-128100000D01*
X96415000Y-130960000D02*
X96400000Y-130975000D01*
X96400000Y-130975000D02*
X96400000Y-131000000D01*
X96415000Y-136960000D02*
X96400000Y-136975000D01*
X96400000Y-136975000D02*
X96400000Y-137000000D01*
X96415000Y-134060000D02*
X96400000Y-134075000D01*
X96400000Y-134075000D02*
X96400000Y-134100000D01*
X96415000Y-140060000D02*
X96400000Y-140075000D01*
X96400000Y-140075000D02*
X96400000Y-140100000D01*
X96415000Y-142960000D02*
X96400000Y-142975000D01*
X96400000Y-142975000D02*
X96400000Y-143000000D01*
X96340000Y-146110000D02*
X96330000Y-146100000D01*
X96330000Y-146100000D02*
X96300000Y-146100000D01*
X96340000Y-148510000D02*
X96330000Y-148500000D01*
X96330000Y-148500000D02*
X96300000Y-148500000D01*
X98040000Y-148510000D02*
X98030000Y-148500000D01*
X98030000Y-148500000D02*
X98000000Y-148500000D01*
X101065000Y-148360000D02*
X101100000Y-148395000D01*
X101100000Y-148395000D02*
X101100000Y-148400000D01*
X103965000Y-148360000D02*
X104000000Y-148395000D01*
X104000000Y-148395000D02*
X104000000Y-148400000D01*
X107065000Y-148360000D02*
X107100000Y-148395000D01*
X107100000Y-148395000D02*
X107100000Y-148400000D01*
X109965000Y-148360000D02*
X110000000Y-148395000D01*
X110000000Y-148395000D02*
X110000000Y-148400000D01*
X113065000Y-148360000D02*
X113100000Y-148395000D01*
X113100000Y-148395000D02*
X113100000Y-148400000D01*
X115965000Y-148360000D02*
X116000000Y-148395000D01*
X116000000Y-148395000D02*
X116000000Y-148400000D01*
X119065000Y-148360000D02*
X119100000Y-148395000D01*
X119100000Y-148395000D02*
X119100000Y-148400000D01*
X121965000Y-148360000D02*
X122000000Y-148395000D01*
X122000000Y-148395000D02*
X122000000Y-148400000D01*
X125100000Y-148500000D02*
X125090000Y-148510000D01*
X126700000Y-148500000D02*
X126690000Y-148510000D01*
X126700000Y-146100000D02*
X126690000Y-146110000D01*
X126715000Y-142960000D02*
X126700000Y-142975000D01*
X126700000Y-142975000D02*
X126700000Y-143000000D01*
X126715000Y-140060000D02*
X126700000Y-140075000D01*
X126700000Y-140075000D02*
X126700000Y-140100000D01*
X126715000Y-136960000D02*
X126700000Y-136975000D01*
X126700000Y-136975000D02*
X126700000Y-137000000D01*
X126715000Y-134060000D02*
X126700000Y-134075000D01*
X126700000Y-134075000D02*
X126700000Y-134100000D01*
X126715000Y-130960000D02*
X126700000Y-130975000D01*
X126700000Y-130975000D02*
X126700000Y-131000000D01*
X126715000Y-128060000D02*
X126700000Y-128075000D01*
X126700000Y-128075000D02*
X126700000Y-128100000D01*
X126715000Y-124960000D02*
X126700000Y-124975000D01*
X126700000Y-124975000D02*
X126700000Y-125000000D01*
X126715000Y-122060000D02*
X126700000Y-122075000D01*
X126700000Y-122075000D02*
X126700000Y-122100000D01*
X126715000Y-118960000D02*
X126700000Y-118975000D01*
X126700000Y-118975000D02*
X126700000Y-119000000D01*
X126715000Y-116060000D02*
X126700000Y-116075000D01*
X126700000Y-116075000D02*
X126700000Y-116100000D01*
X126715000Y-112960000D02*
X126700000Y-112975000D01*
X126700000Y-112975000D02*
X126700000Y-113000000D01*
X126715000Y-110060000D02*
X126700000Y-110075000D01*
X126700000Y-110075000D02*
X126700000Y-110100000D01*
D29*
X105000000Y-112500000D02*
X105100000Y-112500000D01*
D30*
X105500000Y-121900000D02*
X105600000Y-122000000D01*
X104700000Y-121100000D02*
X104725000Y-121125000D01*
X106300000Y-121100000D02*
X106275000Y-121125000D01*
X106300000Y-122700000D02*
X106275000Y-122675000D01*
X104700000Y-122700000D02*
X104725000Y-122675000D01*
D29*
X109200000Y-116600000D02*
X109200000Y-116700000D01*
X111300000Y-133400000D02*
X111400000Y-133400000D01*
D30*
X108800000Y-140100000D02*
X108800000Y-140120000D01*
X108800000Y-140120000D02*
X108782500Y-140137500D01*
X108800000Y-139280000D02*
X108800000Y-139300000D01*
X108782500Y-139262500D02*
X108800000Y-139280000D01*
X109600000Y-140195000D02*
X109600000Y-140200000D01*
X109657500Y-140137500D02*
X109600000Y-140195000D01*
X109695000Y-139300000D02*
X109700000Y-139300000D01*
X109657500Y-139262500D02*
X109695000Y-139300000D01*
D29*
X114700000Y-139600000D02*
X114800000Y-139600000D01*
X103700000Y-138800000D02*
X103700000Y-138900000D01*
X120200000Y-129500000D02*
X120300000Y-129500000D01*
X119100000Y-129500000D02*
X119200000Y-129500000D01*
X113600000Y-116500000D02*
X113700000Y-116600000D01*
D28*
X49850000Y-110000000D02*
X49850000Y-110050000D01*
X49800000Y-109950000D02*
X49850000Y-110000000D01*
D30*
X70600000Y-110700000D02*
X64000000Y-110700000D01*
X52100000Y-121550000D02*
X58409990Y-115240010D01*
X58409990Y-115240010D02*
X58409990Y-113438453D01*
X58409990Y-113438453D02*
X61148443Y-110700000D01*
X61148443Y-110700000D02*
X64000000Y-110700000D01*
X52050000Y-121550000D02*
X43500000Y-130100000D01*
X52050000Y-121550000D02*
X52100000Y-121550000D01*
X43500000Y-130100000D02*
X43500000Y-132500000D01*
D26*
X45950000Y-134050000D02*
X50400000Y-134050000D01*
X56800000Y-132400000D02*
X53600000Y-132400000D01*
X53600000Y-132400000D02*
X51950000Y-134050000D01*
X51950000Y-134050000D02*
X50400000Y-134050000D01*
X45950000Y-134050000D02*
X44300000Y-135700000D01*
X63150000Y-144200000D02*
X48150000Y-144200000D01*
X48150000Y-144200000D02*
X44300000Y-140350000D01*
X44300000Y-140350000D02*
X44300000Y-135700000D01*
X69400000Y-144200000D02*
X63150000Y-144200000D01*
D31*
X105500000Y-133100000D02*
X105500000Y-132200000D01*
X106700000Y-134300000D02*
X105500000Y-133100000D01*
X108200000Y-134300000D02*
X106700000Y-134300000D01*
X110500000Y-132000000D02*
X108200000Y-134300000D01*
X113800000Y-132000000D02*
X110500000Y-132000000D01*
X105500000Y-132200000D02*
X102300000Y-132200000D01*
X99400000Y-140000000D02*
X98400000Y-141000000D01*
X99400000Y-135100000D02*
X99400000Y-140000000D01*
X102300000Y-132200000D02*
X99400000Y-135100000D01*
D30*
X117100000Y-143100000D02*
X117900000Y-143100000D01*
X116300000Y-142300000D02*
X117100000Y-143100000D01*
X116300000Y-127500000D02*
X116300000Y-142300000D01*
X115650000Y-126850000D02*
X116300000Y-127500000D01*
X113550000Y-126850000D02*
X115650000Y-126850000D01*
X106800000Y-120100000D02*
X113550000Y-126850000D01*
X106300000Y-120100000D02*
X106800000Y-120100000D01*
X106000000Y-119800000D02*
X106300000Y-120100000D01*
X106000000Y-118450000D02*
X106000000Y-119800000D01*
X106800000Y-119000000D02*
X111800000Y-119000000D01*
X111800000Y-119000000D02*
X118100000Y-125300000D01*
X118100000Y-125300000D02*
X120100000Y-125300000D01*
X120100000Y-125300000D02*
X122900000Y-128100000D01*
X122900000Y-128100000D02*
X122900000Y-129700000D01*
X62200000Y-115650000D02*
X62190000Y-115650000D01*
X62190000Y-115650000D02*
X62770000Y-115070000D01*
X61500000Y-116350000D02*
X62200000Y-115650000D01*
X59700000Y-116350000D02*
X61500000Y-116350000D01*
X58650000Y-117400000D02*
X59700000Y-116350000D01*
X58650000Y-137800000D02*
X58650000Y-117400000D01*
X57200000Y-139250000D02*
X58650000Y-137800000D01*
X70400000Y-119200000D02*
X76950000Y-125750000D01*
X80300000Y-125700000D02*
X79875736Y-125700000D01*
X79875736Y-125700000D02*
X79825736Y-125750000D01*
X79825736Y-125750000D02*
X76950000Y-125750000D01*
X70400000Y-115750000D02*
X70400000Y-119200000D01*
X70400000Y-115750000D02*
X68800000Y-114150000D01*
X74000000Y-108950000D02*
X68800000Y-114150000D01*
X86650000Y-108950000D02*
X74000000Y-108950000D01*
X88050000Y-110350000D02*
X86650000Y-108950000D01*
X62770000Y-115070000D02*
X62780000Y-115070000D01*
X62780000Y-115070000D02*
X64850000Y-113000000D01*
X64850000Y-113000000D02*
X67650000Y-113000000D01*
X67650000Y-113000000D02*
X68800000Y-114150000D01*
X83820000Y-149860000D02*
X83820000Y-132680000D01*
X74600000Y-112300000D02*
X74500000Y-112400000D01*
X85300000Y-112300000D02*
X74600000Y-112300000D01*
X93300000Y-120300000D02*
X85300000Y-112300000D01*
X93300000Y-123200000D02*
X93300000Y-120300000D01*
X83820000Y-132680000D02*
X93300000Y-123200000D01*
X74150000Y-118200000D02*
X75500000Y-116800000D01*
X75500000Y-116800000D02*
X88900000Y-116800000D01*
X88900000Y-116800000D02*
X92700000Y-120600000D01*
X92700000Y-120600000D02*
X92700000Y-122900000D01*
X92700000Y-122900000D02*
X83200000Y-132400000D01*
X83200000Y-132400000D02*
X83200000Y-147940000D01*
X83200000Y-147940000D02*
X81280000Y-149860000D01*
X94800000Y-126100000D02*
X93200000Y-124500000D01*
X88800000Y-121500000D02*
X88800000Y-119650000D01*
X80400000Y-121900000D02*
X80400000Y-121100000D01*
X80400000Y-121100000D02*
X83100000Y-118400000D01*
X90000000Y-122400000D02*
X91700000Y-120700000D01*
X88500000Y-122400000D02*
X90000000Y-122400000D01*
X87900000Y-121800000D02*
X88500000Y-122400000D01*
X84800000Y-121800000D02*
X87900000Y-121800000D01*
X84200000Y-122400000D02*
X84800000Y-121800000D01*
X82500000Y-124100000D02*
X84200000Y-122400000D01*
X81300000Y-122700000D02*
X80300000Y-123700000D01*
X81300000Y-122100000D02*
X81300000Y-122700000D01*
X82600000Y-120800000D02*
X81300000Y-122100000D01*
X85100000Y-118300000D02*
X82600000Y-120800000D01*
X79800000Y-126400000D02*
X72300000Y-126400000D01*
X80250000Y-126850000D02*
X79800000Y-126400000D01*
X79500000Y-125000000D02*
X79500000Y-125000000D01*
X71400000Y-113700000D02*
X73400000Y-115700000D01*
X73400000Y-115700000D02*
X73400000Y-118900000D01*
X79500000Y-125000000D02*
X73400000Y-118900000D01*
X79400000Y-125000000D02*
X79500000Y-125000000D01*
X59240000Y-146500000D02*
X55880000Y-149860000D01*
X70300000Y-146500000D02*
X59240000Y-146500000D01*
X71200000Y-145600000D02*
X70300000Y-146500000D01*
X71200000Y-144100000D02*
X71200000Y-145600000D01*
X71200000Y-136800000D02*
X71200000Y-144100000D01*
X68950000Y-128600000D02*
X68100000Y-128600000D01*
X75250000Y-128600000D02*
X76500000Y-127350000D01*
X68950000Y-128600000D02*
X75250000Y-128600000D01*
X64250000Y-114800000D02*
X64900000Y-114150000D01*
X64250000Y-124750000D02*
X64250000Y-114800000D01*
X68100000Y-128600000D02*
X64250000Y-124750000D01*
X57400000Y-145800000D02*
X53340000Y-149860000D01*
X70200000Y-145800000D02*
X57400000Y-145800000D01*
X70600000Y-145400000D02*
X70200000Y-145800000D01*
X70600000Y-137900000D02*
X70600000Y-145400000D01*
X70500000Y-137800000D02*
X70600000Y-137900000D01*
X70200000Y-137500000D02*
X70500000Y-137800000D01*
X65360000Y-148000000D02*
X63500000Y-149860000D01*
X70700000Y-148000000D02*
X65360000Y-148000000D01*
X72800000Y-145900000D02*
X70700000Y-148000000D01*
X72800000Y-134500000D02*
X72800000Y-145900000D01*
X74400000Y-132900000D02*
X72800000Y-134500000D01*
X60960000Y-149860000D02*
X60960000Y-149840000D01*
X60960000Y-149840000D02*
X63700000Y-147100000D01*
X63700000Y-147100000D02*
X70800000Y-147100000D01*
X70800000Y-147100000D02*
X72300000Y-145600000D01*
X72300000Y-145600000D02*
X72300000Y-132900000D01*
X66900000Y-115150000D02*
X65700000Y-113950000D01*
X66900000Y-125400000D02*
X66900000Y-115150000D01*
X68100000Y-126600000D02*
X66900000Y-125400000D01*
X68400000Y-115800000D02*
X68400000Y-115050000D01*
X68400000Y-115050000D02*
X67500000Y-114150000D01*
X67500000Y-114150000D02*
X67500000Y-114300000D01*
X68400000Y-117650000D02*
X68400000Y-125600000D01*
X68400000Y-117650000D02*
X68400000Y-115800000D01*
X68400000Y-115800000D02*
X68400000Y-115700000D01*
X67600000Y-115100000D02*
X67600000Y-125200000D01*
X66800000Y-114300000D02*
X67600000Y-115100000D01*
X66800000Y-113900000D02*
X66800000Y-114300000D01*
X66700000Y-113800000D02*
X66800000Y-113900000D01*
D32*
G36*
X37574044Y-103543334D02*
X40640000Y-106609289D01*
X43705956Y-103543334D01*
X43280020Y-103070000D01*
X47234665Y-103070000D01*
X47225079Y-103076405D01*
X46907810Y-103551231D01*
X46796400Y-104111326D01*
X46796400Y-104168674D01*
X46907810Y-104728769D01*
X47225079Y-105203595D01*
X47699905Y-105520864D01*
X47780834Y-105536962D01*
X47558304Y-105629134D01*
X47209569Y-105977654D01*
X47020752Y-106433099D01*
X47097385Y-106630000D01*
X48210000Y-106630000D01*
X48210000Y-106610000D01*
X48310000Y-106610000D01*
X48310000Y-106630000D01*
X49422615Y-106630000D01*
X49499248Y-106433099D01*
X49310431Y-105977654D01*
X48961696Y-105629134D01*
X48739166Y-105536962D01*
X48820095Y-105520864D01*
X49294921Y-105203595D01*
X49530000Y-104851775D01*
X49765079Y-105203595D01*
X50239905Y-105520864D01*
X50320834Y-105536962D01*
X50098304Y-105629134D01*
X49749569Y-105977654D01*
X49560752Y-106433099D01*
X49637385Y-106630000D01*
X50750000Y-106630000D01*
X50750000Y-106610000D01*
X50850000Y-106610000D01*
X50850000Y-106630000D01*
X51962615Y-106630000D01*
X52039248Y-106433099D01*
X51850431Y-105977654D01*
X51501696Y-105629134D01*
X51279166Y-105536962D01*
X51360095Y-105520864D01*
X51834921Y-105203595D01*
X52070000Y-104851775D01*
X52305079Y-105203595D01*
X52779905Y-105520864D01*
X52860834Y-105536962D01*
X52638304Y-105629134D01*
X52289569Y-105977654D01*
X52100752Y-106433099D01*
X52177385Y-106630000D01*
X53290000Y-106630000D01*
X53290000Y-106610000D01*
X53390000Y-106610000D01*
X53390000Y-106630000D01*
X54502615Y-106630000D01*
X54579248Y-106433099D01*
X54390431Y-105977654D01*
X54041696Y-105629134D01*
X53819166Y-105536962D01*
X53900095Y-105520864D01*
X54374921Y-105203595D01*
X54610000Y-104851775D01*
X54845079Y-105203595D01*
X55319905Y-105520864D01*
X55400834Y-105536962D01*
X55178304Y-105629134D01*
X54829569Y-105977654D01*
X54640752Y-106433099D01*
X54717385Y-106630000D01*
X55830000Y-106630000D01*
X55830000Y-106610000D01*
X55930000Y-106610000D01*
X55930000Y-106630000D01*
X57042615Y-106630000D01*
X57119248Y-106433099D01*
X56930431Y-105977654D01*
X56581696Y-105629134D01*
X56359166Y-105536962D01*
X56440095Y-105520864D01*
X56914921Y-105203595D01*
X57150000Y-104851775D01*
X57385079Y-105203595D01*
X57859905Y-105520864D01*
X57940834Y-105536962D01*
X57718304Y-105629134D01*
X57369569Y-105977654D01*
X57180752Y-106433099D01*
X57257385Y-106630000D01*
X58370000Y-106630000D01*
X58370000Y-106610000D01*
X58470000Y-106610000D01*
X58470000Y-106630000D01*
X59582615Y-106630000D01*
X59659248Y-106433099D01*
X59470431Y-105977654D01*
X59121696Y-105629134D01*
X58899166Y-105536962D01*
X58980095Y-105520864D01*
X59454921Y-105203595D01*
X59690000Y-104851775D01*
X59925079Y-105203595D01*
X60399905Y-105520864D01*
X60480834Y-105536962D01*
X60258304Y-105629134D01*
X59909569Y-105977654D01*
X59720752Y-106433099D01*
X59797385Y-106630000D01*
X60910000Y-106630000D01*
X60910000Y-106610000D01*
X61010000Y-106610000D01*
X61010000Y-106630000D01*
X62122615Y-106630000D01*
X62199248Y-106433099D01*
X62010431Y-105977654D01*
X61661696Y-105629134D01*
X61439166Y-105536962D01*
X61520095Y-105520864D01*
X61994921Y-105203595D01*
X62230000Y-104851775D01*
X62465079Y-105203595D01*
X62939905Y-105520864D01*
X63020834Y-105536962D01*
X62798304Y-105629134D01*
X62449569Y-105977654D01*
X62260752Y-106433099D01*
X62337385Y-106630000D01*
X63450000Y-106630000D01*
X63450000Y-106610000D01*
X63550000Y-106610000D01*
X63550000Y-106630000D01*
X64662615Y-106630000D01*
X64739248Y-106433099D01*
X64550431Y-105977654D01*
X64201696Y-105629134D01*
X63979166Y-105536962D01*
X64060095Y-105520864D01*
X64534921Y-105203595D01*
X64770000Y-104851775D01*
X65005079Y-105203595D01*
X65479905Y-105520864D01*
X65560834Y-105536962D01*
X65338304Y-105629134D01*
X64989569Y-105977654D01*
X64800752Y-106433099D01*
X64877385Y-106630000D01*
X65990000Y-106630000D01*
X65990000Y-106610000D01*
X66090000Y-106610000D01*
X66090000Y-106630000D01*
X67202615Y-106630000D01*
X67279248Y-106433099D01*
X67090431Y-105977654D01*
X66741696Y-105629134D01*
X66519166Y-105536962D01*
X66600095Y-105520864D01*
X67074921Y-105203595D01*
X67310000Y-104851775D01*
X67545079Y-105203595D01*
X68019905Y-105520864D01*
X68100834Y-105536962D01*
X67878304Y-105629134D01*
X67529569Y-105977654D01*
X67340752Y-106433099D01*
X67417385Y-106630000D01*
X68530000Y-106630000D01*
X68530000Y-106610000D01*
X68630000Y-106610000D01*
X68630000Y-106630000D01*
X68650000Y-106630000D01*
X68650000Y-106730000D01*
X68630000Y-106730000D01*
X68630000Y-107842525D01*
X68826900Y-107919243D01*
X69281696Y-107730866D01*
X69630431Y-107382346D01*
X69738534Y-107121590D01*
X69767810Y-107268769D01*
X70085079Y-107743595D01*
X70559905Y-108060864D01*
X71120000Y-108172274D01*
X71680095Y-108060864D01*
X72154921Y-107743595D01*
X72472190Y-107268769D01*
X72559466Y-106830000D01*
X77476400Y-106830000D01*
X77476400Y-107775565D01*
X77537296Y-107922582D01*
X77649818Y-108035104D01*
X77796835Y-108096000D01*
X78590000Y-108096000D01*
X78690000Y-107996000D01*
X78690000Y-106730000D01*
X78790000Y-106730000D01*
X78790000Y-107996000D01*
X78890000Y-108096000D01*
X79683165Y-108096000D01*
X79830182Y-108035104D01*
X79942704Y-107922582D01*
X80003600Y-107775565D01*
X80003600Y-106830000D01*
X79903600Y-106730000D01*
X80016400Y-106730000D01*
X80016400Y-106882400D01*
X80131720Y-107362153D01*
X80421855Y-107761256D01*
X80842635Y-108018949D01*
X81033100Y-108071643D01*
X81230000Y-107994925D01*
X81230000Y-106730000D01*
X80016400Y-106730000D01*
X79903600Y-106730000D01*
X78790000Y-106730000D01*
X78690000Y-106730000D01*
X77576400Y-106730000D01*
X77476400Y-106830000D01*
X72559466Y-106830000D01*
X72583600Y-106708674D01*
X72583600Y-106651326D01*
X72472190Y-106091231D01*
X72154921Y-105616405D01*
X72114408Y-105589335D01*
X72139041Y-105584435D01*
X77476400Y-105584435D01*
X77476400Y-106530000D01*
X77576400Y-106630000D01*
X78690000Y-106630000D01*
X78690000Y-105364000D01*
X78790000Y-105364000D01*
X78790000Y-106630000D01*
X79903600Y-106630000D01*
X80003600Y-106530000D01*
X80003600Y-106477600D01*
X80016400Y-106477600D01*
X80016400Y-106630000D01*
X81230000Y-106630000D01*
X81230000Y-105365075D01*
X81033100Y-105288357D01*
X80842635Y-105341051D01*
X80421855Y-105598744D01*
X80131720Y-105997847D01*
X80016400Y-106477600D01*
X80003600Y-106477600D01*
X80003600Y-105584435D01*
X79942704Y-105437418D01*
X79830182Y-105324896D01*
X79683165Y-105264000D01*
X78890000Y-105264000D01*
X78790000Y-105364000D01*
X78690000Y-105364000D01*
X78590000Y-105264000D01*
X77796835Y-105264000D01*
X77649818Y-105324896D01*
X77537296Y-105437418D01*
X77476400Y-105584435D01*
X72139041Y-105584435D01*
X72217708Y-105568787D01*
X72416175Y-105436175D01*
X72548787Y-105237708D01*
X72595354Y-105003600D01*
X72595354Y-103276400D01*
X72554298Y-103070000D01*
X129439980Y-103070000D01*
X129014044Y-103543334D01*
X132080000Y-106609289D01*
X135145956Y-103543334D01*
X134720020Y-103070000D01*
X135690000Y-103070000D01*
X135690000Y-104039980D01*
X135216666Y-103614044D01*
X132150711Y-106680000D01*
X135216666Y-109745956D01*
X135690000Y-109320020D01*
X135690000Y-110786912D01*
X135023467Y-110500258D01*
X134431057Y-110492286D01*
X134466520Y-110478752D01*
X134676308Y-110338576D01*
X135145956Y-109816666D01*
X132080000Y-106750711D01*
X129014044Y-109816666D01*
X129483692Y-110338576D01*
X129841889Y-110498891D01*
X129187668Y-110490087D01*
X128485509Y-110769921D01*
X128442159Y-110798886D01*
X128276724Y-111061013D01*
X129540000Y-112324289D01*
X130803276Y-111061013D01*
X130687310Y-110877268D01*
X131081401Y-111053648D01*
X132831137Y-111102871D01*
X133488682Y-110851929D01*
X133356724Y-111061013D01*
X134620000Y-112324289D01*
X134634142Y-112310147D01*
X134704853Y-112380858D01*
X134690711Y-112395000D01*
X134704853Y-112409142D01*
X134634142Y-112479853D01*
X134620000Y-112465711D01*
X134605858Y-112479853D01*
X134535147Y-112409142D01*
X134549289Y-112395000D01*
X133286013Y-111131724D01*
X133023886Y-111297159D01*
X132725258Y-111991533D01*
X132715087Y-112747332D01*
X132903290Y-113219571D01*
X132459591Y-113035331D01*
X131703725Y-113034671D01*
X131253078Y-113220874D01*
X131434742Y-112798467D01*
X131444913Y-112042668D01*
X131165079Y-111340509D01*
X131136114Y-111297159D01*
X130873987Y-111131724D01*
X129610711Y-112395000D01*
X129624853Y-112409142D01*
X129554142Y-112479853D01*
X129540000Y-112465711D01*
X128276724Y-113728987D01*
X128442159Y-113991114D01*
X129136533Y-114289742D01*
X129892332Y-114299913D01*
X130364571Y-114111710D01*
X130180331Y-114555409D01*
X130179671Y-115311275D01*
X130365874Y-115761922D01*
X129943467Y-115580258D01*
X129187668Y-115570087D01*
X128485509Y-115849921D01*
X128442159Y-115878886D01*
X128276724Y-116141013D01*
X129540000Y-117404289D01*
X129554142Y-117390147D01*
X129624853Y-117460858D01*
X129610711Y-117475000D01*
X130873987Y-118738276D01*
X131136114Y-118572841D01*
X131434742Y-117878467D01*
X131444913Y-117122668D01*
X131256710Y-116650429D01*
X131700409Y-116834669D01*
X132456275Y-116835329D01*
X132906922Y-116649126D01*
X132725258Y-117071533D01*
X132715087Y-117827332D01*
X132994921Y-118529491D01*
X133023886Y-118572841D01*
X133286013Y-118738276D01*
X134549289Y-117475000D01*
X134535147Y-117460858D01*
X134605858Y-117390147D01*
X134620000Y-117404289D01*
X134634142Y-117390147D01*
X134704853Y-117460858D01*
X134690711Y-117475000D01*
X134704853Y-117489142D01*
X134634142Y-117559853D01*
X134620000Y-117545711D01*
X133356724Y-118808987D01*
X133522159Y-119071114D01*
X134216533Y-119369742D01*
X134972332Y-119379913D01*
X135674491Y-119100079D01*
X135690000Y-119089716D01*
X135690000Y-133011912D01*
X135023467Y-132725258D01*
X134267668Y-132715087D01*
X133565509Y-132994921D01*
X133522159Y-133023886D01*
X133356724Y-133286013D01*
X134620000Y-134549289D01*
X134634142Y-134535147D01*
X134704853Y-134605858D01*
X134690711Y-134620000D01*
X134704853Y-134634142D01*
X134634142Y-134704853D01*
X134620000Y-134690711D01*
X134605858Y-134704853D01*
X134535147Y-134634142D01*
X134549289Y-134620000D01*
X133286013Y-133356724D01*
X133023886Y-133522159D01*
X132725258Y-134216533D01*
X132715087Y-134972332D01*
X132903290Y-135444571D01*
X132459591Y-135260331D01*
X131703725Y-135259671D01*
X131253078Y-135445874D01*
X131434742Y-135023467D01*
X131444913Y-134267668D01*
X131165079Y-133565509D01*
X131136114Y-133522159D01*
X130873987Y-133356724D01*
X129610711Y-134620000D01*
X129624853Y-134634142D01*
X129554142Y-134704853D01*
X129540000Y-134690711D01*
X128276724Y-135953987D01*
X128442159Y-136216114D01*
X129136533Y-136514742D01*
X129892332Y-136524913D01*
X130364571Y-136336710D01*
X130180331Y-136780409D01*
X130179671Y-137536275D01*
X130365874Y-137986922D01*
X129943467Y-137805258D01*
X129187668Y-137795087D01*
X128485509Y-138074921D01*
X128442159Y-138103886D01*
X128276724Y-138366013D01*
X129540000Y-139629289D01*
X129554142Y-139615147D01*
X129624853Y-139685858D01*
X129610711Y-139700000D01*
X130873987Y-140963276D01*
X131136114Y-140797841D01*
X131434742Y-140103467D01*
X131444913Y-139347668D01*
X131256710Y-138875429D01*
X131700409Y-139059669D01*
X132456275Y-139060329D01*
X132906922Y-138874126D01*
X132725258Y-139296533D01*
X132715087Y-140052332D01*
X132994921Y-140754491D01*
X133023886Y-140797841D01*
X133286013Y-140963276D01*
X134549289Y-139700000D01*
X134535147Y-139685858D01*
X134605858Y-139615147D01*
X134620000Y-139629289D01*
X134634142Y-139615147D01*
X134704853Y-139685858D01*
X134690711Y-139700000D01*
X134704853Y-139714142D01*
X134634142Y-139784853D01*
X134620000Y-139770711D01*
X133356724Y-141033987D01*
X133522159Y-141296114D01*
X134216533Y-141594742D01*
X134972332Y-141604913D01*
X135674491Y-141325079D01*
X135690000Y-141314716D01*
X135690000Y-144679980D01*
X135216666Y-144254044D01*
X132150711Y-147320000D01*
X135216666Y-150385956D01*
X135690000Y-149960020D01*
X135690000Y-150930000D01*
X134720020Y-150930000D01*
X135145956Y-150456666D01*
X132080000Y-147390711D01*
X129014044Y-150456666D01*
X129439980Y-150930000D01*
X92703600Y-150930000D01*
X92703600Y-150010000D01*
X92603600Y-149910000D01*
X91490000Y-149910000D01*
X91490000Y-149930000D01*
X91390000Y-149930000D01*
X91390000Y-149910000D01*
X91370000Y-149910000D01*
X91370000Y-149810000D01*
X91390000Y-149810000D01*
X91390000Y-148544000D01*
X91490000Y-148544000D01*
X91490000Y-149810000D01*
X92603600Y-149810000D01*
X92703600Y-149710000D01*
X92703600Y-148764435D01*
X92642704Y-148617418D01*
X92530182Y-148504896D01*
X92383165Y-148444000D01*
X91590000Y-148444000D01*
X91490000Y-148544000D01*
X91390000Y-148544000D01*
X91290000Y-148444000D01*
X90496835Y-148444000D01*
X90349818Y-148504896D01*
X90237296Y-148617418D01*
X90176400Y-148764435D01*
X90176400Y-149002418D01*
X89934921Y-148641020D01*
X89460095Y-148323751D01*
X88900000Y-148212341D01*
X88339905Y-148323751D01*
X87865079Y-148641020D01*
X87630000Y-148992840D01*
X87394921Y-148641020D01*
X86920095Y-148323751D01*
X86360000Y-148212341D01*
X85799905Y-148323751D01*
X85325079Y-148641020D01*
X85090000Y-148992840D01*
X84854921Y-148641020D01*
X84520000Y-148417233D01*
X84520000Y-148071137D01*
X127657129Y-148071137D01*
X128281248Y-149706520D01*
X128421424Y-149916308D01*
X128943334Y-150385956D01*
X132009289Y-147320000D01*
X128943334Y-144254044D01*
X128421424Y-144723692D01*
X127706352Y-146321401D01*
X127657129Y-148071137D01*
X84520000Y-148071137D01*
X84520000Y-144183334D01*
X129014044Y-144183334D01*
X132080000Y-147249289D01*
X135145956Y-144183334D01*
X134676308Y-143661424D01*
X133078599Y-142946352D01*
X131328863Y-142897129D01*
X129693480Y-143521248D01*
X129483692Y-143661424D01*
X129014044Y-144183334D01*
X84520000Y-144183334D01*
X84520000Y-141217844D01*
X97299810Y-141217844D01*
X97466922Y-141622286D01*
X97776087Y-141931991D01*
X98180237Y-142099808D01*
X98617844Y-142100190D01*
X99022286Y-141933078D01*
X99331991Y-141623913D01*
X99332183Y-141623452D01*
X100177818Y-140777817D01*
X100416268Y-140420951D01*
X100500000Y-140000000D01*
X100500000Y-135555634D01*
X102755635Y-133300000D01*
X104439783Y-133300000D01*
X104483733Y-133520952D01*
X104670350Y-133800243D01*
X104722183Y-133877817D01*
X105922182Y-135077817D01*
X106080164Y-135183377D01*
X106279048Y-135316267D01*
X106700000Y-135400000D01*
X108200000Y-135400000D01*
X108620952Y-135316267D01*
X108977817Y-135077817D01*
X110955635Y-133100000D01*
X113800001Y-133100000D01*
X114017844Y-133100190D01*
X114422286Y-132933078D01*
X114731991Y-132623913D01*
X114899808Y-132219763D01*
X114900190Y-131782156D01*
X114733078Y-131377714D01*
X114423913Y-131068009D01*
X114019763Y-130900192D01*
X113800001Y-130900000D01*
X113799814Y-130900000D01*
X113582156Y-130899810D01*
X113581696Y-130900000D01*
X110500000Y-130900000D01*
X110079048Y-130983733D01*
X109905327Y-131099810D01*
X109722182Y-131222183D01*
X107744366Y-133200000D01*
X107155635Y-133200000D01*
X106600000Y-132644366D01*
X106600000Y-132199999D01*
X106600190Y-131982156D01*
X106433078Y-131577714D01*
X106123913Y-131268009D01*
X105719763Y-131100192D01*
X105500001Y-131100000D01*
X105499814Y-131100000D01*
X105282156Y-131099810D01*
X105281696Y-131100000D01*
X102300000Y-131100000D01*
X101879048Y-131183733D01*
X101522182Y-131422183D01*
X101200049Y-131744316D01*
X101200173Y-131601960D01*
X101048253Y-131234286D01*
X100767194Y-130952736D01*
X100399785Y-130800174D01*
X100001960Y-130799827D01*
X99634286Y-130951747D01*
X99352736Y-131232806D01*
X99200174Y-131600215D01*
X99199827Y-131998040D01*
X99351747Y-132365714D01*
X99632806Y-132647264D01*
X100000215Y-132799826D01*
X100144414Y-132799952D01*
X98622183Y-134322183D01*
X98383733Y-134679048D01*
X98300000Y-135100000D01*
X98300000Y-139544365D01*
X97622861Y-140221505D01*
X97468009Y-140376087D01*
X97300192Y-140780237D01*
X97299810Y-141217844D01*
X84520000Y-141217844D01*
X84520000Y-132969950D01*
X88591909Y-128898040D01*
X110799827Y-128898040D01*
X110951747Y-129265714D01*
X111232806Y-129547264D01*
X111600215Y-129699826D01*
X111998040Y-129700173D01*
X112365714Y-129548253D01*
X112647264Y-129267194D01*
X112799826Y-128899785D01*
X112800173Y-128501960D01*
X112648253Y-128134286D01*
X112367194Y-127852736D01*
X111999785Y-127700174D01*
X111601960Y-127699827D01*
X111234286Y-127851747D01*
X110952736Y-128132806D01*
X110800174Y-128500215D01*
X110799827Y-128898040D01*
X88591909Y-128898040D01*
X92458670Y-125031279D01*
X92689525Y-125262538D01*
X93020194Y-125399843D01*
X93109971Y-125399921D01*
X93899921Y-126189871D01*
X93899844Y-126278236D01*
X94036572Y-126609143D01*
X94289525Y-126862538D01*
X94620194Y-126999843D01*
X94978236Y-127000156D01*
X95309143Y-126863428D01*
X95562538Y-126610475D01*
X95699843Y-126279806D01*
X95700156Y-125921764D01*
X95563428Y-125590857D01*
X95310475Y-125337462D01*
X94979806Y-125200157D01*
X94890029Y-125200079D01*
X94100079Y-124410129D01*
X94100156Y-124321764D01*
X93963428Y-123990857D01*
X93731463Y-123758486D01*
X93794972Y-123694977D01*
X93794975Y-123694975D01*
X93911760Y-123520194D01*
X93946716Y-123467879D01*
X94000001Y-123200000D01*
X94000000Y-123199995D01*
X94000000Y-120300000D01*
X93946716Y-120032122D01*
X93794975Y-119805025D01*
X93794972Y-119805023D01*
X92618186Y-118628236D01*
X105099844Y-118628236D01*
X105236572Y-118959143D01*
X105300000Y-119022682D01*
X105300000Y-119800000D01*
X105353284Y-120067879D01*
X105505025Y-120294975D01*
X105805025Y-120594975D01*
X106032121Y-120746716D01*
X106300000Y-120800000D01*
X106510050Y-120800000D01*
X113055023Y-127344972D01*
X113055025Y-127344975D01*
X113137376Y-127400000D01*
X113282121Y-127496716D01*
X113550000Y-127550001D01*
X113550005Y-127550000D01*
X115360050Y-127550000D01*
X115600000Y-127789950D01*
X115600000Y-142300000D01*
X115653284Y-142567879D01*
X115805025Y-142794975D01*
X116605025Y-143594975D01*
X116832121Y-143746716D01*
X117100000Y-143800000D01*
X117327096Y-143800000D01*
X117389525Y-143862538D01*
X117720194Y-143999843D01*
X118078236Y-144000156D01*
X118409143Y-143863428D01*
X118662538Y-143610475D01*
X118799843Y-143279806D01*
X118800156Y-142921764D01*
X118663428Y-142590857D01*
X118410475Y-142337462D01*
X118079806Y-142200157D01*
X117721764Y-142199844D01*
X117390857Y-142336572D01*
X117358661Y-142368711D01*
X117184522Y-142194572D01*
X118876139Y-142194572D01*
X119102430Y-142508656D01*
X119977493Y-142890583D01*
X120932103Y-142908566D01*
X121820929Y-142559866D01*
X121897570Y-142508656D01*
X122123861Y-142194572D01*
X120500000Y-140570711D01*
X118876139Y-142194572D01*
X117184522Y-142194572D01*
X117000000Y-142010050D01*
X117000000Y-140932103D01*
X118091434Y-140932103D01*
X118440134Y-141820929D01*
X118491344Y-141897570D01*
X118805428Y-142123861D01*
X120429289Y-140500000D01*
X120570711Y-140500000D01*
X122194572Y-142123861D01*
X122508656Y-141897570D01*
X122885572Y-141033987D01*
X128276724Y-141033987D01*
X128442159Y-141296114D01*
X129136533Y-141594742D01*
X129892332Y-141604913D01*
X130594491Y-141325079D01*
X130637841Y-141296114D01*
X130803276Y-141033987D01*
X129540000Y-139770711D01*
X128276724Y-141033987D01*
X122885572Y-141033987D01*
X122890583Y-141022507D01*
X122908566Y-140067897D01*
X122902460Y-140052332D01*
X127635087Y-140052332D01*
X127914921Y-140754491D01*
X127943886Y-140797841D01*
X128206013Y-140963276D01*
X129469289Y-139700000D01*
X128206013Y-138436724D01*
X127943886Y-138602159D01*
X127645258Y-139296533D01*
X127635087Y-140052332D01*
X122902460Y-140052332D01*
X122559866Y-139179071D01*
X122508656Y-139102430D01*
X122194572Y-138876139D01*
X120570711Y-140500000D01*
X120429289Y-140500000D01*
X118805428Y-138876139D01*
X118491344Y-139102430D01*
X118109417Y-139977493D01*
X118091434Y-140932103D01*
X117000000Y-140932103D01*
X117000000Y-138805428D01*
X118876139Y-138805428D01*
X120500000Y-140429289D01*
X122123861Y-138805428D01*
X121897570Y-138491344D01*
X121022507Y-138109417D01*
X120067897Y-138091434D01*
X119179071Y-138440134D01*
X119102430Y-138491344D01*
X118876139Y-138805428D01*
X117000000Y-138805428D01*
X117000000Y-134972332D01*
X127635087Y-134972332D01*
X127914921Y-135674491D01*
X127943886Y-135717841D01*
X128206013Y-135883276D01*
X129469289Y-134620000D01*
X128206013Y-133356724D01*
X127943886Y-133522159D01*
X127645258Y-134216533D01*
X127635087Y-134972332D01*
X117000000Y-134972332D01*
X117000000Y-133286013D01*
X128276724Y-133286013D01*
X129540000Y-134549289D01*
X130803276Y-133286013D01*
X130637841Y-133023886D01*
X129943467Y-132725258D01*
X129187668Y-132715087D01*
X128485509Y-132994921D01*
X128442159Y-133023886D01*
X128276724Y-133286013D01*
X117000000Y-133286013D01*
X117000000Y-127500000D01*
X116960218Y-127300000D01*
X116946716Y-127232121D01*
X116794975Y-127005025D01*
X116144975Y-126355025D01*
X115917879Y-126203284D01*
X115650000Y-126150000D01*
X113839949Y-126150000D01*
X107452034Y-119762084D01*
X107514226Y-119700000D01*
X111510050Y-119700000D01*
X117605023Y-125794972D01*
X117605025Y-125794975D01*
X117832122Y-125946716D01*
X118100000Y-126000000D01*
X119810050Y-126000000D01*
X122200000Y-128389950D01*
X122200000Y-128985774D01*
X122067194Y-128852736D01*
X121699785Y-128700174D01*
X121301960Y-128699827D01*
X120934286Y-128851747D01*
X120652736Y-129132806D01*
X120500174Y-129500215D01*
X120499827Y-129898040D01*
X120651747Y-130265714D01*
X120932806Y-130547264D01*
X121300215Y-130699826D01*
X121698040Y-130700173D01*
X122065714Y-130548253D01*
X122199988Y-130414214D01*
X122332806Y-130547264D01*
X122700215Y-130699826D01*
X123098040Y-130700173D01*
X123465714Y-130548253D01*
X123747264Y-130267194D01*
X123899826Y-129899785D01*
X123900173Y-129501960D01*
X123748253Y-129134286D01*
X123600000Y-128985774D01*
X123600000Y-128100000D01*
X123552091Y-127859143D01*
X123546716Y-127832121D01*
X123394975Y-127605025D01*
X120594975Y-124805025D01*
X120367879Y-124653284D01*
X120100000Y-124600000D01*
X118389949Y-124600000D01*
X112598937Y-118808987D01*
X128276724Y-118808987D01*
X128442159Y-119071114D01*
X129136533Y-119369742D01*
X129892332Y-119379913D01*
X130594491Y-119100079D01*
X130637841Y-119071114D01*
X130803276Y-118808987D01*
X129540000Y-117545711D01*
X128276724Y-118808987D01*
X112598937Y-118808987D01*
X112294975Y-118505025D01*
X112067879Y-118353284D01*
X111800000Y-118300000D01*
X107514201Y-118300000D01*
X107367194Y-118152736D01*
X106999785Y-118000174D01*
X106787861Y-117999989D01*
X106763428Y-117940857D01*
X106650102Y-117827332D01*
X127635087Y-117827332D01*
X127914921Y-118529491D01*
X127943886Y-118572841D01*
X128206013Y-118738276D01*
X129469289Y-117475000D01*
X128206013Y-116211724D01*
X127943886Y-116377159D01*
X127645258Y-117071533D01*
X127635087Y-117827332D01*
X106650102Y-117827332D01*
X106510475Y-117687462D01*
X106179806Y-117550157D01*
X105821764Y-117549844D01*
X105490857Y-117686572D01*
X105237462Y-117939525D01*
X105100157Y-118270194D01*
X105099844Y-118628236D01*
X92618186Y-118628236D01*
X90184522Y-116194572D01*
X118876139Y-116194572D01*
X119102430Y-116508656D01*
X119977493Y-116890583D01*
X120932103Y-116908566D01*
X121820929Y-116559866D01*
X121897570Y-116508656D01*
X122123861Y-116194572D01*
X120500000Y-114570711D01*
X118876139Y-116194572D01*
X90184522Y-116194572D01*
X88922053Y-114932103D01*
X118091434Y-114932103D01*
X118440134Y-115820929D01*
X118491344Y-115897570D01*
X118805428Y-116123861D01*
X120429289Y-114500000D01*
X120570711Y-114500000D01*
X122194572Y-116123861D01*
X122508656Y-115897570D01*
X122890583Y-115022507D01*
X122908566Y-114067897D01*
X122559866Y-113179071D01*
X122508656Y-113102430D01*
X122194572Y-112876139D01*
X120570711Y-114500000D01*
X120429289Y-114500000D01*
X118805428Y-112876139D01*
X118491344Y-113102430D01*
X118109417Y-113977493D01*
X118091434Y-114932103D01*
X88922053Y-114932103D01*
X86795378Y-112805428D01*
X118876139Y-112805428D01*
X120500000Y-114429289D01*
X122123861Y-112805428D01*
X122082005Y-112747332D01*
X127635087Y-112747332D01*
X127914921Y-113449491D01*
X127943886Y-113492841D01*
X128206013Y-113658276D01*
X129469289Y-112395000D01*
X128206013Y-111131724D01*
X127943886Y-111297159D01*
X127645258Y-111991533D01*
X127635087Y-112747332D01*
X122082005Y-112747332D01*
X121897570Y-112491344D01*
X121022507Y-112109417D01*
X120067897Y-112091434D01*
X119179071Y-112440134D01*
X119102430Y-112491344D01*
X118876139Y-112805428D01*
X86795378Y-112805428D01*
X85794975Y-111805025D01*
X85567879Y-111653284D01*
X85300000Y-111600000D01*
X74920256Y-111600000D01*
X74679806Y-111500157D01*
X74321764Y-111499844D01*
X73990857Y-111636572D01*
X73737462Y-111889525D01*
X73600157Y-112220194D01*
X73599844Y-112578236D01*
X73736572Y-112909143D01*
X73989525Y-113162538D01*
X74320194Y-113299843D01*
X74678236Y-113300156D01*
X75009143Y-113163428D01*
X75172857Y-113000000D01*
X85010050Y-113000000D01*
X88110050Y-116100000D01*
X75500000Y-116100000D01*
X75493650Y-116101263D01*
X75487275Y-116100115D01*
X75359930Y-116127862D01*
X75232122Y-116153284D01*
X75226737Y-116156882D01*
X75220409Y-116158261D01*
X75113389Y-116232619D01*
X75005025Y-116305025D01*
X75001427Y-116310410D01*
X74996109Y-116314105D01*
X74100000Y-117243403D01*
X74100000Y-115700000D01*
X74056662Y-115482122D01*
X74046716Y-115432121D01*
X73894975Y-115205025D01*
X72300079Y-113610129D01*
X72300156Y-113521764D01*
X72163428Y-113190857D01*
X71910475Y-112937462D01*
X71579806Y-112800157D01*
X71221764Y-112799844D01*
X71082607Y-112857342D01*
X74289949Y-109650000D01*
X86360050Y-109650000D01*
X87149921Y-110439871D01*
X87149844Y-110528236D01*
X87286572Y-110859143D01*
X87539525Y-111112538D01*
X87870194Y-111249843D01*
X88228236Y-111250156D01*
X88559143Y-111113428D01*
X88812538Y-110860475D01*
X88949843Y-110529806D01*
X88950133Y-110198040D01*
X98999827Y-110198040D01*
X99151747Y-110565714D01*
X99432806Y-110847264D01*
X99800215Y-110999826D01*
X100198040Y-111000173D01*
X100565714Y-110848253D01*
X100847264Y-110567194D01*
X100999826Y-110199785D01*
X101000173Y-109801960D01*
X100848253Y-109434286D01*
X100567194Y-109152736D01*
X100199785Y-109000174D01*
X99801960Y-108999827D01*
X99434286Y-109151747D01*
X99152736Y-109432806D01*
X99000174Y-109800215D01*
X98999827Y-110198040D01*
X88950133Y-110198040D01*
X88950156Y-110171764D01*
X88813428Y-109840857D01*
X88560475Y-109587462D01*
X88229806Y-109450157D01*
X88140029Y-109450079D01*
X87144975Y-108455025D01*
X86917879Y-108303284D01*
X86700209Y-108259987D01*
X86920095Y-108216249D01*
X87394921Y-107898980D01*
X87630000Y-107547160D01*
X87865079Y-107898980D01*
X88339905Y-108216249D01*
X88900000Y-108327659D01*
X89460095Y-108216249D01*
X89934921Y-107898980D01*
X90170000Y-107547160D01*
X90405079Y-107898980D01*
X90879905Y-108216249D01*
X91440000Y-108327659D01*
X92000095Y-108216249D01*
X92474921Y-107898980D01*
X92787524Y-107431137D01*
X127657129Y-107431137D01*
X128281248Y-109066520D01*
X128421424Y-109276308D01*
X128943334Y-109745956D01*
X132009289Y-106680000D01*
X128943334Y-103614044D01*
X128421424Y-104083692D01*
X127706352Y-105681401D01*
X127657129Y-107431137D01*
X92787524Y-107431137D01*
X92792190Y-107424154D01*
X92903600Y-106864059D01*
X92903600Y-106495941D01*
X92792190Y-105935846D01*
X92474921Y-105461020D01*
X92000095Y-105143751D01*
X91440000Y-105032341D01*
X90879905Y-105143751D01*
X90405079Y-105461020D01*
X90170000Y-105812840D01*
X89934921Y-105461020D01*
X89460095Y-105143751D01*
X88900000Y-105032341D01*
X88339905Y-105143751D01*
X87865079Y-105461020D01*
X87630000Y-105812840D01*
X87394921Y-105461020D01*
X86920095Y-105143751D01*
X86360000Y-105032341D01*
X85799905Y-105143751D01*
X85325079Y-105461020D01*
X85090000Y-105812840D01*
X84854921Y-105461020D01*
X84380095Y-105143751D01*
X83820000Y-105032341D01*
X83259905Y-105143751D01*
X82785079Y-105461020D01*
X82467810Y-105935846D01*
X82443162Y-106059759D01*
X82428280Y-105997847D01*
X82138145Y-105598744D01*
X81717365Y-105341051D01*
X81526900Y-105288357D01*
X81330000Y-105365075D01*
X81330000Y-106630000D01*
X81350000Y-106630000D01*
X81350000Y-106730000D01*
X81330000Y-106730000D01*
X81330000Y-107994925D01*
X81526900Y-108071643D01*
X81717365Y-108018949D01*
X82138145Y-107761256D01*
X82428280Y-107362153D01*
X82443162Y-107300241D01*
X82467810Y-107424154D01*
X82785079Y-107898980D01*
X83259905Y-108216249D01*
X83429582Y-108250000D01*
X74000005Y-108250000D01*
X74000000Y-108249999D01*
X73732121Y-108303284D01*
X73662206Y-108350000D01*
X73505025Y-108455025D01*
X73505023Y-108455028D01*
X72616352Y-109343699D01*
X72410475Y-109137462D01*
X72079806Y-109000157D01*
X71721764Y-108999844D01*
X71390857Y-109136572D01*
X71137462Y-109389525D01*
X71000157Y-109720194D01*
X71000102Y-109783353D01*
X70799785Y-109700174D01*
X70401960Y-109699827D01*
X70034286Y-109851747D01*
X69899925Y-109985874D01*
X69900156Y-109721764D01*
X69763428Y-109390857D01*
X69510475Y-109137462D01*
X69179806Y-109000157D01*
X68821764Y-108999844D01*
X68490857Y-109136572D01*
X68237462Y-109389525D01*
X68100157Y-109720194D01*
X68099912Y-110000000D01*
X64899913Y-110000000D01*
X64900156Y-109721764D01*
X64763428Y-109390857D01*
X64510475Y-109137462D01*
X64179806Y-109000157D01*
X63821764Y-108999844D01*
X63490857Y-109136572D01*
X63237462Y-109389525D01*
X63100157Y-109720194D01*
X63099912Y-110000000D01*
X61899913Y-110000000D01*
X61900156Y-109721764D01*
X61763428Y-109390857D01*
X61510475Y-109137462D01*
X61179806Y-109000157D01*
X60821764Y-108999844D01*
X60490857Y-109136572D01*
X60237462Y-109389525D01*
X60100157Y-109720194D01*
X60099844Y-110078236D01*
X60236572Y-110409143D01*
X60342869Y-110515625D01*
X57915015Y-112943478D01*
X57763274Y-113170574D01*
X57737561Y-113299843D01*
X57709990Y-113438453D01*
X57709990Y-114950061D01*
X51705709Y-120954341D01*
X51555025Y-121055025D01*
X43005025Y-129605025D01*
X42853284Y-129832121D01*
X42815319Y-130022987D01*
X42800000Y-130100000D01*
X42800000Y-131785799D01*
X42652736Y-131932806D01*
X42500174Y-132300215D01*
X42499827Y-132698040D01*
X42651747Y-133065714D01*
X42932806Y-133347264D01*
X43300215Y-133499826D01*
X43698040Y-133500173D01*
X44065714Y-133348253D01*
X44347264Y-133067194D01*
X44499826Y-132699785D01*
X44500173Y-132301960D01*
X44348253Y-131934286D01*
X44200000Y-131785774D01*
X44200000Y-130389950D01*
X52444291Y-122145659D01*
X52594975Y-122044975D01*
X58904962Y-115734987D01*
X58904965Y-115734985D01*
X58912093Y-115724317D01*
X59081780Y-115978270D01*
X58155025Y-116905025D01*
X58003284Y-117132121D01*
X58003284Y-117132122D01*
X57950000Y-117400000D01*
X57950000Y-131570379D01*
X57594072Y-131213830D01*
X57079699Y-131000243D01*
X56522744Y-130999757D01*
X56401147Y-131050000D01*
X53600000Y-131050000D01*
X53083377Y-131152763D01*
X52749149Y-131376087D01*
X52645406Y-131445406D01*
X51390812Y-132700000D01*
X45950000Y-132700000D01*
X45433377Y-132802763D01*
X45145712Y-132994975D01*
X44995406Y-133095406D01*
X43345406Y-134745406D01*
X43203644Y-134957568D01*
X43198556Y-134962647D01*
X43195775Y-134969345D01*
X43052763Y-135183377D01*
X43002982Y-135433641D01*
X43000226Y-135440279D01*
X43000220Y-135447529D01*
X42950000Y-135700000D01*
X42950000Y-140350000D01*
X43052763Y-140866623D01*
X43288724Y-141219763D01*
X43345406Y-141304594D01*
X47195406Y-145154594D01*
X47633377Y-145447237D01*
X48150000Y-145550000D01*
X56660050Y-145550000D01*
X53888588Y-148321462D01*
X53340000Y-148212341D01*
X52779905Y-148323751D01*
X52305079Y-148641020D01*
X51987810Y-149115846D01*
X51963162Y-149239759D01*
X51948280Y-149177847D01*
X51658145Y-148778744D01*
X51237365Y-148521051D01*
X51046900Y-148468357D01*
X50850000Y-148545075D01*
X50850000Y-149810000D01*
X50870000Y-149810000D01*
X50870000Y-149910000D01*
X50850000Y-149910000D01*
X50850000Y-149930000D01*
X50750000Y-149930000D01*
X50750000Y-149910000D01*
X50730000Y-149910000D01*
X50730000Y-149810000D01*
X50750000Y-149810000D01*
X50750000Y-148545075D01*
X50553100Y-148468357D01*
X50362635Y-148521051D01*
X49941855Y-148778744D01*
X49735354Y-149062802D01*
X49735354Y-148844000D01*
X49688787Y-148609892D01*
X49556175Y-148411425D01*
X49357708Y-148278813D01*
X49123600Y-148232246D01*
X47396400Y-148232246D01*
X47162292Y-148278813D01*
X46963825Y-148411425D01*
X46831213Y-148609892D01*
X46784646Y-148844000D01*
X46784646Y-150876000D01*
X46795387Y-150930000D01*
X43280020Y-150930000D01*
X43705956Y-150456666D01*
X40640000Y-147390711D01*
X37574044Y-150456666D01*
X37999980Y-150930000D01*
X37030000Y-150930000D01*
X37030000Y-149960020D01*
X37503334Y-150385956D01*
X40569289Y-147320000D01*
X40710711Y-147320000D01*
X43776666Y-150385956D01*
X44298576Y-149916308D01*
X45013648Y-148318599D01*
X45062871Y-146568863D01*
X44438752Y-144933480D01*
X44298576Y-144723692D01*
X43776666Y-144254044D01*
X40710711Y-147320000D01*
X40569289Y-147320000D01*
X37503334Y-144254044D01*
X37030000Y-144679980D01*
X37030000Y-144183334D01*
X37574044Y-144183334D01*
X40640000Y-147249289D01*
X43705956Y-144183334D01*
X43236308Y-143661424D01*
X41638599Y-142946352D01*
X39888863Y-142897129D01*
X38253480Y-143521248D01*
X38043692Y-143661424D01*
X37574044Y-144183334D01*
X37030000Y-144183334D01*
X37030000Y-140566328D01*
X37417847Y-140848280D01*
X37897600Y-140963600D01*
X38050000Y-140963600D01*
X38050000Y-139750000D01*
X38150000Y-139750000D01*
X38150000Y-140963600D01*
X38302400Y-140963600D01*
X38782153Y-140848280D01*
X39181256Y-140558145D01*
X39438949Y-140137365D01*
X39491643Y-139946900D01*
X39414925Y-139750000D01*
X38150000Y-139750000D01*
X38050000Y-139750000D01*
X38030000Y-139750000D01*
X38030000Y-139650000D01*
X38050000Y-139650000D01*
X38050000Y-138436400D01*
X38150000Y-138436400D01*
X38150000Y-139650000D01*
X39414925Y-139650000D01*
X39491643Y-139453100D01*
X39438949Y-139262635D01*
X39181256Y-138841855D01*
X38782153Y-138551720D01*
X38302400Y-138436400D01*
X38150000Y-138436400D01*
X38050000Y-138436400D01*
X37897600Y-138436400D01*
X37417847Y-138551720D01*
X37030000Y-138833672D01*
X37030000Y-138026328D01*
X37417847Y-138308280D01*
X37897600Y-138423600D01*
X38050000Y-138423600D01*
X38050000Y-137210000D01*
X38150000Y-137210000D01*
X38150000Y-138423600D01*
X38302400Y-138423600D01*
X38782153Y-138308280D01*
X39181256Y-138018145D01*
X39438949Y-137597365D01*
X39491643Y-137406900D01*
X39414925Y-137210000D01*
X38150000Y-137210000D01*
X38050000Y-137210000D01*
X38030000Y-137210000D01*
X38030000Y-137110000D01*
X38050000Y-137110000D01*
X38050000Y-137090000D01*
X38150000Y-137090000D01*
X38150000Y-137110000D01*
X39414925Y-137110000D01*
X39491643Y-136913100D01*
X39438949Y-136722635D01*
X39181256Y-136301855D01*
X38782153Y-136011720D01*
X38720241Y-135996838D01*
X38844154Y-135972190D01*
X39318980Y-135654921D01*
X39636249Y-135180095D01*
X39747659Y-134620000D01*
X39636249Y-134059905D01*
X39318980Y-133585079D01*
X38967160Y-133350000D01*
X39318980Y-133114921D01*
X39636249Y-132640095D01*
X39747659Y-132080000D01*
X39636249Y-131519905D01*
X39318980Y-131045079D01*
X38844154Y-130727810D01*
X38720241Y-130703162D01*
X38782153Y-130688280D01*
X39181256Y-130398145D01*
X39438949Y-129977365D01*
X39491643Y-129786900D01*
X39414925Y-129590000D01*
X38150000Y-129590000D01*
X38150000Y-129610000D01*
X38050000Y-129610000D01*
X38050000Y-129590000D01*
X38030000Y-129590000D01*
X38030000Y-129490000D01*
X38050000Y-129490000D01*
X38050000Y-128276400D01*
X38150000Y-128276400D01*
X38150000Y-129490000D01*
X39414925Y-129490000D01*
X39491643Y-129293100D01*
X39438949Y-129102635D01*
X39181256Y-128681855D01*
X38782153Y-128391720D01*
X38302400Y-128276400D01*
X38150000Y-128276400D01*
X38050000Y-128276400D01*
X37897600Y-128276400D01*
X37417847Y-128391720D01*
X37030000Y-128673672D01*
X37030000Y-128263600D01*
X37950000Y-128263600D01*
X38050000Y-128163600D01*
X38050000Y-127050000D01*
X38150000Y-127050000D01*
X38150000Y-128163600D01*
X38250000Y-128263600D01*
X39195565Y-128263600D01*
X39342582Y-128202704D01*
X39455104Y-128090182D01*
X39516000Y-127943165D01*
X39516000Y-127150000D01*
X39416000Y-127050000D01*
X38150000Y-127050000D01*
X38050000Y-127050000D01*
X38030000Y-127050000D01*
X38030000Y-126950000D01*
X38050000Y-126950000D01*
X38050000Y-125836400D01*
X38150000Y-125836400D01*
X38150000Y-126950000D01*
X39416000Y-126950000D01*
X39516000Y-126850000D01*
X39516000Y-126056835D01*
X39455104Y-125909818D01*
X39342582Y-125797296D01*
X39195565Y-125736400D01*
X38250000Y-125736400D01*
X38150000Y-125836400D01*
X38050000Y-125836400D01*
X37950000Y-125736400D01*
X37030000Y-125736400D01*
X37030000Y-116450000D01*
X37550000Y-116450000D01*
X37550000Y-116550000D01*
X37652763Y-117066623D01*
X37945406Y-117504594D01*
X38383377Y-117797237D01*
X38900000Y-117900000D01*
X39416623Y-117797237D01*
X39854594Y-117504594D01*
X40147237Y-117066623D01*
X40250000Y-116550000D01*
X40250000Y-116450000D01*
X40199193Y-116194572D01*
X52876139Y-116194572D01*
X53102430Y-116508656D01*
X53977493Y-116890583D01*
X54932103Y-116908566D01*
X55820929Y-116559866D01*
X55897570Y-116508656D01*
X56123861Y-116194572D01*
X54500000Y-114570711D01*
X52876139Y-116194572D01*
X40199193Y-116194572D01*
X40147237Y-115933377D01*
X39854594Y-115495406D01*
X39416623Y-115202763D01*
X38900000Y-115100000D01*
X38383377Y-115202763D01*
X37945406Y-115495406D01*
X37652763Y-115933377D01*
X37550000Y-116450000D01*
X37030000Y-116450000D01*
X37030000Y-114932103D01*
X52091434Y-114932103D01*
X52440134Y-115820929D01*
X52491344Y-115897570D01*
X52805428Y-116123861D01*
X54429289Y-114500000D01*
X54570711Y-114500000D01*
X56194572Y-116123861D01*
X56508656Y-115897570D01*
X56890583Y-115022507D01*
X56908566Y-114067897D01*
X56559866Y-113179071D01*
X56508656Y-113102430D01*
X56194572Y-112876139D01*
X54570711Y-114500000D01*
X54429289Y-114500000D01*
X52805428Y-112876139D01*
X52491344Y-113102430D01*
X52109417Y-113977493D01*
X52091434Y-114932103D01*
X37030000Y-114932103D01*
X37030000Y-112805428D01*
X52876139Y-112805428D01*
X54500000Y-114429289D01*
X56123861Y-112805428D01*
X55897570Y-112491344D01*
X55022507Y-112109417D01*
X54067897Y-112091434D01*
X53179071Y-112440134D01*
X53102430Y-112491344D01*
X52876139Y-112805428D01*
X37030000Y-112805428D01*
X37030000Y-109816666D01*
X37574044Y-109816666D01*
X38043692Y-110338576D01*
X39641401Y-111053648D01*
X41391137Y-111102871D01*
X43026520Y-110478752D01*
X43236308Y-110338576D01*
X43585973Y-109950000D01*
X48200000Y-109950000D01*
X48321793Y-110562294D01*
X48364665Y-110626456D01*
X48371793Y-110662293D01*
X48718629Y-111181371D01*
X49237707Y-111528207D01*
X49850000Y-111650000D01*
X50462293Y-111528207D01*
X50981371Y-111181371D01*
X51328207Y-110662293D01*
X51444383Y-110078236D01*
X55599844Y-110078236D01*
X55736572Y-110409143D01*
X55989525Y-110662538D01*
X56320194Y-110799843D01*
X56678236Y-110800156D01*
X57009143Y-110663428D01*
X57262538Y-110410475D01*
X57399843Y-110079806D01*
X57400156Y-109721764D01*
X57263428Y-109390857D01*
X57010475Y-109137462D01*
X56679806Y-109000157D01*
X56321764Y-108999844D01*
X55990857Y-109136572D01*
X55737462Y-109389525D01*
X55600157Y-109720194D01*
X55599844Y-110078236D01*
X51444383Y-110078236D01*
X51450000Y-110050000D01*
X51450000Y-110000000D01*
X51328207Y-109387707D01*
X50981371Y-108868629D01*
X50931371Y-108818629D01*
X50412294Y-108471793D01*
X49800000Y-108350000D01*
X49187706Y-108471793D01*
X48668629Y-108818629D01*
X48321793Y-109337706D01*
X48200000Y-109950000D01*
X43585973Y-109950000D01*
X43705956Y-109816666D01*
X40640000Y-106750711D01*
X37574044Y-109816666D01*
X37030000Y-109816666D01*
X37030000Y-109320020D01*
X37503334Y-109745956D01*
X40569289Y-106680000D01*
X40710711Y-106680000D01*
X43776666Y-109745956D01*
X44298576Y-109276308D01*
X45013648Y-107678599D01*
X45034794Y-106926901D01*
X47020752Y-106926901D01*
X47209569Y-107382346D01*
X47558304Y-107730866D01*
X48013100Y-107919243D01*
X48210000Y-107842525D01*
X48210000Y-106730000D01*
X48310000Y-106730000D01*
X48310000Y-107842525D01*
X48506900Y-107919243D01*
X48961696Y-107730866D01*
X49310431Y-107382346D01*
X49499248Y-106926901D01*
X49560752Y-106926901D01*
X49749569Y-107382346D01*
X50098304Y-107730866D01*
X50553100Y-107919243D01*
X50750000Y-107842525D01*
X50750000Y-106730000D01*
X50850000Y-106730000D01*
X50850000Y-107842525D01*
X51046900Y-107919243D01*
X51501696Y-107730866D01*
X51850431Y-107382346D01*
X52039248Y-106926901D01*
X52100752Y-106926901D01*
X52289569Y-107382346D01*
X52638304Y-107730866D01*
X53093100Y-107919243D01*
X53290000Y-107842525D01*
X53290000Y-106730000D01*
X53390000Y-106730000D01*
X53390000Y-107842525D01*
X53586900Y-107919243D01*
X54041696Y-107730866D01*
X54390431Y-107382346D01*
X54579248Y-106926901D01*
X54640752Y-106926901D01*
X54829569Y-107382346D01*
X55178304Y-107730866D01*
X55633100Y-107919243D01*
X55830000Y-107842525D01*
X55830000Y-106730000D01*
X55930000Y-106730000D01*
X55930000Y-107842525D01*
X56126900Y-107919243D01*
X56581696Y-107730866D01*
X56930431Y-107382346D01*
X57119248Y-106926901D01*
X57180752Y-106926901D01*
X57369569Y-107382346D01*
X57718304Y-107730866D01*
X58173100Y-107919243D01*
X58370000Y-107842525D01*
X58370000Y-106730000D01*
X58470000Y-106730000D01*
X58470000Y-107842525D01*
X58666900Y-107919243D01*
X59121696Y-107730866D01*
X59470431Y-107382346D01*
X59659248Y-106926901D01*
X59720752Y-106926901D01*
X59909569Y-107382346D01*
X60258304Y-107730866D01*
X60713100Y-107919243D01*
X60910000Y-107842525D01*
X60910000Y-106730000D01*
X61010000Y-106730000D01*
X61010000Y-107842525D01*
X61206900Y-107919243D01*
X61661696Y-107730866D01*
X62010431Y-107382346D01*
X62199248Y-106926901D01*
X62260752Y-106926901D01*
X62449569Y-107382346D01*
X62798304Y-107730866D01*
X63253100Y-107919243D01*
X63450000Y-107842525D01*
X63450000Y-106730000D01*
X63550000Y-106730000D01*
X63550000Y-107842525D01*
X63746900Y-107919243D01*
X64201696Y-107730866D01*
X64550431Y-107382346D01*
X64739248Y-106926901D01*
X64800752Y-106926901D01*
X64989569Y-107382346D01*
X65338304Y-107730866D01*
X65793100Y-107919243D01*
X65990000Y-107842525D01*
X65990000Y-106730000D01*
X66090000Y-106730000D01*
X66090000Y-107842525D01*
X66286900Y-107919243D01*
X66741696Y-107730866D01*
X67090431Y-107382346D01*
X67279248Y-106926901D01*
X67340752Y-106926901D01*
X67529569Y-107382346D01*
X67878304Y-107730866D01*
X68333100Y-107919243D01*
X68530000Y-107842525D01*
X68530000Y-106730000D01*
X67417385Y-106730000D01*
X67340752Y-106926901D01*
X67279248Y-106926901D01*
X67202615Y-106730000D01*
X66090000Y-106730000D01*
X65990000Y-106730000D01*
X64877385Y-106730000D01*
X64800752Y-106926901D01*
X64739248Y-106926901D01*
X64662615Y-106730000D01*
X63550000Y-106730000D01*
X63450000Y-106730000D01*
X62337385Y-106730000D01*
X62260752Y-106926901D01*
X62199248Y-106926901D01*
X62122615Y-106730000D01*
X61010000Y-106730000D01*
X60910000Y-106730000D01*
X59797385Y-106730000D01*
X59720752Y-106926901D01*
X59659248Y-106926901D01*
X59582615Y-106730000D01*
X58470000Y-106730000D01*
X58370000Y-106730000D01*
X57257385Y-106730000D01*
X57180752Y-106926901D01*
X57119248Y-106926901D01*
X57042615Y-106730000D01*
X55930000Y-106730000D01*
X55830000Y-106730000D01*
X54717385Y-106730000D01*
X54640752Y-106926901D01*
X54579248Y-106926901D01*
X54502615Y-106730000D01*
X53390000Y-106730000D01*
X53290000Y-106730000D01*
X52177385Y-106730000D01*
X52100752Y-106926901D01*
X52039248Y-106926901D01*
X51962615Y-106730000D01*
X50850000Y-106730000D01*
X50750000Y-106730000D01*
X49637385Y-106730000D01*
X49560752Y-106926901D01*
X49499248Y-106926901D01*
X49422615Y-106730000D01*
X48310000Y-106730000D01*
X48210000Y-106730000D01*
X47097385Y-106730000D01*
X47020752Y-106926901D01*
X45034794Y-106926901D01*
X45062871Y-105928863D01*
X44438752Y-104293480D01*
X44298576Y-104083692D01*
X43776666Y-103614044D01*
X40710711Y-106680000D01*
X40569289Y-106680000D01*
X37503334Y-103614044D01*
X37030000Y-104039980D01*
X37030000Y-103070000D01*
X37999980Y-103070000D01*
X37574044Y-103543334D01*
X37574044Y-103543334D01*
G37*
X37574044Y-103543334D02*
X40640000Y-106609289D01*
X43705956Y-103543334D01*
X43280020Y-103070000D01*
X47234665Y-103070000D01*
X47225079Y-103076405D01*
X46907810Y-103551231D01*
X46796400Y-104111326D01*
X46796400Y-104168674D01*
X46907810Y-104728769D01*
X47225079Y-105203595D01*
X47699905Y-105520864D01*
X47780834Y-105536962D01*
X47558304Y-105629134D01*
X47209569Y-105977654D01*
X47020752Y-106433099D01*
X47097385Y-106630000D01*
X48210000Y-106630000D01*
X48210000Y-106610000D01*
X48310000Y-106610000D01*
X48310000Y-106630000D01*
X49422615Y-106630000D01*
X49499248Y-106433099D01*
X49310431Y-105977654D01*
X48961696Y-105629134D01*
X48739166Y-105536962D01*
X48820095Y-105520864D01*
X49294921Y-105203595D01*
X49530000Y-104851775D01*
X49765079Y-105203595D01*
X50239905Y-105520864D01*
X50320834Y-105536962D01*
X50098304Y-105629134D01*
X49749569Y-105977654D01*
X49560752Y-106433099D01*
X49637385Y-106630000D01*
X50750000Y-106630000D01*
X50750000Y-106610000D01*
X50850000Y-106610000D01*
X50850000Y-106630000D01*
X51962615Y-106630000D01*
X52039248Y-106433099D01*
X51850431Y-105977654D01*
X51501696Y-105629134D01*
X51279166Y-105536962D01*
X51360095Y-105520864D01*
X51834921Y-105203595D01*
X52070000Y-104851775D01*
X52305079Y-105203595D01*
X52779905Y-105520864D01*
X52860834Y-105536962D01*
X52638304Y-105629134D01*
X52289569Y-105977654D01*
X52100752Y-106433099D01*
X52177385Y-106630000D01*
X53290000Y-106630000D01*
X53290000Y-106610000D01*
X53390000Y-106610000D01*
X53390000Y-106630000D01*
X54502615Y-106630000D01*
X54579248Y-106433099D01*
X54390431Y-105977654D01*
X54041696Y-105629134D01*
X53819166Y-105536962D01*
X53900095Y-105520864D01*
X54374921Y-105203595D01*
X54610000Y-104851775D01*
X54845079Y-105203595D01*
X55319905Y-105520864D01*
X55400834Y-105536962D01*
X55178304Y-105629134D01*
X54829569Y-105977654D01*
X54640752Y-106433099D01*
X54717385Y-106630000D01*
X55830000Y-106630000D01*
X55830000Y-106610000D01*
X55930000Y-106610000D01*
X55930000Y-106630000D01*
X57042615Y-106630000D01*
X57119248Y-106433099D01*
X56930431Y-105977654D01*
X56581696Y-105629134D01*
X56359166Y-105536962D01*
X56440095Y-105520864D01*
X56914921Y-105203595D01*
X57150000Y-104851775D01*
X57385079Y-105203595D01*
X57859905Y-105520864D01*
X57940834Y-105536962D01*
X57718304Y-105629134D01*
X57369569Y-105977654D01*
X57180752Y-106433099D01*
X57257385Y-106630000D01*
X58370000Y-106630000D01*
X58370000Y-106610000D01*
X58470000Y-106610000D01*
X58470000Y-106630000D01*
X59582615Y-106630000D01*
X59659248Y-106433099D01*
X59470431Y-105977654D01*
X59121696Y-105629134D01*
X58899166Y-105536962D01*
X58980095Y-105520864D01*
X59454921Y-105203595D01*
X59690000Y-104851775D01*
X59925079Y-105203595D01*
X60399905Y-105520864D01*
X60480834Y-105536962D01*
X60258304Y-105629134D01*
X59909569Y-105977654D01*
X59720752Y-106433099D01*
X59797385Y-106630000D01*
X60910000Y-106630000D01*
X60910000Y-106610000D01*
X61010000Y-106610000D01*
X61010000Y-106630000D01*
X62122615Y-106630000D01*
X62199248Y-106433099D01*
X62010431Y-105977654D01*
X61661696Y-105629134D01*
X61439166Y-105536962D01*
X61520095Y-105520864D01*
X61994921Y-105203595D01*
X62230000Y-104851775D01*
X62465079Y-105203595D01*
X62939905Y-105520864D01*
X63020834Y-105536962D01*
X62798304Y-105629134D01*
X62449569Y-105977654D01*
X62260752Y-106433099D01*
X62337385Y-106630000D01*
X63450000Y-106630000D01*
X63450000Y-106610000D01*
X63550000Y-106610000D01*
X63550000Y-106630000D01*
X64662615Y-106630000D01*
X64739248Y-106433099D01*
X64550431Y-105977654D01*
X64201696Y-105629134D01*
X63979166Y-105536962D01*
X64060095Y-105520864D01*
X64534921Y-105203595D01*
X64770000Y-104851775D01*
X65005079Y-105203595D01*
X65479905Y-105520864D01*
X65560834Y-105536962D01*
X65338304Y-105629134D01*
X64989569Y-105977654D01*
X64800752Y-106433099D01*
X64877385Y-106630000D01*
X65990000Y-106630000D01*
X65990000Y-106610000D01*
X66090000Y-106610000D01*
X66090000Y-106630000D01*
X67202615Y-106630000D01*
X67279248Y-106433099D01*
X67090431Y-105977654D01*
X66741696Y-105629134D01*
X66519166Y-105536962D01*
X66600095Y-105520864D01*
X67074921Y-105203595D01*
X67310000Y-104851775D01*
X67545079Y-105203595D01*
X68019905Y-105520864D01*
X68100834Y-105536962D01*
X67878304Y-105629134D01*
X67529569Y-105977654D01*
X67340752Y-106433099D01*
X67417385Y-106630000D01*
X68530000Y-106630000D01*
X68530000Y-106610000D01*
X68630000Y-106610000D01*
X68630000Y-106630000D01*
X68650000Y-106630000D01*
X68650000Y-106730000D01*
X68630000Y-106730000D01*
X68630000Y-107842525D01*
X68826900Y-107919243D01*
X69281696Y-107730866D01*
X69630431Y-107382346D01*
X69738534Y-107121590D01*
X69767810Y-107268769D01*
X70085079Y-107743595D01*
X70559905Y-108060864D01*
X71120000Y-108172274D01*
X71680095Y-108060864D01*
X72154921Y-107743595D01*
X72472190Y-107268769D01*
X72559466Y-106830000D01*
X77476400Y-106830000D01*
X77476400Y-107775565D01*
X77537296Y-107922582D01*
X77649818Y-108035104D01*
X77796835Y-108096000D01*
X78590000Y-108096000D01*
X78690000Y-107996000D01*
X78690000Y-106730000D01*
X78790000Y-106730000D01*
X78790000Y-107996000D01*
X78890000Y-108096000D01*
X79683165Y-108096000D01*
X79830182Y-108035104D01*
X79942704Y-107922582D01*
X80003600Y-107775565D01*
X80003600Y-106830000D01*
X79903600Y-106730000D01*
X80016400Y-106730000D01*
X80016400Y-106882400D01*
X80131720Y-107362153D01*
X80421855Y-107761256D01*
X80842635Y-108018949D01*
X81033100Y-108071643D01*
X81230000Y-107994925D01*
X81230000Y-106730000D01*
X80016400Y-106730000D01*
X79903600Y-106730000D01*
X78790000Y-106730000D01*
X78690000Y-106730000D01*
X77576400Y-106730000D01*
X77476400Y-106830000D01*
X72559466Y-106830000D01*
X72583600Y-106708674D01*
X72583600Y-106651326D01*
X72472190Y-106091231D01*
X72154921Y-105616405D01*
X72114408Y-105589335D01*
X72139041Y-105584435D01*
X77476400Y-105584435D01*
X77476400Y-106530000D01*
X77576400Y-106630000D01*
X78690000Y-106630000D01*
X78690000Y-105364000D01*
X78790000Y-105364000D01*
X78790000Y-106630000D01*
X79903600Y-106630000D01*
X80003600Y-106530000D01*
X80003600Y-106477600D01*
X80016400Y-106477600D01*
X80016400Y-106630000D01*
X81230000Y-106630000D01*
X81230000Y-105365075D01*
X81033100Y-105288357D01*
X80842635Y-105341051D01*
X80421855Y-105598744D01*
X80131720Y-105997847D01*
X80016400Y-106477600D01*
X80003600Y-106477600D01*
X80003600Y-105584435D01*
X79942704Y-105437418D01*
X79830182Y-105324896D01*
X79683165Y-105264000D01*
X78890000Y-105264000D01*
X78790000Y-105364000D01*
X78690000Y-105364000D01*
X78590000Y-105264000D01*
X77796835Y-105264000D01*
X77649818Y-105324896D01*
X77537296Y-105437418D01*
X77476400Y-105584435D01*
X72139041Y-105584435D01*
X72217708Y-105568787D01*
X72416175Y-105436175D01*
X72548787Y-105237708D01*
X72595354Y-105003600D01*
X72595354Y-103276400D01*
X72554298Y-103070000D01*
X129439980Y-103070000D01*
X129014044Y-103543334D01*
X132080000Y-106609289D01*
X135145956Y-103543334D01*
X134720020Y-103070000D01*
X135690000Y-103070000D01*
X135690000Y-104039980D01*
X135216666Y-103614044D01*
X132150711Y-106680000D01*
X135216666Y-109745956D01*
X135690000Y-109320020D01*
X135690000Y-110786912D01*
X135023467Y-110500258D01*
X134431057Y-110492286D01*
X134466520Y-110478752D01*
X134676308Y-110338576D01*
X135145956Y-109816666D01*
X132080000Y-106750711D01*
X129014044Y-109816666D01*
X129483692Y-110338576D01*
X129841889Y-110498891D01*
X129187668Y-110490087D01*
X128485509Y-110769921D01*
X128442159Y-110798886D01*
X128276724Y-111061013D01*
X129540000Y-112324289D01*
X130803276Y-111061013D01*
X130687310Y-110877268D01*
X131081401Y-111053648D01*
X132831137Y-111102871D01*
X133488682Y-110851929D01*
X133356724Y-111061013D01*
X134620000Y-112324289D01*
X134634142Y-112310147D01*
X134704853Y-112380858D01*
X134690711Y-112395000D01*
X134704853Y-112409142D01*
X134634142Y-112479853D01*
X134620000Y-112465711D01*
X134605858Y-112479853D01*
X134535147Y-112409142D01*
X134549289Y-112395000D01*
X133286013Y-111131724D01*
X133023886Y-111297159D01*
X132725258Y-111991533D01*
X132715087Y-112747332D01*
X132903290Y-113219571D01*
X132459591Y-113035331D01*
X131703725Y-113034671D01*
X131253078Y-113220874D01*
X131434742Y-112798467D01*
X131444913Y-112042668D01*
X131165079Y-111340509D01*
X131136114Y-111297159D01*
X130873987Y-111131724D01*
X129610711Y-112395000D01*
X129624853Y-112409142D01*
X129554142Y-112479853D01*
X129540000Y-112465711D01*
X128276724Y-113728987D01*
X128442159Y-113991114D01*
X129136533Y-114289742D01*
X129892332Y-114299913D01*
X130364571Y-114111710D01*
X130180331Y-114555409D01*
X130179671Y-115311275D01*
X130365874Y-115761922D01*
X129943467Y-115580258D01*
X129187668Y-115570087D01*
X128485509Y-115849921D01*
X128442159Y-115878886D01*
X128276724Y-116141013D01*
X129540000Y-117404289D01*
X129554142Y-117390147D01*
X129624853Y-117460858D01*
X129610711Y-117475000D01*
X130873987Y-118738276D01*
X131136114Y-118572841D01*
X131434742Y-117878467D01*
X131444913Y-117122668D01*
X131256710Y-116650429D01*
X131700409Y-116834669D01*
X132456275Y-116835329D01*
X132906922Y-116649126D01*
X132725258Y-117071533D01*
X132715087Y-117827332D01*
X132994921Y-118529491D01*
X133023886Y-118572841D01*
X133286013Y-118738276D01*
X134549289Y-117475000D01*
X134535147Y-117460858D01*
X134605858Y-117390147D01*
X134620000Y-117404289D01*
X134634142Y-117390147D01*
X134704853Y-117460858D01*
X134690711Y-117475000D01*
X134704853Y-117489142D01*
X134634142Y-117559853D01*
X134620000Y-117545711D01*
X133356724Y-118808987D01*
X133522159Y-119071114D01*
X134216533Y-119369742D01*
X134972332Y-119379913D01*
X135674491Y-119100079D01*
X135690000Y-119089716D01*
X135690000Y-133011912D01*
X135023467Y-132725258D01*
X134267668Y-132715087D01*
X133565509Y-132994921D01*
X133522159Y-133023886D01*
X133356724Y-133286013D01*
X134620000Y-134549289D01*
X134634142Y-134535147D01*
X134704853Y-134605858D01*
X134690711Y-134620000D01*
X134704853Y-134634142D01*
X134634142Y-134704853D01*
X134620000Y-134690711D01*
X134605858Y-134704853D01*
X134535147Y-134634142D01*
X134549289Y-134620000D01*
X133286013Y-133356724D01*
X133023886Y-133522159D01*
X132725258Y-134216533D01*
X132715087Y-134972332D01*
X132903290Y-135444571D01*
X132459591Y-135260331D01*
X131703725Y-135259671D01*
X131253078Y-135445874D01*
X131434742Y-135023467D01*
X131444913Y-134267668D01*
X131165079Y-133565509D01*
X131136114Y-133522159D01*
X130873987Y-133356724D01*
X129610711Y-134620000D01*
X129624853Y-134634142D01*
X129554142Y-134704853D01*
X129540000Y-134690711D01*
X128276724Y-135953987D01*
X128442159Y-136216114D01*
X129136533Y-136514742D01*
X129892332Y-136524913D01*
X130364571Y-136336710D01*
X130180331Y-136780409D01*
X130179671Y-137536275D01*
X130365874Y-137986922D01*
X129943467Y-137805258D01*
X129187668Y-137795087D01*
X128485509Y-138074921D01*
X128442159Y-138103886D01*
X128276724Y-138366013D01*
X129540000Y-139629289D01*
X129554142Y-139615147D01*
X129624853Y-139685858D01*
X129610711Y-139700000D01*
X130873987Y-140963276D01*
X131136114Y-140797841D01*
X131434742Y-140103467D01*
X131444913Y-139347668D01*
X131256710Y-138875429D01*
X131700409Y-139059669D01*
X132456275Y-139060329D01*
X132906922Y-138874126D01*
X132725258Y-139296533D01*
X132715087Y-140052332D01*
X132994921Y-140754491D01*
X133023886Y-140797841D01*
X133286013Y-140963276D01*
X134549289Y-139700000D01*
X134535147Y-139685858D01*
X134605858Y-139615147D01*
X134620000Y-139629289D01*
X134634142Y-139615147D01*
X134704853Y-139685858D01*
X134690711Y-139700000D01*
X134704853Y-139714142D01*
X134634142Y-139784853D01*
X134620000Y-139770711D01*
X133356724Y-141033987D01*
X133522159Y-141296114D01*
X134216533Y-141594742D01*
X134972332Y-141604913D01*
X135674491Y-141325079D01*
X135690000Y-141314716D01*
X135690000Y-144679980D01*
X135216666Y-144254044D01*
X132150711Y-147320000D01*
X135216666Y-150385956D01*
X135690000Y-149960020D01*
X135690000Y-150930000D01*
X134720020Y-150930000D01*
X135145956Y-150456666D01*
X132080000Y-147390711D01*
X129014044Y-150456666D01*
X129439980Y-150930000D01*
X92703600Y-150930000D01*
X92703600Y-150010000D01*
X92603600Y-149910000D01*
X91490000Y-149910000D01*
X91490000Y-149930000D01*
X91390000Y-149930000D01*
X91390000Y-149910000D01*
X91370000Y-149910000D01*
X91370000Y-149810000D01*
X91390000Y-149810000D01*
X91390000Y-148544000D01*
X91490000Y-148544000D01*
X91490000Y-149810000D01*
X92603600Y-149810000D01*
X92703600Y-149710000D01*
X92703600Y-148764435D01*
X92642704Y-148617418D01*
X92530182Y-148504896D01*
X92383165Y-148444000D01*
X91590000Y-148444000D01*
X91490000Y-148544000D01*
X91390000Y-148544000D01*
X91290000Y-148444000D01*
X90496835Y-148444000D01*
X90349818Y-148504896D01*
X90237296Y-148617418D01*
X90176400Y-148764435D01*
X90176400Y-149002418D01*
X89934921Y-148641020D01*
X89460095Y-148323751D01*
X88900000Y-148212341D01*
X88339905Y-148323751D01*
X87865079Y-148641020D01*
X87630000Y-148992840D01*
X87394921Y-148641020D01*
X86920095Y-148323751D01*
X86360000Y-148212341D01*
X85799905Y-148323751D01*
X85325079Y-148641020D01*
X85090000Y-148992840D01*
X84854921Y-148641020D01*
X84520000Y-148417233D01*
X84520000Y-148071137D01*
X127657129Y-148071137D01*
X128281248Y-149706520D01*
X128421424Y-149916308D01*
X128943334Y-150385956D01*
X132009289Y-147320000D01*
X128943334Y-144254044D01*
X128421424Y-144723692D01*
X127706352Y-146321401D01*
X127657129Y-148071137D01*
X84520000Y-148071137D01*
X84520000Y-144183334D01*
X129014044Y-144183334D01*
X132080000Y-147249289D01*
X135145956Y-144183334D01*
X134676308Y-143661424D01*
X133078599Y-142946352D01*
X131328863Y-142897129D01*
X129693480Y-143521248D01*
X129483692Y-143661424D01*
X129014044Y-144183334D01*
X84520000Y-144183334D01*
X84520000Y-141217844D01*
X97299810Y-141217844D01*
X97466922Y-141622286D01*
X97776087Y-141931991D01*
X98180237Y-142099808D01*
X98617844Y-142100190D01*
X99022286Y-141933078D01*
X99331991Y-141623913D01*
X99332183Y-141623452D01*
X100177818Y-140777817D01*
X100416268Y-140420951D01*
X100500000Y-140000000D01*
X100500000Y-135555634D01*
X102755635Y-133300000D01*
X104439783Y-133300000D01*
X104483733Y-133520952D01*
X104670350Y-133800243D01*
X104722183Y-133877817D01*
X105922182Y-135077817D01*
X106080164Y-135183377D01*
X106279048Y-135316267D01*
X106700000Y-135400000D01*
X108200000Y-135400000D01*
X108620952Y-135316267D01*
X108977817Y-135077817D01*
X110955635Y-133100000D01*
X113800001Y-133100000D01*
X114017844Y-133100190D01*
X114422286Y-132933078D01*
X114731991Y-132623913D01*
X114899808Y-132219763D01*
X114900190Y-131782156D01*
X114733078Y-131377714D01*
X114423913Y-131068009D01*
X114019763Y-130900192D01*
X113800001Y-130900000D01*
X113799814Y-130900000D01*
X113582156Y-130899810D01*
X113581696Y-130900000D01*
X110500000Y-130900000D01*
X110079048Y-130983733D01*
X109905327Y-131099810D01*
X109722182Y-131222183D01*
X107744366Y-133200000D01*
X107155635Y-133200000D01*
X106600000Y-132644366D01*
X106600000Y-132199999D01*
X106600190Y-131982156D01*
X106433078Y-131577714D01*
X106123913Y-131268009D01*
X105719763Y-131100192D01*
X105500001Y-131100000D01*
X105499814Y-131100000D01*
X105282156Y-131099810D01*
X105281696Y-131100000D01*
X102300000Y-131100000D01*
X101879048Y-131183733D01*
X101522182Y-131422183D01*
X101200049Y-131744316D01*
X101200173Y-131601960D01*
X101048253Y-131234286D01*
X100767194Y-130952736D01*
X100399785Y-130800174D01*
X100001960Y-130799827D01*
X99634286Y-130951747D01*
X99352736Y-131232806D01*
X99200174Y-131600215D01*
X99199827Y-131998040D01*
X99351747Y-132365714D01*
X99632806Y-132647264D01*
X100000215Y-132799826D01*
X100144414Y-132799952D01*
X98622183Y-134322183D01*
X98383733Y-134679048D01*
X98300000Y-135100000D01*
X98300000Y-139544365D01*
X97622861Y-140221505D01*
X97468009Y-140376087D01*
X97300192Y-140780237D01*
X97299810Y-141217844D01*
X84520000Y-141217844D01*
X84520000Y-132969950D01*
X88591909Y-128898040D01*
X110799827Y-128898040D01*
X110951747Y-129265714D01*
X111232806Y-129547264D01*
X111600215Y-129699826D01*
X111998040Y-129700173D01*
X112365714Y-129548253D01*
X112647264Y-129267194D01*
X112799826Y-128899785D01*
X112800173Y-128501960D01*
X112648253Y-128134286D01*
X112367194Y-127852736D01*
X111999785Y-127700174D01*
X111601960Y-127699827D01*
X111234286Y-127851747D01*
X110952736Y-128132806D01*
X110800174Y-128500215D01*
X110799827Y-128898040D01*
X88591909Y-128898040D01*
X92458670Y-125031279D01*
X92689525Y-125262538D01*
X93020194Y-125399843D01*
X93109971Y-125399921D01*
X93899921Y-126189871D01*
X93899844Y-126278236D01*
X94036572Y-126609143D01*
X94289525Y-126862538D01*
X94620194Y-126999843D01*
X94978236Y-127000156D01*
X95309143Y-126863428D01*
X95562538Y-126610475D01*
X95699843Y-126279806D01*
X95700156Y-125921764D01*
X95563428Y-125590857D01*
X95310475Y-125337462D01*
X94979806Y-125200157D01*
X94890029Y-125200079D01*
X94100079Y-124410129D01*
X94100156Y-124321764D01*
X93963428Y-123990857D01*
X93731463Y-123758486D01*
X93794972Y-123694977D01*
X93794975Y-123694975D01*
X93911760Y-123520194D01*
X93946716Y-123467879D01*
X94000001Y-123200000D01*
X94000000Y-123199995D01*
X94000000Y-120300000D01*
X93946716Y-120032122D01*
X93794975Y-119805025D01*
X93794972Y-119805023D01*
X92618186Y-118628236D01*
X105099844Y-118628236D01*
X105236572Y-118959143D01*
X105300000Y-119022682D01*
X105300000Y-119800000D01*
X105353284Y-120067879D01*
X105505025Y-120294975D01*
X105805025Y-120594975D01*
X106032121Y-120746716D01*
X106300000Y-120800000D01*
X106510050Y-120800000D01*
X113055023Y-127344972D01*
X113055025Y-127344975D01*
X113137376Y-127400000D01*
X113282121Y-127496716D01*
X113550000Y-127550001D01*
X113550005Y-127550000D01*
X115360050Y-127550000D01*
X115600000Y-127789950D01*
X115600000Y-142300000D01*
X115653284Y-142567879D01*
X115805025Y-142794975D01*
X116605025Y-143594975D01*
X116832121Y-143746716D01*
X117100000Y-143800000D01*
X117327096Y-143800000D01*
X117389525Y-143862538D01*
X117720194Y-143999843D01*
X118078236Y-144000156D01*
X118409143Y-143863428D01*
X118662538Y-143610475D01*
X118799843Y-143279806D01*
X118800156Y-142921764D01*
X118663428Y-142590857D01*
X118410475Y-142337462D01*
X118079806Y-142200157D01*
X117721764Y-142199844D01*
X117390857Y-142336572D01*
X117358661Y-142368711D01*
X117184522Y-142194572D01*
X118876139Y-142194572D01*
X119102430Y-142508656D01*
X119977493Y-142890583D01*
X120932103Y-142908566D01*
X121820929Y-142559866D01*
X121897570Y-142508656D01*
X122123861Y-142194572D01*
X120500000Y-140570711D01*
X118876139Y-142194572D01*
X117184522Y-142194572D01*
X117000000Y-142010050D01*
X117000000Y-140932103D01*
X118091434Y-140932103D01*
X118440134Y-141820929D01*
X118491344Y-141897570D01*
X118805428Y-142123861D01*
X120429289Y-140500000D01*
X120570711Y-140500000D01*
X122194572Y-142123861D01*
X122508656Y-141897570D01*
X122885572Y-141033987D01*
X128276724Y-141033987D01*
X128442159Y-141296114D01*
X129136533Y-141594742D01*
X129892332Y-141604913D01*
X130594491Y-141325079D01*
X130637841Y-141296114D01*
X130803276Y-141033987D01*
X129540000Y-139770711D01*
X128276724Y-141033987D01*
X122885572Y-141033987D01*
X122890583Y-141022507D01*
X122908566Y-140067897D01*
X122902460Y-140052332D01*
X127635087Y-140052332D01*
X127914921Y-140754491D01*
X127943886Y-140797841D01*
X128206013Y-140963276D01*
X129469289Y-139700000D01*
X128206013Y-138436724D01*
X127943886Y-138602159D01*
X127645258Y-139296533D01*
X127635087Y-140052332D01*
X122902460Y-140052332D01*
X122559866Y-139179071D01*
X122508656Y-139102430D01*
X122194572Y-138876139D01*
X120570711Y-140500000D01*
X120429289Y-140500000D01*
X118805428Y-138876139D01*
X118491344Y-139102430D01*
X118109417Y-139977493D01*
X118091434Y-140932103D01*
X117000000Y-140932103D01*
X117000000Y-138805428D01*
X118876139Y-138805428D01*
X120500000Y-140429289D01*
X122123861Y-138805428D01*
X121897570Y-138491344D01*
X121022507Y-138109417D01*
X120067897Y-138091434D01*
X119179071Y-138440134D01*
X119102430Y-138491344D01*
X118876139Y-138805428D01*
X117000000Y-138805428D01*
X117000000Y-134972332D01*
X127635087Y-134972332D01*
X127914921Y-135674491D01*
X127943886Y-135717841D01*
X128206013Y-135883276D01*
X129469289Y-134620000D01*
X128206013Y-133356724D01*
X127943886Y-133522159D01*
X127645258Y-134216533D01*
X127635087Y-134972332D01*
X117000000Y-134972332D01*
X117000000Y-133286013D01*
X128276724Y-133286013D01*
X129540000Y-134549289D01*
X130803276Y-133286013D01*
X130637841Y-133023886D01*
X129943467Y-132725258D01*
X129187668Y-132715087D01*
X128485509Y-132994921D01*
X128442159Y-133023886D01*
X128276724Y-133286013D01*
X117000000Y-133286013D01*
X117000000Y-127500000D01*
X116960218Y-127300000D01*
X116946716Y-127232121D01*
X116794975Y-127005025D01*
X116144975Y-126355025D01*
X115917879Y-126203284D01*
X115650000Y-126150000D01*
X113839949Y-126150000D01*
X107452034Y-119762084D01*
X107514226Y-119700000D01*
X111510050Y-119700000D01*
X117605023Y-125794972D01*
X117605025Y-125794975D01*
X117832122Y-125946716D01*
X118100000Y-126000000D01*
X119810050Y-126000000D01*
X122200000Y-128389950D01*
X122200000Y-128985774D01*
X122067194Y-128852736D01*
X121699785Y-128700174D01*
X121301960Y-128699827D01*
X120934286Y-128851747D01*
X120652736Y-129132806D01*
X120500174Y-129500215D01*
X120499827Y-129898040D01*
X120651747Y-130265714D01*
X120932806Y-130547264D01*
X121300215Y-130699826D01*
X121698040Y-130700173D01*
X122065714Y-130548253D01*
X122199988Y-130414214D01*
X122332806Y-130547264D01*
X122700215Y-130699826D01*
X123098040Y-130700173D01*
X123465714Y-130548253D01*
X123747264Y-130267194D01*
X123899826Y-129899785D01*
X123900173Y-129501960D01*
X123748253Y-129134286D01*
X123600000Y-128985774D01*
X123600000Y-128100000D01*
X123552091Y-127859143D01*
X123546716Y-127832121D01*
X123394975Y-127605025D01*
X120594975Y-124805025D01*
X120367879Y-124653284D01*
X120100000Y-124600000D01*
X118389949Y-124600000D01*
X112598937Y-118808987D01*
X128276724Y-118808987D01*
X128442159Y-119071114D01*
X129136533Y-119369742D01*
X129892332Y-119379913D01*
X130594491Y-119100079D01*
X130637841Y-119071114D01*
X130803276Y-118808987D01*
X129540000Y-117545711D01*
X128276724Y-118808987D01*
X112598937Y-118808987D01*
X112294975Y-118505025D01*
X112067879Y-118353284D01*
X111800000Y-118300000D01*
X107514201Y-118300000D01*
X107367194Y-118152736D01*
X106999785Y-118000174D01*
X106787861Y-117999989D01*
X106763428Y-117940857D01*
X106650102Y-117827332D01*
X127635087Y-117827332D01*
X127914921Y-118529491D01*
X127943886Y-118572841D01*
X128206013Y-118738276D01*
X129469289Y-117475000D01*
X128206013Y-116211724D01*
X127943886Y-116377159D01*
X127645258Y-117071533D01*
X127635087Y-117827332D01*
X106650102Y-117827332D01*
X106510475Y-117687462D01*
X106179806Y-117550157D01*
X105821764Y-117549844D01*
X105490857Y-117686572D01*
X105237462Y-117939525D01*
X105100157Y-118270194D01*
X105099844Y-118628236D01*
X92618186Y-118628236D01*
X90184522Y-116194572D01*
X118876139Y-116194572D01*
X119102430Y-116508656D01*
X119977493Y-116890583D01*
X120932103Y-116908566D01*
X121820929Y-116559866D01*
X121897570Y-116508656D01*
X122123861Y-116194572D01*
X120500000Y-114570711D01*
X118876139Y-116194572D01*
X90184522Y-116194572D01*
X88922053Y-114932103D01*
X118091434Y-114932103D01*
X118440134Y-115820929D01*
X118491344Y-115897570D01*
X118805428Y-116123861D01*
X120429289Y-114500000D01*
X120570711Y-114500000D01*
X122194572Y-116123861D01*
X122508656Y-115897570D01*
X122890583Y-115022507D01*
X122908566Y-114067897D01*
X122559866Y-113179071D01*
X122508656Y-113102430D01*
X122194572Y-112876139D01*
X120570711Y-114500000D01*
X120429289Y-114500000D01*
X118805428Y-112876139D01*
X118491344Y-113102430D01*
X118109417Y-113977493D01*
X118091434Y-114932103D01*
X88922053Y-114932103D01*
X86795378Y-112805428D01*
X118876139Y-112805428D01*
X120500000Y-114429289D01*
X122123861Y-112805428D01*
X122082005Y-112747332D01*
X127635087Y-112747332D01*
X127914921Y-113449491D01*
X127943886Y-113492841D01*
X128206013Y-113658276D01*
X129469289Y-112395000D01*
X128206013Y-111131724D01*
X127943886Y-111297159D01*
X127645258Y-111991533D01*
X127635087Y-112747332D01*
X122082005Y-112747332D01*
X121897570Y-112491344D01*
X121022507Y-112109417D01*
X120067897Y-112091434D01*
X119179071Y-112440134D01*
X119102430Y-112491344D01*
X118876139Y-112805428D01*
X86795378Y-112805428D01*
X85794975Y-111805025D01*
X85567879Y-111653284D01*
X85300000Y-111600000D01*
X74920256Y-111600000D01*
X74679806Y-111500157D01*
X74321764Y-111499844D01*
X73990857Y-111636572D01*
X73737462Y-111889525D01*
X73600157Y-112220194D01*
X73599844Y-112578236D01*
X73736572Y-112909143D01*
X73989525Y-113162538D01*
X74320194Y-113299843D01*
X74678236Y-113300156D01*
X75009143Y-113163428D01*
X75172857Y-113000000D01*
X85010050Y-113000000D01*
X88110050Y-116100000D01*
X75500000Y-116100000D01*
X75493650Y-116101263D01*
X75487275Y-116100115D01*
X75359930Y-116127862D01*
X75232122Y-116153284D01*
X75226737Y-116156882D01*
X75220409Y-116158261D01*
X75113389Y-116232619D01*
X75005025Y-116305025D01*
X75001427Y-116310410D01*
X74996109Y-116314105D01*
X74100000Y-117243403D01*
X74100000Y-115700000D01*
X74056662Y-115482122D01*
X74046716Y-115432121D01*
X73894975Y-115205025D01*
X72300079Y-113610129D01*
X72300156Y-113521764D01*
X72163428Y-113190857D01*
X71910475Y-112937462D01*
X71579806Y-112800157D01*
X71221764Y-112799844D01*
X71082607Y-112857342D01*
X74289949Y-109650000D01*
X86360050Y-109650000D01*
X87149921Y-110439871D01*
X87149844Y-110528236D01*
X87286572Y-110859143D01*
X87539525Y-111112538D01*
X87870194Y-111249843D01*
X88228236Y-111250156D01*
X88559143Y-111113428D01*
X88812538Y-110860475D01*
X88949843Y-110529806D01*
X88950133Y-110198040D01*
X98999827Y-110198040D01*
X99151747Y-110565714D01*
X99432806Y-110847264D01*
X99800215Y-110999826D01*
X100198040Y-111000173D01*
X100565714Y-110848253D01*
X100847264Y-110567194D01*
X100999826Y-110199785D01*
X101000173Y-109801960D01*
X100848253Y-109434286D01*
X100567194Y-109152736D01*
X100199785Y-109000174D01*
X99801960Y-108999827D01*
X99434286Y-109151747D01*
X99152736Y-109432806D01*
X99000174Y-109800215D01*
X98999827Y-110198040D01*
X88950133Y-110198040D01*
X88950156Y-110171764D01*
X88813428Y-109840857D01*
X88560475Y-109587462D01*
X88229806Y-109450157D01*
X88140029Y-109450079D01*
X87144975Y-108455025D01*
X86917879Y-108303284D01*
X86700209Y-108259987D01*
X86920095Y-108216249D01*
X87394921Y-107898980D01*
X87630000Y-107547160D01*
X87865079Y-107898980D01*
X88339905Y-108216249D01*
X88900000Y-108327659D01*
X89460095Y-108216249D01*
X89934921Y-107898980D01*
X90170000Y-107547160D01*
X90405079Y-107898980D01*
X90879905Y-108216249D01*
X91440000Y-108327659D01*
X92000095Y-108216249D01*
X92474921Y-107898980D01*
X92787524Y-107431137D01*
X127657129Y-107431137D01*
X128281248Y-109066520D01*
X128421424Y-109276308D01*
X128943334Y-109745956D01*
X132009289Y-106680000D01*
X128943334Y-103614044D01*
X128421424Y-104083692D01*
X127706352Y-105681401D01*
X127657129Y-107431137D01*
X92787524Y-107431137D01*
X92792190Y-107424154D01*
X92903600Y-106864059D01*
X92903600Y-106495941D01*
X92792190Y-105935846D01*
X92474921Y-105461020D01*
X92000095Y-105143751D01*
X91440000Y-105032341D01*
X90879905Y-105143751D01*
X90405079Y-105461020D01*
X90170000Y-105812840D01*
X89934921Y-105461020D01*
X89460095Y-105143751D01*
X88900000Y-105032341D01*
X88339905Y-105143751D01*
X87865079Y-105461020D01*
X87630000Y-105812840D01*
X87394921Y-105461020D01*
X86920095Y-105143751D01*
X86360000Y-105032341D01*
X85799905Y-105143751D01*
X85325079Y-105461020D01*
X85090000Y-105812840D01*
X84854921Y-105461020D01*
X84380095Y-105143751D01*
X83820000Y-105032341D01*
X83259905Y-105143751D01*
X82785079Y-105461020D01*
X82467810Y-105935846D01*
X82443162Y-106059759D01*
X82428280Y-105997847D01*
X82138145Y-105598744D01*
X81717365Y-105341051D01*
X81526900Y-105288357D01*
X81330000Y-105365075D01*
X81330000Y-106630000D01*
X81350000Y-106630000D01*
X81350000Y-106730000D01*
X81330000Y-106730000D01*
X81330000Y-107994925D01*
X81526900Y-108071643D01*
X81717365Y-108018949D01*
X82138145Y-107761256D01*
X82428280Y-107362153D01*
X82443162Y-107300241D01*
X82467810Y-107424154D01*
X82785079Y-107898980D01*
X83259905Y-108216249D01*
X83429582Y-108250000D01*
X74000005Y-108250000D01*
X74000000Y-108249999D01*
X73732121Y-108303284D01*
X73662206Y-108350000D01*
X73505025Y-108455025D01*
X73505023Y-108455028D01*
X72616352Y-109343699D01*
X72410475Y-109137462D01*
X72079806Y-109000157D01*
X71721764Y-108999844D01*
X71390857Y-109136572D01*
X71137462Y-109389525D01*
X71000157Y-109720194D01*
X71000102Y-109783353D01*
X70799785Y-109700174D01*
X70401960Y-109699827D01*
X70034286Y-109851747D01*
X69899925Y-109985874D01*
X69900156Y-109721764D01*
X69763428Y-109390857D01*
X69510475Y-109137462D01*
X69179806Y-109000157D01*
X68821764Y-108999844D01*
X68490857Y-109136572D01*
X68237462Y-109389525D01*
X68100157Y-109720194D01*
X68099912Y-110000000D01*
X64899913Y-110000000D01*
X64900156Y-109721764D01*
X64763428Y-109390857D01*
X64510475Y-109137462D01*
X64179806Y-109000157D01*
X63821764Y-108999844D01*
X63490857Y-109136572D01*
X63237462Y-109389525D01*
X63100157Y-109720194D01*
X63099912Y-110000000D01*
X61899913Y-110000000D01*
X61900156Y-109721764D01*
X61763428Y-109390857D01*
X61510475Y-109137462D01*
X61179806Y-109000157D01*
X60821764Y-108999844D01*
X60490857Y-109136572D01*
X60237462Y-109389525D01*
X60100157Y-109720194D01*
X60099844Y-110078236D01*
X60236572Y-110409143D01*
X60342869Y-110515625D01*
X57915015Y-112943478D01*
X57763274Y-113170574D01*
X57737561Y-113299843D01*
X57709990Y-113438453D01*
X57709990Y-114950061D01*
X51705709Y-120954341D01*
X51555025Y-121055025D01*
X43005025Y-129605025D01*
X42853284Y-129832121D01*
X42815319Y-130022987D01*
X42800000Y-130100000D01*
X42800000Y-131785799D01*
X42652736Y-131932806D01*
X42500174Y-132300215D01*
X42499827Y-132698040D01*
X42651747Y-133065714D01*
X42932806Y-133347264D01*
X43300215Y-133499826D01*
X43698040Y-133500173D01*
X44065714Y-133348253D01*
X44347264Y-133067194D01*
X44499826Y-132699785D01*
X44500173Y-132301960D01*
X44348253Y-131934286D01*
X44200000Y-131785774D01*
X44200000Y-130389950D01*
X52444291Y-122145659D01*
X52594975Y-122044975D01*
X58904962Y-115734987D01*
X58904965Y-115734985D01*
X58912093Y-115724317D01*
X59081780Y-115978270D01*
X58155025Y-116905025D01*
X58003284Y-117132121D01*
X58003284Y-117132122D01*
X57950000Y-117400000D01*
X57950000Y-131570379D01*
X57594072Y-131213830D01*
X57079699Y-131000243D01*
X56522744Y-130999757D01*
X56401147Y-131050000D01*
X53600000Y-131050000D01*
X53083377Y-131152763D01*
X52749149Y-131376087D01*
X52645406Y-131445406D01*
X51390812Y-132700000D01*
X45950000Y-132700000D01*
X45433377Y-132802763D01*
X45145712Y-132994975D01*
X44995406Y-133095406D01*
X43345406Y-134745406D01*
X43203644Y-134957568D01*
X43198556Y-134962647D01*
X43195775Y-134969345D01*
X43052763Y-135183377D01*
X43002982Y-135433641D01*
X43000226Y-135440279D01*
X43000220Y-135447529D01*
X42950000Y-135700000D01*
X42950000Y-140350000D01*
X43052763Y-140866623D01*
X43288724Y-141219763D01*
X43345406Y-141304594D01*
X47195406Y-145154594D01*
X47633377Y-145447237D01*
X48150000Y-145550000D01*
X56660050Y-145550000D01*
X53888588Y-148321462D01*
X53340000Y-148212341D01*
X52779905Y-148323751D01*
X52305079Y-148641020D01*
X51987810Y-149115846D01*
X51963162Y-149239759D01*
X51948280Y-149177847D01*
X51658145Y-148778744D01*
X51237365Y-148521051D01*
X51046900Y-148468357D01*
X50850000Y-148545075D01*
X50850000Y-149810000D01*
X50870000Y-149810000D01*
X50870000Y-149910000D01*
X50850000Y-149910000D01*
X50850000Y-149930000D01*
X50750000Y-149930000D01*
X50750000Y-149910000D01*
X50730000Y-149910000D01*
X50730000Y-149810000D01*
X50750000Y-149810000D01*
X50750000Y-148545075D01*
X50553100Y-148468357D01*
X50362635Y-148521051D01*
X49941855Y-148778744D01*
X49735354Y-149062802D01*
X49735354Y-148844000D01*
X49688787Y-148609892D01*
X49556175Y-148411425D01*
X49357708Y-148278813D01*
X49123600Y-148232246D01*
X47396400Y-148232246D01*
X47162292Y-148278813D01*
X46963825Y-148411425D01*
X46831213Y-148609892D01*
X46784646Y-148844000D01*
X46784646Y-150876000D01*
X46795387Y-150930000D01*
X43280020Y-150930000D01*
X43705956Y-150456666D01*
X40640000Y-147390711D01*
X37574044Y-150456666D01*
X37999980Y-150930000D01*
X37030000Y-150930000D01*
X37030000Y-149960020D01*
X37503334Y-150385956D01*
X40569289Y-147320000D01*
X40710711Y-147320000D01*
X43776666Y-150385956D01*
X44298576Y-149916308D01*
X45013648Y-148318599D01*
X45062871Y-146568863D01*
X44438752Y-144933480D01*
X44298576Y-144723692D01*
X43776666Y-144254044D01*
X40710711Y-147320000D01*
X40569289Y-147320000D01*
X37503334Y-144254044D01*
X37030000Y-144679980D01*
X37030000Y-144183334D01*
X37574044Y-144183334D01*
X40640000Y-147249289D01*
X43705956Y-144183334D01*
X43236308Y-143661424D01*
X41638599Y-142946352D01*
X39888863Y-142897129D01*
X38253480Y-143521248D01*
X38043692Y-143661424D01*
X37574044Y-144183334D01*
X37030000Y-144183334D01*
X37030000Y-140566328D01*
X37417847Y-140848280D01*
X37897600Y-140963600D01*
X38050000Y-140963600D01*
X38050000Y-139750000D01*
X38150000Y-139750000D01*
X38150000Y-140963600D01*
X38302400Y-140963600D01*
X38782153Y-140848280D01*
X39181256Y-140558145D01*
X39438949Y-140137365D01*
X39491643Y-139946900D01*
X39414925Y-139750000D01*
X38150000Y-139750000D01*
X38050000Y-139750000D01*
X38030000Y-139750000D01*
X38030000Y-139650000D01*
X38050000Y-139650000D01*
X38050000Y-138436400D01*
X38150000Y-138436400D01*
X38150000Y-139650000D01*
X39414925Y-139650000D01*
X39491643Y-139453100D01*
X39438949Y-139262635D01*
X39181256Y-138841855D01*
X38782153Y-138551720D01*
X38302400Y-138436400D01*
X38150000Y-138436400D01*
X38050000Y-138436400D01*
X37897600Y-138436400D01*
X37417847Y-138551720D01*
X37030000Y-138833672D01*
X37030000Y-138026328D01*
X37417847Y-138308280D01*
X37897600Y-138423600D01*
X38050000Y-138423600D01*
X38050000Y-137210000D01*
X38150000Y-137210000D01*
X38150000Y-138423600D01*
X38302400Y-138423600D01*
X38782153Y-138308280D01*
X39181256Y-138018145D01*
X39438949Y-137597365D01*
X39491643Y-137406900D01*
X39414925Y-137210000D01*
X38150000Y-137210000D01*
X38050000Y-137210000D01*
X38030000Y-137210000D01*
X38030000Y-137110000D01*
X38050000Y-137110000D01*
X38050000Y-137090000D01*
X38150000Y-137090000D01*
X38150000Y-137110000D01*
X39414925Y-137110000D01*
X39491643Y-136913100D01*
X39438949Y-136722635D01*
X39181256Y-136301855D01*
X38782153Y-136011720D01*
X38720241Y-135996838D01*
X38844154Y-135972190D01*
X39318980Y-135654921D01*
X39636249Y-135180095D01*
X39747659Y-134620000D01*
X39636249Y-134059905D01*
X39318980Y-133585079D01*
X38967160Y-133350000D01*
X39318980Y-133114921D01*
X39636249Y-132640095D01*
X39747659Y-132080000D01*
X39636249Y-131519905D01*
X39318980Y-131045079D01*
X38844154Y-130727810D01*
X38720241Y-130703162D01*
X38782153Y-130688280D01*
X39181256Y-130398145D01*
X39438949Y-129977365D01*
X39491643Y-129786900D01*
X39414925Y-129590000D01*
X38150000Y-129590000D01*
X38150000Y-129610000D01*
X38050000Y-129610000D01*
X38050000Y-129590000D01*
X38030000Y-129590000D01*
X38030000Y-129490000D01*
X38050000Y-129490000D01*
X38050000Y-128276400D01*
X38150000Y-128276400D01*
X38150000Y-129490000D01*
X39414925Y-129490000D01*
X39491643Y-129293100D01*
X39438949Y-129102635D01*
X39181256Y-128681855D01*
X38782153Y-128391720D01*
X38302400Y-128276400D01*
X38150000Y-128276400D01*
X38050000Y-128276400D01*
X37897600Y-128276400D01*
X37417847Y-128391720D01*
X37030000Y-128673672D01*
X37030000Y-128263600D01*
X37950000Y-128263600D01*
X38050000Y-128163600D01*
X38050000Y-127050000D01*
X38150000Y-127050000D01*
X38150000Y-128163600D01*
X38250000Y-128263600D01*
X39195565Y-128263600D01*
X39342582Y-128202704D01*
X39455104Y-128090182D01*
X39516000Y-127943165D01*
X39516000Y-127150000D01*
X39416000Y-127050000D01*
X38150000Y-127050000D01*
X38050000Y-127050000D01*
X38030000Y-127050000D01*
X38030000Y-126950000D01*
X38050000Y-126950000D01*
X38050000Y-125836400D01*
X38150000Y-125836400D01*
X38150000Y-126950000D01*
X39416000Y-126950000D01*
X39516000Y-126850000D01*
X39516000Y-126056835D01*
X39455104Y-125909818D01*
X39342582Y-125797296D01*
X39195565Y-125736400D01*
X38250000Y-125736400D01*
X38150000Y-125836400D01*
X38050000Y-125836400D01*
X37950000Y-125736400D01*
X37030000Y-125736400D01*
X37030000Y-116450000D01*
X37550000Y-116450000D01*
X37550000Y-116550000D01*
X37652763Y-117066623D01*
X37945406Y-117504594D01*
X38383377Y-117797237D01*
X38900000Y-117900000D01*
X39416623Y-117797237D01*
X39854594Y-117504594D01*
X40147237Y-117066623D01*
X40250000Y-116550000D01*
X40250000Y-116450000D01*
X40199193Y-116194572D01*
X52876139Y-116194572D01*
X53102430Y-116508656D01*
X53977493Y-116890583D01*
X54932103Y-116908566D01*
X55820929Y-116559866D01*
X55897570Y-116508656D01*
X56123861Y-116194572D01*
X54500000Y-114570711D01*
X52876139Y-116194572D01*
X40199193Y-116194572D01*
X40147237Y-115933377D01*
X39854594Y-115495406D01*
X39416623Y-115202763D01*
X38900000Y-115100000D01*
X38383377Y-115202763D01*
X37945406Y-115495406D01*
X37652763Y-115933377D01*
X37550000Y-116450000D01*
X37030000Y-116450000D01*
X37030000Y-114932103D01*
X52091434Y-114932103D01*
X52440134Y-115820929D01*
X52491344Y-115897570D01*
X52805428Y-116123861D01*
X54429289Y-114500000D01*
X54570711Y-114500000D01*
X56194572Y-116123861D01*
X56508656Y-115897570D01*
X56890583Y-115022507D01*
X56908566Y-114067897D01*
X56559866Y-113179071D01*
X56508656Y-113102430D01*
X56194572Y-112876139D01*
X54570711Y-114500000D01*
X54429289Y-114500000D01*
X52805428Y-112876139D01*
X52491344Y-113102430D01*
X52109417Y-113977493D01*
X52091434Y-114932103D01*
X37030000Y-114932103D01*
X37030000Y-112805428D01*
X52876139Y-112805428D01*
X54500000Y-114429289D01*
X56123861Y-112805428D01*
X55897570Y-112491344D01*
X55022507Y-112109417D01*
X54067897Y-112091434D01*
X53179071Y-112440134D01*
X53102430Y-112491344D01*
X52876139Y-112805428D01*
X37030000Y-112805428D01*
X37030000Y-109816666D01*
X37574044Y-109816666D01*
X38043692Y-110338576D01*
X39641401Y-111053648D01*
X41391137Y-111102871D01*
X43026520Y-110478752D01*
X43236308Y-110338576D01*
X43585973Y-109950000D01*
X48200000Y-109950000D01*
X48321793Y-110562294D01*
X48364665Y-110626456D01*
X48371793Y-110662293D01*
X48718629Y-111181371D01*
X49237707Y-111528207D01*
X49850000Y-111650000D01*
X50462293Y-111528207D01*
X50981371Y-111181371D01*
X51328207Y-110662293D01*
X51444383Y-110078236D01*
X55599844Y-110078236D01*
X55736572Y-110409143D01*
X55989525Y-110662538D01*
X56320194Y-110799843D01*
X56678236Y-110800156D01*
X57009143Y-110663428D01*
X57262538Y-110410475D01*
X57399843Y-110079806D01*
X57400156Y-109721764D01*
X57263428Y-109390857D01*
X57010475Y-109137462D01*
X56679806Y-109000157D01*
X56321764Y-108999844D01*
X55990857Y-109136572D01*
X55737462Y-109389525D01*
X55600157Y-109720194D01*
X55599844Y-110078236D01*
X51444383Y-110078236D01*
X51450000Y-110050000D01*
X51450000Y-110000000D01*
X51328207Y-109387707D01*
X50981371Y-108868629D01*
X50931371Y-108818629D01*
X50412294Y-108471793D01*
X49800000Y-108350000D01*
X49187706Y-108471793D01*
X48668629Y-108818629D01*
X48321793Y-109337706D01*
X48200000Y-109950000D01*
X43585973Y-109950000D01*
X43705956Y-109816666D01*
X40640000Y-106750711D01*
X37574044Y-109816666D01*
X37030000Y-109816666D01*
X37030000Y-109320020D01*
X37503334Y-109745956D01*
X40569289Y-106680000D01*
X40710711Y-106680000D01*
X43776666Y-109745956D01*
X44298576Y-109276308D01*
X45013648Y-107678599D01*
X45034794Y-106926901D01*
X47020752Y-106926901D01*
X47209569Y-107382346D01*
X47558304Y-107730866D01*
X48013100Y-107919243D01*
X48210000Y-107842525D01*
X48210000Y-106730000D01*
X48310000Y-106730000D01*
X48310000Y-107842525D01*
X48506900Y-107919243D01*
X48961696Y-107730866D01*
X49310431Y-107382346D01*
X49499248Y-106926901D01*
X49560752Y-106926901D01*
X49749569Y-107382346D01*
X50098304Y-107730866D01*
X50553100Y-107919243D01*
X50750000Y-107842525D01*
X50750000Y-106730000D01*
X50850000Y-106730000D01*
X50850000Y-107842525D01*
X51046900Y-107919243D01*
X51501696Y-107730866D01*
X51850431Y-107382346D01*
X52039248Y-106926901D01*
X52100752Y-106926901D01*
X52289569Y-107382346D01*
X52638304Y-107730866D01*
X53093100Y-107919243D01*
X53290000Y-107842525D01*
X53290000Y-106730000D01*
X53390000Y-106730000D01*
X53390000Y-107842525D01*
X53586900Y-107919243D01*
X54041696Y-107730866D01*
X54390431Y-107382346D01*
X54579248Y-106926901D01*
X54640752Y-106926901D01*
X54829569Y-107382346D01*
X55178304Y-107730866D01*
X55633100Y-107919243D01*
X55830000Y-107842525D01*
X55830000Y-106730000D01*
X55930000Y-106730000D01*
X55930000Y-107842525D01*
X56126900Y-107919243D01*
X56581696Y-107730866D01*
X56930431Y-107382346D01*
X57119248Y-106926901D01*
X57180752Y-106926901D01*
X57369569Y-107382346D01*
X57718304Y-107730866D01*
X58173100Y-107919243D01*
X58370000Y-107842525D01*
X58370000Y-106730000D01*
X58470000Y-106730000D01*
X58470000Y-107842525D01*
X58666900Y-107919243D01*
X59121696Y-107730866D01*
X59470431Y-107382346D01*
X59659248Y-106926901D01*
X59720752Y-106926901D01*
X59909569Y-107382346D01*
X60258304Y-107730866D01*
X60713100Y-107919243D01*
X60910000Y-107842525D01*
X60910000Y-106730000D01*
X61010000Y-106730000D01*
X61010000Y-107842525D01*
X61206900Y-107919243D01*
X61661696Y-107730866D01*
X62010431Y-107382346D01*
X62199248Y-106926901D01*
X62260752Y-106926901D01*
X62449569Y-107382346D01*
X62798304Y-107730866D01*
X63253100Y-107919243D01*
X63450000Y-107842525D01*
X63450000Y-106730000D01*
X63550000Y-106730000D01*
X63550000Y-107842525D01*
X63746900Y-107919243D01*
X64201696Y-107730866D01*
X64550431Y-107382346D01*
X64739248Y-106926901D01*
X64800752Y-106926901D01*
X64989569Y-107382346D01*
X65338304Y-107730866D01*
X65793100Y-107919243D01*
X65990000Y-107842525D01*
X65990000Y-106730000D01*
X66090000Y-106730000D01*
X66090000Y-107842525D01*
X66286900Y-107919243D01*
X66741696Y-107730866D01*
X67090431Y-107382346D01*
X67279248Y-106926901D01*
X67340752Y-106926901D01*
X67529569Y-107382346D01*
X67878304Y-107730866D01*
X68333100Y-107919243D01*
X68530000Y-107842525D01*
X68530000Y-106730000D01*
X67417385Y-106730000D01*
X67340752Y-106926901D01*
X67279248Y-106926901D01*
X67202615Y-106730000D01*
X66090000Y-106730000D01*
X65990000Y-106730000D01*
X64877385Y-106730000D01*
X64800752Y-106926901D01*
X64739248Y-106926901D01*
X64662615Y-106730000D01*
X63550000Y-106730000D01*
X63450000Y-106730000D01*
X62337385Y-106730000D01*
X62260752Y-106926901D01*
X62199248Y-106926901D01*
X62122615Y-106730000D01*
X61010000Y-106730000D01*
X60910000Y-106730000D01*
X59797385Y-106730000D01*
X59720752Y-106926901D01*
X59659248Y-106926901D01*
X59582615Y-106730000D01*
X58470000Y-106730000D01*
X58370000Y-106730000D01*
X57257385Y-106730000D01*
X57180752Y-106926901D01*
X57119248Y-106926901D01*
X57042615Y-106730000D01*
X55930000Y-106730000D01*
X55830000Y-106730000D01*
X54717385Y-106730000D01*
X54640752Y-106926901D01*
X54579248Y-106926901D01*
X54502615Y-106730000D01*
X53390000Y-106730000D01*
X53290000Y-106730000D01*
X52177385Y-106730000D01*
X52100752Y-106926901D01*
X52039248Y-106926901D01*
X51962615Y-106730000D01*
X50850000Y-106730000D01*
X50750000Y-106730000D01*
X49637385Y-106730000D01*
X49560752Y-106926901D01*
X49499248Y-106926901D01*
X49422615Y-106730000D01*
X48310000Y-106730000D01*
X48210000Y-106730000D01*
X47097385Y-106730000D01*
X47020752Y-106926901D01*
X45034794Y-106926901D01*
X45062871Y-105928863D01*
X44438752Y-104293480D01*
X44298576Y-104083692D01*
X43776666Y-103614044D01*
X40710711Y-106680000D01*
X40569289Y-106680000D01*
X37503334Y-103614044D01*
X37030000Y-104039980D01*
X37030000Y-103070000D01*
X37999980Y-103070000D01*
X37574044Y-103543334D01*
G36*
X91118677Y-120008626D02*
X90937462Y-120189525D01*
X90800157Y-120520194D01*
X90800079Y-120609971D01*
X89710050Y-121700000D01*
X89691458Y-121700000D01*
X89699843Y-121679806D01*
X89700156Y-121321764D01*
X89563428Y-120990857D01*
X89500000Y-120927318D01*
X89500000Y-120222904D01*
X89562538Y-120160475D01*
X89699843Y-119829806D01*
X89700156Y-119471764D01*
X89563428Y-119140857D01*
X89310475Y-118887462D01*
X88979806Y-118750157D01*
X88621764Y-118749844D01*
X88290857Y-118886572D01*
X88037462Y-119139525D01*
X87900157Y-119470194D01*
X87899844Y-119828236D01*
X88036572Y-120159143D01*
X88100000Y-120222682D01*
X88100000Y-120927096D01*
X88037462Y-120989525D01*
X87984601Y-121116828D01*
X87900000Y-121100000D01*
X84800000Y-121100000D01*
X84532121Y-121153284D01*
X84305025Y-121305025D01*
X82410129Y-123199921D01*
X82321764Y-123199844D01*
X81990857Y-123336572D01*
X81737462Y-123589525D01*
X81600157Y-123920194D01*
X81599844Y-124278236D01*
X81736572Y-124609143D01*
X81989525Y-124862538D01*
X82320194Y-124999843D01*
X82678236Y-125000156D01*
X83009143Y-124863428D01*
X83262538Y-124610475D01*
X83399843Y-124279806D01*
X83399921Y-124190029D01*
X85089950Y-122500000D01*
X87610050Y-122500000D01*
X88005025Y-122894975D01*
X88232121Y-123046716D01*
X88500000Y-123100000D01*
X90000000Y-123100000D01*
X90267879Y-123046716D01*
X90494975Y-122894975D01*
X91789871Y-121600079D01*
X91878236Y-121600156D01*
X92000000Y-121549844D01*
X92000000Y-122610050D01*
X82705025Y-131905025D01*
X82553284Y-132132121D01*
X82553284Y-132132122D01*
X82500000Y-132400000D01*
X82500000Y-147650050D01*
X81828588Y-148321462D01*
X81280000Y-148212341D01*
X80719905Y-148323751D01*
X80245079Y-148641020D01*
X80010000Y-148992840D01*
X79774921Y-148641020D01*
X79300095Y-148323751D01*
X78740000Y-148212341D01*
X78179905Y-148323751D01*
X77705079Y-148641020D01*
X77387810Y-149115846D01*
X77276400Y-149675941D01*
X77276400Y-150044059D01*
X77387810Y-150604154D01*
X77605534Y-150930000D01*
X71986328Y-150930000D01*
X72268280Y-150542153D01*
X72383600Y-150062400D01*
X72383600Y-149910000D01*
X71170000Y-149910000D01*
X71170000Y-149930000D01*
X71070000Y-149930000D01*
X71070000Y-149910000D01*
X71050000Y-149910000D01*
X71050000Y-149810000D01*
X71070000Y-149810000D01*
X71070000Y-149790000D01*
X71170000Y-149790000D01*
X71170000Y-149810000D01*
X72383600Y-149810000D01*
X72383600Y-149657600D01*
X72268280Y-149177847D01*
X71978145Y-148778744D01*
X71557365Y-148521051D01*
X71366900Y-148468357D01*
X71170002Y-148545074D01*
X71170002Y-148511662D01*
X71194975Y-148494975D01*
X73294972Y-146394977D01*
X73294975Y-146394975D01*
X73446716Y-146167878D01*
X73500000Y-145900000D01*
X73500000Y-134789950D01*
X74489871Y-133800079D01*
X74578236Y-133800156D01*
X74909143Y-133663428D01*
X75162538Y-133410475D01*
X75299843Y-133079806D01*
X75300156Y-132721764D01*
X75163428Y-132390857D01*
X74910475Y-132137462D01*
X74579806Y-132000157D01*
X74221764Y-131999844D01*
X73890857Y-132136572D01*
X73637462Y-132389525D01*
X73500157Y-132720194D01*
X73500079Y-132809971D01*
X73178256Y-133131794D01*
X73199843Y-133079806D01*
X73200156Y-132721764D01*
X73063428Y-132390857D01*
X72810475Y-132137462D01*
X72479806Y-132000157D01*
X72121764Y-131999844D01*
X71790857Y-132136572D01*
X71537462Y-132389525D01*
X71400157Y-132720194D01*
X71399844Y-133078236D01*
X71536572Y-133409143D01*
X71600000Y-133472682D01*
X71600000Y-135991589D01*
X71379806Y-135900157D01*
X71021764Y-135899844D01*
X70690857Y-136036572D01*
X70437462Y-136289525D01*
X70308503Y-136600095D01*
X70021764Y-136599844D01*
X69838546Y-136675548D01*
X70047264Y-136467194D01*
X70199826Y-136099785D01*
X70200173Y-135701960D01*
X70048253Y-135334286D01*
X69767194Y-135052736D01*
X69399785Y-134900174D01*
X69001960Y-134899827D01*
X68634286Y-135051747D01*
X68352736Y-135332806D01*
X68200174Y-135700215D01*
X68199827Y-136098040D01*
X68351747Y-136465714D01*
X68632806Y-136747264D01*
X69000215Y-136899826D01*
X69398040Y-136900173D01*
X69618025Y-136809277D01*
X69437462Y-136989525D01*
X69300157Y-137320194D01*
X69299844Y-137678236D01*
X69436572Y-138009143D01*
X69689525Y-138262538D01*
X69900000Y-138349934D01*
X69900000Y-142949456D01*
X69666359Y-142902982D01*
X69659721Y-142900226D01*
X69652471Y-142900220D01*
X69400000Y-142850000D01*
X55081386Y-142850000D01*
X55820929Y-142559866D01*
X55897570Y-142508656D01*
X56123861Y-142194572D01*
X54500000Y-140570711D01*
X52876139Y-142194572D01*
X53102430Y-142508656D01*
X53884510Y-142850000D01*
X48709188Y-142850000D01*
X46791291Y-140932103D01*
X52091434Y-140932103D01*
X52440134Y-141820929D01*
X52491344Y-141897570D01*
X52805428Y-142123861D01*
X54429289Y-140500000D01*
X52805428Y-138876139D01*
X52491344Y-139102430D01*
X52109417Y-139977493D01*
X52091434Y-140932103D01*
X46791291Y-140932103D01*
X45650000Y-139790812D01*
X45650000Y-138805428D01*
X52876139Y-138805428D01*
X54500000Y-140429289D01*
X56123861Y-138805428D01*
X55897570Y-138491344D01*
X55022507Y-138109417D01*
X54067897Y-138091434D01*
X53179071Y-138440134D01*
X53102430Y-138491344D01*
X52876139Y-138805428D01*
X45650000Y-138805428D01*
X45650000Y-136259188D01*
X46509188Y-135400000D01*
X51950000Y-135400000D01*
X52466623Y-135297237D01*
X52904594Y-135004594D01*
X54159188Y-133750000D01*
X56400473Y-133750000D01*
X56520301Y-133799757D01*
X57077256Y-133800243D01*
X57592000Y-133587555D01*
X57950000Y-133230179D01*
X57950000Y-137510050D01*
X57110129Y-138349921D01*
X57021764Y-138349844D01*
X56690857Y-138486572D01*
X56437462Y-138739525D01*
X56337866Y-138979380D01*
X56194572Y-138876139D01*
X54570711Y-140500000D01*
X56194572Y-142123861D01*
X56508656Y-141897570D01*
X56890583Y-141022507D01*
X56907901Y-140103215D01*
X57020194Y-140149843D01*
X57378236Y-140150156D01*
X57709143Y-140013428D01*
X57962538Y-139760475D01*
X58099843Y-139429806D01*
X58099921Y-139340029D01*
X58889478Y-138550472D01*
X59166405Y-138964921D01*
X59641231Y-139282190D01*
X60201326Y-139393600D01*
X60258674Y-139393600D01*
X60818769Y-139282190D01*
X61293595Y-138964921D01*
X61500000Y-138656014D01*
X61706405Y-138964921D01*
X62181231Y-139282190D01*
X62741326Y-139393600D01*
X62798674Y-139393600D01*
X63358769Y-139282190D01*
X63833595Y-138964921D01*
X64150864Y-138490095D01*
X64212896Y-138178236D01*
X64399844Y-138178236D01*
X64536572Y-138509143D01*
X64696173Y-138669023D01*
X64600174Y-138900215D01*
X64599827Y-139298040D01*
X64751747Y-139665714D01*
X65032806Y-139947264D01*
X65400215Y-140099826D01*
X65798040Y-140100173D01*
X66165714Y-139948253D01*
X66447264Y-139667194D01*
X66599826Y-139299785D01*
X66600173Y-138901960D01*
X66448253Y-138534286D01*
X66168865Y-138254410D01*
X66199843Y-138179806D01*
X66200156Y-137821764D01*
X66063428Y-137490857D01*
X65810475Y-137237462D01*
X65479806Y-137100157D01*
X65121764Y-137099844D01*
X64790857Y-137236572D01*
X64537462Y-137489525D01*
X64400157Y-137820194D01*
X64399844Y-138178236D01*
X64212896Y-138178236D01*
X64262274Y-137930000D01*
X64150864Y-137369905D01*
X63833595Y-136895079D01*
X63481775Y-136660000D01*
X63833595Y-136424921D01*
X64150864Y-135950095D01*
X64262274Y-135390000D01*
X64150864Y-134829905D01*
X63833595Y-134355079D01*
X63358769Y-134037810D01*
X63211590Y-134008534D01*
X63472346Y-133900431D01*
X63820866Y-133551696D01*
X64009243Y-133096900D01*
X63932525Y-132900000D01*
X62820000Y-132900000D01*
X62820000Y-132920000D01*
X62720000Y-132920000D01*
X62720000Y-132900000D01*
X62700000Y-132900000D01*
X62700000Y-132800000D01*
X62720000Y-132800000D01*
X62720000Y-132780000D01*
X62820000Y-132780000D01*
X62820000Y-132800000D01*
X63932525Y-132800000D01*
X64009243Y-132603100D01*
X63820866Y-132148304D01*
X63570757Y-131898040D01*
X68199827Y-131898040D01*
X68351747Y-132265714D01*
X68632806Y-132547264D01*
X69000215Y-132699826D01*
X69398040Y-132700173D01*
X69765714Y-132548253D01*
X70047264Y-132267194D01*
X70199826Y-131899785D01*
X70200173Y-131501960D01*
X70048253Y-131134286D01*
X69767194Y-130852736D01*
X69399785Y-130700174D01*
X69001960Y-130699827D01*
X68634286Y-130851747D01*
X68352736Y-131132806D01*
X68200174Y-131500215D01*
X68199827Y-131898040D01*
X63570757Y-131898040D01*
X63472346Y-131799569D01*
X63211590Y-131691466D01*
X63358769Y-131662190D01*
X63833595Y-131344921D01*
X64150864Y-130870095D01*
X64262274Y-130310000D01*
X64150864Y-129749905D01*
X63833595Y-129275079D01*
X63481775Y-129040000D01*
X63833595Y-128804921D01*
X64150864Y-128330095D01*
X64262274Y-127770000D01*
X64150864Y-127209905D01*
X63833595Y-126735079D01*
X63481775Y-126500000D01*
X63833595Y-126264921D01*
X64150864Y-125790095D01*
X64175631Y-125665581D01*
X67605025Y-129094975D01*
X67832122Y-129246716D01*
X68100000Y-129300000D01*
X72085949Y-129300000D01*
X71852736Y-129532806D01*
X71700174Y-129900215D01*
X71699827Y-130298040D01*
X71851747Y-130665714D01*
X72132806Y-130947264D01*
X72500215Y-131099826D01*
X72898040Y-131100173D01*
X73265714Y-130948253D01*
X73547264Y-130667194D01*
X73699826Y-130299785D01*
X73700173Y-129901960D01*
X73548253Y-129534286D01*
X73314376Y-129300000D01*
X75250000Y-129300000D01*
X75517879Y-129246716D01*
X75744975Y-129094975D01*
X76589871Y-128250079D01*
X76678236Y-128250156D01*
X77009143Y-128113428D01*
X77262538Y-127860475D01*
X77399843Y-127529806D01*
X77400156Y-127171764D01*
X77370504Y-127100000D01*
X79379496Y-127100000D01*
X79486572Y-127359143D01*
X79739525Y-127612538D01*
X80070194Y-127749843D01*
X80428236Y-127750156D01*
X80759143Y-127613428D01*
X81012538Y-127360475D01*
X81149843Y-127029806D01*
X81150156Y-126671764D01*
X81013428Y-126340857D01*
X80972749Y-126300107D01*
X81062538Y-126210475D01*
X81199843Y-125879806D01*
X81200156Y-125521764D01*
X81063428Y-125190857D01*
X80810475Y-124937462D01*
X80479806Y-124800157D01*
X80391196Y-124800080D01*
X80308528Y-124600008D01*
X80478236Y-124600156D01*
X80809143Y-124463428D01*
X81062538Y-124210475D01*
X81199843Y-123879806D01*
X81199921Y-123790028D01*
X81794972Y-123194977D01*
X81794975Y-123194975D01*
X81925358Y-122999843D01*
X81946716Y-122967879D01*
X82000001Y-122700000D01*
X82000000Y-122699995D01*
X82000000Y-122389950D01*
X83094972Y-121294977D01*
X83094975Y-121294975D01*
X85189871Y-119200079D01*
X85278236Y-119200156D01*
X85609143Y-119063428D01*
X85862538Y-118810475D01*
X85999843Y-118479806D01*
X86000156Y-118121764D01*
X85863428Y-117790857D01*
X85610475Y-117537462D01*
X85520256Y-117500000D01*
X88610050Y-117500000D01*
X91118677Y-120008626D01*
X91118677Y-120008626D01*
G37*
X91118677Y-120008626D02*
X90937462Y-120189525D01*
X90800157Y-120520194D01*
X90800079Y-120609971D01*
X89710050Y-121700000D01*
X89691458Y-121700000D01*
X89699843Y-121679806D01*
X89700156Y-121321764D01*
X89563428Y-120990857D01*
X89500000Y-120927318D01*
X89500000Y-120222904D01*
X89562538Y-120160475D01*
X89699843Y-119829806D01*
X89700156Y-119471764D01*
X89563428Y-119140857D01*
X89310475Y-118887462D01*
X88979806Y-118750157D01*
X88621764Y-118749844D01*
X88290857Y-118886572D01*
X88037462Y-119139525D01*
X87900157Y-119470194D01*
X87899844Y-119828236D01*
X88036572Y-120159143D01*
X88100000Y-120222682D01*
X88100000Y-120927096D01*
X88037462Y-120989525D01*
X87984601Y-121116828D01*
X87900000Y-121100000D01*
X84800000Y-121100000D01*
X84532121Y-121153284D01*
X84305025Y-121305025D01*
X82410129Y-123199921D01*
X82321764Y-123199844D01*
X81990857Y-123336572D01*
X81737462Y-123589525D01*
X81600157Y-123920194D01*
X81599844Y-124278236D01*
X81736572Y-124609143D01*
X81989525Y-124862538D01*
X82320194Y-124999843D01*
X82678236Y-125000156D01*
X83009143Y-124863428D01*
X83262538Y-124610475D01*
X83399843Y-124279806D01*
X83399921Y-124190029D01*
X85089950Y-122500000D01*
X87610050Y-122500000D01*
X88005025Y-122894975D01*
X88232121Y-123046716D01*
X88500000Y-123100000D01*
X90000000Y-123100000D01*
X90267879Y-123046716D01*
X90494975Y-122894975D01*
X91789871Y-121600079D01*
X91878236Y-121600156D01*
X92000000Y-121549844D01*
X92000000Y-122610050D01*
X82705025Y-131905025D01*
X82553284Y-132132121D01*
X82553284Y-132132122D01*
X82500000Y-132400000D01*
X82500000Y-147650050D01*
X81828588Y-148321462D01*
X81280000Y-148212341D01*
X80719905Y-148323751D01*
X80245079Y-148641020D01*
X80010000Y-148992840D01*
X79774921Y-148641020D01*
X79300095Y-148323751D01*
X78740000Y-148212341D01*
X78179905Y-148323751D01*
X77705079Y-148641020D01*
X77387810Y-149115846D01*
X77276400Y-149675941D01*
X77276400Y-150044059D01*
X77387810Y-150604154D01*
X77605534Y-150930000D01*
X71986328Y-150930000D01*
X72268280Y-150542153D01*
X72383600Y-150062400D01*
X72383600Y-149910000D01*
X71170000Y-149910000D01*
X71170000Y-149930000D01*
X71070000Y-149930000D01*
X71070000Y-149910000D01*
X71050000Y-149910000D01*
X71050000Y-149810000D01*
X71070000Y-149810000D01*
X71070000Y-149790000D01*
X71170000Y-149790000D01*
X71170000Y-149810000D01*
X72383600Y-149810000D01*
X72383600Y-149657600D01*
X72268280Y-149177847D01*
X71978145Y-148778744D01*
X71557365Y-148521051D01*
X71366900Y-148468357D01*
X71170002Y-148545074D01*
X71170002Y-148511662D01*
X71194975Y-148494975D01*
X73294972Y-146394977D01*
X73294975Y-146394975D01*
X73446716Y-146167878D01*
X73500000Y-145900000D01*
X73500000Y-134789950D01*
X74489871Y-133800079D01*
X74578236Y-133800156D01*
X74909143Y-133663428D01*
X75162538Y-133410475D01*
X75299843Y-133079806D01*
X75300156Y-132721764D01*
X75163428Y-132390857D01*
X74910475Y-132137462D01*
X74579806Y-132000157D01*
X74221764Y-131999844D01*
X73890857Y-132136572D01*
X73637462Y-132389525D01*
X73500157Y-132720194D01*
X73500079Y-132809971D01*
X73178256Y-133131794D01*
X73199843Y-133079806D01*
X73200156Y-132721764D01*
X73063428Y-132390857D01*
X72810475Y-132137462D01*
X72479806Y-132000157D01*
X72121764Y-131999844D01*
X71790857Y-132136572D01*
X71537462Y-132389525D01*
X71400157Y-132720194D01*
X71399844Y-133078236D01*
X71536572Y-133409143D01*
X71600000Y-133472682D01*
X71600000Y-135991589D01*
X71379806Y-135900157D01*
X71021764Y-135899844D01*
X70690857Y-136036572D01*
X70437462Y-136289525D01*
X70308503Y-136600095D01*
X70021764Y-136599844D01*
X69838546Y-136675548D01*
X70047264Y-136467194D01*
X70199826Y-136099785D01*
X70200173Y-135701960D01*
X70048253Y-135334286D01*
X69767194Y-135052736D01*
X69399785Y-134900174D01*
X69001960Y-134899827D01*
X68634286Y-135051747D01*
X68352736Y-135332806D01*
X68200174Y-135700215D01*
X68199827Y-136098040D01*
X68351747Y-136465714D01*
X68632806Y-136747264D01*
X69000215Y-136899826D01*
X69398040Y-136900173D01*
X69618025Y-136809277D01*
X69437462Y-136989525D01*
X69300157Y-137320194D01*
X69299844Y-137678236D01*
X69436572Y-138009143D01*
X69689525Y-138262538D01*
X69900000Y-138349934D01*
X69900000Y-142949456D01*
X69666359Y-142902982D01*
X69659721Y-142900226D01*
X69652471Y-142900220D01*
X69400000Y-142850000D01*
X55081386Y-142850000D01*
X55820929Y-142559866D01*
X55897570Y-142508656D01*
X56123861Y-142194572D01*
X54500000Y-140570711D01*
X52876139Y-142194572D01*
X53102430Y-142508656D01*
X53884510Y-142850000D01*
X48709188Y-142850000D01*
X46791291Y-140932103D01*
X52091434Y-140932103D01*
X52440134Y-141820929D01*
X52491344Y-141897570D01*
X52805428Y-142123861D01*
X54429289Y-140500000D01*
X52805428Y-138876139D01*
X52491344Y-139102430D01*
X52109417Y-139977493D01*
X52091434Y-140932103D01*
X46791291Y-140932103D01*
X45650000Y-139790812D01*
X45650000Y-138805428D01*
X52876139Y-138805428D01*
X54500000Y-140429289D01*
X56123861Y-138805428D01*
X55897570Y-138491344D01*
X55022507Y-138109417D01*
X54067897Y-138091434D01*
X53179071Y-138440134D01*
X53102430Y-138491344D01*
X52876139Y-138805428D01*
X45650000Y-138805428D01*
X45650000Y-136259188D01*
X46509188Y-135400000D01*
X51950000Y-135400000D01*
X52466623Y-135297237D01*
X52904594Y-135004594D01*
X54159188Y-133750000D01*
X56400473Y-133750000D01*
X56520301Y-133799757D01*
X57077256Y-133800243D01*
X57592000Y-133587555D01*
X57950000Y-133230179D01*
X57950000Y-137510050D01*
X57110129Y-138349921D01*
X57021764Y-138349844D01*
X56690857Y-138486572D01*
X56437462Y-138739525D01*
X56337866Y-138979380D01*
X56194572Y-138876139D01*
X54570711Y-140500000D01*
X56194572Y-142123861D01*
X56508656Y-141897570D01*
X56890583Y-141022507D01*
X56907901Y-140103215D01*
X57020194Y-140149843D01*
X57378236Y-140150156D01*
X57709143Y-140013428D01*
X57962538Y-139760475D01*
X58099843Y-139429806D01*
X58099921Y-139340029D01*
X58889478Y-138550472D01*
X59166405Y-138964921D01*
X59641231Y-139282190D01*
X60201326Y-139393600D01*
X60258674Y-139393600D01*
X60818769Y-139282190D01*
X61293595Y-138964921D01*
X61500000Y-138656014D01*
X61706405Y-138964921D01*
X62181231Y-139282190D01*
X62741326Y-139393600D01*
X62798674Y-139393600D01*
X63358769Y-139282190D01*
X63833595Y-138964921D01*
X64150864Y-138490095D01*
X64212896Y-138178236D01*
X64399844Y-138178236D01*
X64536572Y-138509143D01*
X64696173Y-138669023D01*
X64600174Y-138900215D01*
X64599827Y-139298040D01*
X64751747Y-139665714D01*
X65032806Y-139947264D01*
X65400215Y-140099826D01*
X65798040Y-140100173D01*
X66165714Y-139948253D01*
X66447264Y-139667194D01*
X66599826Y-139299785D01*
X66600173Y-138901960D01*
X66448253Y-138534286D01*
X66168865Y-138254410D01*
X66199843Y-138179806D01*
X66200156Y-137821764D01*
X66063428Y-137490857D01*
X65810475Y-137237462D01*
X65479806Y-137100157D01*
X65121764Y-137099844D01*
X64790857Y-137236572D01*
X64537462Y-137489525D01*
X64400157Y-137820194D01*
X64399844Y-138178236D01*
X64212896Y-138178236D01*
X64262274Y-137930000D01*
X64150864Y-137369905D01*
X63833595Y-136895079D01*
X63481775Y-136660000D01*
X63833595Y-136424921D01*
X64150864Y-135950095D01*
X64262274Y-135390000D01*
X64150864Y-134829905D01*
X63833595Y-134355079D01*
X63358769Y-134037810D01*
X63211590Y-134008534D01*
X63472346Y-133900431D01*
X63820866Y-133551696D01*
X64009243Y-133096900D01*
X63932525Y-132900000D01*
X62820000Y-132900000D01*
X62820000Y-132920000D01*
X62720000Y-132920000D01*
X62720000Y-132900000D01*
X62700000Y-132900000D01*
X62700000Y-132800000D01*
X62720000Y-132800000D01*
X62720000Y-132780000D01*
X62820000Y-132780000D01*
X62820000Y-132800000D01*
X63932525Y-132800000D01*
X64009243Y-132603100D01*
X63820866Y-132148304D01*
X63570757Y-131898040D01*
X68199827Y-131898040D01*
X68351747Y-132265714D01*
X68632806Y-132547264D01*
X69000215Y-132699826D01*
X69398040Y-132700173D01*
X69765714Y-132548253D01*
X70047264Y-132267194D01*
X70199826Y-131899785D01*
X70200173Y-131501960D01*
X70048253Y-131134286D01*
X69767194Y-130852736D01*
X69399785Y-130700174D01*
X69001960Y-130699827D01*
X68634286Y-130851747D01*
X68352736Y-131132806D01*
X68200174Y-131500215D01*
X68199827Y-131898040D01*
X63570757Y-131898040D01*
X63472346Y-131799569D01*
X63211590Y-131691466D01*
X63358769Y-131662190D01*
X63833595Y-131344921D01*
X64150864Y-130870095D01*
X64262274Y-130310000D01*
X64150864Y-129749905D01*
X63833595Y-129275079D01*
X63481775Y-129040000D01*
X63833595Y-128804921D01*
X64150864Y-128330095D01*
X64262274Y-127770000D01*
X64150864Y-127209905D01*
X63833595Y-126735079D01*
X63481775Y-126500000D01*
X63833595Y-126264921D01*
X64150864Y-125790095D01*
X64175631Y-125665581D01*
X67605025Y-129094975D01*
X67832122Y-129246716D01*
X68100000Y-129300000D01*
X72085949Y-129300000D01*
X71852736Y-129532806D01*
X71700174Y-129900215D01*
X71699827Y-130298040D01*
X71851747Y-130665714D01*
X72132806Y-130947264D01*
X72500215Y-131099826D01*
X72898040Y-131100173D01*
X73265714Y-130948253D01*
X73547264Y-130667194D01*
X73699826Y-130299785D01*
X73700173Y-129901960D01*
X73548253Y-129534286D01*
X73314376Y-129300000D01*
X75250000Y-129300000D01*
X75517879Y-129246716D01*
X75744975Y-129094975D01*
X76589871Y-128250079D01*
X76678236Y-128250156D01*
X77009143Y-128113428D01*
X77262538Y-127860475D01*
X77399843Y-127529806D01*
X77400156Y-127171764D01*
X77370504Y-127100000D01*
X79379496Y-127100000D01*
X79486572Y-127359143D01*
X79739525Y-127612538D01*
X80070194Y-127749843D01*
X80428236Y-127750156D01*
X80759143Y-127613428D01*
X81012538Y-127360475D01*
X81149843Y-127029806D01*
X81150156Y-126671764D01*
X81013428Y-126340857D01*
X80972749Y-126300107D01*
X81062538Y-126210475D01*
X81199843Y-125879806D01*
X81200156Y-125521764D01*
X81063428Y-125190857D01*
X80810475Y-124937462D01*
X80479806Y-124800157D01*
X80391196Y-124800080D01*
X80308528Y-124600008D01*
X80478236Y-124600156D01*
X80809143Y-124463428D01*
X81062538Y-124210475D01*
X81199843Y-123879806D01*
X81199921Y-123790028D01*
X81794972Y-123194977D01*
X81794975Y-123194975D01*
X81925358Y-122999843D01*
X81946716Y-122967879D01*
X82000001Y-122700000D01*
X82000000Y-122699995D01*
X82000000Y-122389950D01*
X83094972Y-121294977D01*
X83094975Y-121294975D01*
X85189871Y-119200079D01*
X85278236Y-119200156D01*
X85609143Y-119063428D01*
X85862538Y-118810475D01*
X85999843Y-118479806D01*
X86000156Y-118121764D01*
X85863428Y-117790857D01*
X85610475Y-117537462D01*
X85520256Y-117500000D01*
X88610050Y-117500000D01*
X91118677Y-120008626D01*
G36*
X69700000Y-116039950D02*
X69700000Y-119200000D01*
X69753284Y-119467879D01*
X69905025Y-119694975D01*
X75910050Y-125700000D01*
X72872904Y-125700000D01*
X72810475Y-125637462D01*
X72479806Y-125500157D01*
X72121764Y-125499844D01*
X71790857Y-125636572D01*
X71537462Y-125889525D01*
X71400157Y-126220194D01*
X71399844Y-126578236D01*
X71536572Y-126909143D01*
X71789525Y-127162538D01*
X72120194Y-127299843D01*
X72478236Y-127300156D01*
X72809143Y-127163428D01*
X72872682Y-127100000D01*
X75629304Y-127100000D01*
X75600157Y-127170194D01*
X75600079Y-127259971D01*
X74960050Y-127900000D01*
X68389950Y-127900000D01*
X67989854Y-127499904D01*
X68278236Y-127500156D01*
X68609143Y-127363428D01*
X68862538Y-127110475D01*
X68999843Y-126779806D01*
X69000156Y-126421764D01*
X68956513Y-126316140D01*
X69162538Y-126110475D01*
X69299843Y-125779806D01*
X69300156Y-125421764D01*
X69163428Y-125090857D01*
X69100000Y-125027318D01*
X69100000Y-122278236D01*
X70099844Y-122278236D01*
X70236572Y-122609143D01*
X70489525Y-122862538D01*
X70820194Y-122999843D01*
X71178236Y-123000156D01*
X71509143Y-122863428D01*
X71762538Y-122610475D01*
X71899843Y-122279806D01*
X71900156Y-121921764D01*
X71763428Y-121590857D01*
X71510475Y-121337462D01*
X71179806Y-121200157D01*
X70821764Y-121199844D01*
X70490857Y-121336572D01*
X70237462Y-121589525D01*
X70100157Y-121920194D01*
X70099844Y-122278236D01*
X69100000Y-122278236D01*
X69100000Y-115439950D01*
X69700000Y-116039950D01*
X69700000Y-116039950D01*
G37*
X69700000Y-116039950D02*
X69700000Y-119200000D01*
X69753284Y-119467879D01*
X69905025Y-119694975D01*
X75910050Y-125700000D01*
X72872904Y-125700000D01*
X72810475Y-125637462D01*
X72479806Y-125500157D01*
X72121764Y-125499844D01*
X71790857Y-125636572D01*
X71537462Y-125889525D01*
X71400157Y-126220194D01*
X71399844Y-126578236D01*
X71536572Y-126909143D01*
X71789525Y-127162538D01*
X72120194Y-127299843D01*
X72478236Y-127300156D01*
X72809143Y-127163428D01*
X72872682Y-127100000D01*
X75629304Y-127100000D01*
X75600157Y-127170194D01*
X75600079Y-127259971D01*
X74960050Y-127900000D01*
X68389950Y-127900000D01*
X67989854Y-127499904D01*
X68278236Y-127500156D01*
X68609143Y-127363428D01*
X68862538Y-127110475D01*
X68999843Y-126779806D01*
X69000156Y-126421764D01*
X68956513Y-126316140D01*
X69162538Y-126110475D01*
X69299843Y-125779806D01*
X69300156Y-125421764D01*
X69163428Y-125090857D01*
X69100000Y-125027318D01*
X69100000Y-122278236D01*
X70099844Y-122278236D01*
X70236572Y-122609143D01*
X70489525Y-122862538D01*
X70820194Y-122999843D01*
X71178236Y-123000156D01*
X71509143Y-122863428D01*
X71762538Y-122610475D01*
X71899843Y-122279806D01*
X71900156Y-121921764D01*
X71763428Y-121590857D01*
X71510475Y-121337462D01*
X71179806Y-121200157D01*
X70821764Y-121199844D01*
X70490857Y-121336572D01*
X70237462Y-121589525D01*
X70100157Y-121920194D01*
X70099844Y-122278236D01*
X69100000Y-122278236D01*
X69100000Y-115439950D01*
X69700000Y-116039950D01*
G36*
X65520194Y-114849843D02*
X65609971Y-114849921D01*
X66200000Y-115439950D01*
X66200000Y-125400000D01*
X66253284Y-125667879D01*
X66405025Y-125894975D01*
X67199921Y-126689871D01*
X67199904Y-126709954D01*
X64950000Y-124460050D01*
X64950000Y-115089950D01*
X64989871Y-115050079D01*
X65078236Y-115050156D01*
X65409143Y-114913428D01*
X65486750Y-114835956D01*
X65520194Y-114849843D01*
X65520194Y-114849843D01*
G37*
X65520194Y-114849843D02*
X65609971Y-114849921D01*
X66200000Y-115439950D01*
X66200000Y-125400000D01*
X66253284Y-125667879D01*
X66405025Y-125894975D01*
X67199921Y-126689871D01*
X67199904Y-126709954D01*
X64950000Y-124460050D01*
X64950000Y-115089950D01*
X64989871Y-115050079D01*
X65078236Y-115050156D01*
X65409143Y-114913428D01*
X65486750Y-114835956D01*
X65520194Y-114849843D01*
G36*
X71236572Y-116709143D02*
X71489525Y-116962538D01*
X71820194Y-117099843D01*
X72178236Y-117100156D01*
X72509143Y-116963428D01*
X72700000Y-116772904D01*
X72700000Y-118900000D01*
X72753284Y-119167879D01*
X72905025Y-119394975D01*
X78560050Y-125050000D01*
X77239950Y-125050000D01*
X71100000Y-118910050D01*
X71100000Y-116378614D01*
X71236572Y-116709143D01*
X71236572Y-116709143D01*
G37*
X71236572Y-116709143D02*
X71489525Y-116962538D01*
X71820194Y-117099843D01*
X72178236Y-117100156D01*
X72509143Y-116963428D01*
X72700000Y-116772904D01*
X72700000Y-118900000D01*
X72753284Y-119167879D01*
X72905025Y-119394975D01*
X78560050Y-125050000D01*
X77239950Y-125050000D01*
X71100000Y-118910050D01*
X71100000Y-116378614D01*
X71236572Y-116709143D01*
G36*
X82590857Y-117636572D02*
X82337462Y-117889525D01*
X82200157Y-118220194D01*
X82200079Y-118309972D01*
X81308971Y-119201080D01*
X81263428Y-119090857D01*
X81010475Y-118837462D01*
X80679806Y-118700157D01*
X80321764Y-118699844D01*
X79990857Y-118836572D01*
X79737462Y-119089525D01*
X79600157Y-119420194D01*
X79599844Y-119778236D01*
X79736572Y-120109143D01*
X79989525Y-120362538D01*
X80101158Y-120408892D01*
X79905025Y-120605025D01*
X79753284Y-120832121D01*
X79744111Y-120878236D01*
X79700000Y-121100000D01*
X79700000Y-121327096D01*
X79637462Y-121389525D01*
X79500157Y-121720194D01*
X79499844Y-122078236D01*
X79636572Y-122409143D01*
X79889525Y-122662538D01*
X80213138Y-122796913D01*
X80210129Y-122799921D01*
X80121764Y-122799844D01*
X79790857Y-122936572D01*
X79537462Y-123189525D01*
X79400157Y-123520194D01*
X79399844Y-123878236D01*
X79422135Y-123932185D01*
X74513540Y-119023590D01*
X74575199Y-118998113D01*
X74820194Y-119099843D01*
X75178236Y-119100156D01*
X75509143Y-118963428D01*
X75762538Y-118710475D01*
X75899843Y-118379806D01*
X75900156Y-118021764D01*
X75763428Y-117690857D01*
X75687111Y-117614407D01*
X75797433Y-117500000D01*
X82921386Y-117500000D01*
X82590857Y-117636572D01*
X82590857Y-117636572D01*
G37*
X82590857Y-117636572D02*
X82337462Y-117889525D01*
X82200157Y-118220194D01*
X82200079Y-118309972D01*
X81308971Y-119201080D01*
X81263428Y-119090857D01*
X81010475Y-118837462D01*
X80679806Y-118700157D01*
X80321764Y-118699844D01*
X79990857Y-118836572D01*
X79737462Y-119089525D01*
X79600157Y-119420194D01*
X79599844Y-119778236D01*
X79736572Y-120109143D01*
X79989525Y-120362538D01*
X80101158Y-120408892D01*
X79905025Y-120605025D01*
X79753284Y-120832121D01*
X79744111Y-120878236D01*
X79700000Y-121100000D01*
X79700000Y-121327096D01*
X79637462Y-121389525D01*
X79500157Y-121720194D01*
X79499844Y-122078236D01*
X79636572Y-122409143D01*
X79889525Y-122662538D01*
X80213138Y-122796913D01*
X80210129Y-122799921D01*
X80121764Y-122799844D01*
X79790857Y-122936572D01*
X79537462Y-123189525D01*
X79400157Y-123520194D01*
X79399844Y-123878236D01*
X79422135Y-123932185D01*
X74513540Y-119023590D01*
X74575199Y-118998113D01*
X74820194Y-119099843D01*
X75178236Y-119100156D01*
X75509143Y-118963428D01*
X75762538Y-118710475D01*
X75899843Y-118379806D01*
X75900156Y-118021764D01*
X75763428Y-117690857D01*
X75687111Y-117614407D01*
X75797433Y-117500000D01*
X82921386Y-117500000D01*
X82590857Y-117636572D01*
G36*
X62820000Y-122640000D02*
X62840000Y-122640000D01*
X62840000Y-122740000D01*
X62820000Y-122740000D01*
X62820000Y-122760000D01*
X62720000Y-122760000D01*
X62720000Y-122740000D01*
X62700000Y-122740000D01*
X62700000Y-122640000D01*
X62720000Y-122640000D01*
X62720000Y-122620000D01*
X62820000Y-122620000D01*
X62820000Y-122640000D01*
X62820000Y-122640000D01*
G37*
X62820000Y-122640000D02*
X62840000Y-122640000D01*
X62840000Y-122740000D01*
X62820000Y-122740000D01*
X62820000Y-122760000D01*
X62720000Y-122760000D01*
X62720000Y-122740000D01*
X62700000Y-122740000D01*
X62700000Y-122640000D01*
X62720000Y-122640000D01*
X62720000Y-122620000D01*
X62820000Y-122620000D01*
X62820000Y-122640000D01*
M02*
