G04 #@! TF.FileFunction,Legend,Top*
%FSLAX46Y46*%
G04 Gerber Fmt 4.6, Leading zero omitted, Abs format (unit mm)*
G04 Created by KiCad (PCBNEW 201611221049+7374~55~ubuntu16.04.1-product) date Sun Nov 27 19:54:39 2016*
%MOMM*%
%LPD*%
G01*
G04 APERTURE LIST*
%ADD10C,0.100000*%
%ADD11C,0.300000*%
%ADD12C,0.200000*%
%ADD13C,0.250000*%
%ADD14C,0.150000*%
G04 APERTURE END LIST*
D10*
D11*
X40557142Y-140178571D02*
X40557142Y-139035714D01*
X40557142Y-138321428D02*
X40557142Y-137178571D01*
X40557142Y-135321428D02*
X40557142Y-134178571D01*
X41128571Y-134750000D02*
X39985714Y-134750000D01*
X40557142Y-132321428D02*
X40557142Y-131178571D01*
X41128571Y-131750000D02*
X39985714Y-131750000D01*
X40557142Y-129321428D02*
X40557142Y-128178571D01*
X40557142Y-127464285D02*
X40557142Y-126321428D01*
X56514285Y-120828571D02*
X56514285Y-119328571D01*
X57085714Y-119328571D01*
X57228571Y-119400000D01*
X57300000Y-119471428D01*
X57371428Y-119614285D01*
X57371428Y-119828571D01*
X57300000Y-119971428D01*
X57228571Y-120042857D01*
X57085714Y-120114285D01*
X56514285Y-120114285D01*
X58514285Y-120042857D02*
X58014285Y-120042857D01*
X58014285Y-120828571D02*
X58014285Y-119328571D01*
X58728571Y-119328571D01*
X50900000Y-129528571D02*
X51400000Y-131028571D01*
X51900000Y-129528571D01*
X53042857Y-130957142D02*
X52900000Y-131028571D01*
X52614285Y-131028571D01*
X52471428Y-130957142D01*
X52400000Y-130885714D01*
X52328571Y-130742857D01*
X52328571Y-130314285D01*
X52400000Y-130171428D01*
X52471428Y-130100000D01*
X52614285Y-130028571D01*
X52900000Y-130028571D01*
X53042857Y-130100000D01*
X54328571Y-130957142D02*
X54185714Y-131028571D01*
X53900000Y-131028571D01*
X53757142Y-130957142D01*
X53685714Y-130885714D01*
X53614285Y-130742857D01*
X53614285Y-130314285D01*
X53685714Y-130171428D01*
X53757142Y-130100000D01*
X53900000Y-130028571D01*
X54185714Y-130028571D01*
X54328571Y-130100000D01*
X55757142Y-129600000D02*
X55614285Y-129528571D01*
X55400000Y-129528571D01*
X55185714Y-129600000D01*
X55042857Y-129742857D01*
X54971428Y-129885714D01*
X54900000Y-130171428D01*
X54900000Y-130385714D01*
X54971428Y-130671428D01*
X55042857Y-130814285D01*
X55185714Y-130957142D01*
X55400000Y-131028571D01*
X55542857Y-131028571D01*
X55757142Y-130957142D01*
X55828571Y-130885714D01*
X55828571Y-130385714D01*
X55542857Y-130385714D01*
X56471428Y-131028571D02*
X56471428Y-129528571D01*
X57042857Y-129528571D01*
X57185714Y-129600000D01*
X57257142Y-129671428D01*
X57328571Y-129814285D01*
X57328571Y-130028571D01*
X57257142Y-130171428D01*
X57185714Y-130242857D01*
X57042857Y-130314285D01*
X56471428Y-130314285D01*
X57900000Y-130957142D02*
X58114285Y-131028571D01*
X58471428Y-131028571D01*
X58614285Y-130957142D01*
X58685714Y-130885714D01*
X58757142Y-130742857D01*
X58757142Y-130600000D01*
X58685714Y-130457142D01*
X58614285Y-130385714D01*
X58471428Y-130314285D01*
X58185714Y-130242857D01*
X58042857Y-130171428D01*
X57971428Y-130100000D01*
X57900000Y-129957142D01*
X57900000Y-129814285D01*
X57971428Y-129671428D01*
X58042857Y-129600000D01*
X58185714Y-129528571D01*
X58542857Y-129528571D01*
X58757142Y-129600000D01*
X50900000Y-121828571D02*
X51400000Y-123328571D01*
X51900000Y-121828571D01*
X53042857Y-123257142D02*
X52900000Y-123328571D01*
X52614285Y-123328571D01*
X52471428Y-123257142D01*
X52400000Y-123185714D01*
X52328571Y-123042857D01*
X52328571Y-122614285D01*
X52400000Y-122471428D01*
X52471428Y-122400000D01*
X52614285Y-122328571D01*
X52900000Y-122328571D01*
X53042857Y-122400000D01*
X54328571Y-123257142D02*
X54185714Y-123328571D01*
X53900000Y-123328571D01*
X53757142Y-123257142D01*
X53685714Y-123185714D01*
X53614285Y-123042857D01*
X53614285Y-122614285D01*
X53685714Y-122471428D01*
X53757142Y-122400000D01*
X53900000Y-122328571D01*
X54185714Y-122328571D01*
X54328571Y-122400000D01*
X55757142Y-121900000D02*
X55614285Y-121828571D01*
X55400000Y-121828571D01*
X55185714Y-121900000D01*
X55042857Y-122042857D01*
X54971428Y-122185714D01*
X54900000Y-122471428D01*
X54900000Y-122685714D01*
X54971428Y-122971428D01*
X55042857Y-123114285D01*
X55185714Y-123257142D01*
X55400000Y-123328571D01*
X55542857Y-123328571D01*
X55757142Y-123257142D01*
X55828571Y-123185714D01*
X55828571Y-122685714D01*
X55542857Y-122685714D01*
X56471428Y-123328571D02*
X56471428Y-121828571D01*
X57042857Y-121828571D01*
X57185714Y-121900000D01*
X57257142Y-121971428D01*
X57328571Y-122114285D01*
X57328571Y-122328571D01*
X57257142Y-122471428D01*
X57185714Y-122542857D01*
X57042857Y-122614285D01*
X56471428Y-122614285D01*
X57900000Y-123257142D02*
X58114285Y-123328571D01*
X58471428Y-123328571D01*
X58614285Y-123257142D01*
X58685714Y-123185714D01*
X58757142Y-123042857D01*
X58757142Y-122900000D01*
X58685714Y-122757142D01*
X58614285Y-122685714D01*
X58471428Y-122614285D01*
X58185714Y-122542857D01*
X58042857Y-122471428D01*
X57971428Y-122400000D01*
X57900000Y-122257142D01*
X57900000Y-122114285D01*
X57971428Y-121971428D01*
X58042857Y-121900000D01*
X58185714Y-121828571D01*
X58542857Y-121828571D01*
X58757142Y-121900000D01*
X65257142Y-132150000D02*
X65114285Y-132078571D01*
X64900000Y-132078571D01*
X64685714Y-132150000D01*
X64542857Y-132292857D01*
X64471428Y-132435714D01*
X64400000Y-132721428D01*
X64400000Y-132935714D01*
X64471428Y-133221428D01*
X64542857Y-133364285D01*
X64685714Y-133507142D01*
X64900000Y-133578571D01*
X65042857Y-133578571D01*
X65257142Y-133507142D01*
X65328571Y-133435714D01*
X65328571Y-132935714D01*
X65042857Y-132935714D01*
X65971428Y-133578571D02*
X65971428Y-132078571D01*
X66828571Y-133578571D01*
X66828571Y-132078571D01*
X67542857Y-133578571D02*
X67542857Y-132078571D01*
X67900000Y-132078571D01*
X68114285Y-132150000D01*
X68257142Y-132292857D01*
X68328571Y-132435714D01*
X68400000Y-132721428D01*
X68400000Y-132935714D01*
X68328571Y-133221428D01*
X68257142Y-133364285D01*
X68114285Y-133507142D01*
X67900000Y-133578571D01*
X67542857Y-133578571D01*
X65007142Y-121950000D02*
X64864285Y-121878571D01*
X64650000Y-121878571D01*
X64435714Y-121950000D01*
X64292857Y-122092857D01*
X64221428Y-122235714D01*
X64150000Y-122521428D01*
X64150000Y-122735714D01*
X64221428Y-123021428D01*
X64292857Y-123164285D01*
X64435714Y-123307142D01*
X64650000Y-123378571D01*
X64792857Y-123378571D01*
X65007142Y-123307142D01*
X65078571Y-123235714D01*
X65078571Y-122735714D01*
X64792857Y-122735714D01*
X65721428Y-123378571D02*
X65721428Y-121878571D01*
X66578571Y-123378571D01*
X66578571Y-121878571D01*
X67292857Y-123378571D02*
X67292857Y-121878571D01*
X67650000Y-121878571D01*
X67864285Y-121950000D01*
X68007142Y-122092857D01*
X68078571Y-122235714D01*
X68150000Y-122521428D01*
X68150000Y-122735714D01*
X68078571Y-123021428D01*
X68007142Y-123164285D01*
X67864285Y-123307142D01*
X67650000Y-123378571D01*
X67292857Y-123378571D01*
X65050000Y-115778571D02*
X64550000Y-115064285D01*
X64192857Y-115778571D02*
X64192857Y-114278571D01*
X64764285Y-114278571D01*
X64907142Y-114350000D01*
X64978571Y-114421428D01*
X65050000Y-114564285D01*
X65050000Y-114778571D01*
X64978571Y-114921428D01*
X64907142Y-114992857D01*
X64764285Y-115064285D01*
X64192857Y-115064285D01*
X65550000Y-114278571D02*
X66550000Y-115778571D01*
X66550000Y-114278571D02*
X65550000Y-115778571D01*
X56957142Y-114228571D02*
X57814285Y-114228571D01*
X57385714Y-115728571D02*
X57385714Y-114228571D01*
X58171428Y-114228571D02*
X59171428Y-115728571D01*
X59171428Y-114228571D02*
X58171428Y-115728571D01*
D12*
X50000000Y-145000000D02*
X50000000Y-110000000D01*
X125000000Y-145000000D02*
X50000000Y-145000000D01*
X125000000Y-110000000D02*
X125000000Y-145000000D01*
X50000000Y-110000000D02*
X125000000Y-110000000D01*
D11*
X57457142Y-112078571D02*
X57457142Y-113578571D01*
X57457142Y-112150000D02*
X57600000Y-112078571D01*
X57885714Y-112078571D01*
X58028571Y-112150000D01*
X58100000Y-112221428D01*
X58171428Y-112364285D01*
X58171428Y-112792857D01*
X58100000Y-112935714D01*
X58028571Y-113007142D01*
X57885714Y-113078571D01*
X57600000Y-113078571D01*
X57457142Y-113007142D01*
X58814285Y-113078571D02*
X58814285Y-112078571D01*
X58814285Y-111578571D02*
X58742857Y-111650000D01*
X58814285Y-111721428D01*
X58885714Y-111650000D01*
X58814285Y-111578571D01*
X58814285Y-111721428D01*
X59528571Y-113078571D02*
X59528571Y-111578571D01*
X60385714Y-113078571D01*
X60385714Y-111578571D01*
X61028571Y-112650000D02*
X61742857Y-112650000D01*
X60885714Y-113078571D02*
X61385714Y-111578571D01*
X61885714Y-113078571D01*
X62171428Y-111578571D02*
X62671428Y-113078571D01*
X63171428Y-111578571D01*
X65528571Y-113078571D02*
X64814285Y-113078571D01*
X64814285Y-111578571D01*
X66814285Y-113078571D02*
X65957142Y-113078571D01*
X66385714Y-113078571D02*
X66385714Y-111578571D01*
X66242857Y-111792857D01*
X66100000Y-111935714D01*
X65957142Y-112007142D01*
X69680714Y-124957142D02*
X69895000Y-125028571D01*
X70252142Y-125028571D01*
X70395000Y-124957142D01*
X70466428Y-124885714D01*
X70537857Y-124742857D01*
X70537857Y-124600000D01*
X70466428Y-124457142D01*
X70395000Y-124385714D01*
X70252142Y-124314285D01*
X69966428Y-124242857D01*
X69823571Y-124171428D01*
X69752142Y-124100000D01*
X69680714Y-123957142D01*
X69680714Y-123814285D01*
X69752142Y-123671428D01*
X69823571Y-123600000D01*
X69966428Y-123528571D01*
X70323571Y-123528571D01*
X70537857Y-123600000D01*
X70966428Y-124028571D02*
X71537857Y-124028571D01*
X71180714Y-123528571D02*
X71180714Y-124814285D01*
X71252142Y-124957142D01*
X71395000Y-125028571D01*
X71537857Y-125028571D01*
X72037857Y-125028571D02*
X72037857Y-124028571D01*
X72037857Y-124314285D02*
X72109285Y-124171428D01*
X72180714Y-124100000D01*
X72323571Y-124028571D01*
X72466428Y-124028571D01*
X73609285Y-125028571D02*
X73609285Y-124242857D01*
X73537857Y-124100000D01*
X73395000Y-124028571D01*
X73109285Y-124028571D01*
X72966428Y-124100000D01*
X73609285Y-124957142D02*
X73466428Y-125028571D01*
X73109285Y-125028571D01*
X72966428Y-124957142D01*
X72895000Y-124814285D01*
X72895000Y-124671428D01*
X72966428Y-124528571D01*
X73109285Y-124457142D01*
X73466428Y-124457142D01*
X73609285Y-124385714D01*
X74109285Y-124028571D02*
X74680714Y-124028571D01*
X74323571Y-123528571D02*
X74323571Y-124814285D01*
X74395000Y-124957142D01*
X74537857Y-125028571D01*
X74680714Y-125028571D01*
X75395000Y-125028571D02*
X75252142Y-124957142D01*
X75180714Y-124885714D01*
X75109285Y-124742857D01*
X75109285Y-124314285D01*
X75180714Y-124171428D01*
X75252142Y-124100000D01*
X75395000Y-124028571D01*
X75609285Y-124028571D01*
X75752142Y-124100000D01*
X75823571Y-124171428D01*
X75895000Y-124314285D01*
X75895000Y-124742857D01*
X75823571Y-124885714D01*
X75752142Y-124957142D01*
X75609285Y-125028571D01*
X75395000Y-125028571D01*
X76466428Y-124957142D02*
X76609285Y-125028571D01*
X76895000Y-125028571D01*
X77037857Y-124957142D01*
X77109285Y-124814285D01*
X77109285Y-124742857D01*
X77037857Y-124600000D01*
X76895000Y-124528571D01*
X76680714Y-124528571D01*
X76537857Y-124457142D01*
X76466428Y-124314285D01*
X76466428Y-124242857D01*
X76537857Y-124100000D01*
X76680714Y-124028571D01*
X76895000Y-124028571D01*
X77037857Y-124100000D01*
X77752142Y-124028571D02*
X77752142Y-125528571D01*
X77752142Y-124100000D02*
X77895000Y-124028571D01*
X78180714Y-124028571D01*
X78323571Y-124100000D01*
X78395000Y-124171428D01*
X78466428Y-124314285D01*
X78466428Y-124742857D01*
X78395000Y-124885714D01*
X78323571Y-124957142D01*
X78180714Y-125028571D01*
X77895000Y-125028571D01*
X77752142Y-124957142D01*
X79109285Y-125028571D02*
X79109285Y-123528571D01*
X79752142Y-125028571D02*
X79752142Y-124242857D01*
X79680714Y-124100000D01*
X79537857Y-124028571D01*
X79323571Y-124028571D01*
X79180714Y-124100000D01*
X79109285Y-124171428D01*
X81037857Y-124957142D02*
X80895000Y-125028571D01*
X80609285Y-125028571D01*
X80466428Y-124957142D01*
X80395000Y-124814285D01*
X80395000Y-124242857D01*
X80466428Y-124100000D01*
X80609285Y-124028571D01*
X80895000Y-124028571D01*
X81037857Y-124100000D01*
X81109285Y-124242857D01*
X81109285Y-124385714D01*
X80395000Y-124528571D01*
X81752142Y-125028571D02*
X81752142Y-124028571D01*
X81752142Y-124314285D02*
X81823571Y-124171428D01*
X81895000Y-124100000D01*
X82037857Y-124028571D01*
X82180714Y-124028571D01*
X82680714Y-125028571D02*
X82680714Y-124028571D01*
X82680714Y-123528571D02*
X82609285Y-123600000D01*
X82680714Y-123671428D01*
X82752142Y-123600000D01*
X82680714Y-123528571D01*
X82680714Y-123671428D01*
X84037857Y-124957142D02*
X83895000Y-125028571D01*
X83609285Y-125028571D01*
X83466428Y-124957142D01*
X83395000Y-124885714D01*
X83323571Y-124742857D01*
X83323571Y-124314285D01*
X83395000Y-124171428D01*
X83466428Y-124100000D01*
X83609285Y-124028571D01*
X83895000Y-124028571D01*
X84037857Y-124100000D01*
X86323571Y-124242857D02*
X86537857Y-124314285D01*
X86609285Y-124385714D01*
X86680714Y-124528571D01*
X86680714Y-124742857D01*
X86609285Y-124885714D01*
X86537857Y-124957142D01*
X86395000Y-125028571D01*
X85823571Y-125028571D01*
X85823571Y-123528571D01*
X86323571Y-123528571D01*
X86466428Y-123600000D01*
X86537857Y-123671428D01*
X86609285Y-123814285D01*
X86609285Y-123957142D01*
X86537857Y-124100000D01*
X86466428Y-124171428D01*
X86323571Y-124242857D01*
X85823571Y-124242857D01*
X87966428Y-125028571D02*
X87966428Y-124242857D01*
X87895000Y-124100000D01*
X87752142Y-124028571D01*
X87466428Y-124028571D01*
X87323571Y-124100000D01*
X87966428Y-124957142D02*
X87823571Y-125028571D01*
X87466428Y-125028571D01*
X87323571Y-124957142D01*
X87252142Y-124814285D01*
X87252142Y-124671428D01*
X87323571Y-124528571D01*
X87466428Y-124457142D01*
X87823571Y-124457142D01*
X87966428Y-124385714D01*
X88895000Y-125028571D02*
X88752142Y-124957142D01*
X88680714Y-124814285D01*
X88680714Y-123528571D01*
X89680714Y-125028571D02*
X89537857Y-124957142D01*
X89466428Y-124814285D01*
X89466428Y-123528571D01*
X90466428Y-125028571D02*
X90323571Y-124957142D01*
X90252142Y-124885714D01*
X90180714Y-124742857D01*
X90180714Y-124314285D01*
X90252142Y-124171428D01*
X90323571Y-124100000D01*
X90466428Y-124028571D01*
X90680714Y-124028571D01*
X90823571Y-124100000D01*
X90895000Y-124171428D01*
X90966428Y-124314285D01*
X90966428Y-124742857D01*
X90895000Y-124885714D01*
X90823571Y-124957142D01*
X90680714Y-125028571D01*
X90466428Y-125028571D01*
X91823571Y-125028571D02*
X91680714Y-124957142D01*
X91609285Y-124885714D01*
X91537857Y-124742857D01*
X91537857Y-124314285D01*
X91609285Y-124171428D01*
X91680714Y-124100000D01*
X91823571Y-124028571D01*
X92037857Y-124028571D01*
X92180714Y-124100000D01*
X92252142Y-124171428D01*
X92323571Y-124314285D01*
X92323571Y-124742857D01*
X92252142Y-124885714D01*
X92180714Y-124957142D01*
X92037857Y-125028571D01*
X91823571Y-125028571D01*
X92966428Y-124028571D02*
X92966428Y-125028571D01*
X92966428Y-124171428D02*
X93037857Y-124100000D01*
X93180714Y-124028571D01*
X93395000Y-124028571D01*
X93537857Y-124100000D01*
X93609285Y-124242857D01*
X93609285Y-125028571D01*
X95252142Y-123528571D02*
X96109285Y-123528571D01*
X95680714Y-125028571D02*
X95680714Y-123528571D01*
X97180714Y-124957142D02*
X97037857Y-125028571D01*
X96752142Y-125028571D01*
X96609285Y-124957142D01*
X96537857Y-124814285D01*
X96537857Y-124242857D01*
X96609285Y-124100000D01*
X96752142Y-124028571D01*
X97037857Y-124028571D01*
X97180714Y-124100000D01*
X97252142Y-124242857D01*
X97252142Y-124385714D01*
X96537857Y-124528571D01*
X98109285Y-125028571D02*
X97966428Y-124957142D01*
X97895000Y-124814285D01*
X97895000Y-123528571D01*
X99252142Y-124957142D02*
X99109285Y-125028571D01*
X98823571Y-125028571D01*
X98680714Y-124957142D01*
X98609285Y-124814285D01*
X98609285Y-124242857D01*
X98680714Y-124100000D01*
X98823571Y-124028571D01*
X99109285Y-124028571D01*
X99252142Y-124100000D01*
X99323571Y-124242857D01*
X99323571Y-124385714D01*
X98609285Y-124528571D01*
X99966428Y-125028571D02*
X99966428Y-124028571D01*
X99966428Y-124171428D02*
X100037857Y-124100000D01*
X100180714Y-124028571D01*
X100395000Y-124028571D01*
X100537857Y-124100000D01*
X100609285Y-124242857D01*
X100609285Y-125028571D01*
X100609285Y-124242857D02*
X100680714Y-124100000D01*
X100823571Y-124028571D01*
X101037857Y-124028571D01*
X101180714Y-124100000D01*
X101252142Y-124242857D01*
X101252142Y-125028571D01*
X102537857Y-124957142D02*
X102395000Y-125028571D01*
X102109285Y-125028571D01*
X101966428Y-124957142D01*
X101895000Y-124814285D01*
X101895000Y-124242857D01*
X101966428Y-124100000D01*
X102109285Y-124028571D01*
X102395000Y-124028571D01*
X102537857Y-124100000D01*
X102609285Y-124242857D01*
X102609285Y-124385714D01*
X101895000Y-124528571D01*
X103037857Y-124028571D02*
X103609285Y-124028571D01*
X103252142Y-123528571D02*
X103252142Y-124814285D01*
X103323571Y-124957142D01*
X103466428Y-125028571D01*
X103609285Y-125028571D01*
X104109285Y-125028571D02*
X104109285Y-124028571D01*
X104109285Y-124314285D02*
X104180714Y-124171428D01*
X104252142Y-124100000D01*
X104395000Y-124028571D01*
X104537857Y-124028571D01*
X104895000Y-124028571D02*
X105252142Y-125028571D01*
X105609285Y-124028571D02*
X105252142Y-125028571D01*
X105109285Y-125385714D01*
X105037857Y-125457142D01*
X104895000Y-125528571D01*
X107109285Y-123528571D02*
X107966428Y-123528571D01*
X107537857Y-125028571D02*
X107537857Y-123528571D01*
X108466428Y-125028571D02*
X108466428Y-124028571D01*
X108466428Y-124314285D02*
X108537857Y-124171428D01*
X108609285Y-124100000D01*
X108752142Y-124028571D01*
X108895000Y-124028571D01*
X110037857Y-125028571D02*
X110037857Y-124242857D01*
X109966428Y-124100000D01*
X109823571Y-124028571D01*
X109537857Y-124028571D01*
X109395000Y-124100000D01*
X110037857Y-124957142D02*
X109895000Y-125028571D01*
X109537857Y-125028571D01*
X109395000Y-124957142D01*
X109323571Y-124814285D01*
X109323571Y-124671428D01*
X109395000Y-124528571D01*
X109537857Y-124457142D01*
X109895000Y-124457142D01*
X110037857Y-124385714D01*
X110752142Y-124028571D02*
X110752142Y-125028571D01*
X110752142Y-124171428D02*
X110823571Y-124100000D01*
X110966428Y-124028571D01*
X111180714Y-124028571D01*
X111323571Y-124100000D01*
X111395000Y-124242857D01*
X111395000Y-125028571D01*
X112037857Y-124957142D02*
X112180714Y-125028571D01*
X112466428Y-125028571D01*
X112609285Y-124957142D01*
X112680714Y-124814285D01*
X112680714Y-124742857D01*
X112609285Y-124600000D01*
X112466428Y-124528571D01*
X112252142Y-124528571D01*
X112109285Y-124457142D01*
X112037857Y-124314285D01*
X112037857Y-124242857D01*
X112109285Y-124100000D01*
X112252142Y-124028571D01*
X112466428Y-124028571D01*
X112609285Y-124100000D01*
X113966428Y-124957142D02*
X113823571Y-125028571D01*
X113537857Y-125028571D01*
X113395000Y-124957142D01*
X113323571Y-124885714D01*
X113252142Y-124742857D01*
X113252142Y-124314285D01*
X113323571Y-124171428D01*
X113395000Y-124100000D01*
X113537857Y-124028571D01*
X113823571Y-124028571D01*
X113966428Y-124100000D01*
X115180714Y-124957142D02*
X115037857Y-125028571D01*
X114752142Y-125028571D01*
X114609285Y-124957142D01*
X114537857Y-124814285D01*
X114537857Y-124242857D01*
X114609285Y-124100000D01*
X114752142Y-124028571D01*
X115037857Y-124028571D01*
X115180714Y-124100000D01*
X115252142Y-124242857D01*
X115252142Y-124385714D01*
X114537857Y-124528571D01*
X115895000Y-125028571D02*
X115895000Y-124028571D01*
X115895000Y-123528571D02*
X115823571Y-123600000D01*
X115895000Y-123671428D01*
X115966428Y-123600000D01*
X115895000Y-123528571D01*
X115895000Y-123671428D01*
X116466428Y-124028571D02*
X116823571Y-125028571D01*
X117180714Y-124028571D01*
X118323571Y-124957142D02*
X118180714Y-125028571D01*
X117895000Y-125028571D01*
X117752142Y-124957142D01*
X117680714Y-124814285D01*
X117680714Y-124242857D01*
X117752142Y-124100000D01*
X117895000Y-124028571D01*
X118180714Y-124028571D01*
X118323571Y-124100000D01*
X118395000Y-124242857D01*
X118395000Y-124385714D01*
X117680714Y-124528571D01*
X119037857Y-125028571D02*
X119037857Y-124028571D01*
X119037857Y-124314285D02*
X119109285Y-124171428D01*
X119180714Y-124100000D01*
X119323571Y-124028571D01*
X119466428Y-124028571D01*
X69752142Y-127578571D02*
X69752142Y-126078571D01*
X70109285Y-126078571D01*
X70323571Y-126150000D01*
X70466428Y-126292857D01*
X70537857Y-126435714D01*
X70609285Y-126721428D01*
X70609285Y-126935714D01*
X70537857Y-127221428D01*
X70466428Y-127364285D01*
X70323571Y-127507142D01*
X70109285Y-127578571D01*
X69752142Y-127578571D01*
X71823571Y-127507142D02*
X71680714Y-127578571D01*
X71395000Y-127578571D01*
X71252142Y-127507142D01*
X71180714Y-127364285D01*
X71180714Y-126792857D01*
X71252142Y-126650000D01*
X71395000Y-126578571D01*
X71680714Y-126578571D01*
X71823571Y-126650000D01*
X71895000Y-126792857D01*
X71895000Y-126935714D01*
X71180714Y-127078571D01*
X72466428Y-127507142D02*
X72609285Y-127578571D01*
X72895000Y-127578571D01*
X73037857Y-127507142D01*
X73109285Y-127364285D01*
X73109285Y-127292857D01*
X73037857Y-127150000D01*
X72895000Y-127078571D01*
X72680714Y-127078571D01*
X72537857Y-127007142D01*
X72466428Y-126864285D01*
X72466428Y-126792857D01*
X72537857Y-126650000D01*
X72680714Y-126578571D01*
X72895000Y-126578571D01*
X73037857Y-126650000D01*
X73752142Y-127578571D02*
X73752142Y-126578571D01*
X73752142Y-126078571D02*
X73680714Y-126150000D01*
X73752142Y-126221428D01*
X73823571Y-126150000D01*
X73752142Y-126078571D01*
X73752142Y-126221428D01*
X75109285Y-126578571D02*
X75109285Y-127792857D01*
X75037857Y-127935714D01*
X74966428Y-128007142D01*
X74823571Y-128078571D01*
X74609285Y-128078571D01*
X74466428Y-128007142D01*
X75109285Y-127507142D02*
X74966428Y-127578571D01*
X74680714Y-127578571D01*
X74537857Y-127507142D01*
X74466428Y-127435714D01*
X74395000Y-127292857D01*
X74395000Y-126864285D01*
X74466428Y-126721428D01*
X74537857Y-126650000D01*
X74680714Y-126578571D01*
X74966428Y-126578571D01*
X75109285Y-126650000D01*
X75823571Y-126578571D02*
X75823571Y-127578571D01*
X75823571Y-126721428D02*
X75895000Y-126650000D01*
X76037857Y-126578571D01*
X76252142Y-126578571D01*
X76395000Y-126650000D01*
X76466428Y-126792857D01*
X76466428Y-127578571D01*
X77752142Y-127507142D02*
X77609285Y-127578571D01*
X77323571Y-127578571D01*
X77180714Y-127507142D01*
X77109285Y-127364285D01*
X77109285Y-126792857D01*
X77180714Y-126650000D01*
X77323571Y-126578571D01*
X77609285Y-126578571D01*
X77752142Y-126650000D01*
X77823571Y-126792857D01*
X77823571Y-126935714D01*
X77109285Y-127078571D01*
X79109285Y-127578571D02*
X79109285Y-126078571D01*
X79109285Y-127507142D02*
X78966428Y-127578571D01*
X78680714Y-127578571D01*
X78537857Y-127507142D01*
X78466428Y-127435714D01*
X78395000Y-127292857D01*
X78395000Y-126864285D01*
X78466428Y-126721428D01*
X78537857Y-126650000D01*
X78680714Y-126578571D01*
X78966428Y-126578571D01*
X79109285Y-126650000D01*
X80966428Y-127578571D02*
X80966428Y-126078571D01*
X80966428Y-126650000D02*
X81109285Y-126578571D01*
X81395000Y-126578571D01*
X81537857Y-126650000D01*
X81609285Y-126721428D01*
X81680714Y-126864285D01*
X81680714Y-127292857D01*
X81609285Y-127435714D01*
X81537857Y-127507142D01*
X81395000Y-127578571D01*
X81109285Y-127578571D01*
X80966428Y-127507142D01*
X82180714Y-126578571D02*
X82537857Y-127578571D01*
X82895000Y-126578571D02*
X82537857Y-127578571D01*
X82395000Y-127935714D01*
X82323571Y-128007142D01*
X82180714Y-128078571D01*
X85466428Y-127578571D02*
X84966428Y-126864285D01*
X84609285Y-127578571D02*
X84609285Y-126078571D01*
X85180714Y-126078571D01*
X85323571Y-126150000D01*
X85395000Y-126221428D01*
X85466428Y-126364285D01*
X85466428Y-126578571D01*
X85395000Y-126721428D01*
X85323571Y-126792857D01*
X85180714Y-126864285D01*
X84609285Y-126864285D01*
X86752142Y-127578571D02*
X86752142Y-126792857D01*
X86680714Y-126650000D01*
X86537857Y-126578571D01*
X86252142Y-126578571D01*
X86109285Y-126650000D01*
X86752142Y-127507142D02*
X86609285Y-127578571D01*
X86252142Y-127578571D01*
X86109285Y-127507142D01*
X86037857Y-127364285D01*
X86037857Y-127221428D01*
X86109285Y-127078571D01*
X86252142Y-127007142D01*
X86609285Y-127007142D01*
X86752142Y-126935714D01*
X88109285Y-127578571D02*
X88109285Y-126078571D01*
X88109285Y-127507142D02*
X87966428Y-127578571D01*
X87680714Y-127578571D01*
X87537857Y-127507142D01*
X87466428Y-127435714D01*
X87395000Y-127292857D01*
X87395000Y-126864285D01*
X87466428Y-126721428D01*
X87537857Y-126650000D01*
X87680714Y-126578571D01*
X87966428Y-126578571D01*
X88109285Y-126650000D01*
X88823571Y-127578571D02*
X88823571Y-126578571D01*
X88823571Y-126078571D02*
X88752142Y-126150000D01*
X88823571Y-126221428D01*
X88895000Y-126150000D01*
X88823571Y-126078571D01*
X88823571Y-126221428D01*
X89752142Y-127578571D02*
X89609285Y-127507142D01*
X89537857Y-127435714D01*
X89466428Y-127292857D01*
X89466428Y-126864285D01*
X89537857Y-126721428D01*
X89609285Y-126650000D01*
X89752142Y-126578571D01*
X89966428Y-126578571D01*
X90109285Y-126650000D01*
X90180714Y-126721428D01*
X90252142Y-126864285D01*
X90252142Y-127292857D01*
X90180714Y-127435714D01*
X90109285Y-127507142D01*
X89966428Y-127578571D01*
X89752142Y-127578571D01*
X92037857Y-127578571D02*
X92037857Y-126078571D01*
X92895000Y-127578571D01*
X92895000Y-126078571D01*
X94252142Y-127578571D02*
X94252142Y-126792857D01*
X94180714Y-126650000D01*
X94037857Y-126578571D01*
X93752142Y-126578571D01*
X93609285Y-126650000D01*
X94252142Y-127507142D02*
X94109285Y-127578571D01*
X93752142Y-127578571D01*
X93609285Y-127507142D01*
X93537857Y-127364285D01*
X93537857Y-127221428D01*
X93609285Y-127078571D01*
X93752142Y-127007142D01*
X94109285Y-127007142D01*
X94252142Y-126935714D01*
X94823571Y-126578571D02*
X95180714Y-127578571D01*
X95537857Y-126578571D01*
X96109285Y-127578571D02*
X96109285Y-126578571D01*
X96109285Y-126078571D02*
X96037857Y-126150000D01*
X96109285Y-126221428D01*
X96180714Y-126150000D01*
X96109285Y-126078571D01*
X96109285Y-126221428D01*
X97466428Y-126578571D02*
X97466428Y-127792857D01*
X97395000Y-127935714D01*
X97323571Y-128007142D01*
X97180714Y-128078571D01*
X96966428Y-128078571D01*
X96823571Y-128007142D01*
X97466428Y-127507142D02*
X97323571Y-127578571D01*
X97037857Y-127578571D01*
X96895000Y-127507142D01*
X96823571Y-127435714D01*
X96752142Y-127292857D01*
X96752142Y-126864285D01*
X96823571Y-126721428D01*
X96895000Y-126650000D01*
X97037857Y-126578571D01*
X97323571Y-126578571D01*
X97466428Y-126650000D01*
X98823571Y-127578571D02*
X98823571Y-126792857D01*
X98752142Y-126650000D01*
X98609285Y-126578571D01*
X98323571Y-126578571D01*
X98180714Y-126650000D01*
X98823571Y-127507142D02*
X98680714Y-127578571D01*
X98323571Y-127578571D01*
X98180714Y-127507142D01*
X98109285Y-127364285D01*
X98109285Y-127221428D01*
X98180714Y-127078571D01*
X98323571Y-127007142D01*
X98680714Y-127007142D01*
X98823571Y-126935714D01*
X99323571Y-126578571D02*
X99895000Y-126578571D01*
X99537857Y-126078571D02*
X99537857Y-127364285D01*
X99609285Y-127507142D01*
X99752142Y-127578571D01*
X99895000Y-127578571D01*
X100395000Y-127578571D02*
X100395000Y-126578571D01*
X100395000Y-126078571D02*
X100323571Y-126150000D01*
X100395000Y-126221428D01*
X100466428Y-126150000D01*
X100395000Y-126078571D01*
X100395000Y-126221428D01*
X101323571Y-127578571D02*
X101180714Y-127507142D01*
X101109285Y-127435714D01*
X101037857Y-127292857D01*
X101037857Y-126864285D01*
X101109285Y-126721428D01*
X101180714Y-126650000D01*
X101323571Y-126578571D01*
X101537857Y-126578571D01*
X101680714Y-126650000D01*
X101752142Y-126721428D01*
X101823571Y-126864285D01*
X101823571Y-127292857D01*
X101752142Y-127435714D01*
X101680714Y-127507142D01*
X101537857Y-127578571D01*
X101323571Y-127578571D01*
X102466428Y-126578571D02*
X102466428Y-127578571D01*
X102466428Y-126721428D02*
X102537857Y-126650000D01*
X102680714Y-126578571D01*
X102895000Y-126578571D01*
X103037857Y-126650000D01*
X103109285Y-126792857D01*
X103109285Y-127578571D01*
X105752142Y-126150000D02*
X105609285Y-126078571D01*
X105395000Y-126078571D01*
X105180714Y-126150000D01*
X105037857Y-126292857D01*
X104966428Y-126435714D01*
X104895000Y-126721428D01*
X104895000Y-126935714D01*
X104966428Y-127221428D01*
X105037857Y-127364285D01*
X105180714Y-127507142D01*
X105395000Y-127578571D01*
X105537857Y-127578571D01*
X105752142Y-127507142D01*
X105823571Y-127435714D01*
X105823571Y-126935714D01*
X105537857Y-126935714D01*
X106466428Y-127578571D02*
X106466428Y-126578571D01*
X106466428Y-126864285D02*
X106537857Y-126721428D01*
X106609285Y-126650000D01*
X106752142Y-126578571D01*
X106895000Y-126578571D01*
X107609285Y-127578571D02*
X107466428Y-127507142D01*
X107395000Y-127435714D01*
X107323571Y-127292857D01*
X107323571Y-126864285D01*
X107395000Y-126721428D01*
X107466428Y-126650000D01*
X107609285Y-126578571D01*
X107823571Y-126578571D01*
X107966428Y-126650000D01*
X108037857Y-126721428D01*
X108109285Y-126864285D01*
X108109285Y-127292857D01*
X108037857Y-127435714D01*
X107966428Y-127507142D01*
X107823571Y-127578571D01*
X107609285Y-127578571D01*
X109395000Y-126578571D02*
X109395000Y-127578571D01*
X108752142Y-126578571D02*
X108752142Y-127364285D01*
X108823571Y-127507142D01*
X108966428Y-127578571D01*
X109180714Y-127578571D01*
X109323571Y-127507142D01*
X109395000Y-127435714D01*
X110109285Y-126578571D02*
X110109285Y-128078571D01*
X110109285Y-126650000D02*
X110252142Y-126578571D01*
X110537857Y-126578571D01*
X110680714Y-126650000D01*
X110752142Y-126721428D01*
X110823571Y-126864285D01*
X110823571Y-127292857D01*
X110752142Y-127435714D01*
X110680714Y-127507142D01*
X110537857Y-127578571D01*
X110252142Y-127578571D01*
X110109285Y-127507142D01*
X112537857Y-126221428D02*
X112609285Y-126150000D01*
X112752142Y-126078571D01*
X113109285Y-126078571D01*
X113252142Y-126150000D01*
X113323571Y-126221428D01*
X113395000Y-126364285D01*
X113395000Y-126507142D01*
X113323571Y-126721428D01*
X112466428Y-127578571D01*
X113395000Y-127578571D01*
X114323571Y-126078571D02*
X114466428Y-126078571D01*
X114609285Y-126150000D01*
X114680714Y-126221428D01*
X114752142Y-126364285D01*
X114823571Y-126650000D01*
X114823571Y-127007142D01*
X114752142Y-127292857D01*
X114680714Y-127435714D01*
X114609285Y-127507142D01*
X114466428Y-127578571D01*
X114323571Y-127578571D01*
X114180714Y-127507142D01*
X114109285Y-127435714D01*
X114037857Y-127292857D01*
X113966428Y-127007142D01*
X113966428Y-126650000D01*
X114037857Y-126364285D01*
X114109285Y-126221428D01*
X114180714Y-126150000D01*
X114323571Y-126078571D01*
X116252142Y-127578571D02*
X115394999Y-127578571D01*
X115823571Y-127578571D02*
X115823571Y-126078571D01*
X115680714Y-126292857D01*
X115537857Y-126435714D01*
X115394999Y-126507142D01*
X117537857Y-126078571D02*
X117252142Y-126078571D01*
X117109285Y-126150000D01*
X117037857Y-126221428D01*
X116894999Y-126435714D01*
X116823571Y-126721428D01*
X116823571Y-127292857D01*
X116894999Y-127435714D01*
X116966428Y-127507142D01*
X117109285Y-127578571D01*
X117394999Y-127578571D01*
X117537857Y-127507142D01*
X117609285Y-127435714D01*
X117680714Y-127292857D01*
X117680714Y-126935714D01*
X117609285Y-126792857D01*
X117537857Y-126721428D01*
X117394999Y-126650000D01*
X117109285Y-126650000D01*
X116966428Y-126721428D01*
X116894999Y-126792857D01*
X116823571Y-126935714D01*
X69752142Y-130128571D02*
X69752142Y-128628571D01*
X70252142Y-129700000D01*
X70752142Y-128628571D01*
X70752142Y-130128571D01*
X72252142Y-130128571D02*
X71395000Y-130128571D01*
X71823571Y-130128571D02*
X71823571Y-128628571D01*
X71680714Y-128842857D01*
X71537857Y-128985714D01*
X71395000Y-129057142D01*
X72537857Y-130271428D02*
X73680714Y-130271428D01*
X74823571Y-130128571D02*
X73966428Y-130128571D01*
X74395000Y-130128571D02*
X74395000Y-128628571D01*
X74252142Y-128842857D01*
X74109285Y-128985714D01*
X73966428Y-129057142D01*
X76537857Y-128557142D02*
X75252142Y-130485714D01*
X76966428Y-128771428D02*
X77037857Y-128700000D01*
X77180714Y-128628571D01*
X77537857Y-128628571D01*
X77680714Y-128700000D01*
X77752142Y-128771428D01*
X77823571Y-128914285D01*
X77823571Y-129057142D01*
X77752142Y-129271428D01*
X76895000Y-130128571D01*
X77823571Y-130128571D01*
X78752142Y-128628571D02*
X78895000Y-128628571D01*
X79037857Y-128700000D01*
X79109285Y-128771428D01*
X79180714Y-128914285D01*
X79252142Y-129200000D01*
X79252142Y-129557142D01*
X79180714Y-129842857D01*
X79109285Y-129985714D01*
X79037857Y-130057142D01*
X78895000Y-130128571D01*
X78752142Y-130128571D01*
X78609285Y-130057142D01*
X78537857Y-129985714D01*
X78466428Y-129842857D01*
X78395000Y-129557142D01*
X78395000Y-129200000D01*
X78466428Y-128914285D01*
X78537857Y-128771428D01*
X78609285Y-128700000D01*
X78752142Y-128628571D01*
X80680714Y-130128571D02*
X79823571Y-130128571D01*
X80252142Y-130128571D02*
X80252142Y-128628571D01*
X80109285Y-128842857D01*
X79966428Y-128985714D01*
X79823571Y-129057142D01*
X81966428Y-128628571D02*
X81680714Y-128628571D01*
X81537857Y-128700000D01*
X81466428Y-128771428D01*
X81323571Y-128985714D01*
X81252142Y-129271428D01*
X81252142Y-129842857D01*
X81323571Y-129985714D01*
X81395000Y-130057142D01*
X81537857Y-130128571D01*
X81823571Y-130128571D01*
X81966428Y-130057142D01*
X82037857Y-129985714D01*
X82109285Y-129842857D01*
X82109285Y-129485714D01*
X82037857Y-129342857D01*
X81966428Y-129271428D01*
X81823571Y-129200000D01*
X81537857Y-129200000D01*
X81395000Y-129271428D01*
X81323571Y-129342857D01*
X81252142Y-129485714D01*
X127328571Y-121899999D02*
X127328571Y-122757142D01*
X127328571Y-122328571D02*
X125828571Y-122328571D01*
X126042857Y-122471428D01*
X126185714Y-122614285D01*
X126257142Y-122757142D01*
X125828571Y-120971428D02*
X125828571Y-120828571D01*
X125900000Y-120685714D01*
X125971428Y-120614285D01*
X126114285Y-120542857D01*
X126400000Y-120471428D01*
X126757142Y-120471428D01*
X127042857Y-120542857D01*
X127185714Y-120614285D01*
X127257142Y-120685714D01*
X127328571Y-120828571D01*
X127328571Y-120971428D01*
X127257142Y-121114285D01*
X127185714Y-121185714D01*
X127042857Y-121257142D01*
X126757142Y-121328571D01*
X126400000Y-121328571D01*
X126114285Y-121257142D01*
X125971428Y-121185714D01*
X125900000Y-121114285D01*
X125828571Y-120971428D01*
X127328571Y-119757142D02*
X127328571Y-119471428D01*
X127257142Y-119328571D01*
X127185714Y-119257142D01*
X126971428Y-119114285D01*
X126685714Y-119042857D01*
X126114285Y-119042857D01*
X125971428Y-119114285D01*
X125900000Y-119185714D01*
X125828571Y-119328571D01*
X125828571Y-119614285D01*
X125900000Y-119757142D01*
X125971428Y-119828571D01*
X126114285Y-119899999D01*
X126471428Y-119899999D01*
X126614285Y-119828571D01*
X126685714Y-119757142D01*
X126757142Y-119614285D01*
X126757142Y-119328571D01*
X126685714Y-119185714D01*
X126614285Y-119114285D01*
X126471428Y-119042857D01*
X125828571Y-118114285D02*
X125828571Y-117971428D01*
X125900000Y-117828571D01*
X125971428Y-117757142D01*
X126114285Y-117685714D01*
X126400000Y-117614285D01*
X126757142Y-117614285D01*
X127042857Y-117685714D01*
X127185714Y-117757142D01*
X127257142Y-117828571D01*
X127328571Y-117971428D01*
X127328571Y-118114285D01*
X127257142Y-118257142D01*
X127185714Y-118328571D01*
X127042857Y-118399999D01*
X126757142Y-118471428D01*
X126400000Y-118471428D01*
X126114285Y-118399999D01*
X125971428Y-118328571D01*
X125900000Y-118257142D01*
X125828571Y-118114285D01*
X127328571Y-115828571D02*
X125828571Y-115828571D01*
X126900000Y-115328571D01*
X125828571Y-114828571D01*
X127328571Y-114828571D01*
X127328571Y-114114285D02*
X125828571Y-114114285D01*
X126542857Y-114114285D02*
X126542857Y-113257142D01*
X127328571Y-113257142D02*
X125828571Y-113257142D01*
X126328571Y-112685714D02*
X126328571Y-111900000D01*
X127328571Y-112685714D01*
X127328571Y-111900000D01*
X125828571Y-109900000D02*
X125828571Y-109614285D01*
X125900000Y-109471428D01*
X126042857Y-109328571D01*
X126328571Y-109257142D01*
X126828571Y-109257142D01*
X127114285Y-109328571D01*
X127257142Y-109471428D01*
X127328571Y-109614285D01*
X127328571Y-109900000D01*
X127257142Y-110042857D01*
X127114285Y-110185714D01*
X126828571Y-110257142D01*
X126328571Y-110257142D01*
X126042857Y-110185714D01*
X125900000Y-110042857D01*
X125828571Y-109900000D01*
X126328571Y-107971428D02*
X127328571Y-107971428D01*
X126328571Y-108614285D02*
X127114285Y-108614285D01*
X127257142Y-108542857D01*
X127328571Y-108400000D01*
X127328571Y-108185714D01*
X127257142Y-108042857D01*
X127185714Y-107971428D01*
X126328571Y-107471428D02*
X126328571Y-106900000D01*
X125828571Y-107257142D02*
X127114285Y-107257142D01*
X127257142Y-107185714D01*
X127328571Y-107042857D01*
X127328571Y-106900000D01*
X127185714Y-141835714D02*
X127257142Y-141907142D01*
X127328571Y-142121428D01*
X127328571Y-142264285D01*
X127257142Y-142478571D01*
X127114285Y-142621428D01*
X126971428Y-142692857D01*
X126685714Y-142764285D01*
X126471428Y-142764285D01*
X126185714Y-142692857D01*
X126042857Y-142621428D01*
X125900000Y-142478571D01*
X125828571Y-142264285D01*
X125828571Y-142121428D01*
X125900000Y-141907142D01*
X125971428Y-141835714D01*
X127328571Y-140978571D02*
X127257142Y-141121428D01*
X127185714Y-141192857D01*
X127042857Y-141264285D01*
X126614285Y-141264285D01*
X126471428Y-141192857D01*
X126400000Y-141121428D01*
X126328571Y-140978571D01*
X126328571Y-140764285D01*
X126400000Y-140621428D01*
X126471428Y-140550000D01*
X126614285Y-140478571D01*
X127042857Y-140478571D01*
X127185714Y-140550000D01*
X127257142Y-140621428D01*
X127328571Y-140764285D01*
X127328571Y-140978571D01*
X127328571Y-139835714D02*
X126328571Y-139835714D01*
X126471428Y-139835714D02*
X126400000Y-139764285D01*
X126328571Y-139621428D01*
X126328571Y-139407142D01*
X126400000Y-139264285D01*
X126542857Y-139192857D01*
X127328571Y-139192857D01*
X126542857Y-139192857D02*
X126400000Y-139121428D01*
X126328571Y-138978571D01*
X126328571Y-138764285D01*
X126400000Y-138621428D01*
X126542857Y-138550000D01*
X127328571Y-138550000D01*
X127328571Y-137835714D02*
X126328571Y-137835714D01*
X126471428Y-137835714D02*
X126400000Y-137764285D01*
X126328571Y-137621428D01*
X126328571Y-137407142D01*
X126400000Y-137264285D01*
X126542857Y-137192857D01*
X127328571Y-137192857D01*
X126542857Y-137192857D02*
X126400000Y-137121428D01*
X126328571Y-136978571D01*
X126328571Y-136764285D01*
X126400000Y-136621428D01*
X126542857Y-136550000D01*
X127328571Y-136550000D01*
X126900000Y-134764285D02*
X126900000Y-134050000D01*
X127328571Y-134907142D02*
X125828571Y-134407142D01*
X127328571Y-133907142D01*
X126328571Y-133407142D02*
X127328571Y-133407142D01*
X126471428Y-133407142D02*
X126400000Y-133335714D01*
X126328571Y-133192857D01*
X126328571Y-132978571D01*
X126400000Y-132835714D01*
X126542857Y-132764285D01*
X127328571Y-132764285D01*
X126328571Y-132264285D02*
X126328571Y-131692857D01*
X125828571Y-132050000D02*
X127114285Y-132050000D01*
X127257142Y-131978571D01*
X127328571Y-131835714D01*
X127328571Y-131692857D01*
D13*
X69357142Y-148016666D02*
X69428571Y-147873809D01*
X69428571Y-147635714D01*
X69357142Y-147540476D01*
X69285714Y-147492857D01*
X69142857Y-147445238D01*
X69000000Y-147445238D01*
X68857142Y-147492857D01*
X68785714Y-147540476D01*
X68714285Y-147635714D01*
X68642857Y-147826190D01*
X68571428Y-147921428D01*
X68500000Y-147969047D01*
X68357142Y-148016666D01*
X68214285Y-148016666D01*
X68071428Y-147969047D01*
X68000000Y-147921428D01*
X67928571Y-147826190D01*
X67928571Y-147588095D01*
X68000000Y-147445238D01*
X68428571Y-147159523D02*
X68428571Y-146778571D01*
X67928571Y-147016666D02*
X69214285Y-147016666D01*
X69357142Y-146969047D01*
X69428571Y-146873809D01*
X69428571Y-146778571D01*
X69428571Y-146016666D02*
X68642857Y-146016666D01*
X68500000Y-146064285D01*
X68428571Y-146159523D01*
X68428571Y-146350000D01*
X68500000Y-146445238D01*
X69357142Y-146016666D02*
X69428571Y-146111904D01*
X69428571Y-146350000D01*
X69357142Y-146445238D01*
X69214285Y-146492857D01*
X69071428Y-146492857D01*
X68928571Y-146445238D01*
X68857142Y-146350000D01*
X68857142Y-146111904D01*
X68785714Y-146016666D01*
X68428571Y-145683333D02*
X68428571Y-145302380D01*
X67928571Y-145540476D02*
X69214285Y-145540476D01*
X69357142Y-145492857D01*
X69428571Y-145397619D01*
X69428571Y-145302380D01*
X68428571Y-144540476D02*
X69428571Y-144540476D01*
X68428571Y-144969047D02*
X69214285Y-144969047D01*
X69357142Y-144921428D01*
X69428571Y-144826190D01*
X69428571Y-144683333D01*
X69357142Y-144588095D01*
X69285714Y-144540476D01*
X69357142Y-144111904D02*
X69428571Y-144016666D01*
X69428571Y-143826190D01*
X69357142Y-143730952D01*
X69214285Y-143683333D01*
X69142857Y-143683333D01*
X69000000Y-143730952D01*
X68928571Y-143826190D01*
X68928571Y-143969047D01*
X68857142Y-144064285D01*
X68714285Y-144111904D01*
X68642857Y-144111904D01*
X68500000Y-144064285D01*
X68428571Y-143969047D01*
X68428571Y-143826190D01*
X68500000Y-143730952D01*
X66628571Y-148038095D02*
X65128571Y-148038095D01*
X66628571Y-147466666D01*
X65128571Y-147466666D01*
X66628571Y-146990476D02*
X65128571Y-146990476D01*
X66200000Y-146657142D01*
X65128571Y-146323809D01*
X66628571Y-146323809D01*
X65842857Y-145847619D02*
X65842857Y-145514285D01*
X66628571Y-145371428D02*
X66628571Y-145847619D01*
X65128571Y-145847619D01*
X65128571Y-145371428D01*
X66200000Y-144990476D02*
X66200000Y-144514285D01*
X66628571Y-145085714D02*
X65128571Y-144752380D01*
X66628571Y-144419047D01*
X64228571Y-148016666D02*
X62728571Y-148016666D01*
X62728571Y-147635714D01*
X62800000Y-147540476D01*
X62871428Y-147492857D01*
X63014285Y-147445238D01*
X63228571Y-147445238D01*
X63371428Y-147492857D01*
X63442857Y-147540476D01*
X63514285Y-147635714D01*
X63514285Y-148016666D01*
X63800000Y-147064285D02*
X63800000Y-146588095D01*
X64228571Y-147159523D02*
X62728571Y-146826190D01*
X64228571Y-146492857D01*
X62871428Y-146207142D02*
X62800000Y-146159523D01*
X62728571Y-146064285D01*
X62728571Y-145826190D01*
X62800000Y-145730952D01*
X62871428Y-145683333D01*
X63014285Y-145635714D01*
X63157142Y-145635714D01*
X63371428Y-145683333D01*
X64228571Y-146254761D01*
X64228571Y-145635714D01*
X61528571Y-147966666D02*
X60028571Y-147966666D01*
X60028571Y-147585714D01*
X60100000Y-147490476D01*
X60171428Y-147442857D01*
X60314285Y-147395238D01*
X60528571Y-147395238D01*
X60671428Y-147442857D01*
X60742857Y-147490476D01*
X60814285Y-147585714D01*
X60814285Y-147966666D01*
X61100000Y-147014285D02*
X61100000Y-146538095D01*
X61528571Y-147109523D02*
X60028571Y-146776190D01*
X61528571Y-146442857D01*
X61528571Y-145585714D02*
X61528571Y-146157142D01*
X61528571Y-145871428D02*
X60028571Y-145871428D01*
X60242857Y-145966666D01*
X60385714Y-146061904D01*
X60457142Y-146157142D01*
X59128571Y-147966666D02*
X57628571Y-147966666D01*
X57628571Y-147585714D01*
X57700000Y-147490476D01*
X57771428Y-147442857D01*
X57914285Y-147395238D01*
X58128571Y-147395238D01*
X58271428Y-147442857D01*
X58342857Y-147490476D01*
X58414285Y-147585714D01*
X58414285Y-147966666D01*
X58700000Y-147014285D02*
X58700000Y-146538095D01*
X59128571Y-147109523D02*
X57628571Y-146776190D01*
X59128571Y-146442857D01*
X57628571Y-145919047D02*
X57628571Y-145823809D01*
X57700000Y-145728571D01*
X57771428Y-145680952D01*
X57914285Y-145633333D01*
X58200000Y-145585714D01*
X58557142Y-145585714D01*
X58842857Y-145633333D01*
X58985714Y-145680952D01*
X59057142Y-145728571D01*
X59128571Y-145823809D01*
X59128571Y-145919047D01*
X59057142Y-146014285D01*
X58985714Y-146061904D01*
X58842857Y-146109523D01*
X58557142Y-146157142D01*
X58200000Y-146157142D01*
X57914285Y-146109523D01*
X57771428Y-146061904D01*
X57700000Y-146014285D01*
X57628571Y-145919047D01*
X56757142Y-148040476D02*
X56828571Y-147897619D01*
X56828571Y-147659523D01*
X56757142Y-147564285D01*
X56685714Y-147516666D01*
X56542857Y-147469047D01*
X56400000Y-147469047D01*
X56257142Y-147516666D01*
X56185714Y-147564285D01*
X56114285Y-147659523D01*
X56042857Y-147850000D01*
X55971428Y-147945238D01*
X55900000Y-147992857D01*
X55757142Y-148040476D01*
X55614285Y-148040476D01*
X55471428Y-147992857D01*
X55400000Y-147945238D01*
X55328571Y-147850000D01*
X55328571Y-147611904D01*
X55400000Y-147469047D01*
X56685714Y-146469047D02*
X56757142Y-146516666D01*
X56828571Y-146659523D01*
X56828571Y-146754761D01*
X56757142Y-146897619D01*
X56614285Y-146992857D01*
X56471428Y-147040476D01*
X56185714Y-147088095D01*
X55971428Y-147088095D01*
X55685714Y-147040476D01*
X55542857Y-146992857D01*
X55400000Y-146897619D01*
X55328571Y-146754761D01*
X55328571Y-146659523D01*
X55400000Y-146516666D01*
X55471428Y-146469047D01*
X56828571Y-145564285D02*
X56828571Y-146040476D01*
X55328571Y-146040476D01*
X54107142Y-148014285D02*
X54178571Y-147871428D01*
X54178571Y-147633333D01*
X54107142Y-147538095D01*
X54035714Y-147490476D01*
X53892857Y-147442857D01*
X53750000Y-147442857D01*
X53607142Y-147490476D01*
X53535714Y-147538095D01*
X53464285Y-147633333D01*
X53392857Y-147823809D01*
X53321428Y-147919047D01*
X53250000Y-147966666D01*
X53107142Y-148014285D01*
X52964285Y-148014285D01*
X52821428Y-147966666D01*
X52750000Y-147919047D01*
X52678571Y-147823809D01*
X52678571Y-147585714D01*
X52750000Y-147442857D01*
X54178571Y-147014285D02*
X52678571Y-147014285D01*
X52678571Y-146776190D01*
X52750000Y-146633333D01*
X52892857Y-146538095D01*
X53035714Y-146490476D01*
X53321428Y-146442857D01*
X53535714Y-146442857D01*
X53821428Y-146490476D01*
X53964285Y-146538095D01*
X54107142Y-146633333D01*
X54178571Y-146776190D01*
X54178571Y-147014285D01*
X53750000Y-146061904D02*
X53750000Y-145585714D01*
X54178571Y-146157142D02*
X52678571Y-145823809D01*
X54178571Y-145490476D01*
X70450000Y-147511904D02*
X70378571Y-147607142D01*
X70378571Y-147750000D01*
X70450000Y-147892857D01*
X70592857Y-147988095D01*
X70735714Y-148035714D01*
X71021428Y-148083333D01*
X71235714Y-148083333D01*
X71521428Y-148035714D01*
X71664285Y-147988095D01*
X71807142Y-147892857D01*
X71878571Y-147750000D01*
X71878571Y-147654761D01*
X71807142Y-147511904D01*
X71735714Y-147464285D01*
X71235714Y-147464285D01*
X71235714Y-147654761D01*
X71878571Y-147035714D02*
X70378571Y-147035714D01*
X71878571Y-146464285D01*
X70378571Y-146464285D01*
X71878571Y-145988095D02*
X70378571Y-145988095D01*
X70378571Y-145750000D01*
X70450000Y-145607142D01*
X70592857Y-145511904D01*
X70735714Y-145464285D01*
X71021428Y-145416666D01*
X71235714Y-145416666D01*
X71521428Y-145464285D01*
X71664285Y-145511904D01*
X71807142Y-145607142D01*
X71878571Y-145750000D01*
X71878571Y-145988095D01*
X50150000Y-147461904D02*
X50078571Y-147557142D01*
X50078571Y-147700000D01*
X50150000Y-147842857D01*
X50292857Y-147938095D01*
X50435714Y-147985714D01*
X50721428Y-148033333D01*
X50935714Y-148033333D01*
X51221428Y-147985714D01*
X51364285Y-147938095D01*
X51507142Y-147842857D01*
X51578571Y-147700000D01*
X51578571Y-147604761D01*
X51507142Y-147461904D01*
X51435714Y-147414285D01*
X50935714Y-147414285D01*
X50935714Y-147604761D01*
X51578571Y-146985714D02*
X50078571Y-146985714D01*
X51578571Y-146414285D01*
X50078571Y-146414285D01*
X51578571Y-145938095D02*
X50078571Y-145938095D01*
X50078571Y-145700000D01*
X50150000Y-145557142D01*
X50292857Y-145461904D01*
X50435714Y-145414285D01*
X50721428Y-145366666D01*
X50935714Y-145366666D01*
X51221428Y-145414285D01*
X51364285Y-145461904D01*
X51507142Y-145557142D01*
X51578571Y-145700000D01*
X51578571Y-145938095D01*
X47428571Y-147988095D02*
X47428571Y-147369047D01*
X48000000Y-147702380D01*
X48000000Y-147559523D01*
X48071428Y-147464285D01*
X48142857Y-147416666D01*
X48285714Y-147369047D01*
X48642857Y-147369047D01*
X48785714Y-147416666D01*
X48857142Y-147464285D01*
X48928571Y-147559523D01*
X48928571Y-147845238D01*
X48857142Y-147940476D01*
X48785714Y-147988095D01*
X47428571Y-147083333D02*
X48928571Y-146750000D01*
X47428571Y-146416666D01*
X47428571Y-146178571D02*
X47428571Y-145559523D01*
X48000000Y-145892857D01*
X48000000Y-145750000D01*
X48071428Y-145654761D01*
X48142857Y-145607142D01*
X48285714Y-145559523D01*
X48642857Y-145559523D01*
X48785714Y-145607142D01*
X48857142Y-145654761D01*
X48928571Y-145750000D01*
X48928571Y-146035714D01*
X48857142Y-146130952D01*
X48785714Y-146178571D01*
X73745238Y-149378571D02*
X73745238Y-150592857D01*
X73697619Y-150735714D01*
X73650000Y-150807142D01*
X73554761Y-150878571D01*
X73411904Y-150878571D01*
X73316666Y-150807142D01*
X73745238Y-150307142D02*
X73650000Y-150378571D01*
X73459523Y-150378571D01*
X73364285Y-150307142D01*
X73316666Y-150235714D01*
X73269047Y-150092857D01*
X73269047Y-149664285D01*
X73316666Y-149521428D01*
X73364285Y-149450000D01*
X73459523Y-149378571D01*
X73650000Y-149378571D01*
X73745238Y-149450000D01*
X74221428Y-150378571D02*
X74221428Y-149378571D01*
X74221428Y-149664285D02*
X74269047Y-149521428D01*
X74316666Y-149450000D01*
X74411904Y-149378571D01*
X74507142Y-149378571D01*
X75221428Y-150307142D02*
X75126190Y-150378571D01*
X74935714Y-150378571D01*
X74840476Y-150307142D01*
X74792857Y-150164285D01*
X74792857Y-149592857D01*
X74840476Y-149450000D01*
X74935714Y-149378571D01*
X75126190Y-149378571D01*
X75221428Y-149450000D01*
X75269047Y-149592857D01*
X75269047Y-149735714D01*
X74792857Y-149878571D01*
X76078571Y-150307142D02*
X75983333Y-150378571D01*
X75792857Y-150378571D01*
X75697619Y-150307142D01*
X75650000Y-150164285D01*
X75650000Y-149592857D01*
X75697619Y-149450000D01*
X75792857Y-149378571D01*
X75983333Y-149378571D01*
X76078571Y-149450000D01*
X76126190Y-149592857D01*
X76126190Y-149735714D01*
X75650000Y-149878571D01*
X76554761Y-149378571D02*
X76554761Y-150378571D01*
X76554761Y-149521428D02*
X76602380Y-149450000D01*
X76697619Y-149378571D01*
X76840476Y-149378571D01*
X76935714Y-149450000D01*
X76983333Y-149592857D01*
X76983333Y-150378571D01*
X93588095Y-150428571D02*
X93588095Y-148928571D01*
X93588095Y-149500000D02*
X93683333Y-149428571D01*
X93873809Y-149428571D01*
X93969047Y-149500000D01*
X94016666Y-149571428D01*
X94064285Y-149714285D01*
X94064285Y-150142857D01*
X94016666Y-150285714D01*
X93969047Y-150357142D01*
X93873809Y-150428571D01*
X93683333Y-150428571D01*
X93588095Y-150357142D01*
X94635714Y-150428571D02*
X94540476Y-150357142D01*
X94492857Y-150214285D01*
X94492857Y-148928571D01*
X95445238Y-150428571D02*
X95445238Y-149642857D01*
X95397619Y-149500000D01*
X95302380Y-149428571D01*
X95111904Y-149428571D01*
X95016666Y-149500000D01*
X95445238Y-150357142D02*
X95350000Y-150428571D01*
X95111904Y-150428571D01*
X95016666Y-150357142D01*
X94969047Y-150214285D01*
X94969047Y-150071428D01*
X95016666Y-149928571D01*
X95111904Y-149857142D01*
X95350000Y-149857142D01*
X95445238Y-149785714D01*
X96350000Y-150357142D02*
X96254761Y-150428571D01*
X96064285Y-150428571D01*
X95969047Y-150357142D01*
X95921428Y-150285714D01*
X95873809Y-150142857D01*
X95873809Y-149714285D01*
X95921428Y-149571428D01*
X95969047Y-149500000D01*
X96064285Y-149428571D01*
X96254761Y-149428571D01*
X96350000Y-149500000D01*
X96778571Y-150428571D02*
X96778571Y-148928571D01*
X96873809Y-149857142D02*
X97159523Y-150428571D01*
X97159523Y-149428571D02*
X96778571Y-150000000D01*
D11*
X77485714Y-147242857D02*
X76985714Y-147242857D01*
X76985714Y-148028571D02*
X76985714Y-146528571D01*
X77700000Y-146528571D01*
X78057142Y-146528571D02*
X78914285Y-146528571D01*
X78485714Y-148028571D02*
X78485714Y-146528571D01*
X79414285Y-148028571D02*
X79414285Y-146528571D01*
X79771428Y-146528571D01*
X79985714Y-146600000D01*
X80128571Y-146742857D01*
X80200000Y-146885714D01*
X80271428Y-147171428D01*
X80271428Y-147385714D01*
X80200000Y-147671428D01*
X80128571Y-147814285D01*
X79985714Y-147957142D01*
X79771428Y-148028571D01*
X79414285Y-148028571D01*
X80914285Y-148028571D02*
X80914285Y-146528571D01*
X82628571Y-146528571D02*
X83557142Y-146528571D01*
X83057142Y-147100000D01*
X83271428Y-147100000D01*
X83414285Y-147171428D01*
X83485714Y-147242857D01*
X83557142Y-147385714D01*
X83557142Y-147742857D01*
X83485714Y-147885714D01*
X83414285Y-147957142D01*
X83271428Y-148028571D01*
X82842857Y-148028571D01*
X82700000Y-147957142D01*
X82628571Y-147885714D01*
X83985714Y-146528571D02*
X84485714Y-148028571D01*
X84985714Y-146528571D01*
X85342857Y-146528571D02*
X86271428Y-146528571D01*
X85771428Y-147100000D01*
X85985714Y-147100000D01*
X86128571Y-147171428D01*
X86200000Y-147242857D01*
X86271428Y-147385714D01*
X86271428Y-147742857D01*
X86200000Y-147885714D01*
X86128571Y-147957142D01*
X85985714Y-148028571D01*
X85557142Y-148028571D01*
X85414285Y-147957142D01*
X85342857Y-147885714D01*
X88700000Y-147957142D02*
X88557142Y-148028571D01*
X88271428Y-148028571D01*
X88128571Y-147957142D01*
X88057142Y-147885714D01*
X87985714Y-147742857D01*
X87985714Y-147314285D01*
X88057142Y-147171428D01*
X88128571Y-147100000D01*
X88271428Y-147028571D01*
X88557142Y-147028571D01*
X88700000Y-147100000D01*
X89985714Y-148028571D02*
X89985714Y-147242857D01*
X89914285Y-147100000D01*
X89771428Y-147028571D01*
X89485714Y-147028571D01*
X89342857Y-147100000D01*
X89985714Y-147957142D02*
X89842857Y-148028571D01*
X89485714Y-148028571D01*
X89342857Y-147957142D01*
X89271428Y-147814285D01*
X89271428Y-147671428D01*
X89342857Y-147528571D01*
X89485714Y-147457142D01*
X89842857Y-147457142D01*
X89985714Y-147385714D01*
X90700000Y-148028571D02*
X90700000Y-146528571D01*
X90700000Y-147100000D02*
X90842857Y-147028571D01*
X91128571Y-147028571D01*
X91271428Y-147100000D01*
X91342857Y-147171428D01*
X91414285Y-147314285D01*
X91414285Y-147742857D01*
X91342857Y-147885714D01*
X91271428Y-147957142D01*
X91128571Y-148028571D01*
X90842857Y-148028571D01*
X90700000Y-147957142D01*
X92271428Y-148028571D02*
X92128571Y-147957142D01*
X92057142Y-147814285D01*
X92057142Y-146528571D01*
X93414285Y-147957142D02*
X93271428Y-148028571D01*
X92985714Y-148028571D01*
X92842857Y-147957142D01*
X92771428Y-147814285D01*
X92771428Y-147242857D01*
X92842857Y-147100000D01*
X92985714Y-147028571D01*
X93271428Y-147028571D01*
X93414285Y-147100000D01*
X93485714Y-147242857D01*
X93485714Y-147385714D01*
X92771428Y-147528571D01*
X43871428Y-131135714D02*
X43871428Y-132135714D01*
X42371428Y-131492857D01*
X42514285Y-132707142D02*
X42442857Y-132778571D01*
X42371428Y-132707142D01*
X42442857Y-132635714D01*
X42514285Y-132707142D01*
X42371428Y-132707142D01*
X43728571Y-133350000D02*
X43800000Y-133421428D01*
X43871428Y-133564285D01*
X43871428Y-133921428D01*
X43800000Y-134064285D01*
X43728571Y-134135714D01*
X43585714Y-134207142D01*
X43442857Y-134207142D01*
X43228571Y-134135714D01*
X42371428Y-133278571D01*
X42371428Y-134207142D01*
X43871428Y-134635714D02*
X42371428Y-135135714D01*
X43871428Y-135635714D01*
X44771428Y-126307142D02*
X46271428Y-126307142D01*
X46271428Y-126878571D01*
X46200000Y-127021428D01*
X46128571Y-127092857D01*
X45985714Y-127164285D01*
X45771428Y-127164285D01*
X45628571Y-127092857D01*
X45557142Y-127021428D01*
X45485714Y-126878571D01*
X45485714Y-126307142D01*
X44771428Y-128021428D02*
X44842857Y-127878571D01*
X44914285Y-127807142D01*
X45057142Y-127735714D01*
X45485714Y-127735714D01*
X45628571Y-127807142D01*
X45700000Y-127878571D01*
X45771428Y-128021428D01*
X45771428Y-128235714D01*
X45700000Y-128378571D01*
X45628571Y-128450000D01*
X45485714Y-128521428D01*
X45057142Y-128521428D01*
X44914285Y-128450000D01*
X44842857Y-128378571D01*
X44771428Y-128235714D01*
X44771428Y-128021428D01*
X45771428Y-129021428D02*
X44771428Y-129307142D01*
X45485714Y-129592857D01*
X44771428Y-129878571D01*
X45771428Y-130164285D01*
X44842857Y-131307142D02*
X44771428Y-131164285D01*
X44771428Y-130878571D01*
X44842857Y-130735714D01*
X44985714Y-130664285D01*
X45557142Y-130664285D01*
X45700000Y-130735714D01*
X45771428Y-130878571D01*
X45771428Y-131164285D01*
X45700000Y-131307142D01*
X45557142Y-131378571D01*
X45414285Y-131378571D01*
X45271428Y-130664285D01*
X44771428Y-132021428D02*
X45771428Y-132021428D01*
X45485714Y-132021428D02*
X45628571Y-132092857D01*
X45700000Y-132164285D01*
X45771428Y-132307142D01*
X45771428Y-132450000D01*
X44842857Y-134021428D02*
X44771428Y-134164285D01*
X44771428Y-134450000D01*
X44842857Y-134592857D01*
X44985714Y-134664285D01*
X45057142Y-134664285D01*
X45200000Y-134592857D01*
X45271428Y-134450000D01*
X45271428Y-134235714D01*
X45342857Y-134092857D01*
X45485714Y-134021428D01*
X45557142Y-134021428D01*
X45700000Y-134092857D01*
X45771428Y-134235714D01*
X45771428Y-134450000D01*
X45700000Y-134592857D01*
X45771428Y-135950000D02*
X44771428Y-135950000D01*
X45771428Y-135307142D02*
X44985714Y-135307142D01*
X44842857Y-135378571D01*
X44771428Y-135521428D01*
X44771428Y-135735714D01*
X44842857Y-135878571D01*
X44914285Y-135950000D01*
X45771428Y-136664285D02*
X44271428Y-136664285D01*
X45700000Y-136664285D02*
X45771428Y-136807142D01*
X45771428Y-137092857D01*
X45700000Y-137235714D01*
X45628571Y-137307142D01*
X45485714Y-137378571D01*
X45057142Y-137378571D01*
X44914285Y-137307142D01*
X44842857Y-137235714D01*
X44771428Y-137092857D01*
X44771428Y-136807142D01*
X44842857Y-136664285D01*
X45771428Y-138021428D02*
X44271428Y-138021428D01*
X45700000Y-138021428D02*
X45771428Y-138164285D01*
X45771428Y-138450000D01*
X45700000Y-138592857D01*
X45628571Y-138664285D01*
X45485714Y-138735714D01*
X45057142Y-138735714D01*
X44914285Y-138664285D01*
X44842857Y-138592857D01*
X44771428Y-138450000D01*
X44771428Y-138164285D01*
X44842857Y-138021428D01*
X44771428Y-139592857D02*
X44842857Y-139450000D01*
X44985714Y-139378571D01*
X46271428Y-139378571D01*
X45771428Y-140021428D02*
X44771428Y-140378571D01*
X45771428Y-140735714D02*
X44771428Y-140378571D01*
X44414285Y-140235714D01*
X44342857Y-140164285D01*
X44271428Y-140021428D01*
D13*
X89204761Y-103071428D02*
X89538095Y-103785714D01*
X89776190Y-103071428D02*
X89776190Y-104571428D01*
X89395238Y-104571428D01*
X89300000Y-104500000D01*
X89252380Y-104428571D01*
X89204761Y-104285714D01*
X89204761Y-104071428D01*
X89252380Y-103928571D01*
X89300000Y-103857142D01*
X89395238Y-103785714D01*
X89776190Y-103785714D01*
X88871428Y-104571428D02*
X88204761Y-103071428D01*
X88204761Y-104571428D02*
X88871428Y-103071428D01*
X87823809Y-103071428D02*
X87823809Y-104571428D01*
X85388095Y-104521428D02*
X84769047Y-104521428D01*
X85102380Y-103950000D01*
X84959523Y-103950000D01*
X84864285Y-103878571D01*
X84816666Y-103807142D01*
X84769047Y-103664285D01*
X84769047Y-103307142D01*
X84816666Y-103164285D01*
X84864285Y-103092857D01*
X84959523Y-103021428D01*
X85245238Y-103021428D01*
X85340476Y-103092857D01*
X85388095Y-103164285D01*
X84483333Y-104521428D02*
X84150000Y-103021428D01*
X83816666Y-104521428D01*
X83578571Y-104521428D02*
X82959523Y-104521428D01*
X83292857Y-103950000D01*
X83150000Y-103950000D01*
X83054761Y-103878571D01*
X83007142Y-103807142D01*
X82959523Y-103664285D01*
X82959523Y-103307142D01*
X83007142Y-103164285D01*
X83054761Y-103092857D01*
X83150000Y-103021428D01*
X83435714Y-103021428D01*
X83530952Y-103092857D01*
X83578571Y-103164285D01*
X81861904Y-104450000D02*
X81957142Y-104521428D01*
X82100000Y-104521428D01*
X82242857Y-104450000D01*
X82338095Y-104307142D01*
X82385714Y-104164285D01*
X82433333Y-103878571D01*
X82433333Y-103664285D01*
X82385714Y-103378571D01*
X82338095Y-103235714D01*
X82242857Y-103092857D01*
X82100000Y-103021428D01*
X82004761Y-103021428D01*
X81861904Y-103092857D01*
X81814285Y-103164285D01*
X81814285Y-103664285D01*
X82004761Y-103664285D01*
X81385714Y-103021428D02*
X81385714Y-104521428D01*
X80814285Y-103021428D01*
X80814285Y-104521428D01*
X80338095Y-103021428D02*
X80338095Y-104521428D01*
X80100000Y-104521428D01*
X79957142Y-104450000D01*
X79861904Y-104307142D01*
X79814285Y-104164285D01*
X79766666Y-103878571D01*
X79766666Y-103664285D01*
X79814285Y-103378571D01*
X79861904Y-103235714D01*
X79957142Y-103092857D01*
X80100000Y-103021428D01*
X80338095Y-103021428D01*
D11*
X88607142Y-109921428D02*
X88321428Y-109921428D01*
X88178571Y-109850000D01*
X88035714Y-109707142D01*
X87964285Y-109421428D01*
X87964285Y-108921428D01*
X88035714Y-108635714D01*
X88178571Y-108492857D01*
X88321428Y-108421428D01*
X88607142Y-108421428D01*
X88750000Y-108492857D01*
X88892857Y-108635714D01*
X88964285Y-108921428D01*
X88964285Y-109421428D01*
X88892857Y-109707142D01*
X88750000Y-109850000D01*
X88607142Y-109921428D01*
X87321428Y-109421428D02*
X87321428Y-107921428D01*
X87321428Y-109350000D02*
X87178571Y-109421428D01*
X86892857Y-109421428D01*
X86750000Y-109350000D01*
X86678571Y-109278571D01*
X86607142Y-109135714D01*
X86607142Y-108707142D01*
X86678571Y-108564285D01*
X86750000Y-108492857D01*
X86892857Y-108421428D01*
X87178571Y-108421428D01*
X87321428Y-108492857D01*
X85392857Y-108492857D02*
X85535714Y-108421428D01*
X85821428Y-108421428D01*
X85964285Y-108492857D01*
X86035714Y-108635714D01*
X86035714Y-109207142D01*
X85964285Y-109350000D01*
X85821428Y-109421428D01*
X85535714Y-109421428D01*
X85392857Y-109350000D01*
X85321428Y-109207142D01*
X85321428Y-109064285D01*
X86035714Y-108921428D01*
X84678571Y-109421428D02*
X84678571Y-108421428D01*
X84678571Y-109278571D02*
X84607142Y-109350000D01*
X84464285Y-109421428D01*
X84250000Y-109421428D01*
X84107142Y-109350000D01*
X84035714Y-109207142D01*
X84035714Y-108421428D01*
X82607142Y-108421428D02*
X83321428Y-108421428D01*
X83321428Y-109921428D01*
X81892857Y-108421428D02*
X82035714Y-108492857D01*
X82107142Y-108564285D01*
X82178571Y-108707142D01*
X82178571Y-109135714D01*
X82107142Y-109278571D01*
X82035714Y-109350000D01*
X81892857Y-109421428D01*
X81678571Y-109421428D01*
X81535714Y-109350000D01*
X81464285Y-109278571D01*
X81392857Y-109135714D01*
X81392857Y-108707142D01*
X81464285Y-108564285D01*
X81535714Y-108492857D01*
X81678571Y-108421428D01*
X81892857Y-108421428D01*
X80107142Y-109421428D02*
X80107142Y-108207142D01*
X80178571Y-108064285D01*
X80250000Y-107992857D01*
X80392857Y-107921428D01*
X80607142Y-107921428D01*
X80750000Y-107992857D01*
X80107142Y-108492857D02*
X80250000Y-108421428D01*
X80535714Y-108421428D01*
X80678571Y-108492857D01*
X80750000Y-108564285D01*
X80821428Y-108707142D01*
X80821428Y-109135714D01*
X80750000Y-109278571D01*
X80678571Y-109350000D01*
X80535714Y-109421428D01*
X80250000Y-109421428D01*
X80107142Y-109350000D01*
X73321428Y-103421428D02*
X74178571Y-103421428D01*
X73750000Y-103421428D02*
X73750000Y-104921428D01*
X73892857Y-104707142D01*
X74035714Y-104564285D01*
X74178571Y-104492857D01*
X62200000Y-109721428D02*
X62200000Y-108650000D01*
X62271428Y-108435714D01*
X62414285Y-108292857D01*
X62628571Y-108221428D01*
X62771428Y-108221428D01*
X61700000Y-109721428D02*
X60842857Y-109721428D01*
X61271428Y-108221428D02*
X61271428Y-109721428D01*
X60414285Y-108650000D02*
X59700000Y-108650000D01*
X60557142Y-108221428D02*
X60057142Y-109721428D01*
X59557142Y-108221428D01*
X58271428Y-109650000D02*
X58414285Y-109721428D01*
X58628571Y-109721428D01*
X58842857Y-109650000D01*
X58985714Y-109507142D01*
X59057142Y-109364285D01*
X59128571Y-109078571D01*
X59128571Y-108864285D01*
X59057142Y-108578571D01*
X58985714Y-108435714D01*
X58842857Y-108292857D01*
X58628571Y-108221428D01*
X58485714Y-108221428D01*
X58271428Y-108292857D01*
X58200000Y-108364285D01*
X58200000Y-108864285D01*
X58485714Y-108864285D01*
D14*
X39370000Y-128270000D02*
X39370000Y-140970000D01*
X39370000Y-140970000D02*
X36830000Y-140970000D01*
X36830000Y-140970000D02*
X36830000Y-128270000D01*
X39650000Y-125450000D02*
X39650000Y-127000000D01*
X39370000Y-128270000D02*
X36830000Y-128270000D01*
X36550000Y-127000000D02*
X36550000Y-125450000D01*
X36550000Y-125450000D02*
X39650000Y-125450000D01*
X49530000Y-148590000D02*
X72390000Y-148590000D01*
X72390000Y-148590000D02*
X72390000Y-151130000D01*
X72390000Y-151130000D02*
X49530000Y-151130000D01*
X46710000Y-148310000D02*
X48260000Y-148310000D01*
X49530000Y-148590000D02*
X49530000Y-151130000D01*
X48260000Y-151410000D02*
X46710000Y-151410000D01*
X46710000Y-151410000D02*
X46710000Y-148310000D01*
X90170000Y-151130000D02*
X77470000Y-151130000D01*
X77470000Y-151130000D02*
X77470000Y-148590000D01*
X77470000Y-148590000D02*
X90170000Y-148590000D01*
X92990000Y-151410000D02*
X91440000Y-151410000D01*
X90170000Y-151130000D02*
X90170000Y-148590000D01*
X91440000Y-148310000D02*
X92990000Y-148310000D01*
X92990000Y-148310000D02*
X92990000Y-151410000D01*
X80010000Y-105410000D02*
X92710000Y-105410000D01*
X92710000Y-105410000D02*
X92710000Y-107950000D01*
X92710000Y-107950000D02*
X80010000Y-107950000D01*
X77190000Y-105130000D02*
X78740000Y-105130000D01*
X80010000Y-105410000D02*
X80010000Y-107950000D01*
X78740000Y-108230000D02*
X77190000Y-108230000D01*
X77190000Y-108230000D02*
X77190000Y-105130000D01*
X46990000Y-107950000D02*
X72390000Y-107950000D01*
X69850000Y-102870000D02*
X46990000Y-102870000D01*
X46990000Y-107950000D02*
X46990000Y-102870000D01*
X72390000Y-107950000D02*
X72390000Y-105410000D01*
X72670000Y-104140000D02*
X72670000Y-102590000D01*
X72390000Y-105410000D02*
X69850000Y-105410000D01*
X69850000Y-105410000D02*
X69850000Y-102870000D01*
X72670000Y-102590000D02*
X71120000Y-102590000D01*
X37461904Y-125202380D02*
X37461904Y-124202380D01*
X38033333Y-125202380D02*
X37604761Y-124630952D01*
X38033333Y-124202380D02*
X37461904Y-124773809D01*
X38985714Y-125202380D02*
X38414285Y-125202380D01*
X38700000Y-125202380D02*
X38700000Y-124202380D01*
X38604761Y-124345238D01*
X38509523Y-124440476D01*
X38414285Y-124488095D01*
X44561904Y-150152380D02*
X44561904Y-149152380D01*
X45133333Y-150152380D02*
X44704761Y-149580952D01*
X45133333Y-149152380D02*
X44561904Y-149723809D01*
X45514285Y-149247619D02*
X45561904Y-149200000D01*
X45657142Y-149152380D01*
X45895238Y-149152380D01*
X45990476Y-149200000D01*
X46038095Y-149247619D01*
X46085714Y-149342857D01*
X46085714Y-149438095D01*
X46038095Y-149580952D01*
X45466666Y-150152380D01*
X46085714Y-150152380D01*
X90761904Y-146052380D02*
X90761904Y-145052380D01*
X91333333Y-146052380D02*
X90904761Y-145480952D01*
X91333333Y-145052380D02*
X90761904Y-145623809D01*
X91666666Y-145052380D02*
X92285714Y-145052380D01*
X91952380Y-145433333D01*
X92095238Y-145433333D01*
X92190476Y-145480952D01*
X92238095Y-145528571D01*
X92285714Y-145623809D01*
X92285714Y-145861904D01*
X92238095Y-145957142D01*
X92190476Y-146004761D01*
X92095238Y-146052380D01*
X91809523Y-146052380D01*
X91714285Y-146004761D01*
X91666666Y-145957142D01*
X93061904Y-107052380D02*
X93061904Y-106052380D01*
X93633333Y-107052380D02*
X93204761Y-106480952D01*
X93633333Y-106052380D02*
X93061904Y-106623809D01*
X94490476Y-106385714D02*
X94490476Y-107052380D01*
X94252380Y-106004761D02*
X94014285Y-106719047D01*
X94633333Y-106719047D01*
X131311904Y-140252380D02*
X131311904Y-139252380D01*
X131883333Y-140252380D02*
X131454761Y-139680952D01*
X131883333Y-139252380D02*
X131311904Y-139823809D01*
X132788095Y-139252380D02*
X132311904Y-139252380D01*
X132264285Y-139728571D01*
X132311904Y-139680952D01*
X132407142Y-139633333D01*
X132645238Y-139633333D01*
X132740476Y-139680952D01*
X132788095Y-139728571D01*
X132835714Y-139823809D01*
X132835714Y-140061904D01*
X132788095Y-140157142D01*
X132740476Y-140204761D01*
X132645238Y-140252380D01*
X132407142Y-140252380D01*
X132311904Y-140204761D01*
X132264285Y-140157142D01*
X131361904Y-118002380D02*
X131361904Y-117002380D01*
X131933333Y-118002380D02*
X131504761Y-117430952D01*
X131933333Y-117002380D02*
X131361904Y-117573809D01*
X132790476Y-117002380D02*
X132600000Y-117002380D01*
X132504761Y-117050000D01*
X132457142Y-117097619D01*
X132361904Y-117240476D01*
X132314285Y-117430952D01*
X132314285Y-117811904D01*
X132361904Y-117907142D01*
X132409523Y-117954761D01*
X132504761Y-118002380D01*
X132695238Y-118002380D01*
X132790476Y-117954761D01*
X132838095Y-117907142D01*
X132885714Y-117811904D01*
X132885714Y-117573809D01*
X132838095Y-117478571D01*
X132790476Y-117430952D01*
X132695238Y-117383333D01*
X132504761Y-117383333D01*
X132409523Y-117430952D01*
X132361904Y-117478571D01*
X132314285Y-117573809D01*
X73161904Y-107752380D02*
X73161904Y-106752380D01*
X73733333Y-107752380D02*
X73304761Y-107180952D01*
X73733333Y-106752380D02*
X73161904Y-107323809D01*
X74304761Y-107180952D02*
X74209523Y-107133333D01*
X74161904Y-107085714D01*
X74114285Y-106990476D01*
X74114285Y-106942857D01*
X74161904Y-106847619D01*
X74209523Y-106800000D01*
X74304761Y-106752380D01*
X74495238Y-106752380D01*
X74590476Y-106800000D01*
X74638095Y-106847619D01*
X74685714Y-106942857D01*
X74685714Y-106990476D01*
X74638095Y-107085714D01*
X74590476Y-107133333D01*
X74495238Y-107180952D01*
X74304761Y-107180952D01*
X74209523Y-107228571D01*
X74161904Y-107276190D01*
X74114285Y-107371428D01*
X74114285Y-107561904D01*
X74161904Y-107657142D01*
X74209523Y-107704761D01*
X74304761Y-107752380D01*
X74495238Y-107752380D01*
X74590476Y-107704761D01*
X74638095Y-107657142D01*
X74685714Y-107561904D01*
X74685714Y-107371428D01*
X74638095Y-107276190D01*
X74590476Y-107228571D01*
X74495238Y-107180952D01*
X39830476Y-107632380D02*
X39830476Y-106632380D01*
X40163809Y-107346666D01*
X40497142Y-106632380D01*
X40497142Y-107632380D01*
X41116190Y-107060952D02*
X41020952Y-107013333D01*
X40973333Y-106965714D01*
X40925714Y-106870476D01*
X40925714Y-106822857D01*
X40973333Y-106727619D01*
X41020952Y-106680000D01*
X41116190Y-106632380D01*
X41306666Y-106632380D01*
X41401904Y-106680000D01*
X41449523Y-106727619D01*
X41497142Y-106822857D01*
X41497142Y-106870476D01*
X41449523Y-106965714D01*
X41401904Y-107013333D01*
X41306666Y-107060952D01*
X41116190Y-107060952D01*
X41020952Y-107108571D01*
X40973333Y-107156190D01*
X40925714Y-107251428D01*
X40925714Y-107441904D01*
X40973333Y-107537142D01*
X41020952Y-107584761D01*
X41116190Y-107632380D01*
X41306666Y-107632380D01*
X41401904Y-107584761D01*
X41449523Y-107537142D01*
X41497142Y-107441904D01*
X41497142Y-107251428D01*
X41449523Y-107156190D01*
X41401904Y-107108571D01*
X41306666Y-107060952D01*
M02*
