G04 #@! TF.FileFunction,Soldermask,Top*
%FSLAX46Y46*%
G04 Gerber Fmt 4.6, Leading zero omitted, Abs format (unit mm)*
G04 Created by KiCad (PCBNEW 4.0.3-stable) date 09/21/16 12:07:47*
%MOMM*%
%LPD*%
G01*
G04 APERTURE LIST*
%ADD10C,0.100000*%
G04 APERTURE END LIST*
D10*
G36*
X41081144Y-143122794D02*
X41887989Y-143288415D01*
X42647287Y-143607594D01*
X43330139Y-144068184D01*
X43910519Y-144652629D01*
X44366325Y-145338674D01*
X44680201Y-146100192D01*
X44840048Y-146907479D01*
X44840048Y-146907501D01*
X44840180Y-146908169D01*
X44827044Y-147848947D01*
X44826892Y-147849615D01*
X44826892Y-147849634D01*
X44644567Y-148652139D01*
X44309551Y-149404597D01*
X43834765Y-150077650D01*
X43238294Y-150645661D01*
X42542848Y-151087004D01*
X41774931Y-151384860D01*
X40963778Y-151527889D01*
X40140295Y-151510638D01*
X39335848Y-151333770D01*
X38581073Y-151004017D01*
X37904724Y-150533941D01*
X37332559Y-149941447D01*
X36886372Y-149249101D01*
X36583162Y-148483279D01*
X36434475Y-147673147D01*
X36445975Y-146849567D01*
X36617224Y-146043901D01*
X36941701Y-145286840D01*
X37407044Y-144607225D01*
X37995527Y-144030939D01*
X38684738Y-143579932D01*
X39448424Y-143271382D01*
X40257500Y-143117043D01*
X41081144Y-143122794D01*
X41081144Y-143122794D01*
G37*
G36*
X132521144Y-143122794D02*
X133327989Y-143288415D01*
X134087287Y-143607594D01*
X134770139Y-144068184D01*
X135350519Y-144652629D01*
X135806325Y-145338674D01*
X136120201Y-146100192D01*
X136280048Y-146907479D01*
X136280048Y-146907501D01*
X136280180Y-146908169D01*
X136267044Y-147848947D01*
X136266892Y-147849615D01*
X136266892Y-147849634D01*
X136084567Y-148652139D01*
X135749551Y-149404597D01*
X135274765Y-150077650D01*
X134678294Y-150645661D01*
X133982848Y-151087004D01*
X133214931Y-151384860D01*
X132403778Y-151527889D01*
X131580295Y-151510638D01*
X130775848Y-151333770D01*
X130021073Y-151004017D01*
X129344724Y-150533941D01*
X128772559Y-149941447D01*
X128326372Y-149249101D01*
X128023162Y-148483279D01*
X127874475Y-147673147D01*
X127885975Y-146849567D01*
X128057224Y-146043901D01*
X128381701Y-145286840D01*
X128847044Y-144607225D01*
X129435527Y-144030939D01*
X130124738Y-143579932D01*
X130888424Y-143271382D01*
X131697500Y-143117043D01*
X132521144Y-143122794D01*
X132521144Y-143122794D01*
G37*
G36*
X71333768Y-148659825D02*
X71333791Y-148659832D01*
X71333866Y-148659840D01*
X71532162Y-148721222D01*
X71714758Y-148819952D01*
X71874699Y-148952267D01*
X72005895Y-149113129D01*
X72103347Y-149296410D01*
X72163344Y-149495128D01*
X72183600Y-149701716D01*
X72183600Y-150018360D01*
X72183525Y-150029078D01*
X72183524Y-150029084D01*
X72183496Y-150033134D01*
X72160358Y-150239419D01*
X72097592Y-150437281D01*
X71997591Y-150619183D01*
X71864162Y-150778197D01*
X71702388Y-150908267D01*
X71518432Y-151004437D01*
X71319299Y-151063045D01*
X71319233Y-151063051D01*
X71319209Y-151063058D01*
X71112579Y-151081863D01*
X70906232Y-151060175D01*
X70906209Y-151060168D01*
X70906134Y-151060160D01*
X70707838Y-150998778D01*
X70525242Y-150900048D01*
X70365301Y-150767733D01*
X70234105Y-150606871D01*
X70136653Y-150423590D01*
X70076656Y-150224872D01*
X70056400Y-150018284D01*
X70056400Y-149701640D01*
X70056475Y-149690922D01*
X70056476Y-149690916D01*
X70056504Y-149686866D01*
X70079642Y-149480581D01*
X70142408Y-149282719D01*
X70242409Y-149100817D01*
X70375838Y-148941803D01*
X70537612Y-148811733D01*
X70721568Y-148715563D01*
X70920701Y-148656955D01*
X70920767Y-148656949D01*
X70920791Y-148656942D01*
X71127421Y-148638137D01*
X71333768Y-148659825D01*
X71333768Y-148659825D01*
G37*
G36*
X53553768Y-148659825D02*
X53553791Y-148659832D01*
X53553866Y-148659840D01*
X53752162Y-148721222D01*
X53934758Y-148819952D01*
X54094699Y-148952267D01*
X54225895Y-149113129D01*
X54323347Y-149296410D01*
X54383344Y-149495128D01*
X54403600Y-149701716D01*
X54403600Y-150018360D01*
X54403525Y-150029078D01*
X54403524Y-150029084D01*
X54403496Y-150033134D01*
X54380358Y-150239419D01*
X54317592Y-150437281D01*
X54217591Y-150619183D01*
X54084162Y-150778197D01*
X53922388Y-150908267D01*
X53738432Y-151004437D01*
X53539299Y-151063045D01*
X53539233Y-151063051D01*
X53539209Y-151063058D01*
X53332579Y-151081863D01*
X53126232Y-151060175D01*
X53126209Y-151060168D01*
X53126134Y-151060160D01*
X52927838Y-150998778D01*
X52745242Y-150900048D01*
X52585301Y-150767733D01*
X52454105Y-150606871D01*
X52356653Y-150423590D01*
X52296656Y-150224872D01*
X52276400Y-150018284D01*
X52276400Y-149701640D01*
X52276475Y-149690922D01*
X52276476Y-149690916D01*
X52276504Y-149686866D01*
X52299642Y-149480581D01*
X52362408Y-149282719D01*
X52462409Y-149100817D01*
X52595838Y-148941803D01*
X52757612Y-148811733D01*
X52941568Y-148715563D01*
X53140701Y-148656955D01*
X53140767Y-148656949D01*
X53140791Y-148656942D01*
X53347421Y-148638137D01*
X53553768Y-148659825D01*
X53553768Y-148659825D01*
G37*
G36*
X56093768Y-148659825D02*
X56093791Y-148659832D01*
X56093866Y-148659840D01*
X56292162Y-148721222D01*
X56474758Y-148819952D01*
X56634699Y-148952267D01*
X56765895Y-149113129D01*
X56863347Y-149296410D01*
X56923344Y-149495128D01*
X56943600Y-149701716D01*
X56943600Y-150018360D01*
X56943525Y-150029078D01*
X56943524Y-150029084D01*
X56943496Y-150033134D01*
X56920358Y-150239419D01*
X56857592Y-150437281D01*
X56757591Y-150619183D01*
X56624162Y-150778197D01*
X56462388Y-150908267D01*
X56278432Y-151004437D01*
X56079299Y-151063045D01*
X56079233Y-151063051D01*
X56079209Y-151063058D01*
X55872579Y-151081863D01*
X55666232Y-151060175D01*
X55666209Y-151060168D01*
X55666134Y-151060160D01*
X55467838Y-150998778D01*
X55285242Y-150900048D01*
X55125301Y-150767733D01*
X54994105Y-150606871D01*
X54896653Y-150423590D01*
X54836656Y-150224872D01*
X54816400Y-150018284D01*
X54816400Y-149701640D01*
X54816475Y-149690922D01*
X54816476Y-149690916D01*
X54816504Y-149686866D01*
X54839642Y-149480581D01*
X54902408Y-149282719D01*
X55002409Y-149100817D01*
X55135838Y-148941803D01*
X55297612Y-148811733D01*
X55481568Y-148715563D01*
X55680701Y-148656955D01*
X55680767Y-148656949D01*
X55680791Y-148656942D01*
X55887421Y-148638137D01*
X56093768Y-148659825D01*
X56093768Y-148659825D01*
G37*
G36*
X51013768Y-148659825D02*
X51013791Y-148659832D01*
X51013866Y-148659840D01*
X51212162Y-148721222D01*
X51394758Y-148819952D01*
X51554699Y-148952267D01*
X51685895Y-149113129D01*
X51783347Y-149296410D01*
X51843344Y-149495128D01*
X51863600Y-149701716D01*
X51863600Y-150018360D01*
X51863525Y-150029078D01*
X51863524Y-150029084D01*
X51863496Y-150033134D01*
X51840358Y-150239419D01*
X51777592Y-150437281D01*
X51677591Y-150619183D01*
X51544162Y-150778197D01*
X51382388Y-150908267D01*
X51198432Y-151004437D01*
X50999299Y-151063045D01*
X50999233Y-151063051D01*
X50999209Y-151063058D01*
X50792579Y-151081863D01*
X50586232Y-151060175D01*
X50586209Y-151060168D01*
X50586134Y-151060160D01*
X50387838Y-150998778D01*
X50205242Y-150900048D01*
X50045301Y-150767733D01*
X49914105Y-150606871D01*
X49816653Y-150423590D01*
X49756656Y-150224872D01*
X49736400Y-150018284D01*
X49736400Y-149701640D01*
X49736475Y-149690922D01*
X49736476Y-149690916D01*
X49736504Y-149686866D01*
X49759642Y-149480581D01*
X49822408Y-149282719D01*
X49922409Y-149100817D01*
X50055838Y-148941803D01*
X50217612Y-148811733D01*
X50401568Y-148715563D01*
X50600701Y-148656955D01*
X50600767Y-148656949D01*
X50600791Y-148656942D01*
X50807421Y-148638137D01*
X51013768Y-148659825D01*
X51013768Y-148659825D01*
G37*
G36*
X58633768Y-148659825D02*
X58633791Y-148659832D01*
X58633866Y-148659840D01*
X58832162Y-148721222D01*
X59014758Y-148819952D01*
X59174699Y-148952267D01*
X59305895Y-149113129D01*
X59403347Y-149296410D01*
X59463344Y-149495128D01*
X59483600Y-149701716D01*
X59483600Y-150018360D01*
X59483525Y-150029078D01*
X59483524Y-150029084D01*
X59483496Y-150033134D01*
X59460358Y-150239419D01*
X59397592Y-150437281D01*
X59297591Y-150619183D01*
X59164162Y-150778197D01*
X59002388Y-150908267D01*
X58818432Y-151004437D01*
X58619299Y-151063045D01*
X58619233Y-151063051D01*
X58619209Y-151063058D01*
X58412579Y-151081863D01*
X58206232Y-151060175D01*
X58206209Y-151060168D01*
X58206134Y-151060160D01*
X58007838Y-150998778D01*
X57825242Y-150900048D01*
X57665301Y-150767733D01*
X57534105Y-150606871D01*
X57436653Y-150423590D01*
X57376656Y-150224872D01*
X57356400Y-150018284D01*
X57356400Y-149701640D01*
X57356475Y-149690922D01*
X57356476Y-149690916D01*
X57356504Y-149686866D01*
X57379642Y-149480581D01*
X57442408Y-149282719D01*
X57542409Y-149100817D01*
X57675838Y-148941803D01*
X57837612Y-148811733D01*
X58021568Y-148715563D01*
X58220701Y-148656955D01*
X58220767Y-148656949D01*
X58220791Y-148656942D01*
X58427421Y-148638137D01*
X58633768Y-148659825D01*
X58633768Y-148659825D01*
G37*
G36*
X61173768Y-148659825D02*
X61173791Y-148659832D01*
X61173866Y-148659840D01*
X61372162Y-148721222D01*
X61554758Y-148819952D01*
X61714699Y-148952267D01*
X61845895Y-149113129D01*
X61943347Y-149296410D01*
X62003344Y-149495128D01*
X62023600Y-149701716D01*
X62023600Y-150018360D01*
X62023525Y-150029078D01*
X62023524Y-150029084D01*
X62023496Y-150033134D01*
X62000358Y-150239419D01*
X61937592Y-150437281D01*
X61837591Y-150619183D01*
X61704162Y-150778197D01*
X61542388Y-150908267D01*
X61358432Y-151004437D01*
X61159299Y-151063045D01*
X61159233Y-151063051D01*
X61159209Y-151063058D01*
X60952579Y-151081863D01*
X60746232Y-151060175D01*
X60746209Y-151060168D01*
X60746134Y-151060160D01*
X60547838Y-150998778D01*
X60365242Y-150900048D01*
X60205301Y-150767733D01*
X60074105Y-150606871D01*
X59976653Y-150423590D01*
X59916656Y-150224872D01*
X59896400Y-150018284D01*
X59896400Y-149701640D01*
X59896475Y-149690922D01*
X59896476Y-149690916D01*
X59896504Y-149686866D01*
X59919642Y-149480581D01*
X59982408Y-149282719D01*
X60082409Y-149100817D01*
X60215838Y-148941803D01*
X60377612Y-148811733D01*
X60561568Y-148715563D01*
X60760701Y-148656955D01*
X60760767Y-148656949D01*
X60760791Y-148656942D01*
X60967421Y-148638137D01*
X61173768Y-148659825D01*
X61173768Y-148659825D01*
G37*
G36*
X63713768Y-148659825D02*
X63713791Y-148659832D01*
X63713866Y-148659840D01*
X63912162Y-148721222D01*
X64094758Y-148819952D01*
X64254699Y-148952267D01*
X64385895Y-149113129D01*
X64483347Y-149296410D01*
X64543344Y-149495128D01*
X64563600Y-149701716D01*
X64563600Y-150018360D01*
X64563525Y-150029078D01*
X64563524Y-150029084D01*
X64563496Y-150033134D01*
X64540358Y-150239419D01*
X64477592Y-150437281D01*
X64377591Y-150619183D01*
X64244162Y-150778197D01*
X64082388Y-150908267D01*
X63898432Y-151004437D01*
X63699299Y-151063045D01*
X63699233Y-151063051D01*
X63699209Y-151063058D01*
X63492579Y-151081863D01*
X63286232Y-151060175D01*
X63286209Y-151060168D01*
X63286134Y-151060160D01*
X63087838Y-150998778D01*
X62905242Y-150900048D01*
X62745301Y-150767733D01*
X62614105Y-150606871D01*
X62516653Y-150423590D01*
X62456656Y-150224872D01*
X62436400Y-150018284D01*
X62436400Y-149701640D01*
X62436475Y-149690922D01*
X62436476Y-149690916D01*
X62436504Y-149686866D01*
X62459642Y-149480581D01*
X62522408Y-149282719D01*
X62622409Y-149100817D01*
X62755838Y-148941803D01*
X62917612Y-148811733D01*
X63101568Y-148715563D01*
X63300701Y-148656955D01*
X63300767Y-148656949D01*
X63300791Y-148656942D01*
X63507421Y-148638137D01*
X63713768Y-148659825D01*
X63713768Y-148659825D01*
G37*
G36*
X66253768Y-148659825D02*
X66253791Y-148659832D01*
X66253866Y-148659840D01*
X66452162Y-148721222D01*
X66634758Y-148819952D01*
X66794699Y-148952267D01*
X66925895Y-149113129D01*
X67023347Y-149296410D01*
X67083344Y-149495128D01*
X67103600Y-149701716D01*
X67103600Y-150018360D01*
X67103525Y-150029078D01*
X67103524Y-150029084D01*
X67103496Y-150033134D01*
X67080358Y-150239419D01*
X67017592Y-150437281D01*
X66917591Y-150619183D01*
X66784162Y-150778197D01*
X66622388Y-150908267D01*
X66438432Y-151004437D01*
X66239299Y-151063045D01*
X66239233Y-151063051D01*
X66239209Y-151063058D01*
X66032579Y-151081863D01*
X65826232Y-151060175D01*
X65826209Y-151060168D01*
X65826134Y-151060160D01*
X65627838Y-150998778D01*
X65445242Y-150900048D01*
X65285301Y-150767733D01*
X65154105Y-150606871D01*
X65056653Y-150423590D01*
X64996656Y-150224872D01*
X64976400Y-150018284D01*
X64976400Y-149701640D01*
X64976475Y-149690922D01*
X64976476Y-149690916D01*
X64976504Y-149686866D01*
X64999642Y-149480581D01*
X65062408Y-149282719D01*
X65162409Y-149100817D01*
X65295838Y-148941803D01*
X65457612Y-148811733D01*
X65641568Y-148715563D01*
X65840701Y-148656955D01*
X65840767Y-148656949D01*
X65840791Y-148656942D01*
X66047421Y-148638137D01*
X66253768Y-148659825D01*
X66253768Y-148659825D01*
G37*
G36*
X68793768Y-148659825D02*
X68793791Y-148659832D01*
X68793866Y-148659840D01*
X68992162Y-148721222D01*
X69174758Y-148819952D01*
X69334699Y-148952267D01*
X69465895Y-149113129D01*
X69563347Y-149296410D01*
X69623344Y-149495128D01*
X69643600Y-149701716D01*
X69643600Y-150018360D01*
X69643525Y-150029078D01*
X69643524Y-150029084D01*
X69643496Y-150033134D01*
X69620358Y-150239419D01*
X69557592Y-150437281D01*
X69457591Y-150619183D01*
X69324162Y-150778197D01*
X69162388Y-150908267D01*
X68978432Y-151004437D01*
X68779299Y-151063045D01*
X68779233Y-151063051D01*
X68779209Y-151063058D01*
X68572579Y-151081863D01*
X68366232Y-151060175D01*
X68366209Y-151060168D01*
X68366134Y-151060160D01*
X68167838Y-150998778D01*
X67985242Y-150900048D01*
X67825301Y-150767733D01*
X67694105Y-150606871D01*
X67596653Y-150423590D01*
X67536656Y-150224872D01*
X67516400Y-150018284D01*
X67516400Y-149701640D01*
X67516475Y-149690922D01*
X67516476Y-149690916D01*
X67516504Y-149686866D01*
X67539642Y-149480581D01*
X67602408Y-149282719D01*
X67702409Y-149100817D01*
X67835838Y-148941803D01*
X67997612Y-148811733D01*
X68181568Y-148715563D01*
X68380701Y-148656955D01*
X68380767Y-148656949D01*
X68380791Y-148656942D01*
X68587421Y-148638137D01*
X68793768Y-148659825D01*
X68793768Y-148659825D01*
G37*
G36*
X78953768Y-148659825D02*
X78953791Y-148659832D01*
X78953866Y-148659840D01*
X79152162Y-148721222D01*
X79334758Y-148819952D01*
X79494699Y-148952267D01*
X79625895Y-149113129D01*
X79723347Y-149296410D01*
X79783344Y-149495128D01*
X79803600Y-149701716D01*
X79803600Y-150018360D01*
X79803525Y-150029078D01*
X79803524Y-150029084D01*
X79803496Y-150033134D01*
X79780358Y-150239419D01*
X79717592Y-150437281D01*
X79617591Y-150619183D01*
X79484162Y-150778197D01*
X79322388Y-150908267D01*
X79138432Y-151004437D01*
X78939299Y-151063045D01*
X78939233Y-151063051D01*
X78939209Y-151063058D01*
X78732579Y-151081863D01*
X78526232Y-151060175D01*
X78526209Y-151060168D01*
X78526134Y-151060160D01*
X78327838Y-150998778D01*
X78145242Y-150900048D01*
X77985301Y-150767733D01*
X77854105Y-150606871D01*
X77756653Y-150423590D01*
X77696656Y-150224872D01*
X77676400Y-150018284D01*
X77676400Y-149701640D01*
X77676475Y-149690922D01*
X77676476Y-149690916D01*
X77676504Y-149686866D01*
X77699642Y-149480581D01*
X77762408Y-149282719D01*
X77862409Y-149100817D01*
X77995838Y-148941803D01*
X78157612Y-148811733D01*
X78341568Y-148715563D01*
X78540701Y-148656955D01*
X78540767Y-148656949D01*
X78540791Y-148656942D01*
X78747421Y-148638137D01*
X78953768Y-148659825D01*
X78953768Y-148659825D01*
G37*
G36*
X81493768Y-148659825D02*
X81493791Y-148659832D01*
X81493866Y-148659840D01*
X81692162Y-148721222D01*
X81874758Y-148819952D01*
X82034699Y-148952267D01*
X82165895Y-149113129D01*
X82263347Y-149296410D01*
X82323344Y-149495128D01*
X82343600Y-149701716D01*
X82343600Y-150018360D01*
X82343525Y-150029078D01*
X82343524Y-150029084D01*
X82343496Y-150033134D01*
X82320358Y-150239419D01*
X82257592Y-150437281D01*
X82157591Y-150619183D01*
X82024162Y-150778197D01*
X81862388Y-150908267D01*
X81678432Y-151004437D01*
X81479299Y-151063045D01*
X81479233Y-151063051D01*
X81479209Y-151063058D01*
X81272579Y-151081863D01*
X81066232Y-151060175D01*
X81066209Y-151060168D01*
X81066134Y-151060160D01*
X80867838Y-150998778D01*
X80685242Y-150900048D01*
X80525301Y-150767733D01*
X80394105Y-150606871D01*
X80296653Y-150423590D01*
X80236656Y-150224872D01*
X80216400Y-150018284D01*
X80216400Y-149701640D01*
X80216475Y-149690922D01*
X80216476Y-149690916D01*
X80216504Y-149686866D01*
X80239642Y-149480581D01*
X80302408Y-149282719D01*
X80402409Y-149100817D01*
X80535838Y-148941803D01*
X80697612Y-148811733D01*
X80881568Y-148715563D01*
X81080701Y-148656955D01*
X81080767Y-148656949D01*
X81080791Y-148656942D01*
X81287421Y-148638137D01*
X81493768Y-148659825D01*
X81493768Y-148659825D01*
G37*
G36*
X84033768Y-148659825D02*
X84033791Y-148659832D01*
X84033866Y-148659840D01*
X84232162Y-148721222D01*
X84414758Y-148819952D01*
X84574699Y-148952267D01*
X84705895Y-149113129D01*
X84803347Y-149296410D01*
X84863344Y-149495128D01*
X84883600Y-149701716D01*
X84883600Y-150018360D01*
X84883525Y-150029078D01*
X84883524Y-150029084D01*
X84883496Y-150033134D01*
X84860358Y-150239419D01*
X84797592Y-150437281D01*
X84697591Y-150619183D01*
X84564162Y-150778197D01*
X84402388Y-150908267D01*
X84218432Y-151004437D01*
X84019299Y-151063045D01*
X84019233Y-151063051D01*
X84019209Y-151063058D01*
X83812579Y-151081863D01*
X83606232Y-151060175D01*
X83606209Y-151060168D01*
X83606134Y-151060160D01*
X83407838Y-150998778D01*
X83225242Y-150900048D01*
X83065301Y-150767733D01*
X82934105Y-150606871D01*
X82836653Y-150423590D01*
X82776656Y-150224872D01*
X82756400Y-150018284D01*
X82756400Y-149701640D01*
X82756475Y-149690922D01*
X82756476Y-149690916D01*
X82756504Y-149686866D01*
X82779642Y-149480581D01*
X82842408Y-149282719D01*
X82942409Y-149100817D01*
X83075838Y-148941803D01*
X83237612Y-148811733D01*
X83421568Y-148715563D01*
X83620701Y-148656955D01*
X83620767Y-148656949D01*
X83620791Y-148656942D01*
X83827421Y-148638137D01*
X84033768Y-148659825D01*
X84033768Y-148659825D01*
G37*
G36*
X86573768Y-148659825D02*
X86573791Y-148659832D01*
X86573866Y-148659840D01*
X86772162Y-148721222D01*
X86954758Y-148819952D01*
X87114699Y-148952267D01*
X87245895Y-149113129D01*
X87343347Y-149296410D01*
X87403344Y-149495128D01*
X87423600Y-149701716D01*
X87423600Y-150018360D01*
X87423525Y-150029078D01*
X87423524Y-150029084D01*
X87423496Y-150033134D01*
X87400358Y-150239419D01*
X87337592Y-150437281D01*
X87237591Y-150619183D01*
X87104162Y-150778197D01*
X86942388Y-150908267D01*
X86758432Y-151004437D01*
X86559299Y-151063045D01*
X86559233Y-151063051D01*
X86559209Y-151063058D01*
X86352579Y-151081863D01*
X86146232Y-151060175D01*
X86146209Y-151060168D01*
X86146134Y-151060160D01*
X85947838Y-150998778D01*
X85765242Y-150900048D01*
X85605301Y-150767733D01*
X85474105Y-150606871D01*
X85376653Y-150423590D01*
X85316656Y-150224872D01*
X85296400Y-150018284D01*
X85296400Y-149701640D01*
X85296475Y-149690922D01*
X85296476Y-149690916D01*
X85296504Y-149686866D01*
X85319642Y-149480581D01*
X85382408Y-149282719D01*
X85482409Y-149100817D01*
X85615838Y-148941803D01*
X85777612Y-148811733D01*
X85961568Y-148715563D01*
X86160701Y-148656955D01*
X86160767Y-148656949D01*
X86160791Y-148656942D01*
X86367421Y-148638137D01*
X86573768Y-148659825D01*
X86573768Y-148659825D01*
G37*
G36*
X89113768Y-148659825D02*
X89113791Y-148659832D01*
X89113866Y-148659840D01*
X89312162Y-148721222D01*
X89494758Y-148819952D01*
X89654699Y-148952267D01*
X89785895Y-149113129D01*
X89883347Y-149296410D01*
X89943344Y-149495128D01*
X89963600Y-149701716D01*
X89963600Y-150018360D01*
X89963525Y-150029078D01*
X89963524Y-150029084D01*
X89963496Y-150033134D01*
X89940358Y-150239419D01*
X89877592Y-150437281D01*
X89777591Y-150619183D01*
X89644162Y-150778197D01*
X89482388Y-150908267D01*
X89298432Y-151004437D01*
X89099299Y-151063045D01*
X89099233Y-151063051D01*
X89099209Y-151063058D01*
X88892579Y-151081863D01*
X88686232Y-151060175D01*
X88686209Y-151060168D01*
X88686134Y-151060160D01*
X88487838Y-150998778D01*
X88305242Y-150900048D01*
X88145301Y-150767733D01*
X88014105Y-150606871D01*
X87916653Y-150423590D01*
X87856656Y-150224872D01*
X87836400Y-150018284D01*
X87836400Y-149701640D01*
X87836475Y-149690922D01*
X87836476Y-149690916D01*
X87836504Y-149686866D01*
X87859642Y-149480581D01*
X87922408Y-149282719D01*
X88022409Y-149100817D01*
X88155838Y-148941803D01*
X88317612Y-148811733D01*
X88501568Y-148715563D01*
X88700701Y-148656955D01*
X88700767Y-148656949D01*
X88700791Y-148656942D01*
X88907421Y-148638137D01*
X89113768Y-148659825D01*
X89113768Y-148659825D01*
G37*
G36*
X49323600Y-151076000D02*
X47196400Y-151076000D01*
X47196400Y-148644000D01*
X49323600Y-148644000D01*
X49323600Y-151076000D01*
X49323600Y-151076000D01*
G37*
G36*
X92503600Y-151076000D02*
X90376400Y-151076000D01*
X90376400Y-148644000D01*
X92503600Y-148644000D01*
X92503600Y-151076000D01*
X92503600Y-151076000D01*
G37*
G36*
X122731076Y-140301462D02*
X123153709Y-140388215D01*
X123551438Y-140555405D01*
X123909123Y-140796666D01*
X124213131Y-141102804D01*
X124451886Y-141462161D01*
X124616298Y-141861052D01*
X124699962Y-142283589D01*
X124699962Y-142283611D01*
X124700094Y-142284279D01*
X124693213Y-142777067D01*
X124693062Y-142777730D01*
X124693062Y-142777754D01*
X124597633Y-143197787D01*
X124422146Y-143591937D01*
X124173452Y-143944482D01*
X123861013Y-144242015D01*
X123496728Y-144473196D01*
X123094491Y-144629214D01*
X122669598Y-144704135D01*
X122238250Y-144695098D01*
X121816871Y-144602452D01*
X121421513Y-144429725D01*
X121067235Y-144183495D01*
X120767529Y-143873141D01*
X120533812Y-143510482D01*
X120374987Y-143109336D01*
X120297103Y-142684981D01*
X120303127Y-142253584D01*
X120392829Y-141831567D01*
X120562794Y-141435009D01*
X120806545Y-141079021D01*
X121114799Y-140777156D01*
X121475813Y-140540915D01*
X121875839Y-140379294D01*
X122299642Y-140298449D01*
X122731076Y-140301462D01*
X122731076Y-140301462D01*
G37*
G36*
X52731076Y-140301462D02*
X53153709Y-140388215D01*
X53551438Y-140555405D01*
X53909123Y-140796666D01*
X54213131Y-141102804D01*
X54451886Y-141462161D01*
X54616298Y-141861052D01*
X54699962Y-142283589D01*
X54699962Y-142283611D01*
X54700094Y-142284279D01*
X54693213Y-142777067D01*
X54693062Y-142777730D01*
X54693062Y-142777754D01*
X54597633Y-143197787D01*
X54422146Y-143591937D01*
X54173452Y-143944482D01*
X53861013Y-144242015D01*
X53496728Y-144473196D01*
X53094491Y-144629214D01*
X52669598Y-144704135D01*
X52238250Y-144695098D01*
X51816871Y-144602452D01*
X51421513Y-144429725D01*
X51067235Y-144183495D01*
X50767529Y-143873141D01*
X50533812Y-143510482D01*
X50374987Y-143109336D01*
X50297103Y-142684981D01*
X50303127Y-142253584D01*
X50392829Y-141831567D01*
X50562794Y-141435009D01*
X50806545Y-141079021D01*
X51114799Y-140777156D01*
X51475813Y-140540915D01*
X51875839Y-140379294D01*
X52299642Y-140298449D01*
X52731076Y-140301462D01*
X52731076Y-140301462D01*
G37*
G36*
X129718559Y-138001129D02*
X130045140Y-138068166D01*
X130352475Y-138197358D01*
X130628869Y-138383788D01*
X130863783Y-138620348D01*
X131048275Y-138898033D01*
X131175322Y-139206272D01*
X131239940Y-139532614D01*
X131239940Y-139532633D01*
X131240073Y-139533306D01*
X131234756Y-139914097D01*
X131234604Y-139914765D01*
X131234604Y-139914784D01*
X131160898Y-140239203D01*
X131025298Y-140543763D01*
X130833120Y-140816194D01*
X130591692Y-141046101D01*
X130310200Y-141224743D01*
X129999379Y-141345302D01*
X129671052Y-141403195D01*
X129337739Y-141396213D01*
X129012127Y-141324622D01*
X128706624Y-141191152D01*
X128432864Y-141000883D01*
X128201273Y-140761064D01*
X128020674Y-140480828D01*
X127897943Y-140170849D01*
X127837761Y-139842941D01*
X127842416Y-139509588D01*
X127911731Y-139183484D01*
X128043068Y-138877052D01*
X128231422Y-138601970D01*
X128469614Y-138368714D01*
X128748586Y-138186160D01*
X129057693Y-138061272D01*
X129385178Y-137998801D01*
X129718559Y-138001129D01*
X129718559Y-138001129D01*
G37*
G36*
X134798559Y-138001129D02*
X135125140Y-138068166D01*
X135432475Y-138197358D01*
X135708869Y-138383788D01*
X135943783Y-138620348D01*
X136128275Y-138898033D01*
X136255322Y-139206272D01*
X136319940Y-139532614D01*
X136319940Y-139532633D01*
X136320073Y-139533306D01*
X136314756Y-139914097D01*
X136314604Y-139914765D01*
X136314604Y-139914784D01*
X136240898Y-140239203D01*
X136105298Y-140543763D01*
X135913120Y-140816194D01*
X135671692Y-141046101D01*
X135390200Y-141224743D01*
X135079379Y-141345302D01*
X134751052Y-141403195D01*
X134417739Y-141396213D01*
X134092127Y-141324622D01*
X133786624Y-141191152D01*
X133512864Y-141000883D01*
X133281273Y-140761064D01*
X133100674Y-140480828D01*
X132977943Y-140170849D01*
X132917761Y-139842941D01*
X132922416Y-139509588D01*
X132991731Y-139183484D01*
X133123068Y-138877052D01*
X133311422Y-138601970D01*
X133549614Y-138368714D01*
X133828586Y-138186160D01*
X134137693Y-138061272D01*
X134465178Y-137998801D01*
X134798559Y-138001129D01*
X134798559Y-138001129D01*
G37*
G36*
X38269078Y-138636475D02*
X38269084Y-138636476D01*
X38273134Y-138636504D01*
X38479419Y-138659642D01*
X38677281Y-138722408D01*
X38859183Y-138822409D01*
X39018197Y-138955838D01*
X39148267Y-139117612D01*
X39244437Y-139301568D01*
X39303045Y-139500701D01*
X39303051Y-139500767D01*
X39303058Y-139500791D01*
X39321863Y-139707421D01*
X39300175Y-139913768D01*
X39300168Y-139913791D01*
X39300160Y-139913866D01*
X39238778Y-140112162D01*
X39140048Y-140294758D01*
X39007733Y-140454699D01*
X38846871Y-140585895D01*
X38663590Y-140683347D01*
X38464872Y-140743344D01*
X38258284Y-140763600D01*
X37941640Y-140763600D01*
X37930922Y-140763525D01*
X37930916Y-140763524D01*
X37926866Y-140763496D01*
X37720581Y-140740358D01*
X37522719Y-140677592D01*
X37340817Y-140577591D01*
X37181803Y-140444162D01*
X37051733Y-140282388D01*
X36955563Y-140098432D01*
X36896955Y-139899299D01*
X36896949Y-139899233D01*
X36896942Y-139899209D01*
X36878137Y-139692579D01*
X36899825Y-139486232D01*
X36899832Y-139486209D01*
X36899840Y-139486134D01*
X36961222Y-139287838D01*
X37059952Y-139105242D01*
X37192267Y-138945301D01*
X37353129Y-138814105D01*
X37536410Y-138716653D01*
X37735128Y-138656656D01*
X37941716Y-138636400D01*
X38258360Y-138636400D01*
X38269078Y-138636475D01*
X38269078Y-138636475D01*
G37*
G36*
X62785940Y-136866475D02*
X62785946Y-136866476D01*
X62789996Y-136866504D01*
X62996281Y-136889642D01*
X63194143Y-136952408D01*
X63376045Y-137052409D01*
X63535059Y-137185838D01*
X63665129Y-137347612D01*
X63761299Y-137531568D01*
X63819907Y-137730701D01*
X63819913Y-137730767D01*
X63819920Y-137730791D01*
X63838725Y-137937421D01*
X63817037Y-138143768D01*
X63817030Y-138143791D01*
X63817022Y-138143866D01*
X63755640Y-138342162D01*
X63656910Y-138524758D01*
X63524595Y-138684699D01*
X63363733Y-138815895D01*
X63180452Y-138913347D01*
X62981734Y-138973344D01*
X62775146Y-138993600D01*
X62764778Y-138993600D01*
X62754060Y-138993525D01*
X62754054Y-138993524D01*
X62750004Y-138993496D01*
X62543719Y-138970358D01*
X62345857Y-138907592D01*
X62163955Y-138807591D01*
X62004941Y-138674162D01*
X61874871Y-138512388D01*
X61778701Y-138328432D01*
X61720093Y-138129299D01*
X61720087Y-138129233D01*
X61720080Y-138129209D01*
X61701275Y-137922579D01*
X61722963Y-137716232D01*
X61722970Y-137716209D01*
X61722978Y-137716134D01*
X61784360Y-137517838D01*
X61883090Y-137335242D01*
X62015405Y-137175301D01*
X62176267Y-137044105D01*
X62359548Y-136946653D01*
X62558266Y-136886656D01*
X62764854Y-136866400D01*
X62775222Y-136866400D01*
X62785940Y-136866475D01*
X62785940Y-136866475D01*
G37*
G36*
X60245940Y-136866475D02*
X60245946Y-136866476D01*
X60249996Y-136866504D01*
X60456281Y-136889642D01*
X60654143Y-136952408D01*
X60836045Y-137052409D01*
X60995059Y-137185838D01*
X61125129Y-137347612D01*
X61221299Y-137531568D01*
X61279907Y-137730701D01*
X61279913Y-137730767D01*
X61279920Y-137730791D01*
X61298725Y-137937421D01*
X61277037Y-138143768D01*
X61277030Y-138143791D01*
X61277022Y-138143866D01*
X61215640Y-138342162D01*
X61116910Y-138524758D01*
X60984595Y-138684699D01*
X60823733Y-138815895D01*
X60640452Y-138913347D01*
X60441734Y-138973344D01*
X60235146Y-138993600D01*
X60224778Y-138993600D01*
X60214060Y-138993525D01*
X60214054Y-138993524D01*
X60210004Y-138993496D01*
X60003719Y-138970358D01*
X59805857Y-138907592D01*
X59623955Y-138807591D01*
X59464941Y-138674162D01*
X59334871Y-138512388D01*
X59238701Y-138328432D01*
X59180093Y-138129299D01*
X59180087Y-138129233D01*
X59180080Y-138129209D01*
X59161275Y-137922579D01*
X59182963Y-137716232D01*
X59182970Y-137716209D01*
X59182978Y-137716134D01*
X59244360Y-137517838D01*
X59343090Y-137335242D01*
X59475405Y-137175301D01*
X59636267Y-137044105D01*
X59819548Y-136946653D01*
X60018266Y-136886656D01*
X60224854Y-136866400D01*
X60235222Y-136866400D01*
X60245940Y-136866475D01*
X60245940Y-136866475D01*
G37*
G36*
X132237557Y-135660995D02*
X132525710Y-135720144D01*
X132796888Y-135834137D01*
X133040767Y-135998635D01*
X133248045Y-136207365D01*
X133410832Y-136452381D01*
X133522932Y-136724353D01*
X133579932Y-137012228D01*
X133579932Y-137012249D01*
X133580064Y-137012917D01*
X133575373Y-137348910D01*
X133575221Y-137349578D01*
X133575221Y-137349597D01*
X133510206Y-137635764D01*
X133390555Y-137904505D01*
X133220992Y-138144875D01*
X133007965Y-138347738D01*
X132759587Y-138505363D01*
X132485337Y-138611738D01*
X132195634Y-138662821D01*
X131901533Y-138656659D01*
X131614230Y-138593493D01*
X131344668Y-138475723D01*
X131103114Y-138307839D01*
X130898769Y-138096233D01*
X130739417Y-137848967D01*
X130631125Y-137575455D01*
X130578024Y-137286124D01*
X130582131Y-136991990D01*
X130643292Y-136704245D01*
X130759174Y-136433872D01*
X130925371Y-136191149D01*
X131135544Y-135985333D01*
X131381690Y-135824259D01*
X131654435Y-135714063D01*
X131943392Y-135658941D01*
X132237557Y-135660995D01*
X132237557Y-135660995D01*
G37*
G36*
X38269078Y-136096475D02*
X38269084Y-136096476D01*
X38273134Y-136096504D01*
X38479419Y-136119642D01*
X38677281Y-136182408D01*
X38859183Y-136282409D01*
X39018197Y-136415838D01*
X39148267Y-136577612D01*
X39244437Y-136761568D01*
X39303045Y-136960701D01*
X39303051Y-136960767D01*
X39303058Y-136960791D01*
X39321863Y-137167421D01*
X39300175Y-137373768D01*
X39300168Y-137373791D01*
X39300160Y-137373866D01*
X39238778Y-137572162D01*
X39140048Y-137754758D01*
X39007733Y-137914699D01*
X38846871Y-138045895D01*
X38663590Y-138143347D01*
X38464872Y-138203344D01*
X38258284Y-138223600D01*
X37941640Y-138223600D01*
X37930922Y-138223525D01*
X37930916Y-138223524D01*
X37926866Y-138223496D01*
X37720581Y-138200358D01*
X37522719Y-138137592D01*
X37340817Y-138037591D01*
X37181803Y-137904162D01*
X37051733Y-137742388D01*
X36955563Y-137558432D01*
X36896955Y-137359299D01*
X36896949Y-137359233D01*
X36896942Y-137359209D01*
X36878137Y-137152579D01*
X36899825Y-136946232D01*
X36899832Y-136946209D01*
X36899840Y-136946134D01*
X36961222Y-136747838D01*
X37059952Y-136565242D01*
X37192267Y-136405301D01*
X37353129Y-136274105D01*
X37536410Y-136176653D01*
X37735128Y-136116656D01*
X37941716Y-136096400D01*
X38258360Y-136096400D01*
X38269078Y-136096475D01*
X38269078Y-136096475D01*
G37*
G36*
X62785940Y-134326475D02*
X62785946Y-134326476D01*
X62789996Y-134326504D01*
X62996281Y-134349642D01*
X63194143Y-134412408D01*
X63376045Y-134512409D01*
X63535059Y-134645838D01*
X63665129Y-134807612D01*
X63761299Y-134991568D01*
X63819907Y-135190701D01*
X63819913Y-135190767D01*
X63819920Y-135190791D01*
X63838725Y-135397421D01*
X63817037Y-135603768D01*
X63817030Y-135603791D01*
X63817022Y-135603866D01*
X63755640Y-135802162D01*
X63656910Y-135984758D01*
X63524595Y-136144699D01*
X63363733Y-136275895D01*
X63180452Y-136373347D01*
X62981734Y-136433344D01*
X62775146Y-136453600D01*
X62764778Y-136453600D01*
X62754060Y-136453525D01*
X62754054Y-136453524D01*
X62750004Y-136453496D01*
X62543719Y-136430358D01*
X62345857Y-136367592D01*
X62163955Y-136267591D01*
X62004941Y-136134162D01*
X61874871Y-135972388D01*
X61778701Y-135788432D01*
X61720093Y-135589299D01*
X61720087Y-135589233D01*
X61720080Y-135589209D01*
X61701275Y-135382579D01*
X61722963Y-135176232D01*
X61722970Y-135176209D01*
X61722978Y-135176134D01*
X61784360Y-134977838D01*
X61883090Y-134795242D01*
X62015405Y-134635301D01*
X62176267Y-134504105D01*
X62359548Y-134406653D01*
X62558266Y-134346656D01*
X62764854Y-134326400D01*
X62775222Y-134326400D01*
X62785940Y-134326475D01*
X62785940Y-134326475D01*
G37*
G36*
X60245940Y-134326475D02*
X60245946Y-134326476D01*
X60249996Y-134326504D01*
X60456281Y-134349642D01*
X60654143Y-134412408D01*
X60836045Y-134512409D01*
X60995059Y-134645838D01*
X61125129Y-134807612D01*
X61221299Y-134991568D01*
X61279907Y-135190701D01*
X61279913Y-135190767D01*
X61279920Y-135190791D01*
X61298725Y-135397421D01*
X61277037Y-135603768D01*
X61277030Y-135603791D01*
X61277022Y-135603866D01*
X61215640Y-135802162D01*
X61116910Y-135984758D01*
X60984595Y-136144699D01*
X60823733Y-136275895D01*
X60640452Y-136373347D01*
X60441734Y-136433344D01*
X60235146Y-136453600D01*
X60224778Y-136453600D01*
X60214060Y-136453525D01*
X60214054Y-136453524D01*
X60210004Y-136453496D01*
X60003719Y-136430358D01*
X59805857Y-136367592D01*
X59623955Y-136267591D01*
X59464941Y-136134162D01*
X59334871Y-135972388D01*
X59238701Y-135788432D01*
X59180093Y-135589299D01*
X59180087Y-135589233D01*
X59180080Y-135589209D01*
X59161275Y-135382579D01*
X59182963Y-135176232D01*
X59182970Y-135176209D01*
X59182978Y-135176134D01*
X59244360Y-134977838D01*
X59343090Y-134795242D01*
X59475405Y-134635301D01*
X59636267Y-134504105D01*
X59819548Y-134406653D01*
X60018266Y-134346656D01*
X60224854Y-134326400D01*
X60235222Y-134326400D01*
X60245940Y-134326475D01*
X60245940Y-134326475D01*
G37*
G36*
X129718559Y-132921129D02*
X130045140Y-132988166D01*
X130352475Y-133117358D01*
X130628869Y-133303788D01*
X130863783Y-133540348D01*
X131048275Y-133818033D01*
X131175322Y-134126272D01*
X131239940Y-134452614D01*
X131239940Y-134452633D01*
X131240073Y-134453306D01*
X131234756Y-134834097D01*
X131234604Y-134834765D01*
X131234604Y-134834784D01*
X131160898Y-135159203D01*
X131025298Y-135463763D01*
X130833120Y-135736194D01*
X130591692Y-135966101D01*
X130310200Y-136144743D01*
X129999379Y-136265302D01*
X129671052Y-136323195D01*
X129337739Y-136316213D01*
X129012127Y-136244622D01*
X128706624Y-136111152D01*
X128432864Y-135920883D01*
X128201273Y-135681064D01*
X128020674Y-135400828D01*
X127897943Y-135090849D01*
X127837761Y-134762941D01*
X127842416Y-134429588D01*
X127911731Y-134103484D01*
X128043068Y-133797052D01*
X128231422Y-133521970D01*
X128469614Y-133288714D01*
X128748586Y-133106160D01*
X129057693Y-132981272D01*
X129385178Y-132918801D01*
X129718559Y-132921129D01*
X129718559Y-132921129D01*
G37*
G36*
X134798559Y-132921129D02*
X135125140Y-132988166D01*
X135432475Y-133117358D01*
X135708869Y-133303788D01*
X135943783Y-133540348D01*
X136128275Y-133818033D01*
X136255322Y-134126272D01*
X136319940Y-134452614D01*
X136319940Y-134452633D01*
X136320073Y-134453306D01*
X136314756Y-134834097D01*
X136314604Y-134834765D01*
X136314604Y-134834784D01*
X136240898Y-135159203D01*
X136105298Y-135463763D01*
X135913120Y-135736194D01*
X135671692Y-135966101D01*
X135390200Y-136144743D01*
X135079379Y-136265302D01*
X134751052Y-136323195D01*
X134417739Y-136316213D01*
X134092127Y-136244622D01*
X133786624Y-136111152D01*
X133512864Y-135920883D01*
X133281273Y-135681064D01*
X133100674Y-135400828D01*
X132977943Y-135090849D01*
X132917761Y-134762941D01*
X132922416Y-134429588D01*
X132991731Y-134103484D01*
X133123068Y-133797052D01*
X133311422Y-133521970D01*
X133549614Y-133288714D01*
X133828586Y-133106160D01*
X134137693Y-132981272D01*
X134465178Y-132918801D01*
X134798559Y-132921129D01*
X134798559Y-132921129D01*
G37*
G36*
X38269078Y-133556475D02*
X38269084Y-133556476D01*
X38273134Y-133556504D01*
X38479419Y-133579642D01*
X38677281Y-133642408D01*
X38859183Y-133742409D01*
X39018197Y-133875838D01*
X39148267Y-134037612D01*
X39244437Y-134221568D01*
X39303045Y-134420701D01*
X39303051Y-134420767D01*
X39303058Y-134420791D01*
X39321863Y-134627421D01*
X39300175Y-134833768D01*
X39300168Y-134833791D01*
X39300160Y-134833866D01*
X39238778Y-135032162D01*
X39140048Y-135214758D01*
X39007733Y-135374699D01*
X38846871Y-135505895D01*
X38663590Y-135603347D01*
X38464872Y-135663344D01*
X38258284Y-135683600D01*
X37941640Y-135683600D01*
X37930922Y-135683525D01*
X37930916Y-135683524D01*
X37926866Y-135683496D01*
X37720581Y-135660358D01*
X37522719Y-135597592D01*
X37340817Y-135497591D01*
X37181803Y-135364162D01*
X37051733Y-135202388D01*
X36955563Y-135018432D01*
X36896955Y-134819299D01*
X36896949Y-134819233D01*
X36896942Y-134819209D01*
X36878137Y-134612579D01*
X36899825Y-134406232D01*
X36899832Y-134406209D01*
X36899840Y-134406134D01*
X36961222Y-134207838D01*
X37059952Y-134025242D01*
X37192267Y-133865301D01*
X37353129Y-133734105D01*
X37536410Y-133636653D01*
X37735128Y-133576656D01*
X37941716Y-133556400D01*
X38258360Y-133556400D01*
X38269078Y-133556475D01*
X38269078Y-133556475D01*
G37*
G36*
X62785940Y-131786475D02*
X62785946Y-131786476D01*
X62789996Y-131786504D01*
X62996281Y-131809642D01*
X63194143Y-131872408D01*
X63376045Y-131972409D01*
X63535059Y-132105838D01*
X63665129Y-132267612D01*
X63761299Y-132451568D01*
X63819907Y-132650701D01*
X63819913Y-132650767D01*
X63819920Y-132650791D01*
X63838725Y-132857421D01*
X63817037Y-133063768D01*
X63817030Y-133063791D01*
X63817022Y-133063866D01*
X63755640Y-133262162D01*
X63656910Y-133444758D01*
X63524595Y-133604699D01*
X63363733Y-133735895D01*
X63180452Y-133833347D01*
X62981734Y-133893344D01*
X62775146Y-133913600D01*
X62764778Y-133913600D01*
X62754060Y-133913525D01*
X62754054Y-133913524D01*
X62750004Y-133913496D01*
X62543719Y-133890358D01*
X62345857Y-133827592D01*
X62163955Y-133727591D01*
X62004941Y-133594162D01*
X61874871Y-133432388D01*
X61778701Y-133248432D01*
X61720093Y-133049299D01*
X61720087Y-133049233D01*
X61720080Y-133049209D01*
X61701275Y-132842579D01*
X61722963Y-132636232D01*
X61722970Y-132636209D01*
X61722978Y-132636134D01*
X61784360Y-132437838D01*
X61883090Y-132255242D01*
X62015405Y-132095301D01*
X62176267Y-131964105D01*
X62359548Y-131866653D01*
X62558266Y-131806656D01*
X62764854Y-131786400D01*
X62775222Y-131786400D01*
X62785940Y-131786475D01*
X62785940Y-131786475D01*
G37*
G36*
X60245940Y-131786475D02*
X60245946Y-131786476D01*
X60249996Y-131786504D01*
X60456281Y-131809642D01*
X60654143Y-131872408D01*
X60836045Y-131972409D01*
X60995059Y-132105838D01*
X61125129Y-132267612D01*
X61221299Y-132451568D01*
X61279907Y-132650701D01*
X61279913Y-132650767D01*
X61279920Y-132650791D01*
X61298725Y-132857421D01*
X61277037Y-133063768D01*
X61277030Y-133063791D01*
X61277022Y-133063866D01*
X61215640Y-133262162D01*
X61116910Y-133444758D01*
X60984595Y-133604699D01*
X60823733Y-133735895D01*
X60640452Y-133833347D01*
X60441734Y-133893344D01*
X60235146Y-133913600D01*
X60224778Y-133913600D01*
X60214060Y-133913525D01*
X60214054Y-133913524D01*
X60210004Y-133913496D01*
X60003719Y-133890358D01*
X59805857Y-133827592D01*
X59623955Y-133727591D01*
X59464941Y-133594162D01*
X59334871Y-133432388D01*
X59238701Y-133248432D01*
X59180093Y-133049299D01*
X59180087Y-133049233D01*
X59180080Y-133049209D01*
X59161275Y-132842579D01*
X59182963Y-132636232D01*
X59182970Y-132636209D01*
X59182978Y-132636134D01*
X59244360Y-132437838D01*
X59343090Y-132255242D01*
X59475405Y-132095301D01*
X59636267Y-131964105D01*
X59819548Y-131866653D01*
X60018266Y-131806656D01*
X60224854Y-131786400D01*
X60235222Y-131786400D01*
X60245940Y-131786475D01*
X60245940Y-131786475D01*
G37*
G36*
X38269078Y-131016475D02*
X38269084Y-131016476D01*
X38273134Y-131016504D01*
X38479419Y-131039642D01*
X38677281Y-131102408D01*
X38859183Y-131202409D01*
X39018197Y-131335838D01*
X39148267Y-131497612D01*
X39244437Y-131681568D01*
X39303045Y-131880701D01*
X39303051Y-131880767D01*
X39303058Y-131880791D01*
X39321863Y-132087421D01*
X39300175Y-132293768D01*
X39300168Y-132293791D01*
X39300160Y-132293866D01*
X39238778Y-132492162D01*
X39140048Y-132674758D01*
X39007733Y-132834699D01*
X38846871Y-132965895D01*
X38663590Y-133063347D01*
X38464872Y-133123344D01*
X38258284Y-133143600D01*
X37941640Y-133143600D01*
X37930922Y-133143525D01*
X37930916Y-133143524D01*
X37926866Y-133143496D01*
X37720581Y-133120358D01*
X37522719Y-133057592D01*
X37340817Y-132957591D01*
X37181803Y-132824162D01*
X37051733Y-132662388D01*
X36955563Y-132478432D01*
X36896955Y-132279299D01*
X36896949Y-132279233D01*
X36896942Y-132279209D01*
X36878137Y-132072579D01*
X36899825Y-131866232D01*
X36899832Y-131866209D01*
X36899840Y-131866134D01*
X36961222Y-131667838D01*
X37059952Y-131485242D01*
X37192267Y-131325301D01*
X37353129Y-131194105D01*
X37536410Y-131096653D01*
X37735128Y-131036656D01*
X37941716Y-131016400D01*
X38258360Y-131016400D01*
X38269078Y-131016475D01*
X38269078Y-131016475D01*
G37*
G36*
X62785940Y-129246475D02*
X62785946Y-129246476D01*
X62789996Y-129246504D01*
X62996281Y-129269642D01*
X63194143Y-129332408D01*
X63376045Y-129432409D01*
X63535059Y-129565838D01*
X63665129Y-129727612D01*
X63761299Y-129911568D01*
X63819907Y-130110701D01*
X63819913Y-130110767D01*
X63819920Y-130110791D01*
X63838725Y-130317421D01*
X63817037Y-130523768D01*
X63817030Y-130523791D01*
X63817022Y-130523866D01*
X63755640Y-130722162D01*
X63656910Y-130904758D01*
X63524595Y-131064699D01*
X63363733Y-131195895D01*
X63180452Y-131293347D01*
X62981734Y-131353344D01*
X62775146Y-131373600D01*
X62764778Y-131373600D01*
X62754060Y-131373525D01*
X62754054Y-131373524D01*
X62750004Y-131373496D01*
X62543719Y-131350358D01*
X62345857Y-131287592D01*
X62163955Y-131187591D01*
X62004941Y-131054162D01*
X61874871Y-130892388D01*
X61778701Y-130708432D01*
X61720093Y-130509299D01*
X61720087Y-130509233D01*
X61720080Y-130509209D01*
X61701275Y-130302579D01*
X61722963Y-130096232D01*
X61722970Y-130096209D01*
X61722978Y-130096134D01*
X61784360Y-129897838D01*
X61883090Y-129715242D01*
X62015405Y-129555301D01*
X62176267Y-129424105D01*
X62359548Y-129326653D01*
X62558266Y-129266656D01*
X62764854Y-129246400D01*
X62775222Y-129246400D01*
X62785940Y-129246475D01*
X62785940Y-129246475D01*
G37*
G36*
X60245940Y-129246475D02*
X60245946Y-129246476D01*
X60249996Y-129246504D01*
X60456281Y-129269642D01*
X60654143Y-129332408D01*
X60836045Y-129432409D01*
X60995059Y-129565838D01*
X61125129Y-129727612D01*
X61221299Y-129911568D01*
X61279907Y-130110701D01*
X61279913Y-130110767D01*
X61279920Y-130110791D01*
X61298725Y-130317421D01*
X61277037Y-130523768D01*
X61277030Y-130523791D01*
X61277022Y-130523866D01*
X61215640Y-130722162D01*
X61116910Y-130904758D01*
X60984595Y-131064699D01*
X60823733Y-131195895D01*
X60640452Y-131293347D01*
X60441734Y-131353344D01*
X60235146Y-131373600D01*
X60224778Y-131373600D01*
X60214060Y-131373525D01*
X60214054Y-131373524D01*
X60210004Y-131373496D01*
X60003719Y-131350358D01*
X59805857Y-131287592D01*
X59623955Y-131187591D01*
X59464941Y-131054162D01*
X59334871Y-130892388D01*
X59238701Y-130708432D01*
X59180093Y-130509299D01*
X59180087Y-130509233D01*
X59180080Y-130509209D01*
X59161275Y-130302579D01*
X59182963Y-130096232D01*
X59182970Y-130096209D01*
X59182978Y-130096134D01*
X59244360Y-129897838D01*
X59343090Y-129715242D01*
X59475405Y-129555301D01*
X59636267Y-129424105D01*
X59819548Y-129326653D01*
X60018266Y-129266656D01*
X60224854Y-129246400D01*
X60235222Y-129246400D01*
X60245940Y-129246475D01*
X60245940Y-129246475D01*
G37*
G36*
X38269078Y-128476475D02*
X38269084Y-128476476D01*
X38273134Y-128476504D01*
X38479419Y-128499642D01*
X38677281Y-128562408D01*
X38859183Y-128662409D01*
X39018197Y-128795838D01*
X39148267Y-128957612D01*
X39244437Y-129141568D01*
X39303045Y-129340701D01*
X39303051Y-129340767D01*
X39303058Y-129340791D01*
X39321863Y-129547421D01*
X39300175Y-129753768D01*
X39300168Y-129753791D01*
X39300160Y-129753866D01*
X39238778Y-129952162D01*
X39140048Y-130134758D01*
X39007733Y-130294699D01*
X38846871Y-130425895D01*
X38663590Y-130523347D01*
X38464872Y-130583344D01*
X38258284Y-130603600D01*
X37941640Y-130603600D01*
X37930922Y-130603525D01*
X37930916Y-130603524D01*
X37926866Y-130603496D01*
X37720581Y-130580358D01*
X37522719Y-130517592D01*
X37340817Y-130417591D01*
X37181803Y-130284162D01*
X37051733Y-130122388D01*
X36955563Y-129938432D01*
X36896955Y-129739299D01*
X36896949Y-129739233D01*
X36896942Y-129739209D01*
X36878137Y-129532579D01*
X36899825Y-129326232D01*
X36899832Y-129326209D01*
X36899840Y-129326134D01*
X36961222Y-129127838D01*
X37059952Y-128945242D01*
X37192267Y-128785301D01*
X37353129Y-128654105D01*
X37536410Y-128556653D01*
X37735128Y-128496656D01*
X37941716Y-128476400D01*
X38258360Y-128476400D01*
X38269078Y-128476475D01*
X38269078Y-128476475D01*
G37*
G36*
X62785940Y-126706475D02*
X62785946Y-126706476D01*
X62789996Y-126706504D01*
X62996281Y-126729642D01*
X63194143Y-126792408D01*
X63376045Y-126892409D01*
X63535059Y-127025838D01*
X63665129Y-127187612D01*
X63761299Y-127371568D01*
X63819907Y-127570701D01*
X63819913Y-127570767D01*
X63819920Y-127570791D01*
X63838725Y-127777421D01*
X63817037Y-127983768D01*
X63817030Y-127983791D01*
X63817022Y-127983866D01*
X63755640Y-128182162D01*
X63656910Y-128364758D01*
X63524595Y-128524699D01*
X63363733Y-128655895D01*
X63180452Y-128753347D01*
X62981734Y-128813344D01*
X62775146Y-128833600D01*
X62764778Y-128833600D01*
X62754060Y-128833525D01*
X62754054Y-128833524D01*
X62750004Y-128833496D01*
X62543719Y-128810358D01*
X62345857Y-128747592D01*
X62163955Y-128647591D01*
X62004941Y-128514162D01*
X61874871Y-128352388D01*
X61778701Y-128168432D01*
X61720093Y-127969299D01*
X61720087Y-127969233D01*
X61720080Y-127969209D01*
X61701275Y-127762579D01*
X61722963Y-127556232D01*
X61722970Y-127556209D01*
X61722978Y-127556134D01*
X61784360Y-127357838D01*
X61883090Y-127175242D01*
X62015405Y-127015301D01*
X62176267Y-126884105D01*
X62359548Y-126786653D01*
X62558266Y-126726656D01*
X62764854Y-126706400D01*
X62775222Y-126706400D01*
X62785940Y-126706475D01*
X62785940Y-126706475D01*
G37*
G36*
X60245940Y-126706475D02*
X60245946Y-126706476D01*
X60249996Y-126706504D01*
X60456281Y-126729642D01*
X60654143Y-126792408D01*
X60836045Y-126892409D01*
X60995059Y-127025838D01*
X61125129Y-127187612D01*
X61221299Y-127371568D01*
X61279907Y-127570701D01*
X61279913Y-127570767D01*
X61279920Y-127570791D01*
X61298725Y-127777421D01*
X61277037Y-127983768D01*
X61277030Y-127983791D01*
X61277022Y-127983866D01*
X61215640Y-128182162D01*
X61116910Y-128364758D01*
X60984595Y-128524699D01*
X60823733Y-128655895D01*
X60640452Y-128753347D01*
X60441734Y-128813344D01*
X60235146Y-128833600D01*
X60224778Y-128833600D01*
X60214060Y-128833525D01*
X60214054Y-128833524D01*
X60210004Y-128833496D01*
X60003719Y-128810358D01*
X59805857Y-128747592D01*
X59623955Y-128647591D01*
X59464941Y-128514162D01*
X59334871Y-128352388D01*
X59238701Y-128168432D01*
X59180093Y-127969299D01*
X59180087Y-127969233D01*
X59180080Y-127969209D01*
X59161275Y-127762579D01*
X59182963Y-127556232D01*
X59182970Y-127556209D01*
X59182978Y-127556134D01*
X59244360Y-127357838D01*
X59343090Y-127175242D01*
X59475405Y-127015301D01*
X59636267Y-126884105D01*
X59819548Y-126786653D01*
X60018266Y-126726656D01*
X60224854Y-126706400D01*
X60235222Y-126706400D01*
X60245940Y-126706475D01*
X60245940Y-126706475D01*
G37*
G36*
X39316000Y-128063600D02*
X36884000Y-128063600D01*
X36884000Y-125936400D01*
X39316000Y-125936400D01*
X39316000Y-128063600D01*
X39316000Y-128063600D01*
G37*
G36*
X62785940Y-124166475D02*
X62785946Y-124166476D01*
X62789996Y-124166504D01*
X62996281Y-124189642D01*
X63194143Y-124252408D01*
X63376045Y-124352409D01*
X63535059Y-124485838D01*
X63665129Y-124647612D01*
X63761299Y-124831568D01*
X63819907Y-125030701D01*
X63819913Y-125030767D01*
X63819920Y-125030791D01*
X63838725Y-125237421D01*
X63817037Y-125443768D01*
X63817030Y-125443791D01*
X63817022Y-125443866D01*
X63755640Y-125642162D01*
X63656910Y-125824758D01*
X63524595Y-125984699D01*
X63363733Y-126115895D01*
X63180452Y-126213347D01*
X62981734Y-126273344D01*
X62775146Y-126293600D01*
X62764778Y-126293600D01*
X62754060Y-126293525D01*
X62754054Y-126293524D01*
X62750004Y-126293496D01*
X62543719Y-126270358D01*
X62345857Y-126207592D01*
X62163955Y-126107591D01*
X62004941Y-125974162D01*
X61874871Y-125812388D01*
X61778701Y-125628432D01*
X61720093Y-125429299D01*
X61720087Y-125429233D01*
X61720080Y-125429209D01*
X61701275Y-125222579D01*
X61722963Y-125016232D01*
X61722970Y-125016209D01*
X61722978Y-125016134D01*
X61784360Y-124817838D01*
X61883090Y-124635242D01*
X62015405Y-124475301D01*
X62176267Y-124344105D01*
X62359548Y-124246653D01*
X62558266Y-124186656D01*
X62764854Y-124166400D01*
X62775222Y-124166400D01*
X62785940Y-124166475D01*
X62785940Y-124166475D01*
G37*
G36*
X60245940Y-124166475D02*
X60245946Y-124166476D01*
X60249996Y-124166504D01*
X60456281Y-124189642D01*
X60654143Y-124252408D01*
X60836045Y-124352409D01*
X60995059Y-124485838D01*
X61125129Y-124647612D01*
X61221299Y-124831568D01*
X61279907Y-125030701D01*
X61279913Y-125030767D01*
X61279920Y-125030791D01*
X61298725Y-125237421D01*
X61277037Y-125443768D01*
X61277030Y-125443791D01*
X61277022Y-125443866D01*
X61215640Y-125642162D01*
X61116910Y-125824758D01*
X60984595Y-125984699D01*
X60823733Y-126115895D01*
X60640452Y-126213347D01*
X60441734Y-126273344D01*
X60235146Y-126293600D01*
X60224778Y-126293600D01*
X60214060Y-126293525D01*
X60214054Y-126293524D01*
X60210004Y-126293496D01*
X60003719Y-126270358D01*
X59805857Y-126207592D01*
X59623955Y-126107591D01*
X59464941Y-125974162D01*
X59334871Y-125812388D01*
X59238701Y-125628432D01*
X59180093Y-125429299D01*
X59180087Y-125429233D01*
X59180080Y-125429209D01*
X59161275Y-125222579D01*
X59182963Y-125016232D01*
X59182970Y-125016209D01*
X59182978Y-125016134D01*
X59244360Y-124817838D01*
X59343090Y-124635242D01*
X59475405Y-124475301D01*
X59636267Y-124344105D01*
X59819548Y-124246653D01*
X60018266Y-124186656D01*
X60224854Y-124166400D01*
X60235222Y-124166400D01*
X60245940Y-124166475D01*
X60245940Y-124166475D01*
G37*
G36*
X62785940Y-121626475D02*
X62785946Y-121626476D01*
X62789996Y-121626504D01*
X62996281Y-121649642D01*
X63194143Y-121712408D01*
X63376045Y-121812409D01*
X63535059Y-121945838D01*
X63665129Y-122107612D01*
X63761299Y-122291568D01*
X63819907Y-122490701D01*
X63819913Y-122490767D01*
X63819920Y-122490791D01*
X63838725Y-122697421D01*
X63817037Y-122903768D01*
X63817030Y-122903791D01*
X63817022Y-122903866D01*
X63755640Y-123102162D01*
X63656910Y-123284758D01*
X63524595Y-123444699D01*
X63363733Y-123575895D01*
X63180452Y-123673347D01*
X62981734Y-123733344D01*
X62775146Y-123753600D01*
X62764778Y-123753600D01*
X62754060Y-123753525D01*
X62754054Y-123753524D01*
X62750004Y-123753496D01*
X62543719Y-123730358D01*
X62345857Y-123667592D01*
X62163955Y-123567591D01*
X62004941Y-123434162D01*
X61874871Y-123272388D01*
X61778701Y-123088432D01*
X61720093Y-122889299D01*
X61720087Y-122889233D01*
X61720080Y-122889209D01*
X61701275Y-122682579D01*
X61722963Y-122476232D01*
X61722970Y-122476209D01*
X61722978Y-122476134D01*
X61784360Y-122277838D01*
X61883090Y-122095242D01*
X62015405Y-121935301D01*
X62176267Y-121804105D01*
X62359548Y-121706653D01*
X62558266Y-121646656D01*
X62764854Y-121626400D01*
X62775222Y-121626400D01*
X62785940Y-121626475D01*
X62785940Y-121626475D01*
G37*
G36*
X60245940Y-121626475D02*
X60245946Y-121626476D01*
X60249996Y-121626504D01*
X60456281Y-121649642D01*
X60654143Y-121712408D01*
X60836045Y-121812409D01*
X60995059Y-121945838D01*
X61125129Y-122107612D01*
X61221299Y-122291568D01*
X61279907Y-122490701D01*
X61279913Y-122490767D01*
X61279920Y-122490791D01*
X61298725Y-122697421D01*
X61277037Y-122903768D01*
X61277030Y-122903791D01*
X61277022Y-122903866D01*
X61215640Y-123102162D01*
X61116910Y-123284758D01*
X60984595Y-123444699D01*
X60823733Y-123575895D01*
X60640452Y-123673347D01*
X60441734Y-123733344D01*
X60235146Y-123753600D01*
X60224778Y-123753600D01*
X60214060Y-123753525D01*
X60214054Y-123753524D01*
X60210004Y-123753496D01*
X60003719Y-123730358D01*
X59805857Y-123667592D01*
X59623955Y-123567591D01*
X59464941Y-123434162D01*
X59334871Y-123272388D01*
X59238701Y-123088432D01*
X59180093Y-122889299D01*
X59180087Y-122889233D01*
X59180080Y-122889209D01*
X59161275Y-122682579D01*
X59182963Y-122476232D01*
X59182970Y-122476209D01*
X59182978Y-122476134D01*
X59244360Y-122277838D01*
X59343090Y-122095242D01*
X59475405Y-121935301D01*
X59636267Y-121804105D01*
X59819548Y-121706653D01*
X60018266Y-121646656D01*
X60224854Y-121626400D01*
X60235222Y-121626400D01*
X60245940Y-121626475D01*
X60245940Y-121626475D01*
G37*
G36*
X60245940Y-119086475D02*
X60245946Y-119086476D01*
X60249996Y-119086504D01*
X60456281Y-119109642D01*
X60654143Y-119172408D01*
X60836045Y-119272409D01*
X60995059Y-119405838D01*
X61125129Y-119567612D01*
X61221299Y-119751568D01*
X61279907Y-119950701D01*
X61279913Y-119950767D01*
X61279920Y-119950791D01*
X61298725Y-120157421D01*
X61277037Y-120363768D01*
X61277030Y-120363791D01*
X61277022Y-120363866D01*
X61215640Y-120562162D01*
X61116910Y-120744758D01*
X60984595Y-120904699D01*
X60823733Y-121035895D01*
X60640452Y-121133347D01*
X60441734Y-121193344D01*
X60235146Y-121213600D01*
X60224778Y-121213600D01*
X60214060Y-121213525D01*
X60214054Y-121213524D01*
X60210004Y-121213496D01*
X60003719Y-121190358D01*
X59805857Y-121127592D01*
X59623955Y-121027591D01*
X59464941Y-120894162D01*
X59334871Y-120732388D01*
X59238701Y-120548432D01*
X59180093Y-120349299D01*
X59180087Y-120349233D01*
X59180080Y-120349209D01*
X59161275Y-120142579D01*
X59182963Y-119936232D01*
X59182970Y-119936209D01*
X59182978Y-119936134D01*
X59244360Y-119737838D01*
X59343090Y-119555242D01*
X59475405Y-119395301D01*
X59636267Y-119264105D01*
X59819548Y-119166653D01*
X60018266Y-119106656D01*
X60224854Y-119086400D01*
X60235222Y-119086400D01*
X60245940Y-119086475D01*
X60245940Y-119086475D01*
G37*
G36*
X62785940Y-119086475D02*
X62785946Y-119086476D01*
X62789996Y-119086504D01*
X62996281Y-119109642D01*
X63194143Y-119172408D01*
X63376045Y-119272409D01*
X63535059Y-119405838D01*
X63665129Y-119567612D01*
X63761299Y-119751568D01*
X63819907Y-119950701D01*
X63819913Y-119950767D01*
X63819920Y-119950791D01*
X63838725Y-120157421D01*
X63817037Y-120363768D01*
X63817030Y-120363791D01*
X63817022Y-120363866D01*
X63755640Y-120562162D01*
X63656910Y-120744758D01*
X63524595Y-120904699D01*
X63363733Y-121035895D01*
X63180452Y-121133347D01*
X62981734Y-121193344D01*
X62775146Y-121213600D01*
X62764778Y-121213600D01*
X62754060Y-121213525D01*
X62754054Y-121213524D01*
X62750004Y-121213496D01*
X62543719Y-121190358D01*
X62345857Y-121127592D01*
X62163955Y-121027591D01*
X62004941Y-120894162D01*
X61874871Y-120732388D01*
X61778701Y-120548432D01*
X61720093Y-120349299D01*
X61720087Y-120349233D01*
X61720080Y-120349209D01*
X61701275Y-120142579D01*
X61722963Y-119936232D01*
X61722970Y-119936209D01*
X61722978Y-119936134D01*
X61784360Y-119737838D01*
X61883090Y-119555242D01*
X62015405Y-119395301D01*
X62176267Y-119264105D01*
X62359548Y-119166653D01*
X62558266Y-119106656D01*
X62764854Y-119086400D01*
X62775222Y-119086400D01*
X62785940Y-119086475D01*
X62785940Y-119086475D01*
G37*
G36*
X129718559Y-115776129D02*
X130045140Y-115843166D01*
X130352475Y-115972358D01*
X130628869Y-116158788D01*
X130863783Y-116395348D01*
X131048275Y-116673033D01*
X131175322Y-116981272D01*
X131239940Y-117307614D01*
X131239940Y-117307633D01*
X131240073Y-117308306D01*
X131234756Y-117689097D01*
X131234604Y-117689765D01*
X131234604Y-117689784D01*
X131160898Y-118014203D01*
X131025298Y-118318763D01*
X130833120Y-118591194D01*
X130591692Y-118821101D01*
X130310200Y-118999743D01*
X129999379Y-119120302D01*
X129671052Y-119178195D01*
X129337739Y-119171213D01*
X129012127Y-119099622D01*
X128706624Y-118966152D01*
X128432864Y-118775883D01*
X128201273Y-118536064D01*
X128020674Y-118255828D01*
X127897943Y-117945849D01*
X127837761Y-117617941D01*
X127842416Y-117284588D01*
X127911731Y-116958484D01*
X128043068Y-116652052D01*
X128231422Y-116376970D01*
X128469614Y-116143714D01*
X128748586Y-115961160D01*
X129057693Y-115836272D01*
X129385178Y-115773801D01*
X129718559Y-115776129D01*
X129718559Y-115776129D01*
G37*
G36*
X134798559Y-115776129D02*
X135125140Y-115843166D01*
X135432475Y-115972358D01*
X135708869Y-116158788D01*
X135943783Y-116395348D01*
X136128275Y-116673033D01*
X136255322Y-116981272D01*
X136319940Y-117307614D01*
X136319940Y-117307633D01*
X136320073Y-117308306D01*
X136314756Y-117689097D01*
X136314604Y-117689765D01*
X136314604Y-117689784D01*
X136240898Y-118014203D01*
X136105298Y-118318763D01*
X135913120Y-118591194D01*
X135671692Y-118821101D01*
X135390200Y-118999743D01*
X135079379Y-119120302D01*
X134751052Y-119178195D01*
X134417739Y-119171213D01*
X134092127Y-119099622D01*
X133786624Y-118966152D01*
X133512864Y-118775883D01*
X133281273Y-118536064D01*
X133100674Y-118255828D01*
X132977943Y-117945849D01*
X132917761Y-117617941D01*
X132922416Y-117284588D01*
X132991731Y-116958484D01*
X133123068Y-116652052D01*
X133311422Y-116376970D01*
X133549614Y-116143714D01*
X133828586Y-115961160D01*
X134137693Y-115836272D01*
X134465178Y-115773801D01*
X134798559Y-115776129D01*
X134798559Y-115776129D01*
G37*
G36*
X60245940Y-116546475D02*
X60245946Y-116546476D01*
X60249996Y-116546504D01*
X60456281Y-116569642D01*
X60654143Y-116632408D01*
X60836045Y-116732409D01*
X60995059Y-116865838D01*
X61125129Y-117027612D01*
X61221299Y-117211568D01*
X61279907Y-117410701D01*
X61279913Y-117410767D01*
X61279920Y-117410791D01*
X61298725Y-117617421D01*
X61277037Y-117823768D01*
X61277030Y-117823791D01*
X61277022Y-117823866D01*
X61215640Y-118022162D01*
X61116910Y-118204758D01*
X60984595Y-118364699D01*
X60823733Y-118495895D01*
X60640452Y-118593347D01*
X60441734Y-118653344D01*
X60235146Y-118673600D01*
X60224778Y-118673600D01*
X60214060Y-118673525D01*
X60214054Y-118673524D01*
X60210004Y-118673496D01*
X60003719Y-118650358D01*
X59805857Y-118587592D01*
X59623955Y-118487591D01*
X59464941Y-118354162D01*
X59334871Y-118192388D01*
X59238701Y-118008432D01*
X59180093Y-117809299D01*
X59180087Y-117809233D01*
X59180080Y-117809209D01*
X59161275Y-117602579D01*
X59182963Y-117396232D01*
X59182970Y-117396209D01*
X59182978Y-117396134D01*
X59244360Y-117197838D01*
X59343090Y-117015242D01*
X59475405Y-116855301D01*
X59636267Y-116724105D01*
X59819548Y-116626653D01*
X60018266Y-116566656D01*
X60224854Y-116546400D01*
X60235222Y-116546400D01*
X60245940Y-116546475D01*
X60245940Y-116546475D01*
G37*
G36*
X62785940Y-116546475D02*
X62785946Y-116546476D01*
X62789996Y-116546504D01*
X62996281Y-116569642D01*
X63194143Y-116632408D01*
X63376045Y-116732409D01*
X63535059Y-116865838D01*
X63665129Y-117027612D01*
X63761299Y-117211568D01*
X63819907Y-117410701D01*
X63819913Y-117410767D01*
X63819920Y-117410791D01*
X63838725Y-117617421D01*
X63817037Y-117823768D01*
X63817030Y-117823791D01*
X63817022Y-117823866D01*
X63755640Y-118022162D01*
X63656910Y-118204758D01*
X63524595Y-118364699D01*
X63363733Y-118495895D01*
X63180452Y-118593347D01*
X62981734Y-118653344D01*
X62775146Y-118673600D01*
X62764778Y-118673600D01*
X62754060Y-118673525D01*
X62754054Y-118673524D01*
X62750004Y-118673496D01*
X62543719Y-118650358D01*
X62345857Y-118587592D01*
X62163955Y-118487591D01*
X62004941Y-118354162D01*
X61874871Y-118192388D01*
X61778701Y-118008432D01*
X61720093Y-117809299D01*
X61720087Y-117809233D01*
X61720080Y-117809209D01*
X61701275Y-117602579D01*
X61722963Y-117396232D01*
X61722970Y-117396209D01*
X61722978Y-117396134D01*
X61784360Y-117197838D01*
X61883090Y-117015242D01*
X62015405Y-116855301D01*
X62176267Y-116724105D01*
X62359548Y-116626653D01*
X62558266Y-116566656D01*
X62764854Y-116546400D01*
X62775222Y-116546400D01*
X62785940Y-116546475D01*
X62785940Y-116546475D01*
G37*
G36*
X132237557Y-113435995D02*
X132525710Y-113495144D01*
X132796888Y-113609137D01*
X133040767Y-113773635D01*
X133248045Y-113982365D01*
X133410832Y-114227381D01*
X133522932Y-114499353D01*
X133579932Y-114787228D01*
X133579932Y-114787249D01*
X133580064Y-114787917D01*
X133575373Y-115123910D01*
X133575221Y-115124578D01*
X133575221Y-115124597D01*
X133510206Y-115410764D01*
X133390555Y-115679505D01*
X133220992Y-115919875D01*
X133007965Y-116122738D01*
X132759587Y-116280363D01*
X132485337Y-116386738D01*
X132195634Y-116437821D01*
X131901533Y-116431659D01*
X131614230Y-116368493D01*
X131344668Y-116250723D01*
X131103114Y-116082839D01*
X130898769Y-115871233D01*
X130739417Y-115623967D01*
X130631125Y-115350455D01*
X130578024Y-115061124D01*
X130582131Y-114766990D01*
X130643292Y-114479245D01*
X130759174Y-114208872D01*
X130925371Y-113966149D01*
X131135544Y-113760333D01*
X131381690Y-113599259D01*
X131654435Y-113489063D01*
X131943392Y-113433941D01*
X132237557Y-113435995D01*
X132237557Y-113435995D01*
G37*
G36*
X60245940Y-114006475D02*
X60245946Y-114006476D01*
X60249996Y-114006504D01*
X60456281Y-114029642D01*
X60654143Y-114092408D01*
X60836045Y-114192409D01*
X60995059Y-114325838D01*
X61125129Y-114487612D01*
X61221299Y-114671568D01*
X61279907Y-114870701D01*
X61279913Y-114870767D01*
X61279920Y-114870791D01*
X61298725Y-115077421D01*
X61277037Y-115283768D01*
X61277030Y-115283791D01*
X61277022Y-115283866D01*
X61215640Y-115482162D01*
X61116910Y-115664758D01*
X60984595Y-115824699D01*
X60823733Y-115955895D01*
X60640452Y-116053347D01*
X60441734Y-116113344D01*
X60235146Y-116133600D01*
X60224778Y-116133600D01*
X60214060Y-116133525D01*
X60214054Y-116133524D01*
X60210004Y-116133496D01*
X60003719Y-116110358D01*
X59805857Y-116047592D01*
X59623955Y-115947591D01*
X59464941Y-115814162D01*
X59334871Y-115652388D01*
X59238701Y-115468432D01*
X59180093Y-115269299D01*
X59180087Y-115269233D01*
X59180080Y-115269209D01*
X59161275Y-115062579D01*
X59182963Y-114856232D01*
X59182970Y-114856209D01*
X59182978Y-114856134D01*
X59244360Y-114657838D01*
X59343090Y-114475242D01*
X59475405Y-114315301D01*
X59636267Y-114184105D01*
X59819548Y-114086653D01*
X60018266Y-114026656D01*
X60224854Y-114006400D01*
X60235222Y-114006400D01*
X60245940Y-114006475D01*
X60245940Y-114006475D01*
G37*
G36*
X63833600Y-116133600D02*
X61706400Y-116133600D01*
X61706400Y-114006400D01*
X63833600Y-114006400D01*
X63833600Y-116133600D01*
X63833600Y-116133600D01*
G37*
G36*
X122731076Y-110301462D02*
X123153709Y-110388215D01*
X123551438Y-110555405D01*
X123909123Y-110796666D01*
X124213131Y-111102804D01*
X124451886Y-111462161D01*
X124616298Y-111861052D01*
X124699962Y-112283589D01*
X124699962Y-112283611D01*
X124700094Y-112284279D01*
X124693213Y-112777067D01*
X124693062Y-112777730D01*
X124693062Y-112777754D01*
X124597633Y-113197787D01*
X124422146Y-113591937D01*
X124173452Y-113944482D01*
X123861013Y-114242015D01*
X123496728Y-114473196D01*
X123094491Y-114629214D01*
X122669598Y-114704135D01*
X122238250Y-114695098D01*
X121816871Y-114602452D01*
X121421513Y-114429725D01*
X121067235Y-114183495D01*
X120767529Y-113873141D01*
X120533812Y-113510482D01*
X120374987Y-113109336D01*
X120297103Y-112684981D01*
X120303127Y-112253584D01*
X120392829Y-111831567D01*
X120562794Y-111435009D01*
X120806545Y-111079021D01*
X121114799Y-110777156D01*
X121475813Y-110540915D01*
X121875839Y-110379294D01*
X122299642Y-110298449D01*
X122731076Y-110301462D01*
X122731076Y-110301462D01*
G37*
G36*
X52731076Y-110301462D02*
X53153709Y-110388215D01*
X53551438Y-110555405D01*
X53909123Y-110796666D01*
X54213131Y-111102804D01*
X54451886Y-111462161D01*
X54616298Y-111861052D01*
X54699962Y-112283589D01*
X54699962Y-112283611D01*
X54700094Y-112284279D01*
X54693213Y-112777067D01*
X54693062Y-112777730D01*
X54693062Y-112777754D01*
X54597633Y-113197787D01*
X54422146Y-113591937D01*
X54173452Y-113944482D01*
X53861013Y-114242015D01*
X53496728Y-114473196D01*
X53094491Y-114629214D01*
X52669598Y-114704135D01*
X52238250Y-114695098D01*
X51816871Y-114602452D01*
X51421513Y-114429725D01*
X51067235Y-114183495D01*
X50767529Y-113873141D01*
X50533812Y-113510482D01*
X50374987Y-113109336D01*
X50297103Y-112684981D01*
X50303127Y-112253584D01*
X50392829Y-111831567D01*
X50562794Y-111435009D01*
X50806545Y-111079021D01*
X51114799Y-110777156D01*
X51475813Y-110540915D01*
X51875839Y-110379294D01*
X52299642Y-110298449D01*
X52731076Y-110301462D01*
X52731076Y-110301462D01*
G37*
G36*
X134798559Y-110696129D02*
X135125140Y-110763166D01*
X135432475Y-110892358D01*
X135708869Y-111078788D01*
X135943783Y-111315348D01*
X136128275Y-111593033D01*
X136255322Y-111901272D01*
X136319940Y-112227614D01*
X136319940Y-112227633D01*
X136320073Y-112228306D01*
X136314756Y-112609097D01*
X136314604Y-112609765D01*
X136314604Y-112609784D01*
X136240898Y-112934203D01*
X136105298Y-113238763D01*
X135913120Y-113511194D01*
X135671692Y-113741101D01*
X135390200Y-113919743D01*
X135079379Y-114040302D01*
X134751052Y-114098195D01*
X134417739Y-114091213D01*
X134092127Y-114019622D01*
X133786624Y-113886152D01*
X133512864Y-113695883D01*
X133281273Y-113456064D01*
X133100674Y-113175828D01*
X132977943Y-112865849D01*
X132917761Y-112537941D01*
X132922416Y-112204588D01*
X132991731Y-111878484D01*
X133123068Y-111572052D01*
X133311422Y-111296970D01*
X133549614Y-111063714D01*
X133828586Y-110881160D01*
X134137693Y-110756272D01*
X134465178Y-110693801D01*
X134798559Y-110696129D01*
X134798559Y-110696129D01*
G37*
G36*
X129718559Y-110696129D02*
X130045140Y-110763166D01*
X130352475Y-110892358D01*
X130628869Y-111078788D01*
X130863783Y-111315348D01*
X131048275Y-111593033D01*
X131175322Y-111901272D01*
X131239940Y-112227614D01*
X131239940Y-112227633D01*
X131240073Y-112228306D01*
X131234756Y-112609097D01*
X131234604Y-112609765D01*
X131234604Y-112609784D01*
X131160898Y-112934203D01*
X131025298Y-113238763D01*
X130833120Y-113511194D01*
X130591692Y-113741101D01*
X130310200Y-113919743D01*
X129999379Y-114040302D01*
X129671052Y-114098195D01*
X129337739Y-114091213D01*
X129012127Y-114019622D01*
X128706624Y-113886152D01*
X128432864Y-113695883D01*
X128201273Y-113456064D01*
X128020674Y-113175828D01*
X127897943Y-112865849D01*
X127837761Y-112537941D01*
X127842416Y-112204588D01*
X127911731Y-111878484D01*
X128043068Y-111572052D01*
X128231422Y-111296970D01*
X128469614Y-111063714D01*
X128748586Y-110881160D01*
X129057693Y-110756272D01*
X129385178Y-110693801D01*
X129718559Y-110696129D01*
X129718559Y-110696129D01*
G37*
G36*
X132521144Y-102482794D02*
X133327989Y-102648415D01*
X134087287Y-102967594D01*
X134770139Y-103428184D01*
X135350519Y-104012629D01*
X135806325Y-104698674D01*
X136120201Y-105460192D01*
X136280048Y-106267479D01*
X136280048Y-106267501D01*
X136280180Y-106268169D01*
X136267044Y-107208947D01*
X136266892Y-107209615D01*
X136266892Y-107209634D01*
X136084567Y-108012139D01*
X135749551Y-108764597D01*
X135274765Y-109437650D01*
X134678294Y-110005661D01*
X133982848Y-110447004D01*
X133214931Y-110744860D01*
X132403778Y-110887889D01*
X131580295Y-110870638D01*
X130775848Y-110693770D01*
X130021073Y-110364017D01*
X129344724Y-109893941D01*
X128772559Y-109301447D01*
X128326372Y-108609101D01*
X128023162Y-107843279D01*
X127874475Y-107033147D01*
X127885975Y-106209567D01*
X128057224Y-105403901D01*
X128381701Y-104646840D01*
X128847044Y-103967225D01*
X129435527Y-103390939D01*
X130124738Y-102939932D01*
X130888424Y-102631382D01*
X131697500Y-102477043D01*
X132521144Y-102482794D01*
X132521144Y-102482794D01*
G37*
G36*
X41081144Y-102482794D02*
X41887989Y-102648415D01*
X42647287Y-102967594D01*
X43330139Y-103428184D01*
X43910519Y-104012629D01*
X44366325Y-104698674D01*
X44680201Y-105460192D01*
X44840048Y-106267479D01*
X44840048Y-106267501D01*
X44840180Y-106268169D01*
X44827044Y-107208947D01*
X44826892Y-107209615D01*
X44826892Y-107209634D01*
X44644567Y-108012139D01*
X44309551Y-108764597D01*
X43834765Y-109437650D01*
X43238294Y-110005661D01*
X42542848Y-110447004D01*
X41774931Y-110744860D01*
X40963778Y-110887889D01*
X40140295Y-110870638D01*
X39335848Y-110693770D01*
X38581073Y-110364017D01*
X37904724Y-109893941D01*
X37332559Y-109301447D01*
X36886372Y-108609101D01*
X36583162Y-107843279D01*
X36434475Y-107033147D01*
X36445975Y-106209567D01*
X36617224Y-105403901D01*
X36941701Y-104646840D01*
X37407044Y-103967225D01*
X37995527Y-103390939D01*
X38684738Y-102939932D01*
X39448424Y-102631382D01*
X40257500Y-102477043D01*
X41081144Y-102482794D01*
X41081144Y-102482794D01*
G37*
G36*
X91653768Y-105479825D02*
X91653791Y-105479832D01*
X91653866Y-105479840D01*
X91852162Y-105541222D01*
X92034758Y-105639952D01*
X92194699Y-105772267D01*
X92325895Y-105933129D01*
X92423347Y-106116410D01*
X92483344Y-106315128D01*
X92503600Y-106521716D01*
X92503600Y-106838360D01*
X92503525Y-106849078D01*
X92503524Y-106849084D01*
X92503496Y-106853134D01*
X92480358Y-107059419D01*
X92417592Y-107257281D01*
X92317591Y-107439183D01*
X92184162Y-107598197D01*
X92022388Y-107728267D01*
X91838432Y-107824437D01*
X91639299Y-107883045D01*
X91639233Y-107883051D01*
X91639209Y-107883058D01*
X91432579Y-107901863D01*
X91226232Y-107880175D01*
X91226209Y-107880168D01*
X91226134Y-107880160D01*
X91027838Y-107818778D01*
X90845242Y-107720048D01*
X90685301Y-107587733D01*
X90554105Y-107426871D01*
X90456653Y-107243590D01*
X90396656Y-107044872D01*
X90376400Y-106838284D01*
X90376400Y-106521640D01*
X90376475Y-106510922D01*
X90376476Y-106510916D01*
X90376504Y-106506866D01*
X90399642Y-106300581D01*
X90462408Y-106102719D01*
X90562409Y-105920817D01*
X90695838Y-105761803D01*
X90857612Y-105631733D01*
X91041568Y-105535563D01*
X91240701Y-105476955D01*
X91240767Y-105476949D01*
X91240791Y-105476942D01*
X91447421Y-105458137D01*
X91653768Y-105479825D01*
X91653768Y-105479825D01*
G37*
G36*
X89113768Y-105479825D02*
X89113791Y-105479832D01*
X89113866Y-105479840D01*
X89312162Y-105541222D01*
X89494758Y-105639952D01*
X89654699Y-105772267D01*
X89785895Y-105933129D01*
X89883347Y-106116410D01*
X89943344Y-106315128D01*
X89963600Y-106521716D01*
X89963600Y-106838360D01*
X89963525Y-106849078D01*
X89963524Y-106849084D01*
X89963496Y-106853134D01*
X89940358Y-107059419D01*
X89877592Y-107257281D01*
X89777591Y-107439183D01*
X89644162Y-107598197D01*
X89482388Y-107728267D01*
X89298432Y-107824437D01*
X89099299Y-107883045D01*
X89099233Y-107883051D01*
X89099209Y-107883058D01*
X88892579Y-107901863D01*
X88686232Y-107880175D01*
X88686209Y-107880168D01*
X88686134Y-107880160D01*
X88487838Y-107818778D01*
X88305242Y-107720048D01*
X88145301Y-107587733D01*
X88014105Y-107426871D01*
X87916653Y-107243590D01*
X87856656Y-107044872D01*
X87836400Y-106838284D01*
X87836400Y-106521640D01*
X87836475Y-106510922D01*
X87836476Y-106510916D01*
X87836504Y-106506866D01*
X87859642Y-106300581D01*
X87922408Y-106102719D01*
X88022409Y-105920817D01*
X88155838Y-105761803D01*
X88317612Y-105631733D01*
X88501568Y-105535563D01*
X88700701Y-105476955D01*
X88700767Y-105476949D01*
X88700791Y-105476942D01*
X88907421Y-105458137D01*
X89113768Y-105479825D01*
X89113768Y-105479825D01*
G37*
G36*
X86573768Y-105479825D02*
X86573791Y-105479832D01*
X86573866Y-105479840D01*
X86772162Y-105541222D01*
X86954758Y-105639952D01*
X87114699Y-105772267D01*
X87245895Y-105933129D01*
X87343347Y-106116410D01*
X87403344Y-106315128D01*
X87423600Y-106521716D01*
X87423600Y-106838360D01*
X87423525Y-106849078D01*
X87423524Y-106849084D01*
X87423496Y-106853134D01*
X87400358Y-107059419D01*
X87337592Y-107257281D01*
X87237591Y-107439183D01*
X87104162Y-107598197D01*
X86942388Y-107728267D01*
X86758432Y-107824437D01*
X86559299Y-107883045D01*
X86559233Y-107883051D01*
X86559209Y-107883058D01*
X86352579Y-107901863D01*
X86146232Y-107880175D01*
X86146209Y-107880168D01*
X86146134Y-107880160D01*
X85947838Y-107818778D01*
X85765242Y-107720048D01*
X85605301Y-107587733D01*
X85474105Y-107426871D01*
X85376653Y-107243590D01*
X85316656Y-107044872D01*
X85296400Y-106838284D01*
X85296400Y-106521640D01*
X85296475Y-106510922D01*
X85296476Y-106510916D01*
X85296504Y-106506866D01*
X85319642Y-106300581D01*
X85382408Y-106102719D01*
X85482409Y-105920817D01*
X85615838Y-105761803D01*
X85777612Y-105631733D01*
X85961568Y-105535563D01*
X86160701Y-105476955D01*
X86160767Y-105476949D01*
X86160791Y-105476942D01*
X86367421Y-105458137D01*
X86573768Y-105479825D01*
X86573768Y-105479825D01*
G37*
G36*
X84033768Y-105479825D02*
X84033791Y-105479832D01*
X84033866Y-105479840D01*
X84232162Y-105541222D01*
X84414758Y-105639952D01*
X84574699Y-105772267D01*
X84705895Y-105933129D01*
X84803347Y-106116410D01*
X84863344Y-106315128D01*
X84883600Y-106521716D01*
X84883600Y-106838360D01*
X84883525Y-106849078D01*
X84883524Y-106849084D01*
X84883496Y-106853134D01*
X84860358Y-107059419D01*
X84797592Y-107257281D01*
X84697591Y-107439183D01*
X84564162Y-107598197D01*
X84402388Y-107728267D01*
X84218432Y-107824437D01*
X84019299Y-107883045D01*
X84019233Y-107883051D01*
X84019209Y-107883058D01*
X83812579Y-107901863D01*
X83606232Y-107880175D01*
X83606209Y-107880168D01*
X83606134Y-107880160D01*
X83407838Y-107818778D01*
X83225242Y-107720048D01*
X83065301Y-107587733D01*
X82934105Y-107426871D01*
X82836653Y-107243590D01*
X82776656Y-107044872D01*
X82756400Y-106838284D01*
X82756400Y-106521640D01*
X82756475Y-106510922D01*
X82756476Y-106510916D01*
X82756504Y-106506866D01*
X82779642Y-106300581D01*
X82842408Y-106102719D01*
X82942409Y-105920817D01*
X83075838Y-105761803D01*
X83237612Y-105631733D01*
X83421568Y-105535563D01*
X83620701Y-105476955D01*
X83620767Y-105476949D01*
X83620791Y-105476942D01*
X83827421Y-105458137D01*
X84033768Y-105479825D01*
X84033768Y-105479825D01*
G37*
G36*
X81493768Y-105479825D02*
X81493791Y-105479832D01*
X81493866Y-105479840D01*
X81692162Y-105541222D01*
X81874758Y-105639952D01*
X82034699Y-105772267D01*
X82165895Y-105933129D01*
X82263347Y-106116410D01*
X82323344Y-106315128D01*
X82343600Y-106521716D01*
X82343600Y-106838360D01*
X82343525Y-106849078D01*
X82343524Y-106849084D01*
X82343496Y-106853134D01*
X82320358Y-107059419D01*
X82257592Y-107257281D01*
X82157591Y-107439183D01*
X82024162Y-107598197D01*
X81862388Y-107728267D01*
X81678432Y-107824437D01*
X81479299Y-107883045D01*
X81479233Y-107883051D01*
X81479209Y-107883058D01*
X81272579Y-107901863D01*
X81066232Y-107880175D01*
X81066209Y-107880168D01*
X81066134Y-107880160D01*
X80867838Y-107818778D01*
X80685242Y-107720048D01*
X80525301Y-107587733D01*
X80394105Y-107426871D01*
X80296653Y-107243590D01*
X80236656Y-107044872D01*
X80216400Y-106838284D01*
X80216400Y-106521640D01*
X80216475Y-106510922D01*
X80216476Y-106510916D01*
X80216504Y-106506866D01*
X80239642Y-106300581D01*
X80302408Y-106102719D01*
X80402409Y-105920817D01*
X80535838Y-105761803D01*
X80697612Y-105631733D01*
X80881568Y-105535563D01*
X81080701Y-105476955D01*
X81080767Y-105476949D01*
X81080791Y-105476942D01*
X81287421Y-105458137D01*
X81493768Y-105479825D01*
X81493768Y-105479825D01*
G37*
G36*
X79803600Y-107896000D02*
X77676400Y-107896000D01*
X77676400Y-105464000D01*
X79803600Y-105464000D01*
X79803600Y-107896000D01*
X79803600Y-107896000D01*
G37*
G36*
X71333768Y-105632963D02*
X71333791Y-105632970D01*
X71333866Y-105632978D01*
X71532162Y-105694360D01*
X71714758Y-105793090D01*
X71874699Y-105925405D01*
X72005895Y-106086267D01*
X72103347Y-106269548D01*
X72163344Y-106468266D01*
X72183600Y-106674854D01*
X72183600Y-106685222D01*
X72183525Y-106695940D01*
X72183524Y-106695946D01*
X72183496Y-106699996D01*
X72160358Y-106906281D01*
X72097592Y-107104143D01*
X71997591Y-107286045D01*
X71864162Y-107445059D01*
X71702388Y-107575129D01*
X71518432Y-107671299D01*
X71319299Y-107729907D01*
X71319233Y-107729913D01*
X71319209Y-107729920D01*
X71112579Y-107748725D01*
X70906232Y-107727037D01*
X70906209Y-107727030D01*
X70906134Y-107727022D01*
X70707838Y-107665640D01*
X70525242Y-107566910D01*
X70365301Y-107434595D01*
X70234105Y-107273733D01*
X70136653Y-107090452D01*
X70076656Y-106891734D01*
X70056400Y-106685146D01*
X70056400Y-106674778D01*
X70056475Y-106664060D01*
X70056476Y-106664054D01*
X70056504Y-106660004D01*
X70079642Y-106453719D01*
X70142408Y-106255857D01*
X70242409Y-106073955D01*
X70375838Y-105914941D01*
X70537612Y-105784871D01*
X70721568Y-105688701D01*
X70920701Y-105630093D01*
X70920767Y-105630087D01*
X70920791Y-105630080D01*
X71127421Y-105611275D01*
X71333768Y-105632963D01*
X71333768Y-105632963D01*
G37*
G36*
X68793768Y-105632963D02*
X68793791Y-105632970D01*
X68793866Y-105632978D01*
X68992162Y-105694360D01*
X69174758Y-105793090D01*
X69334699Y-105925405D01*
X69465895Y-106086267D01*
X69563347Y-106269548D01*
X69623344Y-106468266D01*
X69643600Y-106674854D01*
X69643600Y-106685222D01*
X69643525Y-106695940D01*
X69643524Y-106695946D01*
X69643496Y-106699996D01*
X69620358Y-106906281D01*
X69557592Y-107104143D01*
X69457591Y-107286045D01*
X69324162Y-107445059D01*
X69162388Y-107575129D01*
X68978432Y-107671299D01*
X68779299Y-107729907D01*
X68779233Y-107729913D01*
X68779209Y-107729920D01*
X68572579Y-107748725D01*
X68366232Y-107727037D01*
X68366209Y-107727030D01*
X68366134Y-107727022D01*
X68167838Y-107665640D01*
X67985242Y-107566910D01*
X67825301Y-107434595D01*
X67694105Y-107273733D01*
X67596653Y-107090452D01*
X67536656Y-106891734D01*
X67516400Y-106685146D01*
X67516400Y-106674778D01*
X67516475Y-106664060D01*
X67516476Y-106664054D01*
X67516504Y-106660004D01*
X67539642Y-106453719D01*
X67602408Y-106255857D01*
X67702409Y-106073955D01*
X67835838Y-105914941D01*
X67997612Y-105784871D01*
X68181568Y-105688701D01*
X68380701Y-105630093D01*
X68380767Y-105630087D01*
X68380791Y-105630080D01*
X68587421Y-105611275D01*
X68793768Y-105632963D01*
X68793768Y-105632963D01*
G37*
G36*
X63713768Y-105632963D02*
X63713791Y-105632970D01*
X63713866Y-105632978D01*
X63912162Y-105694360D01*
X64094758Y-105793090D01*
X64254699Y-105925405D01*
X64385895Y-106086267D01*
X64483347Y-106269548D01*
X64543344Y-106468266D01*
X64563600Y-106674854D01*
X64563600Y-106685222D01*
X64563525Y-106695940D01*
X64563524Y-106695946D01*
X64563496Y-106699996D01*
X64540358Y-106906281D01*
X64477592Y-107104143D01*
X64377591Y-107286045D01*
X64244162Y-107445059D01*
X64082388Y-107575129D01*
X63898432Y-107671299D01*
X63699299Y-107729907D01*
X63699233Y-107729913D01*
X63699209Y-107729920D01*
X63492579Y-107748725D01*
X63286232Y-107727037D01*
X63286209Y-107727030D01*
X63286134Y-107727022D01*
X63087838Y-107665640D01*
X62905242Y-107566910D01*
X62745301Y-107434595D01*
X62614105Y-107273733D01*
X62516653Y-107090452D01*
X62456656Y-106891734D01*
X62436400Y-106685146D01*
X62436400Y-106674778D01*
X62436475Y-106664060D01*
X62436476Y-106664054D01*
X62436504Y-106660004D01*
X62459642Y-106453719D01*
X62522408Y-106255857D01*
X62622409Y-106073955D01*
X62755838Y-105914941D01*
X62917612Y-105784871D01*
X63101568Y-105688701D01*
X63300701Y-105630093D01*
X63300767Y-105630087D01*
X63300791Y-105630080D01*
X63507421Y-105611275D01*
X63713768Y-105632963D01*
X63713768Y-105632963D01*
G37*
G36*
X61173768Y-105632963D02*
X61173791Y-105632970D01*
X61173866Y-105632978D01*
X61372162Y-105694360D01*
X61554758Y-105793090D01*
X61714699Y-105925405D01*
X61845895Y-106086267D01*
X61943347Y-106269548D01*
X62003344Y-106468266D01*
X62023600Y-106674854D01*
X62023600Y-106685222D01*
X62023525Y-106695940D01*
X62023524Y-106695946D01*
X62023496Y-106699996D01*
X62000358Y-106906281D01*
X61937592Y-107104143D01*
X61837591Y-107286045D01*
X61704162Y-107445059D01*
X61542388Y-107575129D01*
X61358432Y-107671299D01*
X61159299Y-107729907D01*
X61159233Y-107729913D01*
X61159209Y-107729920D01*
X60952579Y-107748725D01*
X60746232Y-107727037D01*
X60746209Y-107727030D01*
X60746134Y-107727022D01*
X60547838Y-107665640D01*
X60365242Y-107566910D01*
X60205301Y-107434595D01*
X60074105Y-107273733D01*
X59976653Y-107090452D01*
X59916656Y-106891734D01*
X59896400Y-106685146D01*
X59896400Y-106674778D01*
X59896475Y-106664060D01*
X59896476Y-106664054D01*
X59896504Y-106660004D01*
X59919642Y-106453719D01*
X59982408Y-106255857D01*
X60082409Y-106073955D01*
X60215838Y-105914941D01*
X60377612Y-105784871D01*
X60561568Y-105688701D01*
X60760701Y-105630093D01*
X60760767Y-105630087D01*
X60760791Y-105630080D01*
X60967421Y-105611275D01*
X61173768Y-105632963D01*
X61173768Y-105632963D01*
G37*
G36*
X56093768Y-105632963D02*
X56093791Y-105632970D01*
X56093866Y-105632978D01*
X56292162Y-105694360D01*
X56474758Y-105793090D01*
X56634699Y-105925405D01*
X56765895Y-106086267D01*
X56863347Y-106269548D01*
X56923344Y-106468266D01*
X56943600Y-106674854D01*
X56943600Y-106685222D01*
X56943525Y-106695940D01*
X56943524Y-106695946D01*
X56943496Y-106699996D01*
X56920358Y-106906281D01*
X56857592Y-107104143D01*
X56757591Y-107286045D01*
X56624162Y-107445059D01*
X56462388Y-107575129D01*
X56278432Y-107671299D01*
X56079299Y-107729907D01*
X56079233Y-107729913D01*
X56079209Y-107729920D01*
X55872579Y-107748725D01*
X55666232Y-107727037D01*
X55666209Y-107727030D01*
X55666134Y-107727022D01*
X55467838Y-107665640D01*
X55285242Y-107566910D01*
X55125301Y-107434595D01*
X54994105Y-107273733D01*
X54896653Y-107090452D01*
X54836656Y-106891734D01*
X54816400Y-106685146D01*
X54816400Y-106674778D01*
X54816475Y-106664060D01*
X54816476Y-106664054D01*
X54816504Y-106660004D01*
X54839642Y-106453719D01*
X54902408Y-106255857D01*
X55002409Y-106073955D01*
X55135838Y-105914941D01*
X55297612Y-105784871D01*
X55481568Y-105688701D01*
X55680701Y-105630093D01*
X55680767Y-105630087D01*
X55680791Y-105630080D01*
X55887421Y-105611275D01*
X56093768Y-105632963D01*
X56093768Y-105632963D01*
G37*
G36*
X58633768Y-105632963D02*
X58633791Y-105632970D01*
X58633866Y-105632978D01*
X58832162Y-105694360D01*
X59014758Y-105793090D01*
X59174699Y-105925405D01*
X59305895Y-106086267D01*
X59403347Y-106269548D01*
X59463344Y-106468266D01*
X59483600Y-106674854D01*
X59483600Y-106685222D01*
X59483525Y-106695940D01*
X59483524Y-106695946D01*
X59483496Y-106699996D01*
X59460358Y-106906281D01*
X59397592Y-107104143D01*
X59297591Y-107286045D01*
X59164162Y-107445059D01*
X59002388Y-107575129D01*
X58818432Y-107671299D01*
X58619299Y-107729907D01*
X58619233Y-107729913D01*
X58619209Y-107729920D01*
X58412579Y-107748725D01*
X58206232Y-107727037D01*
X58206209Y-107727030D01*
X58206134Y-107727022D01*
X58007838Y-107665640D01*
X57825242Y-107566910D01*
X57665301Y-107434595D01*
X57534105Y-107273733D01*
X57436653Y-107090452D01*
X57376656Y-106891734D01*
X57356400Y-106685146D01*
X57356400Y-106674778D01*
X57356475Y-106664060D01*
X57356476Y-106664054D01*
X57356504Y-106660004D01*
X57379642Y-106453719D01*
X57442408Y-106255857D01*
X57542409Y-106073955D01*
X57675838Y-105914941D01*
X57837612Y-105784871D01*
X58021568Y-105688701D01*
X58220701Y-105630093D01*
X58220767Y-105630087D01*
X58220791Y-105630080D01*
X58427421Y-105611275D01*
X58633768Y-105632963D01*
X58633768Y-105632963D01*
G37*
G36*
X53553768Y-105632963D02*
X53553791Y-105632970D01*
X53553866Y-105632978D01*
X53752162Y-105694360D01*
X53934758Y-105793090D01*
X54094699Y-105925405D01*
X54225895Y-106086267D01*
X54323347Y-106269548D01*
X54383344Y-106468266D01*
X54403600Y-106674854D01*
X54403600Y-106685222D01*
X54403525Y-106695940D01*
X54403524Y-106695946D01*
X54403496Y-106699996D01*
X54380358Y-106906281D01*
X54317592Y-107104143D01*
X54217591Y-107286045D01*
X54084162Y-107445059D01*
X53922388Y-107575129D01*
X53738432Y-107671299D01*
X53539299Y-107729907D01*
X53539233Y-107729913D01*
X53539209Y-107729920D01*
X53332579Y-107748725D01*
X53126232Y-107727037D01*
X53126209Y-107727030D01*
X53126134Y-107727022D01*
X52927838Y-107665640D01*
X52745242Y-107566910D01*
X52585301Y-107434595D01*
X52454105Y-107273733D01*
X52356653Y-107090452D01*
X52296656Y-106891734D01*
X52276400Y-106685146D01*
X52276400Y-106674778D01*
X52276475Y-106664060D01*
X52276476Y-106664054D01*
X52276504Y-106660004D01*
X52299642Y-106453719D01*
X52362408Y-106255857D01*
X52462409Y-106073955D01*
X52595838Y-105914941D01*
X52757612Y-105784871D01*
X52941568Y-105688701D01*
X53140701Y-105630093D01*
X53140767Y-105630087D01*
X53140791Y-105630080D01*
X53347421Y-105611275D01*
X53553768Y-105632963D01*
X53553768Y-105632963D01*
G37*
G36*
X51013768Y-105632963D02*
X51013791Y-105632970D01*
X51013866Y-105632978D01*
X51212162Y-105694360D01*
X51394758Y-105793090D01*
X51554699Y-105925405D01*
X51685895Y-106086267D01*
X51783347Y-106269548D01*
X51843344Y-106468266D01*
X51863600Y-106674854D01*
X51863600Y-106685222D01*
X51863525Y-106695940D01*
X51863524Y-106695946D01*
X51863496Y-106699996D01*
X51840358Y-106906281D01*
X51777592Y-107104143D01*
X51677591Y-107286045D01*
X51544162Y-107445059D01*
X51382388Y-107575129D01*
X51198432Y-107671299D01*
X50999299Y-107729907D01*
X50999233Y-107729913D01*
X50999209Y-107729920D01*
X50792579Y-107748725D01*
X50586232Y-107727037D01*
X50586209Y-107727030D01*
X50586134Y-107727022D01*
X50387838Y-107665640D01*
X50205242Y-107566910D01*
X50045301Y-107434595D01*
X49914105Y-107273733D01*
X49816653Y-107090452D01*
X49756656Y-106891734D01*
X49736400Y-106685146D01*
X49736400Y-106674778D01*
X49736475Y-106664060D01*
X49736476Y-106664054D01*
X49736504Y-106660004D01*
X49759642Y-106453719D01*
X49822408Y-106255857D01*
X49922409Y-106073955D01*
X50055838Y-105914941D01*
X50217612Y-105784871D01*
X50401568Y-105688701D01*
X50600701Y-105630093D01*
X50600767Y-105630087D01*
X50600791Y-105630080D01*
X50807421Y-105611275D01*
X51013768Y-105632963D01*
X51013768Y-105632963D01*
G37*
G36*
X48473768Y-105632963D02*
X48473791Y-105632970D01*
X48473866Y-105632978D01*
X48672162Y-105694360D01*
X48854758Y-105793090D01*
X49014699Y-105925405D01*
X49145895Y-106086267D01*
X49243347Y-106269548D01*
X49303344Y-106468266D01*
X49323600Y-106674854D01*
X49323600Y-106685222D01*
X49323525Y-106695940D01*
X49323524Y-106695946D01*
X49323496Y-106699996D01*
X49300358Y-106906281D01*
X49237592Y-107104143D01*
X49137591Y-107286045D01*
X49004162Y-107445059D01*
X48842388Y-107575129D01*
X48658432Y-107671299D01*
X48459299Y-107729907D01*
X48459233Y-107729913D01*
X48459209Y-107729920D01*
X48252579Y-107748725D01*
X48046232Y-107727037D01*
X48046209Y-107727030D01*
X48046134Y-107727022D01*
X47847838Y-107665640D01*
X47665242Y-107566910D01*
X47505301Y-107434595D01*
X47374105Y-107273733D01*
X47276653Y-107090452D01*
X47216656Y-106891734D01*
X47196400Y-106685146D01*
X47196400Y-106674778D01*
X47196475Y-106664060D01*
X47196476Y-106664054D01*
X47196504Y-106660004D01*
X47219642Y-106453719D01*
X47282408Y-106255857D01*
X47382409Y-106073955D01*
X47515838Y-105914941D01*
X47677612Y-105784871D01*
X47861568Y-105688701D01*
X48060701Y-105630093D01*
X48060767Y-105630087D01*
X48060791Y-105630080D01*
X48267421Y-105611275D01*
X48473768Y-105632963D01*
X48473768Y-105632963D01*
G37*
G36*
X66253768Y-105632963D02*
X66253791Y-105632970D01*
X66253866Y-105632978D01*
X66452162Y-105694360D01*
X66634758Y-105793090D01*
X66794699Y-105925405D01*
X66925895Y-106086267D01*
X67023347Y-106269548D01*
X67083344Y-106468266D01*
X67103600Y-106674854D01*
X67103600Y-106685222D01*
X67103525Y-106695940D01*
X67103524Y-106695946D01*
X67103496Y-106699996D01*
X67080358Y-106906281D01*
X67017592Y-107104143D01*
X66917591Y-107286045D01*
X66784162Y-107445059D01*
X66622388Y-107575129D01*
X66438432Y-107671299D01*
X66239299Y-107729907D01*
X66239233Y-107729913D01*
X66239209Y-107729920D01*
X66032579Y-107748725D01*
X65826232Y-107727037D01*
X65826209Y-107727030D01*
X65826134Y-107727022D01*
X65627838Y-107665640D01*
X65445242Y-107566910D01*
X65285301Y-107434595D01*
X65154105Y-107273733D01*
X65056653Y-107090452D01*
X64996656Y-106891734D01*
X64976400Y-106685146D01*
X64976400Y-106674778D01*
X64976475Y-106664060D01*
X64976476Y-106664054D01*
X64976504Y-106660004D01*
X64999642Y-106453719D01*
X65062408Y-106255857D01*
X65162409Y-106073955D01*
X65295838Y-105914941D01*
X65457612Y-105784871D01*
X65641568Y-105688701D01*
X65840701Y-105630093D01*
X65840767Y-105630087D01*
X65840791Y-105630080D01*
X66047421Y-105611275D01*
X66253768Y-105632963D01*
X66253768Y-105632963D01*
G37*
G36*
X56093768Y-103092963D02*
X56093791Y-103092970D01*
X56093866Y-103092978D01*
X56292162Y-103154360D01*
X56474758Y-103253090D01*
X56634699Y-103385405D01*
X56765895Y-103546267D01*
X56863347Y-103729548D01*
X56923344Y-103928266D01*
X56943600Y-104134854D01*
X56943600Y-104145222D01*
X56943525Y-104155940D01*
X56943524Y-104155946D01*
X56943496Y-104159996D01*
X56920358Y-104366281D01*
X56857592Y-104564143D01*
X56757591Y-104746045D01*
X56624162Y-104905059D01*
X56462388Y-105035129D01*
X56278432Y-105131299D01*
X56079299Y-105189907D01*
X56079233Y-105189913D01*
X56079209Y-105189920D01*
X55872579Y-105208725D01*
X55666232Y-105187037D01*
X55666209Y-105187030D01*
X55666134Y-105187022D01*
X55467838Y-105125640D01*
X55285242Y-105026910D01*
X55125301Y-104894595D01*
X54994105Y-104733733D01*
X54896653Y-104550452D01*
X54836656Y-104351734D01*
X54816400Y-104145146D01*
X54816400Y-104134778D01*
X54816475Y-104124060D01*
X54816476Y-104124054D01*
X54816504Y-104120004D01*
X54839642Y-103913719D01*
X54902408Y-103715857D01*
X55002409Y-103533955D01*
X55135838Y-103374941D01*
X55297612Y-103244871D01*
X55481568Y-103148701D01*
X55680701Y-103090093D01*
X55680767Y-103090087D01*
X55680791Y-103090080D01*
X55887421Y-103071275D01*
X56093768Y-103092963D01*
X56093768Y-103092963D01*
G37*
G36*
X48473768Y-103092963D02*
X48473791Y-103092970D01*
X48473866Y-103092978D01*
X48672162Y-103154360D01*
X48854758Y-103253090D01*
X49014699Y-103385405D01*
X49145895Y-103546267D01*
X49243347Y-103729548D01*
X49303344Y-103928266D01*
X49323600Y-104134854D01*
X49323600Y-104145222D01*
X49323525Y-104155940D01*
X49323524Y-104155946D01*
X49323496Y-104159996D01*
X49300358Y-104366281D01*
X49237592Y-104564143D01*
X49137591Y-104746045D01*
X49004162Y-104905059D01*
X48842388Y-105035129D01*
X48658432Y-105131299D01*
X48459299Y-105189907D01*
X48459233Y-105189913D01*
X48459209Y-105189920D01*
X48252579Y-105208725D01*
X48046232Y-105187037D01*
X48046209Y-105187030D01*
X48046134Y-105187022D01*
X47847838Y-105125640D01*
X47665242Y-105026910D01*
X47505301Y-104894595D01*
X47374105Y-104733733D01*
X47276653Y-104550452D01*
X47216656Y-104351734D01*
X47196400Y-104145146D01*
X47196400Y-104134778D01*
X47196475Y-104124060D01*
X47196476Y-104124054D01*
X47196504Y-104120004D01*
X47219642Y-103913719D01*
X47282408Y-103715857D01*
X47382409Y-103533955D01*
X47515838Y-103374941D01*
X47677612Y-103244871D01*
X47861568Y-103148701D01*
X48060701Y-103090093D01*
X48060767Y-103090087D01*
X48060791Y-103090080D01*
X48267421Y-103071275D01*
X48473768Y-103092963D01*
X48473768Y-103092963D01*
G37*
G36*
X51013768Y-103092963D02*
X51013791Y-103092970D01*
X51013866Y-103092978D01*
X51212162Y-103154360D01*
X51394758Y-103253090D01*
X51554699Y-103385405D01*
X51685895Y-103546267D01*
X51783347Y-103729548D01*
X51843344Y-103928266D01*
X51863600Y-104134854D01*
X51863600Y-104145222D01*
X51863525Y-104155940D01*
X51863524Y-104155946D01*
X51863496Y-104159996D01*
X51840358Y-104366281D01*
X51777592Y-104564143D01*
X51677591Y-104746045D01*
X51544162Y-104905059D01*
X51382388Y-105035129D01*
X51198432Y-105131299D01*
X50999299Y-105189907D01*
X50999233Y-105189913D01*
X50999209Y-105189920D01*
X50792579Y-105208725D01*
X50586232Y-105187037D01*
X50586209Y-105187030D01*
X50586134Y-105187022D01*
X50387838Y-105125640D01*
X50205242Y-105026910D01*
X50045301Y-104894595D01*
X49914105Y-104733733D01*
X49816653Y-104550452D01*
X49756656Y-104351734D01*
X49736400Y-104145146D01*
X49736400Y-104134778D01*
X49736475Y-104124060D01*
X49736476Y-104124054D01*
X49736504Y-104120004D01*
X49759642Y-103913719D01*
X49822408Y-103715857D01*
X49922409Y-103533955D01*
X50055838Y-103374941D01*
X50217612Y-103244871D01*
X50401568Y-103148701D01*
X50600701Y-103090093D01*
X50600767Y-103090087D01*
X50600791Y-103090080D01*
X50807421Y-103071275D01*
X51013768Y-103092963D01*
X51013768Y-103092963D01*
G37*
G36*
X61173768Y-103092963D02*
X61173791Y-103092970D01*
X61173866Y-103092978D01*
X61372162Y-103154360D01*
X61554758Y-103253090D01*
X61714699Y-103385405D01*
X61845895Y-103546267D01*
X61943347Y-103729548D01*
X62003344Y-103928266D01*
X62023600Y-104134854D01*
X62023600Y-104145222D01*
X62023525Y-104155940D01*
X62023524Y-104155946D01*
X62023496Y-104159996D01*
X62000358Y-104366281D01*
X61937592Y-104564143D01*
X61837591Y-104746045D01*
X61704162Y-104905059D01*
X61542388Y-105035129D01*
X61358432Y-105131299D01*
X61159299Y-105189907D01*
X61159233Y-105189913D01*
X61159209Y-105189920D01*
X60952579Y-105208725D01*
X60746232Y-105187037D01*
X60746209Y-105187030D01*
X60746134Y-105187022D01*
X60547838Y-105125640D01*
X60365242Y-105026910D01*
X60205301Y-104894595D01*
X60074105Y-104733733D01*
X59976653Y-104550452D01*
X59916656Y-104351734D01*
X59896400Y-104145146D01*
X59896400Y-104134778D01*
X59896475Y-104124060D01*
X59896476Y-104124054D01*
X59896504Y-104120004D01*
X59919642Y-103913719D01*
X59982408Y-103715857D01*
X60082409Y-103533955D01*
X60215838Y-103374941D01*
X60377612Y-103244871D01*
X60561568Y-103148701D01*
X60760701Y-103090093D01*
X60760767Y-103090087D01*
X60760791Y-103090080D01*
X60967421Y-103071275D01*
X61173768Y-103092963D01*
X61173768Y-103092963D01*
G37*
G36*
X63713768Y-103092963D02*
X63713791Y-103092970D01*
X63713866Y-103092978D01*
X63912162Y-103154360D01*
X64094758Y-103253090D01*
X64254699Y-103385405D01*
X64385895Y-103546267D01*
X64483347Y-103729548D01*
X64543344Y-103928266D01*
X64563600Y-104134854D01*
X64563600Y-104145222D01*
X64563525Y-104155940D01*
X64563524Y-104155946D01*
X64563496Y-104159996D01*
X64540358Y-104366281D01*
X64477592Y-104564143D01*
X64377591Y-104746045D01*
X64244162Y-104905059D01*
X64082388Y-105035129D01*
X63898432Y-105131299D01*
X63699299Y-105189907D01*
X63699233Y-105189913D01*
X63699209Y-105189920D01*
X63492579Y-105208725D01*
X63286232Y-105187037D01*
X63286209Y-105187030D01*
X63286134Y-105187022D01*
X63087838Y-105125640D01*
X62905242Y-105026910D01*
X62745301Y-104894595D01*
X62614105Y-104733733D01*
X62516653Y-104550452D01*
X62456656Y-104351734D01*
X62436400Y-104145146D01*
X62436400Y-104134778D01*
X62436475Y-104124060D01*
X62436476Y-104124054D01*
X62436504Y-104120004D01*
X62459642Y-103913719D01*
X62522408Y-103715857D01*
X62622409Y-103533955D01*
X62755838Y-103374941D01*
X62917612Y-103244871D01*
X63101568Y-103148701D01*
X63300701Y-103090093D01*
X63300767Y-103090087D01*
X63300791Y-103090080D01*
X63507421Y-103071275D01*
X63713768Y-103092963D01*
X63713768Y-103092963D01*
G37*
G36*
X66253768Y-103092963D02*
X66253791Y-103092970D01*
X66253866Y-103092978D01*
X66452162Y-103154360D01*
X66634758Y-103253090D01*
X66794699Y-103385405D01*
X66925895Y-103546267D01*
X67023347Y-103729548D01*
X67083344Y-103928266D01*
X67103600Y-104134854D01*
X67103600Y-104145222D01*
X67103525Y-104155940D01*
X67103524Y-104155946D01*
X67103496Y-104159996D01*
X67080358Y-104366281D01*
X67017592Y-104564143D01*
X66917591Y-104746045D01*
X66784162Y-104905059D01*
X66622388Y-105035129D01*
X66438432Y-105131299D01*
X66239299Y-105189907D01*
X66239233Y-105189913D01*
X66239209Y-105189920D01*
X66032579Y-105208725D01*
X65826232Y-105187037D01*
X65826209Y-105187030D01*
X65826134Y-105187022D01*
X65627838Y-105125640D01*
X65445242Y-105026910D01*
X65285301Y-104894595D01*
X65154105Y-104733733D01*
X65056653Y-104550452D01*
X64996656Y-104351734D01*
X64976400Y-104145146D01*
X64976400Y-104134778D01*
X64976475Y-104124060D01*
X64976476Y-104124054D01*
X64976504Y-104120004D01*
X64999642Y-103913719D01*
X65062408Y-103715857D01*
X65162409Y-103533955D01*
X65295838Y-103374941D01*
X65457612Y-103244871D01*
X65641568Y-103148701D01*
X65840701Y-103090093D01*
X65840767Y-103090087D01*
X65840791Y-103090080D01*
X66047421Y-103071275D01*
X66253768Y-103092963D01*
X66253768Y-103092963D01*
G37*
G36*
X68793768Y-103092963D02*
X68793791Y-103092970D01*
X68793866Y-103092978D01*
X68992162Y-103154360D01*
X69174758Y-103253090D01*
X69334699Y-103385405D01*
X69465895Y-103546267D01*
X69563347Y-103729548D01*
X69623344Y-103928266D01*
X69643600Y-104134854D01*
X69643600Y-104145222D01*
X69643525Y-104155940D01*
X69643524Y-104155946D01*
X69643496Y-104159996D01*
X69620358Y-104366281D01*
X69557592Y-104564143D01*
X69457591Y-104746045D01*
X69324162Y-104905059D01*
X69162388Y-105035129D01*
X68978432Y-105131299D01*
X68779299Y-105189907D01*
X68779233Y-105189913D01*
X68779209Y-105189920D01*
X68572579Y-105208725D01*
X68366232Y-105187037D01*
X68366209Y-105187030D01*
X68366134Y-105187022D01*
X68167838Y-105125640D01*
X67985242Y-105026910D01*
X67825301Y-104894595D01*
X67694105Y-104733733D01*
X67596653Y-104550452D01*
X67536656Y-104351734D01*
X67516400Y-104145146D01*
X67516400Y-104134778D01*
X67516475Y-104124060D01*
X67516476Y-104124054D01*
X67516504Y-104120004D01*
X67539642Y-103913719D01*
X67602408Y-103715857D01*
X67702409Y-103533955D01*
X67835838Y-103374941D01*
X67997612Y-103244871D01*
X68181568Y-103148701D01*
X68380701Y-103090093D01*
X68380767Y-103090087D01*
X68380791Y-103090080D01*
X68587421Y-103071275D01*
X68793768Y-103092963D01*
X68793768Y-103092963D01*
G37*
G36*
X53553768Y-103092963D02*
X53553791Y-103092970D01*
X53553866Y-103092978D01*
X53752162Y-103154360D01*
X53934758Y-103253090D01*
X54094699Y-103385405D01*
X54225895Y-103546267D01*
X54323347Y-103729548D01*
X54383344Y-103928266D01*
X54403600Y-104134854D01*
X54403600Y-104145222D01*
X54403525Y-104155940D01*
X54403524Y-104155946D01*
X54403496Y-104159996D01*
X54380358Y-104366281D01*
X54317592Y-104564143D01*
X54217591Y-104746045D01*
X54084162Y-104905059D01*
X53922388Y-105035129D01*
X53738432Y-105131299D01*
X53539299Y-105189907D01*
X53539233Y-105189913D01*
X53539209Y-105189920D01*
X53332579Y-105208725D01*
X53126232Y-105187037D01*
X53126209Y-105187030D01*
X53126134Y-105187022D01*
X52927838Y-105125640D01*
X52745242Y-105026910D01*
X52585301Y-104894595D01*
X52454105Y-104733733D01*
X52356653Y-104550452D01*
X52296656Y-104351734D01*
X52276400Y-104145146D01*
X52276400Y-104134778D01*
X52276475Y-104124060D01*
X52276476Y-104124054D01*
X52276504Y-104120004D01*
X52299642Y-103913719D01*
X52362408Y-103715857D01*
X52462409Y-103533955D01*
X52595838Y-103374941D01*
X52757612Y-103244871D01*
X52941568Y-103148701D01*
X53140701Y-103090093D01*
X53140767Y-103090087D01*
X53140791Y-103090080D01*
X53347421Y-103071275D01*
X53553768Y-103092963D01*
X53553768Y-103092963D01*
G37*
G36*
X58633768Y-103092963D02*
X58633791Y-103092970D01*
X58633866Y-103092978D01*
X58832162Y-103154360D01*
X59014758Y-103253090D01*
X59174699Y-103385405D01*
X59305895Y-103546267D01*
X59403347Y-103729548D01*
X59463344Y-103928266D01*
X59483600Y-104134854D01*
X59483600Y-104145222D01*
X59483525Y-104155940D01*
X59483524Y-104155946D01*
X59483496Y-104159996D01*
X59460358Y-104366281D01*
X59397592Y-104564143D01*
X59297591Y-104746045D01*
X59164162Y-104905059D01*
X59002388Y-105035129D01*
X58818432Y-105131299D01*
X58619299Y-105189907D01*
X58619233Y-105189913D01*
X58619209Y-105189920D01*
X58412579Y-105208725D01*
X58206232Y-105187037D01*
X58206209Y-105187030D01*
X58206134Y-105187022D01*
X58007838Y-105125640D01*
X57825242Y-105026910D01*
X57665301Y-104894595D01*
X57534105Y-104733733D01*
X57436653Y-104550452D01*
X57376656Y-104351734D01*
X57356400Y-104145146D01*
X57356400Y-104134778D01*
X57356475Y-104124060D01*
X57356476Y-104124054D01*
X57356504Y-104120004D01*
X57379642Y-103913719D01*
X57442408Y-103715857D01*
X57542409Y-103533955D01*
X57675838Y-103374941D01*
X57837612Y-103244871D01*
X58021568Y-103148701D01*
X58220701Y-103090093D01*
X58220767Y-103090087D01*
X58220791Y-103090080D01*
X58427421Y-103071275D01*
X58633768Y-103092963D01*
X58633768Y-103092963D01*
G37*
G36*
X72183600Y-105203600D02*
X70056400Y-105203600D01*
X70056400Y-103076400D01*
X72183600Y-103076400D01*
X72183600Y-105203600D01*
X72183600Y-105203600D01*
G37*
M02*
