G04 #@! TF.FileFunction,Copper,L3,Inr,Signal*
%FSLAX46Y46*%
G04 Gerber Fmt 4.6, Leading zero omitted, Abs format (unit mm)*
G04 Created by KiCad (PCBNEW 4.0.3-stable) date 09/21/16 12:07:47*
%MOMM*%
%LPD*%
G01*
G04 APERTURE LIST*
%ADD10C,0.100000*%
%ADD11R,2.032000X1.727200*%
%ADD12O,2.032000X1.727200*%
%ADD13R,1.727200X2.032000*%
%ADD14O,1.727200X2.032000*%
%ADD15C,2.600000*%
%ADD16C,3.000000*%
%ADD17R,1.727200X1.727200*%
%ADD18O,1.727200X1.727200*%
%ADD19C,4.000000*%
%ADD20C,8.000000*%
%ADD21C,0.800000*%
%ADD22C,1.400000*%
%ADD23C,0.600000*%
%ADD24C,1.000000*%
%ADD25C,0.200000*%
G04 APERTURE END LIST*
D10*
D11*
X38100000Y-127000000D03*
D12*
X38100000Y-129540000D03*
X38100000Y-132080000D03*
X38100000Y-134620000D03*
X38100000Y-137160000D03*
X38100000Y-139700000D03*
D13*
X48260000Y-149860000D03*
D14*
X50800000Y-149860000D03*
X53340000Y-149860000D03*
X55880000Y-149860000D03*
X58420000Y-149860000D03*
X60960000Y-149860000D03*
X63500000Y-149860000D03*
X66040000Y-149860000D03*
X68580000Y-149860000D03*
X71120000Y-149860000D03*
D13*
X91440000Y-149860000D03*
D14*
X88900000Y-149860000D03*
X86360000Y-149860000D03*
X83820000Y-149860000D03*
X81280000Y-149860000D03*
X78740000Y-149860000D03*
D13*
X78740000Y-106680000D03*
D14*
X81280000Y-106680000D03*
X83820000Y-106680000D03*
X86360000Y-106680000D03*
X88900000Y-106680000D03*
X91440000Y-106680000D03*
D15*
X132080000Y-137160000D03*
D16*
X134620000Y-139700000D03*
X134620000Y-134620000D03*
X129540000Y-134620000D03*
X129540000Y-139700000D03*
D15*
X132080000Y-114935000D03*
D16*
X129540000Y-117475000D03*
X134620000Y-117475000D03*
X134620000Y-112395000D03*
X129540000Y-112395000D03*
D17*
X62770000Y-115070000D03*
D18*
X60230000Y-115070000D03*
X62770000Y-117610000D03*
X60230000Y-117610000D03*
X62770000Y-120150000D03*
X60230000Y-120150000D03*
X62770000Y-122690000D03*
X60230000Y-122690000D03*
X62770000Y-125230000D03*
X60230000Y-125230000D03*
X62770000Y-127770000D03*
X60230000Y-127770000D03*
X62770000Y-130310000D03*
X60230000Y-130310000D03*
X62770000Y-132850000D03*
X60230000Y-132850000D03*
X62770000Y-135390000D03*
X60230000Y-135390000D03*
X62770000Y-137930000D03*
X60230000Y-137930000D03*
D17*
X71120000Y-104140000D03*
D18*
X71120000Y-106680000D03*
X68580000Y-104140000D03*
X68580000Y-106680000D03*
X66040000Y-104140000D03*
X66040000Y-106680000D03*
X63500000Y-104140000D03*
X63500000Y-106680000D03*
X60960000Y-104140000D03*
X60960000Y-106680000D03*
X58420000Y-104140000D03*
X58420000Y-106680000D03*
X55880000Y-104140000D03*
X55880000Y-106680000D03*
X53340000Y-104140000D03*
X53340000Y-106680000D03*
X50800000Y-104140000D03*
X50800000Y-106680000D03*
X48260000Y-104140000D03*
X48260000Y-106680000D03*
D19*
X122500000Y-142500000D03*
X52500000Y-112500000D03*
X122500000Y-112500000D03*
X52500000Y-142500000D03*
D20*
X40640000Y-147320000D03*
X132080000Y-147320000D03*
X132080000Y-106680000D03*
X40640000Y-106680000D03*
D21*
X99500000Y-121400000D03*
X99500000Y-124600000D03*
X99500000Y-120100000D03*
X103700000Y-140400000D03*
X53800000Y-138050000D03*
X52500000Y-138000000D03*
X51250000Y-138000000D03*
X50000000Y-138000000D03*
X73500000Y-132400000D03*
X65600000Y-142400000D03*
X64900000Y-132600000D03*
D22*
X45400000Y-139700000D03*
D21*
X50000000Y-131700000D03*
D22*
X55700000Y-118300000D03*
X50400000Y-118300000D03*
X45100000Y-118300000D03*
X39800000Y-118300000D03*
D23*
X66000000Y-134300000D03*
X85300000Y-122600000D03*
X85300000Y-119600000D03*
X66200000Y-124100000D03*
X66200000Y-122100000D03*
X65000000Y-124400000D03*
X64900000Y-115400000D03*
X69200000Y-117100000D03*
X77500000Y-113300000D03*
X73500000Y-113300000D03*
X75000000Y-113300000D03*
X80600000Y-118700000D03*
X73000000Y-127600000D03*
X72500000Y-118100000D03*
X71000000Y-121100000D03*
D22*
X90300000Y-144300000D03*
X85300000Y-144300000D03*
X69500000Y-142300000D03*
X74700000Y-142300000D03*
D21*
X78100000Y-145900000D03*
X79400000Y-145900000D03*
X80600000Y-145900000D03*
X81900000Y-145900000D03*
X126700000Y-107000000D03*
X126700000Y-104600000D03*
X125100000Y-104600000D03*
X122000000Y-104600000D03*
X119100000Y-104600000D03*
X116000000Y-104600000D03*
X113100000Y-104600000D03*
X110000000Y-104600000D03*
X107100000Y-104600000D03*
X104000000Y-104600000D03*
X101100000Y-104600000D03*
X98000000Y-104600000D03*
X96400000Y-104600000D03*
X96400000Y-107000000D03*
X96400000Y-110100000D03*
X96400000Y-113000000D03*
X96400000Y-116100000D03*
X96400000Y-119000000D03*
X96400000Y-122100000D03*
X96400000Y-125000000D03*
X96400000Y-128100000D03*
X96400000Y-131000000D03*
X96400000Y-137000000D03*
X96400000Y-134100000D03*
X96400000Y-140100000D03*
X96400000Y-143000000D03*
X96300000Y-146100000D03*
X96300000Y-148500000D03*
X98000000Y-148500000D03*
X101100000Y-148400000D03*
X104000000Y-148400000D03*
X107100000Y-148400000D03*
X110000000Y-148400000D03*
X113100000Y-148400000D03*
X116000000Y-148400000D03*
X119100000Y-148400000D03*
X122000000Y-148400000D03*
X125100000Y-148500000D03*
X126700000Y-148500000D03*
X126700000Y-146100000D03*
X126700000Y-143000000D03*
X126700000Y-140100000D03*
X126700000Y-137000000D03*
X126700000Y-134100000D03*
X126700000Y-131000000D03*
X126700000Y-128100000D03*
X126700000Y-125000000D03*
X126700000Y-122100000D03*
X126700000Y-119000000D03*
X126700000Y-116100000D03*
X126700000Y-113000000D03*
X126700000Y-110100000D03*
X99500000Y-118500000D03*
X99500000Y-123000000D03*
X102800000Y-112500000D03*
X105000000Y-112500000D03*
X98700000Y-131800000D03*
X107700000Y-115700000D03*
X105500000Y-121900000D03*
X104700000Y-121100000D03*
X106300000Y-121100000D03*
X106300000Y-122700000D03*
X104700000Y-122700000D03*
X107600000Y-132900000D03*
X107400000Y-131300000D03*
X109200000Y-116600000D03*
X114200000Y-124100000D03*
X114200000Y-122600000D03*
X103500000Y-126000000D03*
X108700000Y-129800000D03*
X108700000Y-128300000D03*
X108700000Y-126800000D03*
X108700000Y-125300000D03*
X94100000Y-147000000D03*
X102900000Y-133600000D03*
X102900000Y-135100000D03*
X102900000Y-136600000D03*
X111300000Y-136400000D03*
X111300000Y-134900000D03*
X111300000Y-133400000D03*
X110200000Y-137300000D03*
X108782500Y-140137500D03*
X108782500Y-139262500D03*
X109657500Y-140137500D03*
X109657500Y-139262500D03*
X114700000Y-139600000D03*
X114700000Y-141100000D03*
X103700000Y-138800000D03*
X101500000Y-145200000D03*
X103000000Y-145200000D03*
X104500000Y-145200000D03*
X109000000Y-146800000D03*
X111200000Y-146800000D03*
X114200000Y-146800000D03*
X116300000Y-146800000D03*
X118400000Y-142000000D03*
X118400000Y-132900000D03*
X122500000Y-125900000D03*
X120200000Y-129500000D03*
X120300000Y-126700000D03*
X117900000Y-129500000D03*
X117900000Y-126700000D03*
X119100000Y-129500000D03*
X119100000Y-126700000D03*
X115000000Y-128100000D03*
X113600000Y-116500000D03*
X114700000Y-115300000D03*
X117500000Y-115300000D03*
X118600000Y-116500000D03*
X113600000Y-119500000D03*
X114700000Y-120700000D03*
X118600000Y-119200000D03*
X117700000Y-120800000D03*
X119300000Y-120900000D03*
X115100000Y-137500000D03*
X124900000Y-134400000D03*
X123400000Y-134400000D03*
X120600000Y-134400000D03*
X65600000Y-139100000D03*
D22*
X50400000Y-124700000D03*
D23*
X65300000Y-138000000D03*
D21*
X69200000Y-135900000D03*
X100000000Y-110000000D03*
X111800000Y-128700000D03*
X100200000Y-131800000D03*
X121500000Y-129700000D03*
X43500000Y-132500000D03*
X70600000Y-110700000D03*
D22*
X69400000Y-144200000D03*
X44300000Y-135700000D03*
X41100000Y-125000000D03*
D24*
X113800000Y-132000000D03*
X98400000Y-141000000D03*
X105500000Y-132200000D03*
D21*
X72700000Y-130100000D03*
D23*
X56500000Y-109900000D03*
X61000000Y-109900000D03*
X64000000Y-109900000D03*
X69000000Y-109900000D03*
X71900000Y-109900000D03*
X80500000Y-119600000D03*
X75000000Y-118200000D03*
X72000000Y-116200000D03*
X71000000Y-122100000D03*
D21*
X69200000Y-131700000D03*
X119300000Y-139700000D03*
X106000000Y-118300000D03*
X106800000Y-119000000D03*
X122900000Y-129700000D03*
D23*
X74500000Y-112400000D03*
X74150000Y-118200000D03*
X94800000Y-126100000D03*
X93200000Y-124500000D03*
X88800000Y-121500000D03*
X88800000Y-119650000D03*
X80400000Y-121900000D03*
X83100000Y-118400000D03*
X91700000Y-120700000D03*
X82500000Y-124100000D03*
X80300000Y-123700000D03*
X85100000Y-118300000D03*
X57200000Y-136200000D03*
X88050000Y-110350000D03*
X80500000Y-126600000D03*
X71400000Y-113700000D03*
X79500000Y-125850000D03*
X71200000Y-136800000D03*
X76500000Y-127350000D03*
X64900000Y-114150000D03*
X70200000Y-137500000D03*
X74400000Y-132900000D03*
X72300000Y-132900000D03*
X65700000Y-113950000D03*
X68100000Y-126600000D03*
X67500000Y-114150000D03*
X68400000Y-125600000D03*
X67600000Y-125200000D03*
X66700000Y-113800000D03*
D25*
G36*
X136425000Y-103276422D02*
X136425000Y-112474124D01*
X136403139Y-111960709D01*
X136187960Y-111441220D01*
X135966233Y-111260899D01*
X134832132Y-112395000D01*
X135966233Y-113529101D01*
X136187960Y-113348780D01*
X136425000Y-112699701D01*
X136425000Y-117554124D01*
X136403139Y-117040709D01*
X136187960Y-116521220D01*
X135966233Y-116340899D01*
X134832132Y-117475000D01*
X135966233Y-118609101D01*
X136187960Y-118428780D01*
X136425000Y-117779701D01*
X136425000Y-134699124D01*
X136403139Y-134185709D01*
X136187960Y-133666220D01*
X135966233Y-133485899D01*
X134832132Y-134620000D01*
X135966233Y-135754101D01*
X136187960Y-135573780D01*
X136425000Y-134924701D01*
X136425000Y-139779124D01*
X136403139Y-139265709D01*
X136187960Y-138746220D01*
X135966233Y-138565899D01*
X134832132Y-139700000D01*
X135966233Y-140834101D01*
X136187960Y-140653780D01*
X136425000Y-140004701D01*
X136425000Y-150723578D01*
X135483578Y-151665000D01*
X37236422Y-151665000D01*
X36295000Y-150723578D01*
X36295000Y-150471314D01*
X37700818Y-150471314D01*
X38185869Y-150953017D01*
X39762974Y-151615626D01*
X41473598Y-151624264D01*
X43057315Y-150977617D01*
X43094131Y-150953017D01*
X43579182Y-150471314D01*
X40640000Y-147532132D01*
X37700818Y-150471314D01*
X36295000Y-150471314D01*
X36295000Y-148153598D01*
X36335736Y-148153598D01*
X36982383Y-149737315D01*
X37006983Y-149774131D01*
X37488686Y-150259182D01*
X40427868Y-147320000D01*
X40852132Y-147320000D01*
X43791314Y-150259182D01*
X44273017Y-149774131D01*
X44663804Y-148844000D01*
X47039544Y-148844000D01*
X47039544Y-150876000D01*
X47063949Y-151005702D01*
X47140603Y-151124825D01*
X47257563Y-151204741D01*
X47396400Y-151232856D01*
X49123600Y-151232856D01*
X49253302Y-151208451D01*
X49372425Y-151131797D01*
X49452341Y-151014837D01*
X49480456Y-150876000D01*
X49480456Y-150192081D01*
X49650198Y-150192081D01*
X49806482Y-150618414D01*
X50114021Y-150952487D01*
X50471338Y-151128620D01*
X50650000Y-151090616D01*
X50650000Y-150010000D01*
X50950000Y-150010000D01*
X50950000Y-151090616D01*
X51128662Y-151128620D01*
X51485979Y-150952487D01*
X51793518Y-150618414D01*
X51949802Y-150192081D01*
X51888754Y-150010000D01*
X50950000Y-150010000D01*
X50650000Y-150010000D01*
X49711246Y-150010000D01*
X49650198Y-150192081D01*
X49480456Y-150192081D01*
X49480456Y-149527919D01*
X49650198Y-149527919D01*
X49711246Y-149710000D01*
X50650000Y-149710000D01*
X50650000Y-148629384D01*
X50950000Y-148629384D01*
X50950000Y-149710000D01*
X51888754Y-149710000D01*
X51898531Y-149680838D01*
X52126400Y-149680838D01*
X52126400Y-150039162D01*
X52218780Y-150503587D01*
X52481855Y-150897307D01*
X52875575Y-151160382D01*
X53340000Y-151252762D01*
X53804425Y-151160382D01*
X54198145Y-150897307D01*
X54461220Y-150503587D01*
X54553600Y-150039162D01*
X54553600Y-149680838D01*
X54666400Y-149680838D01*
X54666400Y-150039162D01*
X54758780Y-150503587D01*
X55021855Y-150897307D01*
X55415575Y-151160382D01*
X55880000Y-151252762D01*
X56344425Y-151160382D01*
X56738145Y-150897307D01*
X57001220Y-150503587D01*
X57093600Y-150039162D01*
X57093600Y-149680838D01*
X57206400Y-149680838D01*
X57206400Y-150039162D01*
X57298780Y-150503587D01*
X57561855Y-150897307D01*
X57955575Y-151160382D01*
X58420000Y-151252762D01*
X58884425Y-151160382D01*
X59278145Y-150897307D01*
X59541220Y-150503587D01*
X59633600Y-150039162D01*
X59633600Y-149680838D01*
X59746400Y-149680838D01*
X59746400Y-150039162D01*
X59838780Y-150503587D01*
X60101855Y-150897307D01*
X60495575Y-151160382D01*
X60960000Y-151252762D01*
X61424425Y-151160382D01*
X61818145Y-150897307D01*
X62081220Y-150503587D01*
X62173600Y-150039162D01*
X62173600Y-149680838D01*
X62286400Y-149680838D01*
X62286400Y-150039162D01*
X62378780Y-150503587D01*
X62641855Y-150897307D01*
X63035575Y-151160382D01*
X63500000Y-151252762D01*
X63964425Y-151160382D01*
X64358145Y-150897307D01*
X64621220Y-150503587D01*
X64713600Y-150039162D01*
X64713600Y-149680838D01*
X64826400Y-149680838D01*
X64826400Y-150039162D01*
X64918780Y-150503587D01*
X65181855Y-150897307D01*
X65575575Y-151160382D01*
X66040000Y-151252762D01*
X66504425Y-151160382D01*
X66898145Y-150897307D01*
X67161220Y-150503587D01*
X67253600Y-150039162D01*
X67253600Y-149680838D01*
X67366400Y-149680838D01*
X67366400Y-150039162D01*
X67458780Y-150503587D01*
X67721855Y-150897307D01*
X68115575Y-151160382D01*
X68580000Y-151252762D01*
X69044425Y-151160382D01*
X69438145Y-150897307D01*
X69701220Y-150503587D01*
X69763182Y-150192081D01*
X69970198Y-150192081D01*
X70126482Y-150618414D01*
X70434021Y-150952487D01*
X70791338Y-151128620D01*
X70970000Y-151090616D01*
X70970000Y-150010000D01*
X71270000Y-150010000D01*
X71270000Y-151090616D01*
X71448662Y-151128620D01*
X71805979Y-150952487D01*
X72113518Y-150618414D01*
X72269802Y-150192081D01*
X72208754Y-150010000D01*
X71270000Y-150010000D01*
X70970000Y-150010000D01*
X70031246Y-150010000D01*
X69970198Y-150192081D01*
X69763182Y-150192081D01*
X69793600Y-150039162D01*
X69793600Y-149680838D01*
X69763183Y-149527919D01*
X69970198Y-149527919D01*
X70031246Y-149710000D01*
X70970000Y-149710000D01*
X70970000Y-148629384D01*
X71270000Y-148629384D01*
X71270000Y-149710000D01*
X72208754Y-149710000D01*
X72218531Y-149680838D01*
X77526400Y-149680838D01*
X77526400Y-150039162D01*
X77618780Y-150503587D01*
X77881855Y-150897307D01*
X78275575Y-151160382D01*
X78740000Y-151252762D01*
X79204425Y-151160382D01*
X79598145Y-150897307D01*
X79861220Y-150503587D01*
X79953600Y-150039162D01*
X79953600Y-149680838D01*
X80066400Y-149680838D01*
X80066400Y-150039162D01*
X80158780Y-150503587D01*
X80421855Y-150897307D01*
X80815575Y-151160382D01*
X81280000Y-151252762D01*
X81744425Y-151160382D01*
X82138145Y-150897307D01*
X82401220Y-150503587D01*
X82493600Y-150039162D01*
X82493600Y-149680838D01*
X82606400Y-149680838D01*
X82606400Y-150039162D01*
X82698780Y-150503587D01*
X82961855Y-150897307D01*
X83355575Y-151160382D01*
X83820000Y-151252762D01*
X84284425Y-151160382D01*
X84678145Y-150897307D01*
X84941220Y-150503587D01*
X85033600Y-150039162D01*
X85033600Y-149680838D01*
X85146400Y-149680838D01*
X85146400Y-150039162D01*
X85238780Y-150503587D01*
X85501855Y-150897307D01*
X85895575Y-151160382D01*
X86360000Y-151252762D01*
X86824425Y-151160382D01*
X87218145Y-150897307D01*
X87481220Y-150503587D01*
X87573600Y-150039162D01*
X87573600Y-149680838D01*
X87686400Y-149680838D01*
X87686400Y-150039162D01*
X87778780Y-150503587D01*
X88041855Y-150897307D01*
X88435575Y-151160382D01*
X88900000Y-151252762D01*
X89364425Y-151160382D01*
X89758145Y-150897307D01*
X90021220Y-150503587D01*
X90104482Y-150085000D01*
X90276400Y-150085000D01*
X90276400Y-150935674D01*
X90322072Y-151045937D01*
X90406464Y-151130328D01*
X90516727Y-151176000D01*
X91215000Y-151176000D01*
X91290000Y-151101000D01*
X91290000Y-150010000D01*
X91590000Y-150010000D01*
X91590000Y-151101000D01*
X91665000Y-151176000D01*
X92363273Y-151176000D01*
X92473536Y-151130328D01*
X92557928Y-151045937D01*
X92603600Y-150935674D01*
X92603600Y-150471314D01*
X129140818Y-150471314D01*
X129625869Y-150953017D01*
X131202974Y-151615626D01*
X132913598Y-151624264D01*
X134497315Y-150977617D01*
X134534131Y-150953017D01*
X135019182Y-150471314D01*
X132080000Y-147532132D01*
X129140818Y-150471314D01*
X92603600Y-150471314D01*
X92603600Y-150085000D01*
X92528600Y-150010000D01*
X91590000Y-150010000D01*
X91290000Y-150010000D01*
X90351400Y-150010000D01*
X90276400Y-150085000D01*
X90104482Y-150085000D01*
X90113600Y-150039162D01*
X90113600Y-149680838D01*
X90021220Y-149216413D01*
X89758145Y-148822693D01*
X89700725Y-148784326D01*
X90276400Y-148784326D01*
X90276400Y-149635000D01*
X90351400Y-149710000D01*
X91290000Y-149710000D01*
X91290000Y-148619000D01*
X91590000Y-148619000D01*
X91590000Y-149710000D01*
X92528600Y-149710000D01*
X92603600Y-149635000D01*
X92603600Y-148784326D01*
X92557928Y-148674063D01*
X92473536Y-148589672D01*
X92363273Y-148544000D01*
X91665000Y-148544000D01*
X91590000Y-148619000D01*
X91290000Y-148619000D01*
X91215000Y-148544000D01*
X90516727Y-148544000D01*
X90406464Y-148589672D01*
X90322072Y-148674063D01*
X90276400Y-148784326D01*
X89700725Y-148784326D01*
X89364425Y-148559618D01*
X88900000Y-148467238D01*
X88435575Y-148559618D01*
X88041855Y-148822693D01*
X87778780Y-149216413D01*
X87686400Y-149680838D01*
X87573600Y-149680838D01*
X87481220Y-149216413D01*
X87218145Y-148822693D01*
X86824425Y-148559618D01*
X86360000Y-148467238D01*
X85895575Y-148559618D01*
X85501855Y-148822693D01*
X85238780Y-149216413D01*
X85146400Y-149680838D01*
X85033600Y-149680838D01*
X84941220Y-149216413D01*
X84678145Y-148822693D01*
X84284425Y-148559618D01*
X83820000Y-148467238D01*
X83355575Y-148559618D01*
X82961855Y-148822693D01*
X82698780Y-149216413D01*
X82606400Y-149680838D01*
X82493600Y-149680838D01*
X82401220Y-149216413D01*
X82138145Y-148822693D01*
X81744425Y-148559618D01*
X81280000Y-148467238D01*
X80815575Y-148559618D01*
X80421855Y-148822693D01*
X80158780Y-149216413D01*
X80066400Y-149680838D01*
X79953600Y-149680838D01*
X79861220Y-149216413D01*
X79598145Y-148822693D01*
X79204425Y-148559618D01*
X78740000Y-148467238D01*
X78275575Y-148559618D01*
X77881855Y-148822693D01*
X77618780Y-149216413D01*
X77526400Y-149680838D01*
X72218531Y-149680838D01*
X72269802Y-149527919D01*
X72113518Y-149101586D01*
X71805979Y-148767513D01*
X71448662Y-148591380D01*
X71270000Y-148629384D01*
X70970000Y-148629384D01*
X70791338Y-148591380D01*
X70434021Y-148767513D01*
X70126482Y-149101586D01*
X69970198Y-149527919D01*
X69763183Y-149527919D01*
X69701220Y-149216413D01*
X69438145Y-148822693D01*
X69044425Y-148559618D01*
X68580000Y-148467238D01*
X68115575Y-148559618D01*
X67721855Y-148822693D01*
X67458780Y-149216413D01*
X67366400Y-149680838D01*
X67253600Y-149680838D01*
X67161220Y-149216413D01*
X66898145Y-148822693D01*
X66504425Y-148559618D01*
X66040000Y-148467238D01*
X65575575Y-148559618D01*
X65181855Y-148822693D01*
X64918780Y-149216413D01*
X64826400Y-149680838D01*
X64713600Y-149680838D01*
X64621220Y-149216413D01*
X64358145Y-148822693D01*
X63964425Y-148559618D01*
X63500000Y-148467238D01*
X63035575Y-148559618D01*
X62641855Y-148822693D01*
X62378780Y-149216413D01*
X62286400Y-149680838D01*
X62173600Y-149680838D01*
X62081220Y-149216413D01*
X61818145Y-148822693D01*
X61424425Y-148559618D01*
X60960000Y-148467238D01*
X60495575Y-148559618D01*
X60101855Y-148822693D01*
X59838780Y-149216413D01*
X59746400Y-149680838D01*
X59633600Y-149680838D01*
X59541220Y-149216413D01*
X59278145Y-148822693D01*
X58884425Y-148559618D01*
X58420000Y-148467238D01*
X57955575Y-148559618D01*
X57561855Y-148822693D01*
X57298780Y-149216413D01*
X57206400Y-149680838D01*
X57093600Y-149680838D01*
X57001220Y-149216413D01*
X56738145Y-148822693D01*
X56344425Y-148559618D01*
X55880000Y-148467238D01*
X55415575Y-148559618D01*
X55021855Y-148822693D01*
X54758780Y-149216413D01*
X54666400Y-149680838D01*
X54553600Y-149680838D01*
X54461220Y-149216413D01*
X54198145Y-148822693D01*
X53804425Y-148559618D01*
X53340000Y-148467238D01*
X52875575Y-148559618D01*
X52481855Y-148822693D01*
X52218780Y-149216413D01*
X52126400Y-149680838D01*
X51898531Y-149680838D01*
X51949802Y-149527919D01*
X51793518Y-149101586D01*
X51485979Y-148767513D01*
X51128662Y-148591380D01*
X50950000Y-148629384D01*
X50650000Y-148629384D01*
X50471338Y-148591380D01*
X50114021Y-148767513D01*
X49806482Y-149101586D01*
X49650198Y-149527919D01*
X49480456Y-149527919D01*
X49480456Y-148844000D01*
X49456051Y-148714298D01*
X49379397Y-148595175D01*
X49262437Y-148515259D01*
X49123600Y-148487144D01*
X47396400Y-148487144D01*
X47266698Y-148511549D01*
X47147575Y-148588203D01*
X47067659Y-148705163D01*
X47039544Y-148844000D01*
X44663804Y-148844000D01*
X44935626Y-148197026D01*
X44935845Y-148153598D01*
X127775736Y-148153598D01*
X128422383Y-149737315D01*
X128446983Y-149774131D01*
X128928686Y-150259182D01*
X131867868Y-147320000D01*
X132292132Y-147320000D01*
X135231314Y-150259182D01*
X135713017Y-149774131D01*
X136375626Y-148197026D01*
X136384264Y-146486402D01*
X135737617Y-144902685D01*
X135713017Y-144865869D01*
X135231314Y-144380818D01*
X132292132Y-147320000D01*
X131867868Y-147320000D01*
X128928686Y-144380818D01*
X128446983Y-144865869D01*
X127784374Y-146442974D01*
X127775736Y-148153598D01*
X44935845Y-148153598D01*
X44944264Y-146486402D01*
X44297617Y-144902685D01*
X44273017Y-144865869D01*
X43791314Y-144380818D01*
X40852132Y-147320000D01*
X40427868Y-147320000D01*
X37488686Y-144380818D01*
X37006983Y-144865869D01*
X36344374Y-146442974D01*
X36335736Y-148153598D01*
X36295000Y-148153598D01*
X36295000Y-144168686D01*
X37700818Y-144168686D01*
X40640000Y-147107868D01*
X43540135Y-144207733D01*
X51004399Y-144207733D01*
X51245783Y-144481476D01*
X52099533Y-144810613D01*
X53014250Y-144787980D01*
X53754217Y-144481476D01*
X53819058Y-144407942D01*
X68349818Y-144407942D01*
X68509334Y-144794000D01*
X68804446Y-145089628D01*
X69190226Y-145249818D01*
X69607942Y-145250182D01*
X69994000Y-145090666D01*
X70289628Y-144795554D01*
X70449818Y-144409774D01*
X70449994Y-144207733D01*
X121004399Y-144207733D01*
X121245783Y-144481476D01*
X122099533Y-144810613D01*
X123014250Y-144787980D01*
X123754217Y-144481476D01*
X123995601Y-144207733D01*
X123956554Y-144168686D01*
X129140818Y-144168686D01*
X132080000Y-147107868D01*
X135019182Y-144168686D01*
X134534131Y-143686983D01*
X132957026Y-143024374D01*
X131246402Y-143015736D01*
X129662685Y-143662383D01*
X129625869Y-143686983D01*
X129140818Y-144168686D01*
X123956554Y-144168686D01*
X122500000Y-142712132D01*
X121004399Y-144207733D01*
X70449994Y-144207733D01*
X70450182Y-143992058D01*
X70290666Y-143606000D01*
X69995554Y-143310372D01*
X69609774Y-143150182D01*
X69192058Y-143149818D01*
X68806000Y-143309334D01*
X68510372Y-143604446D01*
X68350182Y-143990226D01*
X68349818Y-144407942D01*
X53819058Y-144407942D01*
X53995601Y-144207733D01*
X52500000Y-142712132D01*
X51004399Y-144207733D01*
X43540135Y-144207733D01*
X43579182Y-144168686D01*
X43094131Y-143686983D01*
X41517026Y-143024374D01*
X39806402Y-143015736D01*
X38222685Y-143662383D01*
X38185869Y-143686983D01*
X37700818Y-144168686D01*
X36295000Y-144168686D01*
X36295000Y-142099533D01*
X50189387Y-142099533D01*
X50212020Y-143014250D01*
X50518524Y-143754217D01*
X50792267Y-143995601D01*
X52287868Y-142500000D01*
X52712132Y-142500000D01*
X54207733Y-143995601D01*
X54481476Y-143754217D01*
X54810613Y-142900467D01*
X54790796Y-142099533D01*
X120189387Y-142099533D01*
X120212020Y-143014250D01*
X120518524Y-143754217D01*
X120792267Y-143995601D01*
X122287868Y-142500000D01*
X122712132Y-142500000D01*
X124207733Y-143995601D01*
X124481476Y-143754217D01*
X124810613Y-142900467D01*
X124787980Y-141985750D01*
X124481476Y-141245783D01*
X124255176Y-141046233D01*
X128405899Y-141046233D01*
X128586220Y-141267960D01*
X129258854Y-141513602D01*
X129974291Y-141483139D01*
X130493780Y-141267960D01*
X130674101Y-141046233D01*
X133485899Y-141046233D01*
X133666220Y-141267960D01*
X134338854Y-141513602D01*
X135054291Y-141483139D01*
X135573780Y-141267960D01*
X135754101Y-141046233D01*
X134620000Y-139912132D01*
X133485899Y-141046233D01*
X130674101Y-141046233D01*
X129540000Y-139912132D01*
X128405899Y-141046233D01*
X124255176Y-141046233D01*
X124207733Y-141004399D01*
X122712132Y-142500000D01*
X122287868Y-142500000D01*
X120792267Y-141004399D01*
X120518524Y-141245783D01*
X120189387Y-142099533D01*
X54790796Y-142099533D01*
X54787980Y-141985750D01*
X54481476Y-141245783D01*
X54393645Y-141168334D01*
X97549853Y-141168334D01*
X97678985Y-141480857D01*
X97917885Y-141720174D01*
X98230183Y-141849852D01*
X98568334Y-141850147D01*
X98880857Y-141721015D01*
X99120174Y-141482115D01*
X99249852Y-141169817D01*
X99250147Y-140831666D01*
X99233868Y-140792267D01*
X121004399Y-140792267D01*
X122500000Y-142287868D01*
X123995601Y-140792267D01*
X123754217Y-140518524D01*
X122900467Y-140189387D01*
X121985750Y-140212020D01*
X121245783Y-140518524D01*
X121004399Y-140792267D01*
X99233868Y-140792267D01*
X99121015Y-140519143D01*
X98882115Y-140279826D01*
X98569817Y-140150148D01*
X98231666Y-140149853D01*
X97919143Y-140278985D01*
X97679826Y-140517885D01*
X97550148Y-140830183D01*
X97549853Y-141168334D01*
X54393645Y-141168334D01*
X54207733Y-141004399D01*
X52712132Y-142500000D01*
X52287868Y-142500000D01*
X50792267Y-141004399D01*
X50518524Y-141245783D01*
X50189387Y-142099533D01*
X36295000Y-142099533D01*
X36295000Y-140028662D01*
X36831380Y-140028662D01*
X37007513Y-140385979D01*
X37341586Y-140693518D01*
X37767919Y-140849802D01*
X37950000Y-140788754D01*
X37950000Y-139850000D01*
X38250000Y-139850000D01*
X38250000Y-140788754D01*
X38432081Y-140849802D01*
X38589032Y-140792267D01*
X51004399Y-140792267D01*
X52500000Y-142287868D01*
X53995601Y-140792267D01*
X53754217Y-140518524D01*
X52900467Y-140189387D01*
X51985750Y-140212020D01*
X51245783Y-140518524D01*
X51004399Y-140792267D01*
X38589032Y-140792267D01*
X38858414Y-140693518D01*
X39192487Y-140385979D01*
X39368620Y-140028662D01*
X39330616Y-139850000D01*
X38250000Y-139850000D01*
X37950000Y-139850000D01*
X36869384Y-139850000D01*
X36831380Y-140028662D01*
X36295000Y-140028662D01*
X36295000Y-139371338D01*
X36831380Y-139371338D01*
X36869384Y-139550000D01*
X37950000Y-139550000D01*
X37950000Y-138611246D01*
X38250000Y-138611246D01*
X38250000Y-139550000D01*
X39330616Y-139550000D01*
X39368620Y-139371338D01*
X39192487Y-139014021D01*
X38858414Y-138706482D01*
X38432081Y-138550198D01*
X38250000Y-138611246D01*
X37950000Y-138611246D01*
X37767919Y-138550198D01*
X37341586Y-138706482D01*
X37007513Y-139014021D01*
X36831380Y-139371338D01*
X36295000Y-139371338D01*
X36295000Y-137488662D01*
X36831380Y-137488662D01*
X37007513Y-137845979D01*
X37341586Y-138153518D01*
X37767919Y-138309802D01*
X37950000Y-138248754D01*
X37950000Y-137310000D01*
X38250000Y-137310000D01*
X38250000Y-138248754D01*
X38432081Y-138309802D01*
X38858414Y-138153518D01*
X39101216Y-137930000D01*
X58992624Y-137930000D01*
X59085004Y-138394425D01*
X59348079Y-138788145D01*
X59741799Y-139051220D01*
X60206224Y-139143600D01*
X60253776Y-139143600D01*
X60718201Y-139051220D01*
X61111921Y-138788145D01*
X61374996Y-138394425D01*
X61467376Y-137930000D01*
X61532624Y-137930000D01*
X61625004Y-138394425D01*
X61888079Y-138788145D01*
X62281799Y-139051220D01*
X62746224Y-139143600D01*
X62793776Y-139143600D01*
X63258201Y-139051220D01*
X63651921Y-138788145D01*
X63914996Y-138394425D01*
X63967846Y-138128726D01*
X64649888Y-138128726D01*
X64748636Y-138367714D01*
X64931324Y-138550722D01*
X65042434Y-138596859D01*
X64964552Y-138674605D01*
X64850131Y-138950161D01*
X64849870Y-139248530D01*
X64963811Y-139524286D01*
X65174605Y-139735448D01*
X65450161Y-139849869D01*
X65748530Y-139850130D01*
X65752402Y-139848530D01*
X118549870Y-139848530D01*
X118663811Y-140124286D01*
X118874605Y-140335448D01*
X119150161Y-140449869D01*
X119448530Y-140450130D01*
X119724286Y-140336189D01*
X119935448Y-140125395D01*
X120049869Y-139849839D01*
X120050130Y-139551470D01*
X119995334Y-139418854D01*
X127726398Y-139418854D01*
X127756861Y-140134291D01*
X127972040Y-140653780D01*
X128193767Y-140834101D01*
X129327868Y-139700000D01*
X129752132Y-139700000D01*
X130886233Y-140834101D01*
X131107960Y-140653780D01*
X131353602Y-139981146D01*
X131329660Y-139418854D01*
X132806398Y-139418854D01*
X132836861Y-140134291D01*
X133052040Y-140653780D01*
X133273767Y-140834101D01*
X134407868Y-139700000D01*
X133273767Y-138565899D01*
X133052040Y-138746220D01*
X132806398Y-139418854D01*
X131329660Y-139418854D01*
X131323139Y-139265709D01*
X131107960Y-138746220D01*
X130886233Y-138565899D01*
X129752132Y-139700000D01*
X129327868Y-139700000D01*
X128193767Y-138565899D01*
X127972040Y-138746220D01*
X127726398Y-139418854D01*
X119995334Y-139418854D01*
X119936189Y-139275714D01*
X119725395Y-139064552D01*
X119449839Y-138950131D01*
X119151470Y-138949870D01*
X118875714Y-139063811D01*
X118664552Y-139274605D01*
X118550131Y-139550161D01*
X118549870Y-139848530D01*
X65752402Y-139848530D01*
X66024286Y-139736189D01*
X66235448Y-139525395D01*
X66349869Y-139249839D01*
X66350130Y-138951470D01*
X66236189Y-138675714D01*
X66025395Y-138464552D01*
X65834206Y-138385163D01*
X65850722Y-138368676D01*
X65856912Y-138353767D01*
X128405899Y-138353767D01*
X129540000Y-139487868D01*
X130674101Y-138353767D01*
X130493780Y-138132040D01*
X129821146Y-137886398D01*
X129105709Y-137916861D01*
X128586220Y-138132040D01*
X128405899Y-138353767D01*
X65856912Y-138353767D01*
X65949887Y-138129860D01*
X65950112Y-137871274D01*
X65851364Y-137632286D01*
X65847811Y-137628726D01*
X69549888Y-137628726D01*
X69648636Y-137867714D01*
X69831324Y-138050722D01*
X70070140Y-138149887D01*
X70328726Y-138150112D01*
X70567714Y-138051364D01*
X70750722Y-137868676D01*
X70849887Y-137629860D01*
X70850011Y-137486765D01*
X130429715Y-137486765D01*
X130680383Y-138093429D01*
X131144130Y-138557986D01*
X131750355Y-138809713D01*
X132406765Y-138810285D01*
X133013429Y-138559617D01*
X133219638Y-138353767D01*
X133485899Y-138353767D01*
X134620000Y-139487868D01*
X135754101Y-138353767D01*
X135573780Y-138132040D01*
X134901146Y-137886398D01*
X134185709Y-137916861D01*
X133666220Y-138132040D01*
X133485899Y-138353767D01*
X133219638Y-138353767D01*
X133477986Y-138095870D01*
X133729713Y-137489645D01*
X133730285Y-136833235D01*
X133479617Y-136226571D01*
X133219733Y-135966233D01*
X133485899Y-135966233D01*
X133666220Y-136187960D01*
X134338854Y-136433602D01*
X135054291Y-136403139D01*
X135573780Y-136187960D01*
X135754101Y-135966233D01*
X134620000Y-134832132D01*
X133485899Y-135966233D01*
X133219733Y-135966233D01*
X133015870Y-135762014D01*
X132409645Y-135510287D01*
X131753235Y-135509715D01*
X131146571Y-135760383D01*
X130682014Y-136224130D01*
X130430287Y-136830355D01*
X130429715Y-137486765D01*
X70850011Y-137486765D01*
X70850112Y-137371274D01*
X70843752Y-137355883D01*
X71070140Y-137449887D01*
X71328726Y-137450112D01*
X71567714Y-137351364D01*
X71750722Y-137168676D01*
X71849887Y-136929860D01*
X71850112Y-136671274D01*
X71751364Y-136432286D01*
X71568676Y-136249278D01*
X71329860Y-136150113D01*
X71071274Y-136149888D01*
X70832286Y-136248636D01*
X70649278Y-136431324D01*
X70550113Y-136670140D01*
X70549888Y-136928726D01*
X70556248Y-136944117D01*
X70329860Y-136850113D01*
X70071274Y-136849888D01*
X69832286Y-136948636D01*
X69649278Y-137131324D01*
X69550113Y-137370140D01*
X69549888Y-137628726D01*
X65847811Y-137628726D01*
X65668676Y-137449278D01*
X65429860Y-137350113D01*
X65171274Y-137349888D01*
X64932286Y-137448636D01*
X64749278Y-137631324D01*
X64650113Y-137870140D01*
X64649888Y-138128726D01*
X63967846Y-138128726D01*
X64007376Y-137930000D01*
X63914996Y-137465575D01*
X63651921Y-137071855D01*
X63258201Y-136808780D01*
X62793776Y-136716400D01*
X62746224Y-136716400D01*
X62281799Y-136808780D01*
X61888079Y-137071855D01*
X61625004Y-137465575D01*
X61532624Y-137930000D01*
X61467376Y-137930000D01*
X61374996Y-137465575D01*
X61111921Y-137071855D01*
X60718201Y-136808780D01*
X60253776Y-136716400D01*
X60206224Y-136716400D01*
X59741799Y-136808780D01*
X59348079Y-137071855D01*
X59085004Y-137465575D01*
X58992624Y-137930000D01*
X39101216Y-137930000D01*
X39192487Y-137845979D01*
X39368620Y-137488662D01*
X39330616Y-137310000D01*
X38250000Y-137310000D01*
X37950000Y-137310000D01*
X36869384Y-137310000D01*
X36831380Y-137488662D01*
X36295000Y-137488662D01*
X36295000Y-136831338D01*
X36831380Y-136831338D01*
X36869384Y-137010000D01*
X37950000Y-137010000D01*
X37950000Y-136071246D01*
X38250000Y-136071246D01*
X38250000Y-137010000D01*
X39330616Y-137010000D01*
X39368620Y-136831338D01*
X39192487Y-136474021D01*
X38858414Y-136166482D01*
X38432081Y-136010198D01*
X38250000Y-136071246D01*
X37950000Y-136071246D01*
X37767919Y-136010198D01*
X37341586Y-136166482D01*
X37007513Y-136474021D01*
X36831380Y-136831338D01*
X36295000Y-136831338D01*
X36295000Y-135907942D01*
X43249818Y-135907942D01*
X43409334Y-136294000D01*
X43704446Y-136589628D01*
X44090226Y-136749818D01*
X44507942Y-136750182D01*
X44894000Y-136590666D01*
X45156397Y-136328726D01*
X56549888Y-136328726D01*
X56648636Y-136567714D01*
X56831324Y-136750722D01*
X57070140Y-136849887D01*
X57328726Y-136850112D01*
X57567714Y-136751364D01*
X57750722Y-136568676D01*
X57849887Y-136329860D01*
X57850112Y-136071274D01*
X57751364Y-135832286D01*
X57568676Y-135649278D01*
X57329860Y-135550113D01*
X57071274Y-135549888D01*
X56832286Y-135648636D01*
X56649278Y-135831324D01*
X56550113Y-136070140D01*
X56549888Y-136328726D01*
X45156397Y-136328726D01*
X45189628Y-136295554D01*
X45349818Y-135909774D01*
X45350182Y-135492058D01*
X45308013Y-135390000D01*
X58992624Y-135390000D01*
X59085004Y-135854425D01*
X59348079Y-136248145D01*
X59741799Y-136511220D01*
X60206224Y-136603600D01*
X60253776Y-136603600D01*
X60718201Y-136511220D01*
X61111921Y-136248145D01*
X61374996Y-135854425D01*
X61467376Y-135390000D01*
X61532624Y-135390000D01*
X61625004Y-135854425D01*
X61888079Y-136248145D01*
X62281799Y-136511220D01*
X62746224Y-136603600D01*
X62793776Y-136603600D01*
X63258201Y-136511220D01*
X63651921Y-136248145D01*
X63785299Y-136048530D01*
X68449870Y-136048530D01*
X68563811Y-136324286D01*
X68774605Y-136535448D01*
X69050161Y-136649869D01*
X69348530Y-136650130D01*
X69624286Y-136536189D01*
X69835448Y-136325395D01*
X69949869Y-136049839D01*
X69949942Y-135966233D01*
X128405899Y-135966233D01*
X128586220Y-136187960D01*
X129258854Y-136433602D01*
X129974291Y-136403139D01*
X130493780Y-136187960D01*
X130674101Y-135966233D01*
X129540000Y-134832132D01*
X128405899Y-135966233D01*
X69949942Y-135966233D01*
X69950130Y-135751470D01*
X69836189Y-135475714D01*
X69625395Y-135264552D01*
X69349839Y-135150131D01*
X69051470Y-135149870D01*
X68775714Y-135263811D01*
X68564552Y-135474605D01*
X68450131Y-135750161D01*
X68449870Y-136048530D01*
X63785299Y-136048530D01*
X63914996Y-135854425D01*
X64007376Y-135390000D01*
X63914996Y-134925575D01*
X63651921Y-134531855D01*
X63363075Y-134338854D01*
X127726398Y-134338854D01*
X127756861Y-135054291D01*
X127972040Y-135573780D01*
X128193767Y-135754101D01*
X129327868Y-134620000D01*
X129752132Y-134620000D01*
X130886233Y-135754101D01*
X131107960Y-135573780D01*
X131353602Y-134901146D01*
X131329660Y-134338854D01*
X132806398Y-134338854D01*
X132836861Y-135054291D01*
X133052040Y-135573780D01*
X133273767Y-135754101D01*
X134407868Y-134620000D01*
X133273767Y-133485899D01*
X133052040Y-133666220D01*
X132806398Y-134338854D01*
X131329660Y-134338854D01*
X131323139Y-134185709D01*
X131107960Y-133666220D01*
X130886233Y-133485899D01*
X129752132Y-134620000D01*
X129327868Y-134620000D01*
X128193767Y-133485899D01*
X127972040Y-133666220D01*
X127726398Y-134338854D01*
X63363075Y-134338854D01*
X63258201Y-134268780D01*
X62793776Y-134176400D01*
X62746224Y-134176400D01*
X62281799Y-134268780D01*
X61888079Y-134531855D01*
X61625004Y-134925575D01*
X61532624Y-135390000D01*
X61467376Y-135390000D01*
X61374996Y-134925575D01*
X61111921Y-134531855D01*
X60718201Y-134268780D01*
X60253776Y-134176400D01*
X60206224Y-134176400D01*
X59741799Y-134268780D01*
X59348079Y-134531855D01*
X59085004Y-134925575D01*
X58992624Y-135390000D01*
X45308013Y-135390000D01*
X45190666Y-135106000D01*
X44895554Y-134810372D01*
X44509774Y-134650182D01*
X44092058Y-134649818D01*
X43706000Y-134809334D01*
X43410372Y-135104446D01*
X43250182Y-135490226D01*
X43249818Y-135907942D01*
X36295000Y-135907942D01*
X36295000Y-134620000D01*
X36707238Y-134620000D01*
X36799618Y-135084425D01*
X37062693Y-135478145D01*
X37456413Y-135741220D01*
X37920838Y-135833600D01*
X38279162Y-135833600D01*
X38743587Y-135741220D01*
X39137307Y-135478145D01*
X39400382Y-135084425D01*
X39492762Y-134620000D01*
X39400382Y-134155575D01*
X39137307Y-133761855D01*
X38743587Y-133498780D01*
X38279162Y-133406400D01*
X37920838Y-133406400D01*
X37456413Y-133498780D01*
X37062693Y-133761855D01*
X36799618Y-134155575D01*
X36707238Y-134620000D01*
X36295000Y-134620000D01*
X36295000Y-132080000D01*
X36707238Y-132080000D01*
X36799618Y-132544425D01*
X37062693Y-132938145D01*
X37456413Y-133201220D01*
X37920838Y-133293600D01*
X38279162Y-133293600D01*
X38743587Y-133201220D01*
X39137307Y-132938145D01*
X39330821Y-132648530D01*
X42749870Y-132648530D01*
X42863811Y-132924286D01*
X43074605Y-133135448D01*
X43350161Y-133249869D01*
X43648530Y-133250130D01*
X43924286Y-133136189D01*
X44135448Y-132925395D01*
X44166754Y-132850000D01*
X58992624Y-132850000D01*
X59085004Y-133314425D01*
X59348079Y-133708145D01*
X59741799Y-133971220D01*
X60206224Y-134063600D01*
X60253776Y-134063600D01*
X60718201Y-133971220D01*
X61111921Y-133708145D01*
X61374996Y-133314425D01*
X61467376Y-132850000D01*
X61532624Y-132850000D01*
X61625004Y-133314425D01*
X61888079Y-133708145D01*
X62281799Y-133971220D01*
X62746224Y-134063600D01*
X62793776Y-134063600D01*
X63258201Y-133971220D01*
X63651921Y-133708145D01*
X63914996Y-133314425D01*
X63971825Y-133028726D01*
X71649888Y-133028726D01*
X71748636Y-133267714D01*
X71931324Y-133450722D01*
X72170140Y-133549887D01*
X72428726Y-133550112D01*
X72667714Y-133451364D01*
X72850722Y-133268676D01*
X72949887Y-133029860D01*
X72949887Y-133028726D01*
X73749888Y-133028726D01*
X73848636Y-133267714D01*
X74031324Y-133450722D01*
X74270140Y-133549887D01*
X74528726Y-133550112D01*
X74767714Y-133451364D01*
X74945622Y-133273767D01*
X128405899Y-133273767D01*
X129540000Y-134407868D01*
X130674101Y-133273767D01*
X133485899Y-133273767D01*
X134620000Y-134407868D01*
X135754101Y-133273767D01*
X135573780Y-133052040D01*
X134901146Y-132806398D01*
X134185709Y-132836861D01*
X133666220Y-133052040D01*
X133485899Y-133273767D01*
X130674101Y-133273767D01*
X130493780Y-133052040D01*
X129821146Y-132806398D01*
X129105709Y-132836861D01*
X128586220Y-133052040D01*
X128405899Y-133273767D01*
X74945622Y-133273767D01*
X74950722Y-133268676D01*
X75049887Y-133029860D01*
X75050112Y-132771274D01*
X74951364Y-132532286D01*
X74768676Y-132349278D01*
X74529860Y-132250113D01*
X74271274Y-132249888D01*
X74032286Y-132348636D01*
X73849278Y-132531324D01*
X73750113Y-132770140D01*
X73749888Y-133028726D01*
X72949887Y-133028726D01*
X72950112Y-132771274D01*
X72851364Y-132532286D01*
X72668676Y-132349278D01*
X72429860Y-132250113D01*
X72171274Y-132249888D01*
X71932286Y-132348636D01*
X71749278Y-132531324D01*
X71650113Y-132770140D01*
X71649888Y-133028726D01*
X63971825Y-133028726D01*
X64007376Y-132850000D01*
X63914996Y-132385575D01*
X63651921Y-131991855D01*
X63437420Y-131848530D01*
X68449870Y-131848530D01*
X68563811Y-132124286D01*
X68774605Y-132335448D01*
X69050161Y-132449869D01*
X69348530Y-132450130D01*
X69624286Y-132336189D01*
X69835448Y-132125395D01*
X69908888Y-131948530D01*
X99449870Y-131948530D01*
X99563811Y-132224286D01*
X99774605Y-132435448D01*
X100050161Y-132549869D01*
X100348530Y-132550130D01*
X100624286Y-132436189D01*
X100692259Y-132368334D01*
X104649853Y-132368334D01*
X104778985Y-132680857D01*
X105017885Y-132920174D01*
X105330183Y-133049852D01*
X105668334Y-133050147D01*
X105980857Y-132921015D01*
X106220174Y-132682115D01*
X106349852Y-132369817D01*
X106350027Y-132168334D01*
X112949853Y-132168334D01*
X113078985Y-132480857D01*
X113317885Y-132720174D01*
X113630183Y-132849852D01*
X113968334Y-132850147D01*
X114280857Y-132721015D01*
X114520174Y-132482115D01*
X114649852Y-132169817D01*
X114650147Y-131831666D01*
X114521015Y-131519143D01*
X114282115Y-131279826D01*
X113969817Y-131150148D01*
X113631666Y-131149853D01*
X113319143Y-131278985D01*
X113079826Y-131517885D01*
X112950148Y-131830183D01*
X112949853Y-132168334D01*
X106350027Y-132168334D01*
X106350147Y-132031666D01*
X106221015Y-131719143D01*
X105982115Y-131479826D01*
X105669817Y-131350148D01*
X105331666Y-131349853D01*
X105019143Y-131478985D01*
X104779826Y-131717885D01*
X104650148Y-132030183D01*
X104649853Y-132368334D01*
X100692259Y-132368334D01*
X100835448Y-132225395D01*
X100949869Y-131949839D01*
X100950130Y-131651470D01*
X100836189Y-131375714D01*
X100625395Y-131164552D01*
X100349839Y-131050131D01*
X100051470Y-131049870D01*
X99775714Y-131163811D01*
X99564552Y-131374605D01*
X99450131Y-131650161D01*
X99449870Y-131948530D01*
X69908888Y-131948530D01*
X69949869Y-131849839D01*
X69950130Y-131551470D01*
X69836189Y-131275714D01*
X69625395Y-131064552D01*
X69349839Y-130950131D01*
X69051470Y-130949870D01*
X68775714Y-131063811D01*
X68564552Y-131274605D01*
X68450131Y-131550161D01*
X68449870Y-131848530D01*
X63437420Y-131848530D01*
X63258201Y-131728780D01*
X62793776Y-131636400D01*
X62746224Y-131636400D01*
X62281799Y-131728780D01*
X61888079Y-131991855D01*
X61625004Y-132385575D01*
X61532624Y-132850000D01*
X61467376Y-132850000D01*
X61374996Y-132385575D01*
X61111921Y-131991855D01*
X60718201Y-131728780D01*
X60253776Y-131636400D01*
X60206224Y-131636400D01*
X59741799Y-131728780D01*
X59348079Y-131991855D01*
X59085004Y-132385575D01*
X58992624Y-132850000D01*
X44166754Y-132850000D01*
X44249869Y-132649839D01*
X44250130Y-132351470D01*
X44136189Y-132075714D01*
X43925395Y-131864552D01*
X43649839Y-131750131D01*
X43351470Y-131749870D01*
X43075714Y-131863811D01*
X42864552Y-132074605D01*
X42750131Y-132350161D01*
X42749870Y-132648530D01*
X39330821Y-132648530D01*
X39400382Y-132544425D01*
X39492762Y-132080000D01*
X39400382Y-131615575D01*
X39137307Y-131221855D01*
X38743587Y-130958780D01*
X38279162Y-130866400D01*
X37920838Y-130866400D01*
X37456413Y-130958780D01*
X37062693Y-131221855D01*
X36799618Y-131615575D01*
X36707238Y-132080000D01*
X36295000Y-132080000D01*
X36295000Y-129868662D01*
X36831380Y-129868662D01*
X37007513Y-130225979D01*
X37341586Y-130533518D01*
X37767919Y-130689802D01*
X37950000Y-130628754D01*
X37950000Y-129690000D01*
X38250000Y-129690000D01*
X38250000Y-130628754D01*
X38432081Y-130689802D01*
X38858414Y-130533518D01*
X39101216Y-130310000D01*
X58992624Y-130310000D01*
X59085004Y-130774425D01*
X59348079Y-131168145D01*
X59741799Y-131431220D01*
X60206224Y-131523600D01*
X60253776Y-131523600D01*
X60718201Y-131431220D01*
X61111921Y-131168145D01*
X61374996Y-130774425D01*
X61467376Y-130310000D01*
X61532624Y-130310000D01*
X61625004Y-130774425D01*
X61888079Y-131168145D01*
X62281799Y-131431220D01*
X62746224Y-131523600D01*
X62793776Y-131523600D01*
X63258201Y-131431220D01*
X63651921Y-131168145D01*
X63914996Y-130774425D01*
X64007376Y-130310000D01*
X63995149Y-130248530D01*
X71949870Y-130248530D01*
X72063811Y-130524286D01*
X72274605Y-130735448D01*
X72550161Y-130849869D01*
X72848530Y-130850130D01*
X73124286Y-130736189D01*
X73335448Y-130525395D01*
X73449869Y-130249839D01*
X73450130Y-129951470D01*
X73407596Y-129848530D01*
X120749870Y-129848530D01*
X120863811Y-130124286D01*
X121074605Y-130335448D01*
X121350161Y-130449869D01*
X121648530Y-130450130D01*
X121924286Y-130336189D01*
X122135448Y-130125395D01*
X122200017Y-129969895D01*
X122263811Y-130124286D01*
X122474605Y-130335448D01*
X122750161Y-130449869D01*
X123048530Y-130450130D01*
X123324286Y-130336189D01*
X123535448Y-130125395D01*
X123649869Y-129849839D01*
X123650130Y-129551470D01*
X123536189Y-129275714D01*
X123325395Y-129064552D01*
X123049839Y-128950131D01*
X122751470Y-128949870D01*
X122475714Y-129063811D01*
X122264552Y-129274605D01*
X122199983Y-129430105D01*
X122136189Y-129275714D01*
X121925395Y-129064552D01*
X121649839Y-128950131D01*
X121351470Y-128949870D01*
X121075714Y-129063811D01*
X120864552Y-129274605D01*
X120750131Y-129550161D01*
X120749870Y-129848530D01*
X73407596Y-129848530D01*
X73336189Y-129675714D01*
X73125395Y-129464552D01*
X72849839Y-129350131D01*
X72551470Y-129349870D01*
X72275714Y-129463811D01*
X72064552Y-129674605D01*
X71950131Y-129950161D01*
X71949870Y-130248530D01*
X63995149Y-130248530D01*
X63914996Y-129845575D01*
X63651921Y-129451855D01*
X63258201Y-129188780D01*
X62793776Y-129096400D01*
X62746224Y-129096400D01*
X62281799Y-129188780D01*
X61888079Y-129451855D01*
X61625004Y-129845575D01*
X61532624Y-130310000D01*
X61467376Y-130310000D01*
X61374996Y-129845575D01*
X61111921Y-129451855D01*
X60718201Y-129188780D01*
X60253776Y-129096400D01*
X60206224Y-129096400D01*
X59741799Y-129188780D01*
X59348079Y-129451855D01*
X59085004Y-129845575D01*
X58992624Y-130310000D01*
X39101216Y-130310000D01*
X39192487Y-130225979D01*
X39368620Y-129868662D01*
X39330616Y-129690000D01*
X38250000Y-129690000D01*
X37950000Y-129690000D01*
X36869384Y-129690000D01*
X36831380Y-129868662D01*
X36295000Y-129868662D01*
X36295000Y-129211338D01*
X36831380Y-129211338D01*
X36869384Y-129390000D01*
X37950000Y-129390000D01*
X37950000Y-128451246D01*
X38250000Y-128451246D01*
X38250000Y-129390000D01*
X39330616Y-129390000D01*
X39368620Y-129211338D01*
X39192487Y-128854021D01*
X38858414Y-128546482D01*
X38432081Y-128390198D01*
X38250000Y-128451246D01*
X37950000Y-128451246D01*
X37767919Y-128390198D01*
X37341586Y-128546482D01*
X37007513Y-128854021D01*
X36831380Y-129211338D01*
X36295000Y-129211338D01*
X36295000Y-127225000D01*
X36784000Y-127225000D01*
X36784000Y-127923273D01*
X36829672Y-128033536D01*
X36914063Y-128117928D01*
X37024326Y-128163600D01*
X37875000Y-128163600D01*
X37950000Y-128088600D01*
X37950000Y-127150000D01*
X38250000Y-127150000D01*
X38250000Y-128088600D01*
X38325000Y-128163600D01*
X39175674Y-128163600D01*
X39285937Y-128117928D01*
X39370328Y-128033536D01*
X39416000Y-127923273D01*
X39416000Y-127770000D01*
X58992624Y-127770000D01*
X59085004Y-128234425D01*
X59348079Y-128628145D01*
X59741799Y-128891220D01*
X60206224Y-128983600D01*
X60253776Y-128983600D01*
X60718201Y-128891220D01*
X61111921Y-128628145D01*
X61374996Y-128234425D01*
X61467376Y-127770000D01*
X61532624Y-127770000D01*
X61625004Y-128234425D01*
X61888079Y-128628145D01*
X62281799Y-128891220D01*
X62746224Y-128983600D01*
X62793776Y-128983600D01*
X63258201Y-128891220D01*
X63322091Y-128848530D01*
X111049870Y-128848530D01*
X111163811Y-129124286D01*
X111374605Y-129335448D01*
X111650161Y-129449869D01*
X111948530Y-129450130D01*
X112224286Y-129336189D01*
X112435448Y-129125395D01*
X112549869Y-128849839D01*
X112550130Y-128551470D01*
X112436189Y-128275714D01*
X112225395Y-128064552D01*
X111949839Y-127950131D01*
X111651470Y-127949870D01*
X111375714Y-128063811D01*
X111164552Y-128274605D01*
X111050131Y-128550161D01*
X111049870Y-128848530D01*
X63322091Y-128848530D01*
X63651921Y-128628145D01*
X63914996Y-128234425D01*
X64007376Y-127770000D01*
X63949438Y-127478726D01*
X75849888Y-127478726D01*
X75948636Y-127717714D01*
X76131324Y-127900722D01*
X76370140Y-127999887D01*
X76628726Y-128000112D01*
X76867714Y-127901364D01*
X77050722Y-127718676D01*
X77149887Y-127479860D01*
X77150112Y-127221274D01*
X77051364Y-126982286D01*
X76868676Y-126799278D01*
X76629860Y-126700113D01*
X76371274Y-126699888D01*
X76132286Y-126798636D01*
X75949278Y-126981324D01*
X75850113Y-127220140D01*
X75849888Y-127478726D01*
X63949438Y-127478726D01*
X63914996Y-127305575D01*
X63651921Y-126911855D01*
X63258201Y-126648780D01*
X62793776Y-126556400D01*
X62746224Y-126556400D01*
X62281799Y-126648780D01*
X61888079Y-126911855D01*
X61625004Y-127305575D01*
X61532624Y-127770000D01*
X61467376Y-127770000D01*
X61374996Y-127305575D01*
X61111921Y-126911855D01*
X60718201Y-126648780D01*
X60253776Y-126556400D01*
X60206224Y-126556400D01*
X59741799Y-126648780D01*
X59348079Y-126911855D01*
X59085004Y-127305575D01*
X58992624Y-127770000D01*
X39416000Y-127770000D01*
X39416000Y-127225000D01*
X39341000Y-127150000D01*
X38250000Y-127150000D01*
X37950000Y-127150000D01*
X36859000Y-127150000D01*
X36784000Y-127225000D01*
X36295000Y-127225000D01*
X36295000Y-126076727D01*
X36784000Y-126076727D01*
X36784000Y-126775000D01*
X36859000Y-126850000D01*
X37950000Y-126850000D01*
X37950000Y-125911400D01*
X38250000Y-125911400D01*
X38250000Y-126850000D01*
X39341000Y-126850000D01*
X39416000Y-126775000D01*
X39416000Y-126076727D01*
X39370328Y-125966464D01*
X39285937Y-125882072D01*
X39175674Y-125836400D01*
X38325000Y-125836400D01*
X38250000Y-125911400D01*
X37950000Y-125911400D01*
X37875000Y-125836400D01*
X37024326Y-125836400D01*
X36914063Y-125882072D01*
X36829672Y-125966464D01*
X36784000Y-126076727D01*
X36295000Y-126076727D01*
X36295000Y-125207942D01*
X40049818Y-125207942D01*
X40209334Y-125594000D01*
X40504446Y-125889628D01*
X40890226Y-126049818D01*
X41307942Y-126050182D01*
X41694000Y-125890666D01*
X41989628Y-125595554D01*
X42149818Y-125209774D01*
X42150081Y-124907942D01*
X49349818Y-124907942D01*
X49509334Y-125294000D01*
X49804446Y-125589628D01*
X50190226Y-125749818D01*
X50607942Y-125750182D01*
X50994000Y-125590666D01*
X51289628Y-125295554D01*
X51316848Y-125230000D01*
X58992624Y-125230000D01*
X59085004Y-125694425D01*
X59348079Y-126088145D01*
X59741799Y-126351220D01*
X60206224Y-126443600D01*
X60253776Y-126443600D01*
X60718201Y-126351220D01*
X61111921Y-126088145D01*
X61374996Y-125694425D01*
X61467376Y-125230000D01*
X61532624Y-125230000D01*
X61625004Y-125694425D01*
X61888079Y-126088145D01*
X62281799Y-126351220D01*
X62746224Y-126443600D01*
X62793776Y-126443600D01*
X63258201Y-126351220D01*
X63651921Y-126088145D01*
X63914996Y-125694425D01*
X63987738Y-125328726D01*
X66949888Y-125328726D01*
X67048636Y-125567714D01*
X67231324Y-125750722D01*
X67470140Y-125849887D01*
X67728726Y-125850112D01*
X67789643Y-125824941D01*
X67848636Y-125967714D01*
X67871850Y-125990969D01*
X67732286Y-126048636D01*
X67549278Y-126231324D01*
X67450113Y-126470140D01*
X67449888Y-126728726D01*
X67548636Y-126967714D01*
X67731324Y-127150722D01*
X67970140Y-127249887D01*
X68228726Y-127250112D01*
X68467714Y-127151364D01*
X68650722Y-126968676D01*
X68749887Y-126729860D01*
X68750112Y-126471274D01*
X68651364Y-126232286D01*
X68628150Y-126209031D01*
X68767714Y-126151364D01*
X68940654Y-125978726D01*
X78849888Y-125978726D01*
X78948636Y-126217714D01*
X79131324Y-126400722D01*
X79370140Y-126499887D01*
X79628726Y-126500112D01*
X79867714Y-126401364D01*
X79886429Y-126382682D01*
X79850113Y-126470140D01*
X79849888Y-126728726D01*
X79948636Y-126967714D01*
X80131324Y-127150722D01*
X80370140Y-127249887D01*
X80628726Y-127250112D01*
X80867714Y-127151364D01*
X81050722Y-126968676D01*
X81149887Y-126729860D01*
X81150112Y-126471274D01*
X81051364Y-126232286D01*
X81047811Y-126228726D01*
X94149888Y-126228726D01*
X94248636Y-126467714D01*
X94431324Y-126650722D01*
X94670140Y-126749887D01*
X94928726Y-126750112D01*
X95167714Y-126651364D01*
X95350722Y-126468676D01*
X95449887Y-126229860D01*
X95450112Y-125971274D01*
X95351364Y-125732286D01*
X95168676Y-125549278D01*
X94929860Y-125450113D01*
X94671274Y-125449888D01*
X94432286Y-125548636D01*
X94249278Y-125731324D01*
X94150113Y-125970140D01*
X94149888Y-126228726D01*
X81047811Y-126228726D01*
X80868676Y-126049278D01*
X80629860Y-125950113D01*
X80371274Y-125949888D01*
X80132286Y-126048636D01*
X80113571Y-126067318D01*
X80149887Y-125979860D01*
X80150112Y-125721274D01*
X80051364Y-125482286D01*
X79868676Y-125299278D01*
X79629860Y-125200113D01*
X79371274Y-125199888D01*
X79132286Y-125298636D01*
X78949278Y-125481324D01*
X78850113Y-125720140D01*
X78849888Y-125978726D01*
X68940654Y-125978726D01*
X68950722Y-125968676D01*
X69049887Y-125729860D01*
X69050112Y-125471274D01*
X68951364Y-125232286D01*
X68768676Y-125049278D01*
X68529860Y-124950113D01*
X68271274Y-124949888D01*
X68210357Y-124975059D01*
X68151364Y-124832286D01*
X67968676Y-124649278D01*
X67729860Y-124550113D01*
X67471274Y-124549888D01*
X67232286Y-124648636D01*
X67049278Y-124831324D01*
X66950113Y-125070140D01*
X66949888Y-125328726D01*
X63987738Y-125328726D01*
X64007376Y-125230000D01*
X63914996Y-124765575D01*
X63651921Y-124371855D01*
X63258201Y-124108780D01*
X62793776Y-124016400D01*
X62746224Y-124016400D01*
X62281799Y-124108780D01*
X61888079Y-124371855D01*
X61625004Y-124765575D01*
X61532624Y-125230000D01*
X61467376Y-125230000D01*
X61374996Y-124765575D01*
X61111921Y-124371855D01*
X60718201Y-124108780D01*
X60253776Y-124016400D01*
X60206224Y-124016400D01*
X59741799Y-124108780D01*
X59348079Y-124371855D01*
X59085004Y-124765575D01*
X58992624Y-125230000D01*
X51316848Y-125230000D01*
X51449818Y-124909774D01*
X51450182Y-124492058D01*
X51290666Y-124106000D01*
X51013876Y-123828726D01*
X79649888Y-123828726D01*
X79748636Y-124067714D01*
X79931324Y-124250722D01*
X80170140Y-124349887D01*
X80428726Y-124350112D01*
X80667714Y-124251364D01*
X80690391Y-124228726D01*
X81849888Y-124228726D01*
X81948636Y-124467714D01*
X82131324Y-124650722D01*
X82370140Y-124749887D01*
X82628726Y-124750112D01*
X82867714Y-124651364D01*
X82890391Y-124628726D01*
X92549888Y-124628726D01*
X92648636Y-124867714D01*
X92831324Y-125050722D01*
X93070140Y-125149887D01*
X93328726Y-125150112D01*
X93567714Y-125051364D01*
X93750722Y-124868676D01*
X93849887Y-124629860D01*
X93850112Y-124371274D01*
X93751364Y-124132286D01*
X93568676Y-123949278D01*
X93329860Y-123850113D01*
X93071274Y-123849888D01*
X92832286Y-123948636D01*
X92649278Y-124131324D01*
X92550113Y-124370140D01*
X92549888Y-124628726D01*
X82890391Y-124628726D01*
X83050722Y-124468676D01*
X83149887Y-124229860D01*
X83150112Y-123971274D01*
X83051364Y-123732286D01*
X82868676Y-123549278D01*
X82629860Y-123450113D01*
X82371274Y-123449888D01*
X82132286Y-123548636D01*
X81949278Y-123731324D01*
X81850113Y-123970140D01*
X81849888Y-124228726D01*
X80690391Y-124228726D01*
X80850722Y-124068676D01*
X80949887Y-123829860D01*
X80950112Y-123571274D01*
X80851364Y-123332286D01*
X80668676Y-123149278D01*
X80429860Y-123050113D01*
X80171274Y-123049888D01*
X79932286Y-123148636D01*
X79749278Y-123331324D01*
X79650113Y-123570140D01*
X79649888Y-123828726D01*
X51013876Y-123828726D01*
X50995554Y-123810372D01*
X50609774Y-123650182D01*
X50192058Y-123649818D01*
X49806000Y-123809334D01*
X49510372Y-124104446D01*
X49350182Y-124490226D01*
X49349818Y-124907942D01*
X42150081Y-124907942D01*
X42150182Y-124792058D01*
X41990666Y-124406000D01*
X41695554Y-124110372D01*
X41309774Y-123950182D01*
X40892058Y-123949818D01*
X40506000Y-124109334D01*
X40210372Y-124404446D01*
X40050182Y-124790226D01*
X40049818Y-125207942D01*
X36295000Y-125207942D01*
X36295000Y-123018662D01*
X59113780Y-123018662D01*
X59208303Y-123246896D01*
X59499190Y-123595491D01*
X59901336Y-123806234D01*
X60080000Y-123768906D01*
X60080000Y-122840000D01*
X60380000Y-122840000D01*
X60380000Y-123768906D01*
X60558664Y-123806234D01*
X60960810Y-123595491D01*
X61251697Y-123246896D01*
X61346220Y-123018662D01*
X61653780Y-123018662D01*
X61748303Y-123246896D01*
X62039190Y-123595491D01*
X62441336Y-123806234D01*
X62620000Y-123768906D01*
X62620000Y-122840000D01*
X62920000Y-122840000D01*
X62920000Y-123768906D01*
X63098664Y-123806234D01*
X63500810Y-123595491D01*
X63791697Y-123246896D01*
X63886220Y-123018662D01*
X63848216Y-122840000D01*
X62920000Y-122840000D01*
X62620000Y-122840000D01*
X61691784Y-122840000D01*
X61653780Y-123018662D01*
X61346220Y-123018662D01*
X61308216Y-122840000D01*
X60380000Y-122840000D01*
X60080000Y-122840000D01*
X59151784Y-122840000D01*
X59113780Y-123018662D01*
X36295000Y-123018662D01*
X36295000Y-122361338D01*
X59113780Y-122361338D01*
X59151784Y-122540000D01*
X60080000Y-122540000D01*
X60080000Y-121611094D01*
X60380000Y-121611094D01*
X60380000Y-122540000D01*
X61308216Y-122540000D01*
X61346220Y-122361338D01*
X61653780Y-122361338D01*
X61691784Y-122540000D01*
X62620000Y-122540000D01*
X62620000Y-121611094D01*
X62920000Y-121611094D01*
X62920000Y-122540000D01*
X63848216Y-122540000D01*
X63886220Y-122361338D01*
X63831299Y-122228726D01*
X70349888Y-122228726D01*
X70448636Y-122467714D01*
X70631324Y-122650722D01*
X70870140Y-122749887D01*
X71128726Y-122750112D01*
X71367714Y-122651364D01*
X71550722Y-122468676D01*
X71649887Y-122229860D01*
X71650062Y-122028726D01*
X79749888Y-122028726D01*
X79848636Y-122267714D01*
X80031324Y-122450722D01*
X80270140Y-122549887D01*
X80528726Y-122550112D01*
X80767714Y-122451364D01*
X80950722Y-122268676D01*
X81049887Y-122029860D01*
X81050112Y-121771274D01*
X80991213Y-121628726D01*
X88149888Y-121628726D01*
X88248636Y-121867714D01*
X88431324Y-122050722D01*
X88670140Y-122149887D01*
X88928726Y-122150112D01*
X89167714Y-122051364D01*
X89350722Y-121868676D01*
X89449887Y-121629860D01*
X89450112Y-121371274D01*
X89351364Y-121132286D01*
X89168676Y-120949278D01*
X88929860Y-120850113D01*
X88671274Y-120849888D01*
X88432286Y-120948636D01*
X88249278Y-121131324D01*
X88150113Y-121370140D01*
X88149888Y-121628726D01*
X80991213Y-121628726D01*
X80951364Y-121532286D01*
X80768676Y-121349278D01*
X80529860Y-121250113D01*
X80271274Y-121249888D01*
X80032286Y-121348636D01*
X79849278Y-121531324D01*
X79750113Y-121770140D01*
X79749888Y-122028726D01*
X71650062Y-122028726D01*
X71650112Y-121971274D01*
X71551364Y-121732286D01*
X71368676Y-121549278D01*
X71129860Y-121450113D01*
X70871274Y-121449888D01*
X70632286Y-121548636D01*
X70449278Y-121731324D01*
X70350113Y-121970140D01*
X70349888Y-122228726D01*
X63831299Y-122228726D01*
X63791697Y-122133104D01*
X63500810Y-121784509D01*
X63098664Y-121573766D01*
X62920000Y-121611094D01*
X62620000Y-121611094D01*
X62441336Y-121573766D01*
X62039190Y-121784509D01*
X61748303Y-122133104D01*
X61653780Y-122361338D01*
X61346220Y-122361338D01*
X61251697Y-122133104D01*
X60960810Y-121784509D01*
X60558664Y-121573766D01*
X60380000Y-121611094D01*
X60080000Y-121611094D01*
X59901336Y-121573766D01*
X59499190Y-121784509D01*
X59208303Y-122133104D01*
X59113780Y-122361338D01*
X36295000Y-122361338D01*
X36295000Y-120150000D01*
X58992624Y-120150000D01*
X59085004Y-120614425D01*
X59348079Y-121008145D01*
X59741799Y-121271220D01*
X60206224Y-121363600D01*
X60253776Y-121363600D01*
X60718201Y-121271220D01*
X61111921Y-121008145D01*
X61374996Y-120614425D01*
X61467376Y-120150000D01*
X61532624Y-120150000D01*
X61625004Y-120614425D01*
X61888079Y-121008145D01*
X62281799Y-121271220D01*
X62746224Y-121363600D01*
X62793776Y-121363600D01*
X63258201Y-121271220D01*
X63651921Y-121008145D01*
X63771804Y-120828726D01*
X91049888Y-120828726D01*
X91148636Y-121067714D01*
X91331324Y-121250722D01*
X91570140Y-121349887D01*
X91828726Y-121350112D01*
X92067714Y-121251364D01*
X92250722Y-121068676D01*
X92349887Y-120829860D01*
X92350112Y-120571274D01*
X92251364Y-120332286D01*
X92068676Y-120149278D01*
X91829860Y-120050113D01*
X91571274Y-120049888D01*
X91332286Y-120148636D01*
X91149278Y-120331324D01*
X91050113Y-120570140D01*
X91049888Y-120828726D01*
X63771804Y-120828726D01*
X63914996Y-120614425D01*
X64007376Y-120150000D01*
X63923580Y-119728726D01*
X79849888Y-119728726D01*
X79948636Y-119967714D01*
X80131324Y-120150722D01*
X80370140Y-120249887D01*
X80628726Y-120250112D01*
X80867714Y-120151364D01*
X81050722Y-119968676D01*
X81129596Y-119778726D01*
X88149888Y-119778726D01*
X88248636Y-120017714D01*
X88431324Y-120200722D01*
X88670140Y-120299887D01*
X88928726Y-120300112D01*
X89167714Y-120201364D01*
X89350722Y-120018676D01*
X89449887Y-119779860D01*
X89450112Y-119521274D01*
X89351364Y-119282286D01*
X89168676Y-119099278D01*
X88929860Y-119000113D01*
X88671274Y-118999888D01*
X88432286Y-119098636D01*
X88249278Y-119281324D01*
X88150113Y-119520140D01*
X88149888Y-119778726D01*
X81129596Y-119778726D01*
X81149887Y-119729860D01*
X81150112Y-119471274D01*
X81051364Y-119232286D01*
X80868676Y-119049278D01*
X80629860Y-118950113D01*
X80371274Y-118949888D01*
X80132286Y-119048636D01*
X79949278Y-119231324D01*
X79850113Y-119470140D01*
X79849888Y-119728726D01*
X63923580Y-119728726D01*
X63914996Y-119685575D01*
X63651921Y-119291855D01*
X63258201Y-119028780D01*
X62793776Y-118936400D01*
X62746224Y-118936400D01*
X62281799Y-119028780D01*
X61888079Y-119291855D01*
X61625004Y-119685575D01*
X61532624Y-120150000D01*
X61467376Y-120150000D01*
X61374996Y-119685575D01*
X61111921Y-119291855D01*
X60718201Y-119028780D01*
X60253776Y-118936400D01*
X60206224Y-118936400D01*
X59741799Y-119028780D01*
X59348079Y-119291855D01*
X59085004Y-119685575D01*
X58992624Y-120150000D01*
X36295000Y-120150000D01*
X36295000Y-117610000D01*
X58992624Y-117610000D01*
X59085004Y-118074425D01*
X59348079Y-118468145D01*
X59741799Y-118731220D01*
X60206224Y-118823600D01*
X60253776Y-118823600D01*
X60718201Y-118731220D01*
X61111921Y-118468145D01*
X61374996Y-118074425D01*
X61467376Y-117610000D01*
X61532624Y-117610000D01*
X61625004Y-118074425D01*
X61888079Y-118468145D01*
X62281799Y-118731220D01*
X62746224Y-118823600D01*
X62793776Y-118823600D01*
X63258201Y-118731220D01*
X63651921Y-118468145D01*
X63745077Y-118328726D01*
X73499888Y-118328726D01*
X73598636Y-118567714D01*
X73781324Y-118750722D01*
X74020140Y-118849887D01*
X74278726Y-118850112D01*
X74517714Y-118751364D01*
X74574939Y-118694239D01*
X74631324Y-118750722D01*
X74870140Y-118849887D01*
X75128726Y-118850112D01*
X75367714Y-118751364D01*
X75550722Y-118568676D01*
X75567310Y-118528726D01*
X82449888Y-118528726D01*
X82548636Y-118767714D01*
X82731324Y-118950722D01*
X82970140Y-119049887D01*
X83228726Y-119050112D01*
X83467714Y-118951364D01*
X83650722Y-118768676D01*
X83749887Y-118529860D01*
X83749974Y-118428726D01*
X84449888Y-118428726D01*
X84548636Y-118667714D01*
X84731324Y-118850722D01*
X84970140Y-118949887D01*
X85228726Y-118950112D01*
X85467714Y-118851364D01*
X85650722Y-118668676D01*
X85742134Y-118448530D01*
X105249870Y-118448530D01*
X105363811Y-118724286D01*
X105574605Y-118935448D01*
X105850161Y-119049869D01*
X106049956Y-119050044D01*
X106049870Y-119148530D01*
X106163811Y-119424286D01*
X106374605Y-119635448D01*
X106650161Y-119749869D01*
X106948530Y-119750130D01*
X107224286Y-119636189D01*
X107435448Y-119425395D01*
X107549869Y-119149839D01*
X107550130Y-118851470D01*
X107537637Y-118821233D01*
X128405899Y-118821233D01*
X128586220Y-119042960D01*
X129258854Y-119288602D01*
X129974291Y-119258139D01*
X130493780Y-119042960D01*
X130674101Y-118821233D01*
X133485899Y-118821233D01*
X133666220Y-119042960D01*
X134338854Y-119288602D01*
X135054291Y-119258139D01*
X135573780Y-119042960D01*
X135754101Y-118821233D01*
X134620000Y-117687132D01*
X133485899Y-118821233D01*
X130674101Y-118821233D01*
X129540000Y-117687132D01*
X128405899Y-118821233D01*
X107537637Y-118821233D01*
X107436189Y-118575714D01*
X107225395Y-118364552D01*
X106949839Y-118250131D01*
X106750044Y-118249956D01*
X106750130Y-118151470D01*
X106636189Y-117875714D01*
X106425395Y-117664552D01*
X106149839Y-117550131D01*
X105851470Y-117549870D01*
X105575714Y-117663811D01*
X105364552Y-117874605D01*
X105250131Y-118150161D01*
X105249870Y-118448530D01*
X85742134Y-118448530D01*
X85749887Y-118429860D01*
X85750112Y-118171274D01*
X85651364Y-117932286D01*
X85468676Y-117749278D01*
X85229860Y-117650113D01*
X84971274Y-117649888D01*
X84732286Y-117748636D01*
X84549278Y-117931324D01*
X84450113Y-118170140D01*
X84449888Y-118428726D01*
X83749974Y-118428726D01*
X83750112Y-118271274D01*
X83651364Y-118032286D01*
X83468676Y-117849278D01*
X83229860Y-117750113D01*
X82971274Y-117749888D01*
X82732286Y-117848636D01*
X82549278Y-118031324D01*
X82450113Y-118270140D01*
X82449888Y-118528726D01*
X75567310Y-118528726D01*
X75649887Y-118329860D01*
X75650112Y-118071274D01*
X75551364Y-117832286D01*
X75368676Y-117649278D01*
X75129860Y-117550113D01*
X74871274Y-117549888D01*
X74632286Y-117648636D01*
X74575061Y-117705761D01*
X74518676Y-117649278D01*
X74279860Y-117550113D01*
X74021274Y-117549888D01*
X73782286Y-117648636D01*
X73599278Y-117831324D01*
X73500113Y-118070140D01*
X73499888Y-118328726D01*
X63745077Y-118328726D01*
X63914996Y-118074425D01*
X64007376Y-117610000D01*
X63924600Y-117193854D01*
X127726398Y-117193854D01*
X127756861Y-117909291D01*
X127972040Y-118428780D01*
X128193767Y-118609101D01*
X129327868Y-117475000D01*
X129752132Y-117475000D01*
X130886233Y-118609101D01*
X131107960Y-118428780D01*
X131353602Y-117756146D01*
X131329660Y-117193854D01*
X132806398Y-117193854D01*
X132836861Y-117909291D01*
X133052040Y-118428780D01*
X133273767Y-118609101D01*
X134407868Y-117475000D01*
X133273767Y-116340899D01*
X133052040Y-116521220D01*
X132806398Y-117193854D01*
X131329660Y-117193854D01*
X131323139Y-117040709D01*
X131107960Y-116521220D01*
X130886233Y-116340899D01*
X129752132Y-117475000D01*
X129327868Y-117475000D01*
X128193767Y-116340899D01*
X127972040Y-116521220D01*
X127726398Y-117193854D01*
X63924600Y-117193854D01*
X63914996Y-117145575D01*
X63651921Y-116751855D01*
X63258201Y-116488780D01*
X62793776Y-116396400D01*
X62746224Y-116396400D01*
X62281799Y-116488780D01*
X61888079Y-116751855D01*
X61625004Y-117145575D01*
X61532624Y-117610000D01*
X61467376Y-117610000D01*
X61374996Y-117145575D01*
X61111921Y-116751855D01*
X60718201Y-116488780D01*
X60253776Y-116396400D01*
X60206224Y-116396400D01*
X59741799Y-116488780D01*
X59348079Y-116751855D01*
X59085004Y-117145575D01*
X58992624Y-117610000D01*
X36295000Y-117610000D01*
X36295000Y-116328726D01*
X71349888Y-116328726D01*
X71448636Y-116567714D01*
X71631324Y-116750722D01*
X71870140Y-116849887D01*
X72128726Y-116850112D01*
X72367714Y-116751364D01*
X72550722Y-116568676D01*
X72649887Y-116329860D01*
X72650061Y-116128767D01*
X128405899Y-116128767D01*
X129540000Y-117262868D01*
X130674101Y-116128767D01*
X130493780Y-115907040D01*
X129821146Y-115661398D01*
X129105709Y-115691861D01*
X128586220Y-115907040D01*
X128405899Y-116128767D01*
X72650061Y-116128767D01*
X72650112Y-116071274D01*
X72551364Y-115832286D01*
X72368676Y-115649278D01*
X72129860Y-115550113D01*
X71871274Y-115549888D01*
X71632286Y-115648636D01*
X71449278Y-115831324D01*
X71350113Y-116070140D01*
X71349888Y-116328726D01*
X36295000Y-116328726D01*
X36295000Y-115070000D01*
X58992624Y-115070000D01*
X59085004Y-115534425D01*
X59348079Y-115928145D01*
X59741799Y-116191220D01*
X60206224Y-116283600D01*
X60253776Y-116283600D01*
X60718201Y-116191220D01*
X61111921Y-115928145D01*
X61374996Y-115534425D01*
X61467376Y-115070000D01*
X61374996Y-114605575D01*
X61111921Y-114211855D01*
X61103758Y-114206400D01*
X61549544Y-114206400D01*
X61549544Y-115933600D01*
X61573949Y-116063302D01*
X61650603Y-116182425D01*
X61767563Y-116262341D01*
X61906400Y-116290456D01*
X63633600Y-116290456D01*
X63763302Y-116266051D01*
X63882425Y-116189397D01*
X63962341Y-116072437D01*
X63990456Y-115933600D01*
X63990456Y-115261765D01*
X130429715Y-115261765D01*
X130680383Y-115868429D01*
X131144130Y-116332986D01*
X131750355Y-116584713D01*
X132406765Y-116585285D01*
X133013429Y-116334617D01*
X133219638Y-116128767D01*
X133485899Y-116128767D01*
X134620000Y-117262868D01*
X135754101Y-116128767D01*
X135573780Y-115907040D01*
X134901146Y-115661398D01*
X134185709Y-115691861D01*
X133666220Y-115907040D01*
X133485899Y-116128767D01*
X133219638Y-116128767D01*
X133477986Y-115870870D01*
X133729713Y-115264645D01*
X133730285Y-114608235D01*
X133479617Y-114001571D01*
X133219733Y-113741233D01*
X133485899Y-113741233D01*
X133666220Y-113962960D01*
X134338854Y-114208602D01*
X135054291Y-114178139D01*
X135573780Y-113962960D01*
X135754101Y-113741233D01*
X134620000Y-112607132D01*
X133485899Y-113741233D01*
X133219733Y-113741233D01*
X133015870Y-113537014D01*
X132409645Y-113285287D01*
X131753235Y-113284715D01*
X131146571Y-113535383D01*
X130682014Y-113999130D01*
X130430287Y-114605355D01*
X130429715Y-115261765D01*
X63990456Y-115261765D01*
X63990456Y-114278726D01*
X64249888Y-114278726D01*
X64348636Y-114517714D01*
X64531324Y-114700722D01*
X64770140Y-114799887D01*
X65028726Y-114800112D01*
X65267714Y-114701364D01*
X65428349Y-114541010D01*
X65570140Y-114599887D01*
X65828726Y-114600112D01*
X66067714Y-114501364D01*
X66250722Y-114318676D01*
X66265003Y-114284284D01*
X66331324Y-114350722D01*
X66570140Y-114449887D01*
X66828726Y-114450112D01*
X66907290Y-114417650D01*
X66948636Y-114517714D01*
X67131324Y-114700722D01*
X67370140Y-114799887D01*
X67628726Y-114800112D01*
X67867714Y-114701364D01*
X68050722Y-114518676D01*
X68149887Y-114279860D01*
X68150112Y-114021274D01*
X68070553Y-113828726D01*
X70749888Y-113828726D01*
X70848636Y-114067714D01*
X71031324Y-114250722D01*
X71270140Y-114349887D01*
X71528726Y-114350112D01*
X71767714Y-114251364D01*
X71811421Y-114207733D01*
X121004399Y-114207733D01*
X121245783Y-114481476D01*
X122099533Y-114810613D01*
X123014250Y-114787980D01*
X123754217Y-114481476D01*
X123995601Y-114207733D01*
X122500000Y-112712132D01*
X121004399Y-114207733D01*
X71811421Y-114207733D01*
X71950722Y-114068676D01*
X72049887Y-113829860D01*
X72050112Y-113571274D01*
X71951364Y-113332286D01*
X71768676Y-113149278D01*
X71529860Y-113050113D01*
X71271274Y-113049888D01*
X71032286Y-113148636D01*
X70849278Y-113331324D01*
X70750113Y-113570140D01*
X70749888Y-113828726D01*
X68070553Y-113828726D01*
X68051364Y-113782286D01*
X67868676Y-113599278D01*
X67629860Y-113500113D01*
X67371274Y-113499888D01*
X67292710Y-113532350D01*
X67251364Y-113432286D01*
X67068676Y-113249278D01*
X66829860Y-113150113D01*
X66571274Y-113149888D01*
X66332286Y-113248636D01*
X66149278Y-113431324D01*
X66134997Y-113465716D01*
X66068676Y-113399278D01*
X65829860Y-113300113D01*
X65571274Y-113299888D01*
X65332286Y-113398636D01*
X65171651Y-113558990D01*
X65029860Y-113500113D01*
X64771274Y-113499888D01*
X64532286Y-113598636D01*
X64349278Y-113781324D01*
X64250113Y-114020140D01*
X64249888Y-114278726D01*
X63990456Y-114278726D01*
X63990456Y-114206400D01*
X63966051Y-114076698D01*
X63889397Y-113957575D01*
X63772437Y-113877659D01*
X63633600Y-113849544D01*
X61906400Y-113849544D01*
X61776698Y-113873949D01*
X61657575Y-113950603D01*
X61577659Y-114067563D01*
X61549544Y-114206400D01*
X61103758Y-114206400D01*
X60718201Y-113948780D01*
X60253776Y-113856400D01*
X60206224Y-113856400D01*
X59741799Y-113948780D01*
X59348079Y-114211855D01*
X59085004Y-114605575D01*
X58992624Y-115070000D01*
X36295000Y-115070000D01*
X36295000Y-114207733D01*
X51004399Y-114207733D01*
X51245783Y-114481476D01*
X52099533Y-114810613D01*
X53014250Y-114787980D01*
X53754217Y-114481476D01*
X53995601Y-114207733D01*
X52500000Y-112712132D01*
X51004399Y-114207733D01*
X36295000Y-114207733D01*
X36295000Y-112099533D01*
X50189387Y-112099533D01*
X50212020Y-113014250D01*
X50518524Y-113754217D01*
X50792267Y-113995601D01*
X52287868Y-112500000D01*
X52712132Y-112500000D01*
X54207733Y-113995601D01*
X54481476Y-113754217D01*
X54810613Y-112900467D01*
X54801415Y-112528726D01*
X73849888Y-112528726D01*
X73948636Y-112767714D01*
X74131324Y-112950722D01*
X74370140Y-113049887D01*
X74628726Y-113050112D01*
X74867714Y-112951364D01*
X75050722Y-112768676D01*
X75149887Y-112529860D01*
X75150112Y-112271274D01*
X75079150Y-112099533D01*
X120189387Y-112099533D01*
X120212020Y-113014250D01*
X120518524Y-113754217D01*
X120792267Y-113995601D01*
X122287868Y-112500000D01*
X122712132Y-112500000D01*
X124207733Y-113995601D01*
X124481476Y-113754217D01*
X124486481Y-113741233D01*
X128405899Y-113741233D01*
X128586220Y-113962960D01*
X129258854Y-114208602D01*
X129974291Y-114178139D01*
X130493780Y-113962960D01*
X130674101Y-113741233D01*
X129540000Y-112607132D01*
X128405899Y-113741233D01*
X124486481Y-113741233D01*
X124810613Y-112900467D01*
X124791150Y-112113854D01*
X127726398Y-112113854D01*
X127756861Y-112829291D01*
X127972040Y-113348780D01*
X128193767Y-113529101D01*
X129327868Y-112395000D01*
X129752132Y-112395000D01*
X130886233Y-113529101D01*
X131107960Y-113348780D01*
X131353602Y-112676146D01*
X131329660Y-112113854D01*
X132806398Y-112113854D01*
X132836861Y-112829291D01*
X133052040Y-113348780D01*
X133273767Y-113529101D01*
X134407868Y-112395000D01*
X133273767Y-111260899D01*
X133052040Y-111441220D01*
X132806398Y-112113854D01*
X131329660Y-112113854D01*
X131323139Y-111960709D01*
X131107960Y-111441220D01*
X130886233Y-111260899D01*
X129752132Y-112395000D01*
X129327868Y-112395000D01*
X128193767Y-111260899D01*
X127972040Y-111441220D01*
X127726398Y-112113854D01*
X124791150Y-112113854D01*
X124787980Y-111985750D01*
X124481476Y-111245783D01*
X124258049Y-111048767D01*
X128405899Y-111048767D01*
X129540000Y-112182868D01*
X130674101Y-111048767D01*
X133485899Y-111048767D01*
X134620000Y-112182868D01*
X135754101Y-111048767D01*
X135573780Y-110827040D01*
X134901146Y-110581398D01*
X134185709Y-110611861D01*
X133666220Y-110827040D01*
X133485899Y-111048767D01*
X130674101Y-111048767D01*
X130493780Y-110827040D01*
X129821146Y-110581398D01*
X129105709Y-110611861D01*
X128586220Y-110827040D01*
X128405899Y-111048767D01*
X124258049Y-111048767D01*
X124207733Y-111004399D01*
X122712132Y-112500000D01*
X122287868Y-112500000D01*
X120792267Y-111004399D01*
X120518524Y-111245783D01*
X120189387Y-112099533D01*
X75079150Y-112099533D01*
X75051364Y-112032286D01*
X74868676Y-111849278D01*
X74629860Y-111750113D01*
X74371274Y-111749888D01*
X74132286Y-111848636D01*
X73949278Y-112031324D01*
X73850113Y-112270140D01*
X73849888Y-112528726D01*
X54801415Y-112528726D01*
X54787980Y-111985750D01*
X54481476Y-111245783D01*
X54207733Y-111004399D01*
X52712132Y-112500000D01*
X52287868Y-112500000D01*
X50792267Y-111004399D01*
X50518524Y-111245783D01*
X50189387Y-112099533D01*
X36295000Y-112099533D01*
X36295000Y-109831314D01*
X37700818Y-109831314D01*
X38185869Y-110313017D01*
X39762974Y-110975626D01*
X41473598Y-110984264D01*
X41943821Y-110792267D01*
X51004399Y-110792267D01*
X52500000Y-112287868D01*
X53939338Y-110848530D01*
X69849870Y-110848530D01*
X69963811Y-111124286D01*
X70174605Y-111335448D01*
X70450161Y-111449869D01*
X70748530Y-111450130D01*
X71024286Y-111336189D01*
X71235448Y-111125395D01*
X71349869Y-110849839D01*
X71350130Y-110551470D01*
X71236189Y-110275714D01*
X71025395Y-110064552D01*
X70939117Y-110028726D01*
X71249888Y-110028726D01*
X71348636Y-110267714D01*
X71531324Y-110450722D01*
X71770140Y-110549887D01*
X72028726Y-110550112D01*
X72201493Y-110478726D01*
X87399888Y-110478726D01*
X87498636Y-110717714D01*
X87681324Y-110900722D01*
X87920140Y-110999887D01*
X88178726Y-111000112D01*
X88417714Y-110901364D01*
X88527002Y-110792267D01*
X121004399Y-110792267D01*
X122500000Y-112287868D01*
X123995601Y-110792267D01*
X123754217Y-110518524D01*
X122900467Y-110189387D01*
X121985750Y-110212020D01*
X121245783Y-110518524D01*
X121004399Y-110792267D01*
X88527002Y-110792267D01*
X88600722Y-110718676D01*
X88699887Y-110479860D01*
X88700112Y-110221274D01*
X88670055Y-110148530D01*
X99249870Y-110148530D01*
X99363811Y-110424286D01*
X99574605Y-110635448D01*
X99850161Y-110749869D01*
X100148530Y-110750130D01*
X100424286Y-110636189D01*
X100635448Y-110425395D01*
X100749869Y-110149839D01*
X100750130Y-109851470D01*
X100741802Y-109831314D01*
X129140818Y-109831314D01*
X129625869Y-110313017D01*
X131202974Y-110975626D01*
X132913598Y-110984264D01*
X134497315Y-110337617D01*
X134534131Y-110313017D01*
X135019182Y-109831314D01*
X132080000Y-106892132D01*
X129140818Y-109831314D01*
X100741802Y-109831314D01*
X100636189Y-109575714D01*
X100425395Y-109364552D01*
X100149839Y-109250131D01*
X99851470Y-109249870D01*
X99575714Y-109363811D01*
X99364552Y-109574605D01*
X99250131Y-109850161D01*
X99249870Y-110148530D01*
X88670055Y-110148530D01*
X88601364Y-109982286D01*
X88418676Y-109799278D01*
X88179860Y-109700113D01*
X87921274Y-109699888D01*
X87682286Y-109798636D01*
X87499278Y-109981324D01*
X87400113Y-110220140D01*
X87399888Y-110478726D01*
X72201493Y-110478726D01*
X72267714Y-110451364D01*
X72450722Y-110268676D01*
X72549887Y-110029860D01*
X72550112Y-109771274D01*
X72451364Y-109532286D01*
X72268676Y-109349278D01*
X72029860Y-109250113D01*
X71771274Y-109249888D01*
X71532286Y-109348636D01*
X71349278Y-109531324D01*
X71250113Y-109770140D01*
X71249888Y-110028726D01*
X70939117Y-110028726D01*
X70749839Y-109950131D01*
X70451470Y-109949870D01*
X70175714Y-110063811D01*
X69964552Y-110274605D01*
X69850131Y-110550161D01*
X69849870Y-110848530D01*
X53939338Y-110848530D01*
X53995601Y-110792267D01*
X53754217Y-110518524D01*
X52900467Y-110189387D01*
X51985750Y-110212020D01*
X51245783Y-110518524D01*
X51004399Y-110792267D01*
X41943821Y-110792267D01*
X43057315Y-110337617D01*
X43094131Y-110313017D01*
X43380397Y-110028726D01*
X55849888Y-110028726D01*
X55948636Y-110267714D01*
X56131324Y-110450722D01*
X56370140Y-110549887D01*
X56628726Y-110550112D01*
X56867714Y-110451364D01*
X57050722Y-110268676D01*
X57149887Y-110029860D01*
X57149887Y-110028726D01*
X60349888Y-110028726D01*
X60448636Y-110267714D01*
X60631324Y-110450722D01*
X60870140Y-110549887D01*
X61128726Y-110550112D01*
X61367714Y-110451364D01*
X61550722Y-110268676D01*
X61649887Y-110029860D01*
X61649887Y-110028726D01*
X63349888Y-110028726D01*
X63448636Y-110267714D01*
X63631324Y-110450722D01*
X63870140Y-110549887D01*
X64128726Y-110550112D01*
X64367714Y-110451364D01*
X64550722Y-110268676D01*
X64649887Y-110029860D01*
X64649887Y-110028726D01*
X68349888Y-110028726D01*
X68448636Y-110267714D01*
X68631324Y-110450722D01*
X68870140Y-110549887D01*
X69128726Y-110550112D01*
X69367714Y-110451364D01*
X69550722Y-110268676D01*
X69649887Y-110029860D01*
X69650112Y-109771274D01*
X69551364Y-109532286D01*
X69368676Y-109349278D01*
X69129860Y-109250113D01*
X68871274Y-109249888D01*
X68632286Y-109348636D01*
X68449278Y-109531324D01*
X68350113Y-109770140D01*
X68349888Y-110028726D01*
X64649887Y-110028726D01*
X64650112Y-109771274D01*
X64551364Y-109532286D01*
X64368676Y-109349278D01*
X64129860Y-109250113D01*
X63871274Y-109249888D01*
X63632286Y-109348636D01*
X63449278Y-109531324D01*
X63350113Y-109770140D01*
X63349888Y-110028726D01*
X61649887Y-110028726D01*
X61650112Y-109771274D01*
X61551364Y-109532286D01*
X61368676Y-109349278D01*
X61129860Y-109250113D01*
X60871274Y-109249888D01*
X60632286Y-109348636D01*
X60449278Y-109531324D01*
X60350113Y-109770140D01*
X60349888Y-110028726D01*
X57149887Y-110028726D01*
X57150112Y-109771274D01*
X57051364Y-109532286D01*
X56868676Y-109349278D01*
X56629860Y-109250113D01*
X56371274Y-109249888D01*
X56132286Y-109348636D01*
X55949278Y-109531324D01*
X55850113Y-109770140D01*
X55849888Y-110028726D01*
X43380397Y-110028726D01*
X43579182Y-109831314D01*
X40640000Y-106892132D01*
X37700818Y-109831314D01*
X36295000Y-109831314D01*
X36295000Y-107513598D01*
X36335736Y-107513598D01*
X36982383Y-109097315D01*
X37006983Y-109134131D01*
X37488686Y-109619182D01*
X40427868Y-106680000D01*
X40852132Y-106680000D01*
X43791314Y-109619182D01*
X44273017Y-109134131D01*
X44935626Y-107557026D01*
X44938395Y-107008664D01*
X47143766Y-107008664D01*
X47354509Y-107410810D01*
X47703104Y-107701697D01*
X47931338Y-107796220D01*
X48110000Y-107758216D01*
X48110000Y-106830000D01*
X48410000Y-106830000D01*
X48410000Y-107758216D01*
X48588662Y-107796220D01*
X48816896Y-107701697D01*
X49165491Y-107410810D01*
X49376234Y-107008664D01*
X49683766Y-107008664D01*
X49894509Y-107410810D01*
X50243104Y-107701697D01*
X50471338Y-107796220D01*
X50650000Y-107758216D01*
X50650000Y-106830000D01*
X50950000Y-106830000D01*
X50950000Y-107758216D01*
X51128662Y-107796220D01*
X51356896Y-107701697D01*
X51705491Y-107410810D01*
X51916234Y-107008664D01*
X52223766Y-107008664D01*
X52434509Y-107410810D01*
X52783104Y-107701697D01*
X53011338Y-107796220D01*
X53190000Y-107758216D01*
X53190000Y-106830000D01*
X53490000Y-106830000D01*
X53490000Y-107758216D01*
X53668662Y-107796220D01*
X53896896Y-107701697D01*
X54245491Y-107410810D01*
X54456234Y-107008664D01*
X54763766Y-107008664D01*
X54974509Y-107410810D01*
X55323104Y-107701697D01*
X55551338Y-107796220D01*
X55730000Y-107758216D01*
X55730000Y-106830000D01*
X56030000Y-106830000D01*
X56030000Y-107758216D01*
X56208662Y-107796220D01*
X56436896Y-107701697D01*
X56785491Y-107410810D01*
X56996234Y-107008664D01*
X57303766Y-107008664D01*
X57514509Y-107410810D01*
X57863104Y-107701697D01*
X58091338Y-107796220D01*
X58270000Y-107758216D01*
X58270000Y-106830000D01*
X58570000Y-106830000D01*
X58570000Y-107758216D01*
X58748662Y-107796220D01*
X58976896Y-107701697D01*
X59325491Y-107410810D01*
X59536234Y-107008664D01*
X59843766Y-107008664D01*
X60054509Y-107410810D01*
X60403104Y-107701697D01*
X60631338Y-107796220D01*
X60810000Y-107758216D01*
X60810000Y-106830000D01*
X61110000Y-106830000D01*
X61110000Y-107758216D01*
X61288662Y-107796220D01*
X61516896Y-107701697D01*
X61865491Y-107410810D01*
X62076234Y-107008664D01*
X62383766Y-107008664D01*
X62594509Y-107410810D01*
X62943104Y-107701697D01*
X63171338Y-107796220D01*
X63350000Y-107758216D01*
X63350000Y-106830000D01*
X63650000Y-106830000D01*
X63650000Y-107758216D01*
X63828662Y-107796220D01*
X64056896Y-107701697D01*
X64405491Y-107410810D01*
X64616234Y-107008664D01*
X64923766Y-107008664D01*
X65134509Y-107410810D01*
X65483104Y-107701697D01*
X65711338Y-107796220D01*
X65890000Y-107758216D01*
X65890000Y-106830000D01*
X66190000Y-106830000D01*
X66190000Y-107758216D01*
X66368662Y-107796220D01*
X66596896Y-107701697D01*
X66945491Y-107410810D01*
X67156234Y-107008664D01*
X67463766Y-107008664D01*
X67674509Y-107410810D01*
X68023104Y-107701697D01*
X68251338Y-107796220D01*
X68430000Y-107758216D01*
X68430000Y-106830000D01*
X68730000Y-106830000D01*
X68730000Y-107758216D01*
X68908662Y-107796220D01*
X69136896Y-107701697D01*
X69485491Y-107410810D01*
X69696234Y-107008664D01*
X69658906Y-106830000D01*
X68730000Y-106830000D01*
X68430000Y-106830000D01*
X67501094Y-106830000D01*
X67463766Y-107008664D01*
X67156234Y-107008664D01*
X67118906Y-106830000D01*
X66190000Y-106830000D01*
X65890000Y-106830000D01*
X64961094Y-106830000D01*
X64923766Y-107008664D01*
X64616234Y-107008664D01*
X64578906Y-106830000D01*
X63650000Y-106830000D01*
X63350000Y-106830000D01*
X62421094Y-106830000D01*
X62383766Y-107008664D01*
X62076234Y-107008664D01*
X62038906Y-106830000D01*
X61110000Y-106830000D01*
X60810000Y-106830000D01*
X59881094Y-106830000D01*
X59843766Y-107008664D01*
X59536234Y-107008664D01*
X59498906Y-106830000D01*
X58570000Y-106830000D01*
X58270000Y-106830000D01*
X57341094Y-106830000D01*
X57303766Y-107008664D01*
X56996234Y-107008664D01*
X56958906Y-106830000D01*
X56030000Y-106830000D01*
X55730000Y-106830000D01*
X54801094Y-106830000D01*
X54763766Y-107008664D01*
X54456234Y-107008664D01*
X54418906Y-106830000D01*
X53490000Y-106830000D01*
X53190000Y-106830000D01*
X52261094Y-106830000D01*
X52223766Y-107008664D01*
X51916234Y-107008664D01*
X51878906Y-106830000D01*
X50950000Y-106830000D01*
X50650000Y-106830000D01*
X49721094Y-106830000D01*
X49683766Y-107008664D01*
X49376234Y-107008664D01*
X49338906Y-106830000D01*
X48410000Y-106830000D01*
X48110000Y-106830000D01*
X47181094Y-106830000D01*
X47143766Y-107008664D01*
X44938395Y-107008664D01*
X44940174Y-106656224D01*
X69906400Y-106656224D01*
X69906400Y-106703776D01*
X69998780Y-107168201D01*
X70261855Y-107561921D01*
X70655575Y-107824996D01*
X71120000Y-107917376D01*
X71584425Y-107824996D01*
X71978145Y-107561921D01*
X72241220Y-107168201D01*
X72293574Y-106905000D01*
X77576400Y-106905000D01*
X77576400Y-107755674D01*
X77622072Y-107865937D01*
X77706464Y-107950328D01*
X77816727Y-107996000D01*
X78515000Y-107996000D01*
X78590000Y-107921000D01*
X78590000Y-106830000D01*
X78890000Y-106830000D01*
X78890000Y-107921000D01*
X78965000Y-107996000D01*
X79663273Y-107996000D01*
X79773536Y-107950328D01*
X79857928Y-107865937D01*
X79903600Y-107755674D01*
X79903600Y-107012081D01*
X80130198Y-107012081D01*
X80286482Y-107438414D01*
X80594021Y-107772487D01*
X80951338Y-107948620D01*
X81130000Y-107910616D01*
X81130000Y-106830000D01*
X81430000Y-106830000D01*
X81430000Y-107910616D01*
X81608662Y-107948620D01*
X81965979Y-107772487D01*
X82273518Y-107438414D01*
X82429802Y-107012081D01*
X82368754Y-106830000D01*
X81430000Y-106830000D01*
X81130000Y-106830000D01*
X80191246Y-106830000D01*
X80130198Y-107012081D01*
X79903600Y-107012081D01*
X79903600Y-106905000D01*
X79828600Y-106830000D01*
X78890000Y-106830000D01*
X78590000Y-106830000D01*
X77651400Y-106830000D01*
X77576400Y-106905000D01*
X72293574Y-106905000D01*
X72333600Y-106703776D01*
X72333600Y-106656224D01*
X72241220Y-106191799D01*
X71978145Y-105798079D01*
X71688173Y-105604326D01*
X77576400Y-105604326D01*
X77576400Y-106455000D01*
X77651400Y-106530000D01*
X78590000Y-106530000D01*
X78590000Y-105439000D01*
X78890000Y-105439000D01*
X78890000Y-106530000D01*
X79828600Y-106530000D01*
X79903600Y-106455000D01*
X79903600Y-106347919D01*
X80130198Y-106347919D01*
X80191246Y-106530000D01*
X81130000Y-106530000D01*
X81130000Y-105449384D01*
X81430000Y-105449384D01*
X81430000Y-106530000D01*
X82368754Y-106530000D01*
X82378531Y-106500838D01*
X82606400Y-106500838D01*
X82606400Y-106859162D01*
X82698780Y-107323587D01*
X82961855Y-107717307D01*
X83355575Y-107980382D01*
X83820000Y-108072762D01*
X84284425Y-107980382D01*
X84678145Y-107717307D01*
X84941220Y-107323587D01*
X85033600Y-106859162D01*
X85033600Y-106500838D01*
X85146400Y-106500838D01*
X85146400Y-106859162D01*
X85238780Y-107323587D01*
X85501855Y-107717307D01*
X85895575Y-107980382D01*
X86360000Y-108072762D01*
X86824425Y-107980382D01*
X87218145Y-107717307D01*
X87481220Y-107323587D01*
X87573600Y-106859162D01*
X87573600Y-106500838D01*
X87686400Y-106500838D01*
X87686400Y-106859162D01*
X87778780Y-107323587D01*
X88041855Y-107717307D01*
X88435575Y-107980382D01*
X88900000Y-108072762D01*
X89364425Y-107980382D01*
X89758145Y-107717307D01*
X90021220Y-107323587D01*
X90113600Y-106859162D01*
X90113600Y-106500838D01*
X90226400Y-106500838D01*
X90226400Y-106859162D01*
X90318780Y-107323587D01*
X90581855Y-107717307D01*
X90975575Y-107980382D01*
X91440000Y-108072762D01*
X91904425Y-107980382D01*
X92298145Y-107717307D01*
X92434258Y-107513598D01*
X127775736Y-107513598D01*
X128422383Y-109097315D01*
X128446983Y-109134131D01*
X128928686Y-109619182D01*
X131867868Y-106680000D01*
X132292132Y-106680000D01*
X135231314Y-109619182D01*
X135713017Y-109134131D01*
X136375626Y-107557026D01*
X136384264Y-105846402D01*
X135737617Y-104262685D01*
X135713017Y-104225869D01*
X135231314Y-103740818D01*
X132292132Y-106680000D01*
X131867868Y-106680000D01*
X128928686Y-103740818D01*
X128446983Y-104225869D01*
X127784374Y-105802974D01*
X127775736Y-107513598D01*
X92434258Y-107513598D01*
X92561220Y-107323587D01*
X92653600Y-106859162D01*
X92653600Y-106500838D01*
X92561220Y-106036413D01*
X92298145Y-105642693D01*
X91904425Y-105379618D01*
X91440000Y-105287238D01*
X90975575Y-105379618D01*
X90581855Y-105642693D01*
X90318780Y-106036413D01*
X90226400Y-106500838D01*
X90113600Y-106500838D01*
X90021220Y-106036413D01*
X89758145Y-105642693D01*
X89364425Y-105379618D01*
X88900000Y-105287238D01*
X88435575Y-105379618D01*
X88041855Y-105642693D01*
X87778780Y-106036413D01*
X87686400Y-106500838D01*
X87573600Y-106500838D01*
X87481220Y-106036413D01*
X87218145Y-105642693D01*
X86824425Y-105379618D01*
X86360000Y-105287238D01*
X85895575Y-105379618D01*
X85501855Y-105642693D01*
X85238780Y-106036413D01*
X85146400Y-106500838D01*
X85033600Y-106500838D01*
X84941220Y-106036413D01*
X84678145Y-105642693D01*
X84284425Y-105379618D01*
X83820000Y-105287238D01*
X83355575Y-105379618D01*
X82961855Y-105642693D01*
X82698780Y-106036413D01*
X82606400Y-106500838D01*
X82378531Y-106500838D01*
X82429802Y-106347919D01*
X82273518Y-105921586D01*
X81965979Y-105587513D01*
X81608662Y-105411380D01*
X81430000Y-105449384D01*
X81130000Y-105449384D01*
X80951338Y-105411380D01*
X80594021Y-105587513D01*
X80286482Y-105921586D01*
X80130198Y-106347919D01*
X79903600Y-106347919D01*
X79903600Y-105604326D01*
X79857928Y-105494063D01*
X79773536Y-105409672D01*
X79663273Y-105364000D01*
X78965000Y-105364000D01*
X78890000Y-105439000D01*
X78590000Y-105439000D01*
X78515000Y-105364000D01*
X77816727Y-105364000D01*
X77706464Y-105409672D01*
X77622072Y-105494063D01*
X77576400Y-105604326D01*
X71688173Y-105604326D01*
X71584425Y-105535004D01*
X71120000Y-105442624D01*
X70655575Y-105535004D01*
X70261855Y-105798079D01*
X69998780Y-106191799D01*
X69906400Y-106656224D01*
X44940174Y-106656224D01*
X44941714Y-106351336D01*
X47143766Y-106351336D01*
X47181094Y-106530000D01*
X48110000Y-106530000D01*
X48110000Y-105601784D01*
X48410000Y-105601784D01*
X48410000Y-106530000D01*
X49338906Y-106530000D01*
X49376234Y-106351336D01*
X49683766Y-106351336D01*
X49721094Y-106530000D01*
X50650000Y-106530000D01*
X50650000Y-105601784D01*
X50950000Y-105601784D01*
X50950000Y-106530000D01*
X51878906Y-106530000D01*
X51916234Y-106351336D01*
X52223766Y-106351336D01*
X52261094Y-106530000D01*
X53190000Y-106530000D01*
X53190000Y-105601784D01*
X53490000Y-105601784D01*
X53490000Y-106530000D01*
X54418906Y-106530000D01*
X54456234Y-106351336D01*
X54763766Y-106351336D01*
X54801094Y-106530000D01*
X55730000Y-106530000D01*
X55730000Y-105601784D01*
X56030000Y-105601784D01*
X56030000Y-106530000D01*
X56958906Y-106530000D01*
X56996234Y-106351336D01*
X57303766Y-106351336D01*
X57341094Y-106530000D01*
X58270000Y-106530000D01*
X58270000Y-105601784D01*
X58570000Y-105601784D01*
X58570000Y-106530000D01*
X59498906Y-106530000D01*
X59536234Y-106351336D01*
X59843766Y-106351336D01*
X59881094Y-106530000D01*
X60810000Y-106530000D01*
X60810000Y-105601784D01*
X61110000Y-105601784D01*
X61110000Y-106530000D01*
X62038906Y-106530000D01*
X62076234Y-106351336D01*
X62383766Y-106351336D01*
X62421094Y-106530000D01*
X63350000Y-106530000D01*
X63350000Y-105601784D01*
X63650000Y-105601784D01*
X63650000Y-106530000D01*
X64578906Y-106530000D01*
X64616234Y-106351336D01*
X64923766Y-106351336D01*
X64961094Y-106530000D01*
X65890000Y-106530000D01*
X65890000Y-105601784D01*
X66190000Y-105601784D01*
X66190000Y-106530000D01*
X67118906Y-106530000D01*
X67156234Y-106351336D01*
X67463766Y-106351336D01*
X67501094Y-106530000D01*
X68430000Y-106530000D01*
X68430000Y-105601784D01*
X68730000Y-105601784D01*
X68730000Y-106530000D01*
X69658906Y-106530000D01*
X69696234Y-106351336D01*
X69485491Y-105949190D01*
X69136896Y-105658303D01*
X68908662Y-105563780D01*
X68730000Y-105601784D01*
X68430000Y-105601784D01*
X68251338Y-105563780D01*
X68023104Y-105658303D01*
X67674509Y-105949190D01*
X67463766Y-106351336D01*
X67156234Y-106351336D01*
X66945491Y-105949190D01*
X66596896Y-105658303D01*
X66368662Y-105563780D01*
X66190000Y-105601784D01*
X65890000Y-105601784D01*
X65711338Y-105563780D01*
X65483104Y-105658303D01*
X65134509Y-105949190D01*
X64923766Y-106351336D01*
X64616234Y-106351336D01*
X64405491Y-105949190D01*
X64056896Y-105658303D01*
X63828662Y-105563780D01*
X63650000Y-105601784D01*
X63350000Y-105601784D01*
X63171338Y-105563780D01*
X62943104Y-105658303D01*
X62594509Y-105949190D01*
X62383766Y-106351336D01*
X62076234Y-106351336D01*
X61865491Y-105949190D01*
X61516896Y-105658303D01*
X61288662Y-105563780D01*
X61110000Y-105601784D01*
X60810000Y-105601784D01*
X60631338Y-105563780D01*
X60403104Y-105658303D01*
X60054509Y-105949190D01*
X59843766Y-106351336D01*
X59536234Y-106351336D01*
X59325491Y-105949190D01*
X58976896Y-105658303D01*
X58748662Y-105563780D01*
X58570000Y-105601784D01*
X58270000Y-105601784D01*
X58091338Y-105563780D01*
X57863104Y-105658303D01*
X57514509Y-105949190D01*
X57303766Y-106351336D01*
X56996234Y-106351336D01*
X56785491Y-105949190D01*
X56436896Y-105658303D01*
X56208662Y-105563780D01*
X56030000Y-105601784D01*
X55730000Y-105601784D01*
X55551338Y-105563780D01*
X55323104Y-105658303D01*
X54974509Y-105949190D01*
X54763766Y-106351336D01*
X54456234Y-106351336D01*
X54245491Y-105949190D01*
X53896896Y-105658303D01*
X53668662Y-105563780D01*
X53490000Y-105601784D01*
X53190000Y-105601784D01*
X53011338Y-105563780D01*
X52783104Y-105658303D01*
X52434509Y-105949190D01*
X52223766Y-106351336D01*
X51916234Y-106351336D01*
X51705491Y-105949190D01*
X51356896Y-105658303D01*
X51128662Y-105563780D01*
X50950000Y-105601784D01*
X50650000Y-105601784D01*
X50471338Y-105563780D01*
X50243104Y-105658303D01*
X49894509Y-105949190D01*
X49683766Y-106351336D01*
X49376234Y-106351336D01*
X49165491Y-105949190D01*
X48816896Y-105658303D01*
X48588662Y-105563780D01*
X48410000Y-105601784D01*
X48110000Y-105601784D01*
X47931338Y-105563780D01*
X47703104Y-105658303D01*
X47354509Y-105949190D01*
X47143766Y-106351336D01*
X44941714Y-106351336D01*
X44944264Y-105846402D01*
X44297617Y-104262685D01*
X44273017Y-104225869D01*
X44164129Y-104116224D01*
X47046400Y-104116224D01*
X47046400Y-104163776D01*
X47138780Y-104628201D01*
X47401855Y-105021921D01*
X47795575Y-105284996D01*
X48260000Y-105377376D01*
X48724425Y-105284996D01*
X49118145Y-105021921D01*
X49381220Y-104628201D01*
X49473600Y-104163776D01*
X49473600Y-104116224D01*
X49586400Y-104116224D01*
X49586400Y-104163776D01*
X49678780Y-104628201D01*
X49941855Y-105021921D01*
X50335575Y-105284996D01*
X50800000Y-105377376D01*
X51264425Y-105284996D01*
X51658145Y-105021921D01*
X51921220Y-104628201D01*
X52013600Y-104163776D01*
X52013600Y-104116224D01*
X52126400Y-104116224D01*
X52126400Y-104163776D01*
X52218780Y-104628201D01*
X52481855Y-105021921D01*
X52875575Y-105284996D01*
X53340000Y-105377376D01*
X53804425Y-105284996D01*
X54198145Y-105021921D01*
X54461220Y-104628201D01*
X54553600Y-104163776D01*
X54553600Y-104116224D01*
X54666400Y-104116224D01*
X54666400Y-104163776D01*
X54758780Y-104628201D01*
X55021855Y-105021921D01*
X55415575Y-105284996D01*
X55880000Y-105377376D01*
X56344425Y-105284996D01*
X56738145Y-105021921D01*
X57001220Y-104628201D01*
X57093600Y-104163776D01*
X57093600Y-104116224D01*
X57206400Y-104116224D01*
X57206400Y-104163776D01*
X57298780Y-104628201D01*
X57561855Y-105021921D01*
X57955575Y-105284996D01*
X58420000Y-105377376D01*
X58884425Y-105284996D01*
X59278145Y-105021921D01*
X59541220Y-104628201D01*
X59633600Y-104163776D01*
X59633600Y-104116224D01*
X59746400Y-104116224D01*
X59746400Y-104163776D01*
X59838780Y-104628201D01*
X60101855Y-105021921D01*
X60495575Y-105284996D01*
X60960000Y-105377376D01*
X61424425Y-105284996D01*
X61818145Y-105021921D01*
X62081220Y-104628201D01*
X62173600Y-104163776D01*
X62173600Y-104116224D01*
X62286400Y-104116224D01*
X62286400Y-104163776D01*
X62378780Y-104628201D01*
X62641855Y-105021921D01*
X63035575Y-105284996D01*
X63500000Y-105377376D01*
X63964425Y-105284996D01*
X64358145Y-105021921D01*
X64621220Y-104628201D01*
X64713600Y-104163776D01*
X64713600Y-104116224D01*
X64826400Y-104116224D01*
X64826400Y-104163776D01*
X64918780Y-104628201D01*
X65181855Y-105021921D01*
X65575575Y-105284996D01*
X66040000Y-105377376D01*
X66504425Y-105284996D01*
X66898145Y-105021921D01*
X67161220Y-104628201D01*
X67253600Y-104163776D01*
X67253600Y-104116224D01*
X67366400Y-104116224D01*
X67366400Y-104163776D01*
X67458780Y-104628201D01*
X67721855Y-105021921D01*
X68115575Y-105284996D01*
X68580000Y-105377376D01*
X69044425Y-105284996D01*
X69438145Y-105021921D01*
X69701220Y-104628201D01*
X69793600Y-104163776D01*
X69793600Y-104116224D01*
X69701220Y-103651799D01*
X69450387Y-103276400D01*
X69899544Y-103276400D01*
X69899544Y-105003600D01*
X69923949Y-105133302D01*
X70000603Y-105252425D01*
X70117563Y-105332341D01*
X70256400Y-105360456D01*
X71983600Y-105360456D01*
X72113302Y-105336051D01*
X72232425Y-105259397D01*
X72312341Y-105142437D01*
X72340456Y-105003600D01*
X72340456Y-103528686D01*
X129140818Y-103528686D01*
X132080000Y-106467868D01*
X135019182Y-103528686D01*
X134534131Y-103046983D01*
X132957026Y-102384374D01*
X131246402Y-102375736D01*
X129662685Y-103022383D01*
X129625869Y-103046983D01*
X129140818Y-103528686D01*
X72340456Y-103528686D01*
X72340456Y-103276400D01*
X72316051Y-103146698D01*
X72239397Y-103027575D01*
X72122437Y-102947659D01*
X71983600Y-102919544D01*
X70256400Y-102919544D01*
X70126698Y-102943949D01*
X70007575Y-103020603D01*
X69927659Y-103137563D01*
X69899544Y-103276400D01*
X69450387Y-103276400D01*
X69438145Y-103258079D01*
X69044425Y-102995004D01*
X68580000Y-102902624D01*
X68115575Y-102995004D01*
X67721855Y-103258079D01*
X67458780Y-103651799D01*
X67366400Y-104116224D01*
X67253600Y-104116224D01*
X67161220Y-103651799D01*
X66898145Y-103258079D01*
X66504425Y-102995004D01*
X66040000Y-102902624D01*
X65575575Y-102995004D01*
X65181855Y-103258079D01*
X64918780Y-103651799D01*
X64826400Y-104116224D01*
X64713600Y-104116224D01*
X64621220Y-103651799D01*
X64358145Y-103258079D01*
X63964425Y-102995004D01*
X63500000Y-102902624D01*
X63035575Y-102995004D01*
X62641855Y-103258079D01*
X62378780Y-103651799D01*
X62286400Y-104116224D01*
X62173600Y-104116224D01*
X62081220Y-103651799D01*
X61818145Y-103258079D01*
X61424425Y-102995004D01*
X60960000Y-102902624D01*
X60495575Y-102995004D01*
X60101855Y-103258079D01*
X59838780Y-103651799D01*
X59746400Y-104116224D01*
X59633600Y-104116224D01*
X59541220Y-103651799D01*
X59278145Y-103258079D01*
X58884425Y-102995004D01*
X58420000Y-102902624D01*
X57955575Y-102995004D01*
X57561855Y-103258079D01*
X57298780Y-103651799D01*
X57206400Y-104116224D01*
X57093600Y-104116224D01*
X57001220Y-103651799D01*
X56738145Y-103258079D01*
X56344425Y-102995004D01*
X55880000Y-102902624D01*
X55415575Y-102995004D01*
X55021855Y-103258079D01*
X54758780Y-103651799D01*
X54666400Y-104116224D01*
X54553600Y-104116224D01*
X54461220Y-103651799D01*
X54198145Y-103258079D01*
X53804425Y-102995004D01*
X53340000Y-102902624D01*
X52875575Y-102995004D01*
X52481855Y-103258079D01*
X52218780Y-103651799D01*
X52126400Y-104116224D01*
X52013600Y-104116224D01*
X51921220Y-103651799D01*
X51658145Y-103258079D01*
X51264425Y-102995004D01*
X50800000Y-102902624D01*
X50335575Y-102995004D01*
X49941855Y-103258079D01*
X49678780Y-103651799D01*
X49586400Y-104116224D01*
X49473600Y-104116224D01*
X49381220Y-103651799D01*
X49118145Y-103258079D01*
X48724425Y-102995004D01*
X48260000Y-102902624D01*
X47795575Y-102995004D01*
X47401855Y-103258079D01*
X47138780Y-103651799D01*
X47046400Y-104116224D01*
X44164129Y-104116224D01*
X43791314Y-103740818D01*
X40852132Y-106680000D01*
X40427868Y-106680000D01*
X37488686Y-103740818D01*
X37006983Y-104225869D01*
X36344374Y-105802974D01*
X36335736Y-107513598D01*
X36295000Y-107513598D01*
X36295000Y-103528686D01*
X37700818Y-103528686D01*
X40640000Y-106467868D01*
X43579182Y-103528686D01*
X43094131Y-103046983D01*
X41517026Y-102384374D01*
X39806402Y-102375736D01*
X38222685Y-103022383D01*
X38185869Y-103046983D01*
X37700818Y-103528686D01*
X36295000Y-103528686D01*
X36295000Y-103276422D01*
X37236422Y-102335000D01*
X135483578Y-102335000D01*
X136425000Y-103276422D01*
X136425000Y-103276422D01*
G37*
X136425000Y-103276422D02*
X136425000Y-112474124D01*
X136403139Y-111960709D01*
X136187960Y-111441220D01*
X135966233Y-111260899D01*
X134832132Y-112395000D01*
X135966233Y-113529101D01*
X136187960Y-113348780D01*
X136425000Y-112699701D01*
X136425000Y-117554124D01*
X136403139Y-117040709D01*
X136187960Y-116521220D01*
X135966233Y-116340899D01*
X134832132Y-117475000D01*
X135966233Y-118609101D01*
X136187960Y-118428780D01*
X136425000Y-117779701D01*
X136425000Y-134699124D01*
X136403139Y-134185709D01*
X136187960Y-133666220D01*
X135966233Y-133485899D01*
X134832132Y-134620000D01*
X135966233Y-135754101D01*
X136187960Y-135573780D01*
X136425000Y-134924701D01*
X136425000Y-139779124D01*
X136403139Y-139265709D01*
X136187960Y-138746220D01*
X135966233Y-138565899D01*
X134832132Y-139700000D01*
X135966233Y-140834101D01*
X136187960Y-140653780D01*
X136425000Y-140004701D01*
X136425000Y-150723578D01*
X135483578Y-151665000D01*
X37236422Y-151665000D01*
X36295000Y-150723578D01*
X36295000Y-150471314D01*
X37700818Y-150471314D01*
X38185869Y-150953017D01*
X39762974Y-151615626D01*
X41473598Y-151624264D01*
X43057315Y-150977617D01*
X43094131Y-150953017D01*
X43579182Y-150471314D01*
X40640000Y-147532132D01*
X37700818Y-150471314D01*
X36295000Y-150471314D01*
X36295000Y-148153598D01*
X36335736Y-148153598D01*
X36982383Y-149737315D01*
X37006983Y-149774131D01*
X37488686Y-150259182D01*
X40427868Y-147320000D01*
X40852132Y-147320000D01*
X43791314Y-150259182D01*
X44273017Y-149774131D01*
X44663804Y-148844000D01*
X47039544Y-148844000D01*
X47039544Y-150876000D01*
X47063949Y-151005702D01*
X47140603Y-151124825D01*
X47257563Y-151204741D01*
X47396400Y-151232856D01*
X49123600Y-151232856D01*
X49253302Y-151208451D01*
X49372425Y-151131797D01*
X49452341Y-151014837D01*
X49480456Y-150876000D01*
X49480456Y-150192081D01*
X49650198Y-150192081D01*
X49806482Y-150618414D01*
X50114021Y-150952487D01*
X50471338Y-151128620D01*
X50650000Y-151090616D01*
X50650000Y-150010000D01*
X50950000Y-150010000D01*
X50950000Y-151090616D01*
X51128662Y-151128620D01*
X51485979Y-150952487D01*
X51793518Y-150618414D01*
X51949802Y-150192081D01*
X51888754Y-150010000D01*
X50950000Y-150010000D01*
X50650000Y-150010000D01*
X49711246Y-150010000D01*
X49650198Y-150192081D01*
X49480456Y-150192081D01*
X49480456Y-149527919D01*
X49650198Y-149527919D01*
X49711246Y-149710000D01*
X50650000Y-149710000D01*
X50650000Y-148629384D01*
X50950000Y-148629384D01*
X50950000Y-149710000D01*
X51888754Y-149710000D01*
X51898531Y-149680838D01*
X52126400Y-149680838D01*
X52126400Y-150039162D01*
X52218780Y-150503587D01*
X52481855Y-150897307D01*
X52875575Y-151160382D01*
X53340000Y-151252762D01*
X53804425Y-151160382D01*
X54198145Y-150897307D01*
X54461220Y-150503587D01*
X54553600Y-150039162D01*
X54553600Y-149680838D01*
X54666400Y-149680838D01*
X54666400Y-150039162D01*
X54758780Y-150503587D01*
X55021855Y-150897307D01*
X55415575Y-151160382D01*
X55880000Y-151252762D01*
X56344425Y-151160382D01*
X56738145Y-150897307D01*
X57001220Y-150503587D01*
X57093600Y-150039162D01*
X57093600Y-149680838D01*
X57206400Y-149680838D01*
X57206400Y-150039162D01*
X57298780Y-150503587D01*
X57561855Y-150897307D01*
X57955575Y-151160382D01*
X58420000Y-151252762D01*
X58884425Y-151160382D01*
X59278145Y-150897307D01*
X59541220Y-150503587D01*
X59633600Y-150039162D01*
X59633600Y-149680838D01*
X59746400Y-149680838D01*
X59746400Y-150039162D01*
X59838780Y-150503587D01*
X60101855Y-150897307D01*
X60495575Y-151160382D01*
X60960000Y-151252762D01*
X61424425Y-151160382D01*
X61818145Y-150897307D01*
X62081220Y-150503587D01*
X62173600Y-150039162D01*
X62173600Y-149680838D01*
X62286400Y-149680838D01*
X62286400Y-150039162D01*
X62378780Y-150503587D01*
X62641855Y-150897307D01*
X63035575Y-151160382D01*
X63500000Y-151252762D01*
X63964425Y-151160382D01*
X64358145Y-150897307D01*
X64621220Y-150503587D01*
X64713600Y-150039162D01*
X64713600Y-149680838D01*
X64826400Y-149680838D01*
X64826400Y-150039162D01*
X64918780Y-150503587D01*
X65181855Y-150897307D01*
X65575575Y-151160382D01*
X66040000Y-151252762D01*
X66504425Y-151160382D01*
X66898145Y-150897307D01*
X67161220Y-150503587D01*
X67253600Y-150039162D01*
X67253600Y-149680838D01*
X67366400Y-149680838D01*
X67366400Y-150039162D01*
X67458780Y-150503587D01*
X67721855Y-150897307D01*
X68115575Y-151160382D01*
X68580000Y-151252762D01*
X69044425Y-151160382D01*
X69438145Y-150897307D01*
X69701220Y-150503587D01*
X69763182Y-150192081D01*
X69970198Y-150192081D01*
X70126482Y-150618414D01*
X70434021Y-150952487D01*
X70791338Y-151128620D01*
X70970000Y-151090616D01*
X70970000Y-150010000D01*
X71270000Y-150010000D01*
X71270000Y-151090616D01*
X71448662Y-151128620D01*
X71805979Y-150952487D01*
X72113518Y-150618414D01*
X72269802Y-150192081D01*
X72208754Y-150010000D01*
X71270000Y-150010000D01*
X70970000Y-150010000D01*
X70031246Y-150010000D01*
X69970198Y-150192081D01*
X69763182Y-150192081D01*
X69793600Y-150039162D01*
X69793600Y-149680838D01*
X69763183Y-149527919D01*
X69970198Y-149527919D01*
X70031246Y-149710000D01*
X70970000Y-149710000D01*
X70970000Y-148629384D01*
X71270000Y-148629384D01*
X71270000Y-149710000D01*
X72208754Y-149710000D01*
X72218531Y-149680838D01*
X77526400Y-149680838D01*
X77526400Y-150039162D01*
X77618780Y-150503587D01*
X77881855Y-150897307D01*
X78275575Y-151160382D01*
X78740000Y-151252762D01*
X79204425Y-151160382D01*
X79598145Y-150897307D01*
X79861220Y-150503587D01*
X79953600Y-150039162D01*
X79953600Y-149680838D01*
X80066400Y-149680838D01*
X80066400Y-150039162D01*
X80158780Y-150503587D01*
X80421855Y-150897307D01*
X80815575Y-151160382D01*
X81280000Y-151252762D01*
X81744425Y-151160382D01*
X82138145Y-150897307D01*
X82401220Y-150503587D01*
X82493600Y-150039162D01*
X82493600Y-149680838D01*
X82606400Y-149680838D01*
X82606400Y-150039162D01*
X82698780Y-150503587D01*
X82961855Y-150897307D01*
X83355575Y-151160382D01*
X83820000Y-151252762D01*
X84284425Y-151160382D01*
X84678145Y-150897307D01*
X84941220Y-150503587D01*
X85033600Y-150039162D01*
X85033600Y-149680838D01*
X85146400Y-149680838D01*
X85146400Y-150039162D01*
X85238780Y-150503587D01*
X85501855Y-150897307D01*
X85895575Y-151160382D01*
X86360000Y-151252762D01*
X86824425Y-151160382D01*
X87218145Y-150897307D01*
X87481220Y-150503587D01*
X87573600Y-150039162D01*
X87573600Y-149680838D01*
X87686400Y-149680838D01*
X87686400Y-150039162D01*
X87778780Y-150503587D01*
X88041855Y-150897307D01*
X88435575Y-151160382D01*
X88900000Y-151252762D01*
X89364425Y-151160382D01*
X89758145Y-150897307D01*
X90021220Y-150503587D01*
X90104482Y-150085000D01*
X90276400Y-150085000D01*
X90276400Y-150935674D01*
X90322072Y-151045937D01*
X90406464Y-151130328D01*
X90516727Y-151176000D01*
X91215000Y-151176000D01*
X91290000Y-151101000D01*
X91290000Y-150010000D01*
X91590000Y-150010000D01*
X91590000Y-151101000D01*
X91665000Y-151176000D01*
X92363273Y-151176000D01*
X92473536Y-151130328D01*
X92557928Y-151045937D01*
X92603600Y-150935674D01*
X92603600Y-150471314D01*
X129140818Y-150471314D01*
X129625869Y-150953017D01*
X131202974Y-151615626D01*
X132913598Y-151624264D01*
X134497315Y-150977617D01*
X134534131Y-150953017D01*
X135019182Y-150471314D01*
X132080000Y-147532132D01*
X129140818Y-150471314D01*
X92603600Y-150471314D01*
X92603600Y-150085000D01*
X92528600Y-150010000D01*
X91590000Y-150010000D01*
X91290000Y-150010000D01*
X90351400Y-150010000D01*
X90276400Y-150085000D01*
X90104482Y-150085000D01*
X90113600Y-150039162D01*
X90113600Y-149680838D01*
X90021220Y-149216413D01*
X89758145Y-148822693D01*
X89700725Y-148784326D01*
X90276400Y-148784326D01*
X90276400Y-149635000D01*
X90351400Y-149710000D01*
X91290000Y-149710000D01*
X91290000Y-148619000D01*
X91590000Y-148619000D01*
X91590000Y-149710000D01*
X92528600Y-149710000D01*
X92603600Y-149635000D01*
X92603600Y-148784326D01*
X92557928Y-148674063D01*
X92473536Y-148589672D01*
X92363273Y-148544000D01*
X91665000Y-148544000D01*
X91590000Y-148619000D01*
X91290000Y-148619000D01*
X91215000Y-148544000D01*
X90516727Y-148544000D01*
X90406464Y-148589672D01*
X90322072Y-148674063D01*
X90276400Y-148784326D01*
X89700725Y-148784326D01*
X89364425Y-148559618D01*
X88900000Y-148467238D01*
X88435575Y-148559618D01*
X88041855Y-148822693D01*
X87778780Y-149216413D01*
X87686400Y-149680838D01*
X87573600Y-149680838D01*
X87481220Y-149216413D01*
X87218145Y-148822693D01*
X86824425Y-148559618D01*
X86360000Y-148467238D01*
X85895575Y-148559618D01*
X85501855Y-148822693D01*
X85238780Y-149216413D01*
X85146400Y-149680838D01*
X85033600Y-149680838D01*
X84941220Y-149216413D01*
X84678145Y-148822693D01*
X84284425Y-148559618D01*
X83820000Y-148467238D01*
X83355575Y-148559618D01*
X82961855Y-148822693D01*
X82698780Y-149216413D01*
X82606400Y-149680838D01*
X82493600Y-149680838D01*
X82401220Y-149216413D01*
X82138145Y-148822693D01*
X81744425Y-148559618D01*
X81280000Y-148467238D01*
X80815575Y-148559618D01*
X80421855Y-148822693D01*
X80158780Y-149216413D01*
X80066400Y-149680838D01*
X79953600Y-149680838D01*
X79861220Y-149216413D01*
X79598145Y-148822693D01*
X79204425Y-148559618D01*
X78740000Y-148467238D01*
X78275575Y-148559618D01*
X77881855Y-148822693D01*
X77618780Y-149216413D01*
X77526400Y-149680838D01*
X72218531Y-149680838D01*
X72269802Y-149527919D01*
X72113518Y-149101586D01*
X71805979Y-148767513D01*
X71448662Y-148591380D01*
X71270000Y-148629384D01*
X70970000Y-148629384D01*
X70791338Y-148591380D01*
X70434021Y-148767513D01*
X70126482Y-149101586D01*
X69970198Y-149527919D01*
X69763183Y-149527919D01*
X69701220Y-149216413D01*
X69438145Y-148822693D01*
X69044425Y-148559618D01*
X68580000Y-148467238D01*
X68115575Y-148559618D01*
X67721855Y-148822693D01*
X67458780Y-149216413D01*
X67366400Y-149680838D01*
X67253600Y-149680838D01*
X67161220Y-149216413D01*
X66898145Y-148822693D01*
X66504425Y-148559618D01*
X66040000Y-148467238D01*
X65575575Y-148559618D01*
X65181855Y-148822693D01*
X64918780Y-149216413D01*
X64826400Y-149680838D01*
X64713600Y-149680838D01*
X64621220Y-149216413D01*
X64358145Y-148822693D01*
X63964425Y-148559618D01*
X63500000Y-148467238D01*
X63035575Y-148559618D01*
X62641855Y-148822693D01*
X62378780Y-149216413D01*
X62286400Y-149680838D01*
X62173600Y-149680838D01*
X62081220Y-149216413D01*
X61818145Y-148822693D01*
X61424425Y-148559618D01*
X60960000Y-148467238D01*
X60495575Y-148559618D01*
X60101855Y-148822693D01*
X59838780Y-149216413D01*
X59746400Y-149680838D01*
X59633600Y-149680838D01*
X59541220Y-149216413D01*
X59278145Y-148822693D01*
X58884425Y-148559618D01*
X58420000Y-148467238D01*
X57955575Y-148559618D01*
X57561855Y-148822693D01*
X57298780Y-149216413D01*
X57206400Y-149680838D01*
X57093600Y-149680838D01*
X57001220Y-149216413D01*
X56738145Y-148822693D01*
X56344425Y-148559618D01*
X55880000Y-148467238D01*
X55415575Y-148559618D01*
X55021855Y-148822693D01*
X54758780Y-149216413D01*
X54666400Y-149680838D01*
X54553600Y-149680838D01*
X54461220Y-149216413D01*
X54198145Y-148822693D01*
X53804425Y-148559618D01*
X53340000Y-148467238D01*
X52875575Y-148559618D01*
X52481855Y-148822693D01*
X52218780Y-149216413D01*
X52126400Y-149680838D01*
X51898531Y-149680838D01*
X51949802Y-149527919D01*
X51793518Y-149101586D01*
X51485979Y-148767513D01*
X51128662Y-148591380D01*
X50950000Y-148629384D01*
X50650000Y-148629384D01*
X50471338Y-148591380D01*
X50114021Y-148767513D01*
X49806482Y-149101586D01*
X49650198Y-149527919D01*
X49480456Y-149527919D01*
X49480456Y-148844000D01*
X49456051Y-148714298D01*
X49379397Y-148595175D01*
X49262437Y-148515259D01*
X49123600Y-148487144D01*
X47396400Y-148487144D01*
X47266698Y-148511549D01*
X47147575Y-148588203D01*
X47067659Y-148705163D01*
X47039544Y-148844000D01*
X44663804Y-148844000D01*
X44935626Y-148197026D01*
X44935845Y-148153598D01*
X127775736Y-148153598D01*
X128422383Y-149737315D01*
X128446983Y-149774131D01*
X128928686Y-150259182D01*
X131867868Y-147320000D01*
X132292132Y-147320000D01*
X135231314Y-150259182D01*
X135713017Y-149774131D01*
X136375626Y-148197026D01*
X136384264Y-146486402D01*
X135737617Y-144902685D01*
X135713017Y-144865869D01*
X135231314Y-144380818D01*
X132292132Y-147320000D01*
X131867868Y-147320000D01*
X128928686Y-144380818D01*
X128446983Y-144865869D01*
X127784374Y-146442974D01*
X127775736Y-148153598D01*
X44935845Y-148153598D01*
X44944264Y-146486402D01*
X44297617Y-144902685D01*
X44273017Y-144865869D01*
X43791314Y-144380818D01*
X40852132Y-147320000D01*
X40427868Y-147320000D01*
X37488686Y-144380818D01*
X37006983Y-144865869D01*
X36344374Y-146442974D01*
X36335736Y-148153598D01*
X36295000Y-148153598D01*
X36295000Y-144168686D01*
X37700818Y-144168686D01*
X40640000Y-147107868D01*
X43540135Y-144207733D01*
X51004399Y-144207733D01*
X51245783Y-144481476D01*
X52099533Y-144810613D01*
X53014250Y-144787980D01*
X53754217Y-144481476D01*
X53819058Y-144407942D01*
X68349818Y-144407942D01*
X68509334Y-144794000D01*
X68804446Y-145089628D01*
X69190226Y-145249818D01*
X69607942Y-145250182D01*
X69994000Y-145090666D01*
X70289628Y-144795554D01*
X70449818Y-144409774D01*
X70449994Y-144207733D01*
X121004399Y-144207733D01*
X121245783Y-144481476D01*
X122099533Y-144810613D01*
X123014250Y-144787980D01*
X123754217Y-144481476D01*
X123995601Y-144207733D01*
X123956554Y-144168686D01*
X129140818Y-144168686D01*
X132080000Y-147107868D01*
X135019182Y-144168686D01*
X134534131Y-143686983D01*
X132957026Y-143024374D01*
X131246402Y-143015736D01*
X129662685Y-143662383D01*
X129625869Y-143686983D01*
X129140818Y-144168686D01*
X123956554Y-144168686D01*
X122500000Y-142712132D01*
X121004399Y-144207733D01*
X70449994Y-144207733D01*
X70450182Y-143992058D01*
X70290666Y-143606000D01*
X69995554Y-143310372D01*
X69609774Y-143150182D01*
X69192058Y-143149818D01*
X68806000Y-143309334D01*
X68510372Y-143604446D01*
X68350182Y-143990226D01*
X68349818Y-144407942D01*
X53819058Y-144407942D01*
X53995601Y-144207733D01*
X52500000Y-142712132D01*
X51004399Y-144207733D01*
X43540135Y-144207733D01*
X43579182Y-144168686D01*
X43094131Y-143686983D01*
X41517026Y-143024374D01*
X39806402Y-143015736D01*
X38222685Y-143662383D01*
X38185869Y-143686983D01*
X37700818Y-144168686D01*
X36295000Y-144168686D01*
X36295000Y-142099533D01*
X50189387Y-142099533D01*
X50212020Y-143014250D01*
X50518524Y-143754217D01*
X50792267Y-143995601D01*
X52287868Y-142500000D01*
X52712132Y-142500000D01*
X54207733Y-143995601D01*
X54481476Y-143754217D01*
X54810613Y-142900467D01*
X54790796Y-142099533D01*
X120189387Y-142099533D01*
X120212020Y-143014250D01*
X120518524Y-143754217D01*
X120792267Y-143995601D01*
X122287868Y-142500000D01*
X122712132Y-142500000D01*
X124207733Y-143995601D01*
X124481476Y-143754217D01*
X124810613Y-142900467D01*
X124787980Y-141985750D01*
X124481476Y-141245783D01*
X124255176Y-141046233D01*
X128405899Y-141046233D01*
X128586220Y-141267960D01*
X129258854Y-141513602D01*
X129974291Y-141483139D01*
X130493780Y-141267960D01*
X130674101Y-141046233D01*
X133485899Y-141046233D01*
X133666220Y-141267960D01*
X134338854Y-141513602D01*
X135054291Y-141483139D01*
X135573780Y-141267960D01*
X135754101Y-141046233D01*
X134620000Y-139912132D01*
X133485899Y-141046233D01*
X130674101Y-141046233D01*
X129540000Y-139912132D01*
X128405899Y-141046233D01*
X124255176Y-141046233D01*
X124207733Y-141004399D01*
X122712132Y-142500000D01*
X122287868Y-142500000D01*
X120792267Y-141004399D01*
X120518524Y-141245783D01*
X120189387Y-142099533D01*
X54790796Y-142099533D01*
X54787980Y-141985750D01*
X54481476Y-141245783D01*
X54393645Y-141168334D01*
X97549853Y-141168334D01*
X97678985Y-141480857D01*
X97917885Y-141720174D01*
X98230183Y-141849852D01*
X98568334Y-141850147D01*
X98880857Y-141721015D01*
X99120174Y-141482115D01*
X99249852Y-141169817D01*
X99250147Y-140831666D01*
X99233868Y-140792267D01*
X121004399Y-140792267D01*
X122500000Y-142287868D01*
X123995601Y-140792267D01*
X123754217Y-140518524D01*
X122900467Y-140189387D01*
X121985750Y-140212020D01*
X121245783Y-140518524D01*
X121004399Y-140792267D01*
X99233868Y-140792267D01*
X99121015Y-140519143D01*
X98882115Y-140279826D01*
X98569817Y-140150148D01*
X98231666Y-140149853D01*
X97919143Y-140278985D01*
X97679826Y-140517885D01*
X97550148Y-140830183D01*
X97549853Y-141168334D01*
X54393645Y-141168334D01*
X54207733Y-141004399D01*
X52712132Y-142500000D01*
X52287868Y-142500000D01*
X50792267Y-141004399D01*
X50518524Y-141245783D01*
X50189387Y-142099533D01*
X36295000Y-142099533D01*
X36295000Y-140028662D01*
X36831380Y-140028662D01*
X37007513Y-140385979D01*
X37341586Y-140693518D01*
X37767919Y-140849802D01*
X37950000Y-140788754D01*
X37950000Y-139850000D01*
X38250000Y-139850000D01*
X38250000Y-140788754D01*
X38432081Y-140849802D01*
X38589032Y-140792267D01*
X51004399Y-140792267D01*
X52500000Y-142287868D01*
X53995601Y-140792267D01*
X53754217Y-140518524D01*
X52900467Y-140189387D01*
X51985750Y-140212020D01*
X51245783Y-140518524D01*
X51004399Y-140792267D01*
X38589032Y-140792267D01*
X38858414Y-140693518D01*
X39192487Y-140385979D01*
X39368620Y-140028662D01*
X39330616Y-139850000D01*
X38250000Y-139850000D01*
X37950000Y-139850000D01*
X36869384Y-139850000D01*
X36831380Y-140028662D01*
X36295000Y-140028662D01*
X36295000Y-139371338D01*
X36831380Y-139371338D01*
X36869384Y-139550000D01*
X37950000Y-139550000D01*
X37950000Y-138611246D01*
X38250000Y-138611246D01*
X38250000Y-139550000D01*
X39330616Y-139550000D01*
X39368620Y-139371338D01*
X39192487Y-139014021D01*
X38858414Y-138706482D01*
X38432081Y-138550198D01*
X38250000Y-138611246D01*
X37950000Y-138611246D01*
X37767919Y-138550198D01*
X37341586Y-138706482D01*
X37007513Y-139014021D01*
X36831380Y-139371338D01*
X36295000Y-139371338D01*
X36295000Y-137488662D01*
X36831380Y-137488662D01*
X37007513Y-137845979D01*
X37341586Y-138153518D01*
X37767919Y-138309802D01*
X37950000Y-138248754D01*
X37950000Y-137310000D01*
X38250000Y-137310000D01*
X38250000Y-138248754D01*
X38432081Y-138309802D01*
X38858414Y-138153518D01*
X39101216Y-137930000D01*
X58992624Y-137930000D01*
X59085004Y-138394425D01*
X59348079Y-138788145D01*
X59741799Y-139051220D01*
X60206224Y-139143600D01*
X60253776Y-139143600D01*
X60718201Y-139051220D01*
X61111921Y-138788145D01*
X61374996Y-138394425D01*
X61467376Y-137930000D01*
X61532624Y-137930000D01*
X61625004Y-138394425D01*
X61888079Y-138788145D01*
X62281799Y-139051220D01*
X62746224Y-139143600D01*
X62793776Y-139143600D01*
X63258201Y-139051220D01*
X63651921Y-138788145D01*
X63914996Y-138394425D01*
X63967846Y-138128726D01*
X64649888Y-138128726D01*
X64748636Y-138367714D01*
X64931324Y-138550722D01*
X65042434Y-138596859D01*
X64964552Y-138674605D01*
X64850131Y-138950161D01*
X64849870Y-139248530D01*
X64963811Y-139524286D01*
X65174605Y-139735448D01*
X65450161Y-139849869D01*
X65748530Y-139850130D01*
X65752402Y-139848530D01*
X118549870Y-139848530D01*
X118663811Y-140124286D01*
X118874605Y-140335448D01*
X119150161Y-140449869D01*
X119448530Y-140450130D01*
X119724286Y-140336189D01*
X119935448Y-140125395D01*
X120049869Y-139849839D01*
X120050130Y-139551470D01*
X119995334Y-139418854D01*
X127726398Y-139418854D01*
X127756861Y-140134291D01*
X127972040Y-140653780D01*
X128193767Y-140834101D01*
X129327868Y-139700000D01*
X129752132Y-139700000D01*
X130886233Y-140834101D01*
X131107960Y-140653780D01*
X131353602Y-139981146D01*
X131329660Y-139418854D01*
X132806398Y-139418854D01*
X132836861Y-140134291D01*
X133052040Y-140653780D01*
X133273767Y-140834101D01*
X134407868Y-139700000D01*
X133273767Y-138565899D01*
X133052040Y-138746220D01*
X132806398Y-139418854D01*
X131329660Y-139418854D01*
X131323139Y-139265709D01*
X131107960Y-138746220D01*
X130886233Y-138565899D01*
X129752132Y-139700000D01*
X129327868Y-139700000D01*
X128193767Y-138565899D01*
X127972040Y-138746220D01*
X127726398Y-139418854D01*
X119995334Y-139418854D01*
X119936189Y-139275714D01*
X119725395Y-139064552D01*
X119449839Y-138950131D01*
X119151470Y-138949870D01*
X118875714Y-139063811D01*
X118664552Y-139274605D01*
X118550131Y-139550161D01*
X118549870Y-139848530D01*
X65752402Y-139848530D01*
X66024286Y-139736189D01*
X66235448Y-139525395D01*
X66349869Y-139249839D01*
X66350130Y-138951470D01*
X66236189Y-138675714D01*
X66025395Y-138464552D01*
X65834206Y-138385163D01*
X65850722Y-138368676D01*
X65856912Y-138353767D01*
X128405899Y-138353767D01*
X129540000Y-139487868D01*
X130674101Y-138353767D01*
X130493780Y-138132040D01*
X129821146Y-137886398D01*
X129105709Y-137916861D01*
X128586220Y-138132040D01*
X128405899Y-138353767D01*
X65856912Y-138353767D01*
X65949887Y-138129860D01*
X65950112Y-137871274D01*
X65851364Y-137632286D01*
X65847811Y-137628726D01*
X69549888Y-137628726D01*
X69648636Y-137867714D01*
X69831324Y-138050722D01*
X70070140Y-138149887D01*
X70328726Y-138150112D01*
X70567714Y-138051364D01*
X70750722Y-137868676D01*
X70849887Y-137629860D01*
X70850011Y-137486765D01*
X130429715Y-137486765D01*
X130680383Y-138093429D01*
X131144130Y-138557986D01*
X131750355Y-138809713D01*
X132406765Y-138810285D01*
X133013429Y-138559617D01*
X133219638Y-138353767D01*
X133485899Y-138353767D01*
X134620000Y-139487868D01*
X135754101Y-138353767D01*
X135573780Y-138132040D01*
X134901146Y-137886398D01*
X134185709Y-137916861D01*
X133666220Y-138132040D01*
X133485899Y-138353767D01*
X133219638Y-138353767D01*
X133477986Y-138095870D01*
X133729713Y-137489645D01*
X133730285Y-136833235D01*
X133479617Y-136226571D01*
X133219733Y-135966233D01*
X133485899Y-135966233D01*
X133666220Y-136187960D01*
X134338854Y-136433602D01*
X135054291Y-136403139D01*
X135573780Y-136187960D01*
X135754101Y-135966233D01*
X134620000Y-134832132D01*
X133485899Y-135966233D01*
X133219733Y-135966233D01*
X133015870Y-135762014D01*
X132409645Y-135510287D01*
X131753235Y-135509715D01*
X131146571Y-135760383D01*
X130682014Y-136224130D01*
X130430287Y-136830355D01*
X130429715Y-137486765D01*
X70850011Y-137486765D01*
X70850112Y-137371274D01*
X70843752Y-137355883D01*
X71070140Y-137449887D01*
X71328726Y-137450112D01*
X71567714Y-137351364D01*
X71750722Y-137168676D01*
X71849887Y-136929860D01*
X71850112Y-136671274D01*
X71751364Y-136432286D01*
X71568676Y-136249278D01*
X71329860Y-136150113D01*
X71071274Y-136149888D01*
X70832286Y-136248636D01*
X70649278Y-136431324D01*
X70550113Y-136670140D01*
X70549888Y-136928726D01*
X70556248Y-136944117D01*
X70329860Y-136850113D01*
X70071274Y-136849888D01*
X69832286Y-136948636D01*
X69649278Y-137131324D01*
X69550113Y-137370140D01*
X69549888Y-137628726D01*
X65847811Y-137628726D01*
X65668676Y-137449278D01*
X65429860Y-137350113D01*
X65171274Y-137349888D01*
X64932286Y-137448636D01*
X64749278Y-137631324D01*
X64650113Y-137870140D01*
X64649888Y-138128726D01*
X63967846Y-138128726D01*
X64007376Y-137930000D01*
X63914996Y-137465575D01*
X63651921Y-137071855D01*
X63258201Y-136808780D01*
X62793776Y-136716400D01*
X62746224Y-136716400D01*
X62281799Y-136808780D01*
X61888079Y-137071855D01*
X61625004Y-137465575D01*
X61532624Y-137930000D01*
X61467376Y-137930000D01*
X61374996Y-137465575D01*
X61111921Y-137071855D01*
X60718201Y-136808780D01*
X60253776Y-136716400D01*
X60206224Y-136716400D01*
X59741799Y-136808780D01*
X59348079Y-137071855D01*
X59085004Y-137465575D01*
X58992624Y-137930000D01*
X39101216Y-137930000D01*
X39192487Y-137845979D01*
X39368620Y-137488662D01*
X39330616Y-137310000D01*
X38250000Y-137310000D01*
X37950000Y-137310000D01*
X36869384Y-137310000D01*
X36831380Y-137488662D01*
X36295000Y-137488662D01*
X36295000Y-136831338D01*
X36831380Y-136831338D01*
X36869384Y-137010000D01*
X37950000Y-137010000D01*
X37950000Y-136071246D01*
X38250000Y-136071246D01*
X38250000Y-137010000D01*
X39330616Y-137010000D01*
X39368620Y-136831338D01*
X39192487Y-136474021D01*
X38858414Y-136166482D01*
X38432081Y-136010198D01*
X38250000Y-136071246D01*
X37950000Y-136071246D01*
X37767919Y-136010198D01*
X37341586Y-136166482D01*
X37007513Y-136474021D01*
X36831380Y-136831338D01*
X36295000Y-136831338D01*
X36295000Y-135907942D01*
X43249818Y-135907942D01*
X43409334Y-136294000D01*
X43704446Y-136589628D01*
X44090226Y-136749818D01*
X44507942Y-136750182D01*
X44894000Y-136590666D01*
X45156397Y-136328726D01*
X56549888Y-136328726D01*
X56648636Y-136567714D01*
X56831324Y-136750722D01*
X57070140Y-136849887D01*
X57328726Y-136850112D01*
X57567714Y-136751364D01*
X57750722Y-136568676D01*
X57849887Y-136329860D01*
X57850112Y-136071274D01*
X57751364Y-135832286D01*
X57568676Y-135649278D01*
X57329860Y-135550113D01*
X57071274Y-135549888D01*
X56832286Y-135648636D01*
X56649278Y-135831324D01*
X56550113Y-136070140D01*
X56549888Y-136328726D01*
X45156397Y-136328726D01*
X45189628Y-136295554D01*
X45349818Y-135909774D01*
X45350182Y-135492058D01*
X45308013Y-135390000D01*
X58992624Y-135390000D01*
X59085004Y-135854425D01*
X59348079Y-136248145D01*
X59741799Y-136511220D01*
X60206224Y-136603600D01*
X60253776Y-136603600D01*
X60718201Y-136511220D01*
X61111921Y-136248145D01*
X61374996Y-135854425D01*
X61467376Y-135390000D01*
X61532624Y-135390000D01*
X61625004Y-135854425D01*
X61888079Y-136248145D01*
X62281799Y-136511220D01*
X62746224Y-136603600D01*
X62793776Y-136603600D01*
X63258201Y-136511220D01*
X63651921Y-136248145D01*
X63785299Y-136048530D01*
X68449870Y-136048530D01*
X68563811Y-136324286D01*
X68774605Y-136535448D01*
X69050161Y-136649869D01*
X69348530Y-136650130D01*
X69624286Y-136536189D01*
X69835448Y-136325395D01*
X69949869Y-136049839D01*
X69949942Y-135966233D01*
X128405899Y-135966233D01*
X128586220Y-136187960D01*
X129258854Y-136433602D01*
X129974291Y-136403139D01*
X130493780Y-136187960D01*
X130674101Y-135966233D01*
X129540000Y-134832132D01*
X128405899Y-135966233D01*
X69949942Y-135966233D01*
X69950130Y-135751470D01*
X69836189Y-135475714D01*
X69625395Y-135264552D01*
X69349839Y-135150131D01*
X69051470Y-135149870D01*
X68775714Y-135263811D01*
X68564552Y-135474605D01*
X68450131Y-135750161D01*
X68449870Y-136048530D01*
X63785299Y-136048530D01*
X63914996Y-135854425D01*
X64007376Y-135390000D01*
X63914996Y-134925575D01*
X63651921Y-134531855D01*
X63363075Y-134338854D01*
X127726398Y-134338854D01*
X127756861Y-135054291D01*
X127972040Y-135573780D01*
X128193767Y-135754101D01*
X129327868Y-134620000D01*
X129752132Y-134620000D01*
X130886233Y-135754101D01*
X131107960Y-135573780D01*
X131353602Y-134901146D01*
X131329660Y-134338854D01*
X132806398Y-134338854D01*
X132836861Y-135054291D01*
X133052040Y-135573780D01*
X133273767Y-135754101D01*
X134407868Y-134620000D01*
X133273767Y-133485899D01*
X133052040Y-133666220D01*
X132806398Y-134338854D01*
X131329660Y-134338854D01*
X131323139Y-134185709D01*
X131107960Y-133666220D01*
X130886233Y-133485899D01*
X129752132Y-134620000D01*
X129327868Y-134620000D01*
X128193767Y-133485899D01*
X127972040Y-133666220D01*
X127726398Y-134338854D01*
X63363075Y-134338854D01*
X63258201Y-134268780D01*
X62793776Y-134176400D01*
X62746224Y-134176400D01*
X62281799Y-134268780D01*
X61888079Y-134531855D01*
X61625004Y-134925575D01*
X61532624Y-135390000D01*
X61467376Y-135390000D01*
X61374996Y-134925575D01*
X61111921Y-134531855D01*
X60718201Y-134268780D01*
X60253776Y-134176400D01*
X60206224Y-134176400D01*
X59741799Y-134268780D01*
X59348079Y-134531855D01*
X59085004Y-134925575D01*
X58992624Y-135390000D01*
X45308013Y-135390000D01*
X45190666Y-135106000D01*
X44895554Y-134810372D01*
X44509774Y-134650182D01*
X44092058Y-134649818D01*
X43706000Y-134809334D01*
X43410372Y-135104446D01*
X43250182Y-135490226D01*
X43249818Y-135907942D01*
X36295000Y-135907942D01*
X36295000Y-134620000D01*
X36707238Y-134620000D01*
X36799618Y-135084425D01*
X37062693Y-135478145D01*
X37456413Y-135741220D01*
X37920838Y-135833600D01*
X38279162Y-135833600D01*
X38743587Y-135741220D01*
X39137307Y-135478145D01*
X39400382Y-135084425D01*
X39492762Y-134620000D01*
X39400382Y-134155575D01*
X39137307Y-133761855D01*
X38743587Y-133498780D01*
X38279162Y-133406400D01*
X37920838Y-133406400D01*
X37456413Y-133498780D01*
X37062693Y-133761855D01*
X36799618Y-134155575D01*
X36707238Y-134620000D01*
X36295000Y-134620000D01*
X36295000Y-132080000D01*
X36707238Y-132080000D01*
X36799618Y-132544425D01*
X37062693Y-132938145D01*
X37456413Y-133201220D01*
X37920838Y-133293600D01*
X38279162Y-133293600D01*
X38743587Y-133201220D01*
X39137307Y-132938145D01*
X39330821Y-132648530D01*
X42749870Y-132648530D01*
X42863811Y-132924286D01*
X43074605Y-133135448D01*
X43350161Y-133249869D01*
X43648530Y-133250130D01*
X43924286Y-133136189D01*
X44135448Y-132925395D01*
X44166754Y-132850000D01*
X58992624Y-132850000D01*
X59085004Y-133314425D01*
X59348079Y-133708145D01*
X59741799Y-133971220D01*
X60206224Y-134063600D01*
X60253776Y-134063600D01*
X60718201Y-133971220D01*
X61111921Y-133708145D01*
X61374996Y-133314425D01*
X61467376Y-132850000D01*
X61532624Y-132850000D01*
X61625004Y-133314425D01*
X61888079Y-133708145D01*
X62281799Y-133971220D01*
X62746224Y-134063600D01*
X62793776Y-134063600D01*
X63258201Y-133971220D01*
X63651921Y-133708145D01*
X63914996Y-133314425D01*
X63971825Y-133028726D01*
X71649888Y-133028726D01*
X71748636Y-133267714D01*
X71931324Y-133450722D01*
X72170140Y-133549887D01*
X72428726Y-133550112D01*
X72667714Y-133451364D01*
X72850722Y-133268676D01*
X72949887Y-133029860D01*
X72949887Y-133028726D01*
X73749888Y-133028726D01*
X73848636Y-133267714D01*
X74031324Y-133450722D01*
X74270140Y-133549887D01*
X74528726Y-133550112D01*
X74767714Y-133451364D01*
X74945622Y-133273767D01*
X128405899Y-133273767D01*
X129540000Y-134407868D01*
X130674101Y-133273767D01*
X133485899Y-133273767D01*
X134620000Y-134407868D01*
X135754101Y-133273767D01*
X135573780Y-133052040D01*
X134901146Y-132806398D01*
X134185709Y-132836861D01*
X133666220Y-133052040D01*
X133485899Y-133273767D01*
X130674101Y-133273767D01*
X130493780Y-133052040D01*
X129821146Y-132806398D01*
X129105709Y-132836861D01*
X128586220Y-133052040D01*
X128405899Y-133273767D01*
X74945622Y-133273767D01*
X74950722Y-133268676D01*
X75049887Y-133029860D01*
X75050112Y-132771274D01*
X74951364Y-132532286D01*
X74768676Y-132349278D01*
X74529860Y-132250113D01*
X74271274Y-132249888D01*
X74032286Y-132348636D01*
X73849278Y-132531324D01*
X73750113Y-132770140D01*
X73749888Y-133028726D01*
X72949887Y-133028726D01*
X72950112Y-132771274D01*
X72851364Y-132532286D01*
X72668676Y-132349278D01*
X72429860Y-132250113D01*
X72171274Y-132249888D01*
X71932286Y-132348636D01*
X71749278Y-132531324D01*
X71650113Y-132770140D01*
X71649888Y-133028726D01*
X63971825Y-133028726D01*
X64007376Y-132850000D01*
X63914996Y-132385575D01*
X63651921Y-131991855D01*
X63437420Y-131848530D01*
X68449870Y-131848530D01*
X68563811Y-132124286D01*
X68774605Y-132335448D01*
X69050161Y-132449869D01*
X69348530Y-132450130D01*
X69624286Y-132336189D01*
X69835448Y-132125395D01*
X69908888Y-131948530D01*
X99449870Y-131948530D01*
X99563811Y-132224286D01*
X99774605Y-132435448D01*
X100050161Y-132549869D01*
X100348530Y-132550130D01*
X100624286Y-132436189D01*
X100692259Y-132368334D01*
X104649853Y-132368334D01*
X104778985Y-132680857D01*
X105017885Y-132920174D01*
X105330183Y-133049852D01*
X105668334Y-133050147D01*
X105980857Y-132921015D01*
X106220174Y-132682115D01*
X106349852Y-132369817D01*
X106350027Y-132168334D01*
X112949853Y-132168334D01*
X113078985Y-132480857D01*
X113317885Y-132720174D01*
X113630183Y-132849852D01*
X113968334Y-132850147D01*
X114280857Y-132721015D01*
X114520174Y-132482115D01*
X114649852Y-132169817D01*
X114650147Y-131831666D01*
X114521015Y-131519143D01*
X114282115Y-131279826D01*
X113969817Y-131150148D01*
X113631666Y-131149853D01*
X113319143Y-131278985D01*
X113079826Y-131517885D01*
X112950148Y-131830183D01*
X112949853Y-132168334D01*
X106350027Y-132168334D01*
X106350147Y-132031666D01*
X106221015Y-131719143D01*
X105982115Y-131479826D01*
X105669817Y-131350148D01*
X105331666Y-131349853D01*
X105019143Y-131478985D01*
X104779826Y-131717885D01*
X104650148Y-132030183D01*
X104649853Y-132368334D01*
X100692259Y-132368334D01*
X100835448Y-132225395D01*
X100949869Y-131949839D01*
X100950130Y-131651470D01*
X100836189Y-131375714D01*
X100625395Y-131164552D01*
X100349839Y-131050131D01*
X100051470Y-131049870D01*
X99775714Y-131163811D01*
X99564552Y-131374605D01*
X99450131Y-131650161D01*
X99449870Y-131948530D01*
X69908888Y-131948530D01*
X69949869Y-131849839D01*
X69950130Y-131551470D01*
X69836189Y-131275714D01*
X69625395Y-131064552D01*
X69349839Y-130950131D01*
X69051470Y-130949870D01*
X68775714Y-131063811D01*
X68564552Y-131274605D01*
X68450131Y-131550161D01*
X68449870Y-131848530D01*
X63437420Y-131848530D01*
X63258201Y-131728780D01*
X62793776Y-131636400D01*
X62746224Y-131636400D01*
X62281799Y-131728780D01*
X61888079Y-131991855D01*
X61625004Y-132385575D01*
X61532624Y-132850000D01*
X61467376Y-132850000D01*
X61374996Y-132385575D01*
X61111921Y-131991855D01*
X60718201Y-131728780D01*
X60253776Y-131636400D01*
X60206224Y-131636400D01*
X59741799Y-131728780D01*
X59348079Y-131991855D01*
X59085004Y-132385575D01*
X58992624Y-132850000D01*
X44166754Y-132850000D01*
X44249869Y-132649839D01*
X44250130Y-132351470D01*
X44136189Y-132075714D01*
X43925395Y-131864552D01*
X43649839Y-131750131D01*
X43351470Y-131749870D01*
X43075714Y-131863811D01*
X42864552Y-132074605D01*
X42750131Y-132350161D01*
X42749870Y-132648530D01*
X39330821Y-132648530D01*
X39400382Y-132544425D01*
X39492762Y-132080000D01*
X39400382Y-131615575D01*
X39137307Y-131221855D01*
X38743587Y-130958780D01*
X38279162Y-130866400D01*
X37920838Y-130866400D01*
X37456413Y-130958780D01*
X37062693Y-131221855D01*
X36799618Y-131615575D01*
X36707238Y-132080000D01*
X36295000Y-132080000D01*
X36295000Y-129868662D01*
X36831380Y-129868662D01*
X37007513Y-130225979D01*
X37341586Y-130533518D01*
X37767919Y-130689802D01*
X37950000Y-130628754D01*
X37950000Y-129690000D01*
X38250000Y-129690000D01*
X38250000Y-130628754D01*
X38432081Y-130689802D01*
X38858414Y-130533518D01*
X39101216Y-130310000D01*
X58992624Y-130310000D01*
X59085004Y-130774425D01*
X59348079Y-131168145D01*
X59741799Y-131431220D01*
X60206224Y-131523600D01*
X60253776Y-131523600D01*
X60718201Y-131431220D01*
X61111921Y-131168145D01*
X61374996Y-130774425D01*
X61467376Y-130310000D01*
X61532624Y-130310000D01*
X61625004Y-130774425D01*
X61888079Y-131168145D01*
X62281799Y-131431220D01*
X62746224Y-131523600D01*
X62793776Y-131523600D01*
X63258201Y-131431220D01*
X63651921Y-131168145D01*
X63914996Y-130774425D01*
X64007376Y-130310000D01*
X63995149Y-130248530D01*
X71949870Y-130248530D01*
X72063811Y-130524286D01*
X72274605Y-130735448D01*
X72550161Y-130849869D01*
X72848530Y-130850130D01*
X73124286Y-130736189D01*
X73335448Y-130525395D01*
X73449869Y-130249839D01*
X73450130Y-129951470D01*
X73407596Y-129848530D01*
X120749870Y-129848530D01*
X120863811Y-130124286D01*
X121074605Y-130335448D01*
X121350161Y-130449869D01*
X121648530Y-130450130D01*
X121924286Y-130336189D01*
X122135448Y-130125395D01*
X122200017Y-129969895D01*
X122263811Y-130124286D01*
X122474605Y-130335448D01*
X122750161Y-130449869D01*
X123048530Y-130450130D01*
X123324286Y-130336189D01*
X123535448Y-130125395D01*
X123649869Y-129849839D01*
X123650130Y-129551470D01*
X123536189Y-129275714D01*
X123325395Y-129064552D01*
X123049839Y-128950131D01*
X122751470Y-128949870D01*
X122475714Y-129063811D01*
X122264552Y-129274605D01*
X122199983Y-129430105D01*
X122136189Y-129275714D01*
X121925395Y-129064552D01*
X121649839Y-128950131D01*
X121351470Y-128949870D01*
X121075714Y-129063811D01*
X120864552Y-129274605D01*
X120750131Y-129550161D01*
X120749870Y-129848530D01*
X73407596Y-129848530D01*
X73336189Y-129675714D01*
X73125395Y-129464552D01*
X72849839Y-129350131D01*
X72551470Y-129349870D01*
X72275714Y-129463811D01*
X72064552Y-129674605D01*
X71950131Y-129950161D01*
X71949870Y-130248530D01*
X63995149Y-130248530D01*
X63914996Y-129845575D01*
X63651921Y-129451855D01*
X63258201Y-129188780D01*
X62793776Y-129096400D01*
X62746224Y-129096400D01*
X62281799Y-129188780D01*
X61888079Y-129451855D01*
X61625004Y-129845575D01*
X61532624Y-130310000D01*
X61467376Y-130310000D01*
X61374996Y-129845575D01*
X61111921Y-129451855D01*
X60718201Y-129188780D01*
X60253776Y-129096400D01*
X60206224Y-129096400D01*
X59741799Y-129188780D01*
X59348079Y-129451855D01*
X59085004Y-129845575D01*
X58992624Y-130310000D01*
X39101216Y-130310000D01*
X39192487Y-130225979D01*
X39368620Y-129868662D01*
X39330616Y-129690000D01*
X38250000Y-129690000D01*
X37950000Y-129690000D01*
X36869384Y-129690000D01*
X36831380Y-129868662D01*
X36295000Y-129868662D01*
X36295000Y-129211338D01*
X36831380Y-129211338D01*
X36869384Y-129390000D01*
X37950000Y-129390000D01*
X37950000Y-128451246D01*
X38250000Y-128451246D01*
X38250000Y-129390000D01*
X39330616Y-129390000D01*
X39368620Y-129211338D01*
X39192487Y-128854021D01*
X38858414Y-128546482D01*
X38432081Y-128390198D01*
X38250000Y-128451246D01*
X37950000Y-128451246D01*
X37767919Y-128390198D01*
X37341586Y-128546482D01*
X37007513Y-128854021D01*
X36831380Y-129211338D01*
X36295000Y-129211338D01*
X36295000Y-127225000D01*
X36784000Y-127225000D01*
X36784000Y-127923273D01*
X36829672Y-128033536D01*
X36914063Y-128117928D01*
X37024326Y-128163600D01*
X37875000Y-128163600D01*
X37950000Y-128088600D01*
X37950000Y-127150000D01*
X38250000Y-127150000D01*
X38250000Y-128088600D01*
X38325000Y-128163600D01*
X39175674Y-128163600D01*
X39285937Y-128117928D01*
X39370328Y-128033536D01*
X39416000Y-127923273D01*
X39416000Y-127770000D01*
X58992624Y-127770000D01*
X59085004Y-128234425D01*
X59348079Y-128628145D01*
X59741799Y-128891220D01*
X60206224Y-128983600D01*
X60253776Y-128983600D01*
X60718201Y-128891220D01*
X61111921Y-128628145D01*
X61374996Y-128234425D01*
X61467376Y-127770000D01*
X61532624Y-127770000D01*
X61625004Y-128234425D01*
X61888079Y-128628145D01*
X62281799Y-128891220D01*
X62746224Y-128983600D01*
X62793776Y-128983600D01*
X63258201Y-128891220D01*
X63322091Y-128848530D01*
X111049870Y-128848530D01*
X111163811Y-129124286D01*
X111374605Y-129335448D01*
X111650161Y-129449869D01*
X111948530Y-129450130D01*
X112224286Y-129336189D01*
X112435448Y-129125395D01*
X112549869Y-128849839D01*
X112550130Y-128551470D01*
X112436189Y-128275714D01*
X112225395Y-128064552D01*
X111949839Y-127950131D01*
X111651470Y-127949870D01*
X111375714Y-128063811D01*
X111164552Y-128274605D01*
X111050131Y-128550161D01*
X111049870Y-128848530D01*
X63322091Y-128848530D01*
X63651921Y-128628145D01*
X63914996Y-128234425D01*
X64007376Y-127770000D01*
X63949438Y-127478726D01*
X75849888Y-127478726D01*
X75948636Y-127717714D01*
X76131324Y-127900722D01*
X76370140Y-127999887D01*
X76628726Y-128000112D01*
X76867714Y-127901364D01*
X77050722Y-127718676D01*
X77149887Y-127479860D01*
X77150112Y-127221274D01*
X77051364Y-126982286D01*
X76868676Y-126799278D01*
X76629860Y-126700113D01*
X76371274Y-126699888D01*
X76132286Y-126798636D01*
X75949278Y-126981324D01*
X75850113Y-127220140D01*
X75849888Y-127478726D01*
X63949438Y-127478726D01*
X63914996Y-127305575D01*
X63651921Y-126911855D01*
X63258201Y-126648780D01*
X62793776Y-126556400D01*
X62746224Y-126556400D01*
X62281799Y-126648780D01*
X61888079Y-126911855D01*
X61625004Y-127305575D01*
X61532624Y-127770000D01*
X61467376Y-127770000D01*
X61374996Y-127305575D01*
X61111921Y-126911855D01*
X60718201Y-126648780D01*
X60253776Y-126556400D01*
X60206224Y-126556400D01*
X59741799Y-126648780D01*
X59348079Y-126911855D01*
X59085004Y-127305575D01*
X58992624Y-127770000D01*
X39416000Y-127770000D01*
X39416000Y-127225000D01*
X39341000Y-127150000D01*
X38250000Y-127150000D01*
X37950000Y-127150000D01*
X36859000Y-127150000D01*
X36784000Y-127225000D01*
X36295000Y-127225000D01*
X36295000Y-126076727D01*
X36784000Y-126076727D01*
X36784000Y-126775000D01*
X36859000Y-126850000D01*
X37950000Y-126850000D01*
X37950000Y-125911400D01*
X38250000Y-125911400D01*
X38250000Y-126850000D01*
X39341000Y-126850000D01*
X39416000Y-126775000D01*
X39416000Y-126076727D01*
X39370328Y-125966464D01*
X39285937Y-125882072D01*
X39175674Y-125836400D01*
X38325000Y-125836400D01*
X38250000Y-125911400D01*
X37950000Y-125911400D01*
X37875000Y-125836400D01*
X37024326Y-125836400D01*
X36914063Y-125882072D01*
X36829672Y-125966464D01*
X36784000Y-126076727D01*
X36295000Y-126076727D01*
X36295000Y-125207942D01*
X40049818Y-125207942D01*
X40209334Y-125594000D01*
X40504446Y-125889628D01*
X40890226Y-126049818D01*
X41307942Y-126050182D01*
X41694000Y-125890666D01*
X41989628Y-125595554D01*
X42149818Y-125209774D01*
X42150081Y-124907942D01*
X49349818Y-124907942D01*
X49509334Y-125294000D01*
X49804446Y-125589628D01*
X50190226Y-125749818D01*
X50607942Y-125750182D01*
X50994000Y-125590666D01*
X51289628Y-125295554D01*
X51316848Y-125230000D01*
X58992624Y-125230000D01*
X59085004Y-125694425D01*
X59348079Y-126088145D01*
X59741799Y-126351220D01*
X60206224Y-126443600D01*
X60253776Y-126443600D01*
X60718201Y-126351220D01*
X61111921Y-126088145D01*
X61374996Y-125694425D01*
X61467376Y-125230000D01*
X61532624Y-125230000D01*
X61625004Y-125694425D01*
X61888079Y-126088145D01*
X62281799Y-126351220D01*
X62746224Y-126443600D01*
X62793776Y-126443600D01*
X63258201Y-126351220D01*
X63651921Y-126088145D01*
X63914996Y-125694425D01*
X63987738Y-125328726D01*
X66949888Y-125328726D01*
X67048636Y-125567714D01*
X67231324Y-125750722D01*
X67470140Y-125849887D01*
X67728726Y-125850112D01*
X67789643Y-125824941D01*
X67848636Y-125967714D01*
X67871850Y-125990969D01*
X67732286Y-126048636D01*
X67549278Y-126231324D01*
X67450113Y-126470140D01*
X67449888Y-126728726D01*
X67548636Y-126967714D01*
X67731324Y-127150722D01*
X67970140Y-127249887D01*
X68228726Y-127250112D01*
X68467714Y-127151364D01*
X68650722Y-126968676D01*
X68749887Y-126729860D01*
X68750112Y-126471274D01*
X68651364Y-126232286D01*
X68628150Y-126209031D01*
X68767714Y-126151364D01*
X68940654Y-125978726D01*
X78849888Y-125978726D01*
X78948636Y-126217714D01*
X79131324Y-126400722D01*
X79370140Y-126499887D01*
X79628726Y-126500112D01*
X79867714Y-126401364D01*
X79886429Y-126382682D01*
X79850113Y-126470140D01*
X79849888Y-126728726D01*
X79948636Y-126967714D01*
X80131324Y-127150722D01*
X80370140Y-127249887D01*
X80628726Y-127250112D01*
X80867714Y-127151364D01*
X81050722Y-126968676D01*
X81149887Y-126729860D01*
X81150112Y-126471274D01*
X81051364Y-126232286D01*
X81047811Y-126228726D01*
X94149888Y-126228726D01*
X94248636Y-126467714D01*
X94431324Y-126650722D01*
X94670140Y-126749887D01*
X94928726Y-126750112D01*
X95167714Y-126651364D01*
X95350722Y-126468676D01*
X95449887Y-126229860D01*
X95450112Y-125971274D01*
X95351364Y-125732286D01*
X95168676Y-125549278D01*
X94929860Y-125450113D01*
X94671274Y-125449888D01*
X94432286Y-125548636D01*
X94249278Y-125731324D01*
X94150113Y-125970140D01*
X94149888Y-126228726D01*
X81047811Y-126228726D01*
X80868676Y-126049278D01*
X80629860Y-125950113D01*
X80371274Y-125949888D01*
X80132286Y-126048636D01*
X80113571Y-126067318D01*
X80149887Y-125979860D01*
X80150112Y-125721274D01*
X80051364Y-125482286D01*
X79868676Y-125299278D01*
X79629860Y-125200113D01*
X79371274Y-125199888D01*
X79132286Y-125298636D01*
X78949278Y-125481324D01*
X78850113Y-125720140D01*
X78849888Y-125978726D01*
X68940654Y-125978726D01*
X68950722Y-125968676D01*
X69049887Y-125729860D01*
X69050112Y-125471274D01*
X68951364Y-125232286D01*
X68768676Y-125049278D01*
X68529860Y-124950113D01*
X68271274Y-124949888D01*
X68210357Y-124975059D01*
X68151364Y-124832286D01*
X67968676Y-124649278D01*
X67729860Y-124550113D01*
X67471274Y-124549888D01*
X67232286Y-124648636D01*
X67049278Y-124831324D01*
X66950113Y-125070140D01*
X66949888Y-125328726D01*
X63987738Y-125328726D01*
X64007376Y-125230000D01*
X63914996Y-124765575D01*
X63651921Y-124371855D01*
X63258201Y-124108780D01*
X62793776Y-124016400D01*
X62746224Y-124016400D01*
X62281799Y-124108780D01*
X61888079Y-124371855D01*
X61625004Y-124765575D01*
X61532624Y-125230000D01*
X61467376Y-125230000D01*
X61374996Y-124765575D01*
X61111921Y-124371855D01*
X60718201Y-124108780D01*
X60253776Y-124016400D01*
X60206224Y-124016400D01*
X59741799Y-124108780D01*
X59348079Y-124371855D01*
X59085004Y-124765575D01*
X58992624Y-125230000D01*
X51316848Y-125230000D01*
X51449818Y-124909774D01*
X51450182Y-124492058D01*
X51290666Y-124106000D01*
X51013876Y-123828726D01*
X79649888Y-123828726D01*
X79748636Y-124067714D01*
X79931324Y-124250722D01*
X80170140Y-124349887D01*
X80428726Y-124350112D01*
X80667714Y-124251364D01*
X80690391Y-124228726D01*
X81849888Y-124228726D01*
X81948636Y-124467714D01*
X82131324Y-124650722D01*
X82370140Y-124749887D01*
X82628726Y-124750112D01*
X82867714Y-124651364D01*
X82890391Y-124628726D01*
X92549888Y-124628726D01*
X92648636Y-124867714D01*
X92831324Y-125050722D01*
X93070140Y-125149887D01*
X93328726Y-125150112D01*
X93567714Y-125051364D01*
X93750722Y-124868676D01*
X93849887Y-124629860D01*
X93850112Y-124371274D01*
X93751364Y-124132286D01*
X93568676Y-123949278D01*
X93329860Y-123850113D01*
X93071274Y-123849888D01*
X92832286Y-123948636D01*
X92649278Y-124131324D01*
X92550113Y-124370140D01*
X92549888Y-124628726D01*
X82890391Y-124628726D01*
X83050722Y-124468676D01*
X83149887Y-124229860D01*
X83150112Y-123971274D01*
X83051364Y-123732286D01*
X82868676Y-123549278D01*
X82629860Y-123450113D01*
X82371274Y-123449888D01*
X82132286Y-123548636D01*
X81949278Y-123731324D01*
X81850113Y-123970140D01*
X81849888Y-124228726D01*
X80690391Y-124228726D01*
X80850722Y-124068676D01*
X80949887Y-123829860D01*
X80950112Y-123571274D01*
X80851364Y-123332286D01*
X80668676Y-123149278D01*
X80429860Y-123050113D01*
X80171274Y-123049888D01*
X79932286Y-123148636D01*
X79749278Y-123331324D01*
X79650113Y-123570140D01*
X79649888Y-123828726D01*
X51013876Y-123828726D01*
X50995554Y-123810372D01*
X50609774Y-123650182D01*
X50192058Y-123649818D01*
X49806000Y-123809334D01*
X49510372Y-124104446D01*
X49350182Y-124490226D01*
X49349818Y-124907942D01*
X42150081Y-124907942D01*
X42150182Y-124792058D01*
X41990666Y-124406000D01*
X41695554Y-124110372D01*
X41309774Y-123950182D01*
X40892058Y-123949818D01*
X40506000Y-124109334D01*
X40210372Y-124404446D01*
X40050182Y-124790226D01*
X40049818Y-125207942D01*
X36295000Y-125207942D01*
X36295000Y-123018662D01*
X59113780Y-123018662D01*
X59208303Y-123246896D01*
X59499190Y-123595491D01*
X59901336Y-123806234D01*
X60080000Y-123768906D01*
X60080000Y-122840000D01*
X60380000Y-122840000D01*
X60380000Y-123768906D01*
X60558664Y-123806234D01*
X60960810Y-123595491D01*
X61251697Y-123246896D01*
X61346220Y-123018662D01*
X61653780Y-123018662D01*
X61748303Y-123246896D01*
X62039190Y-123595491D01*
X62441336Y-123806234D01*
X62620000Y-123768906D01*
X62620000Y-122840000D01*
X62920000Y-122840000D01*
X62920000Y-123768906D01*
X63098664Y-123806234D01*
X63500810Y-123595491D01*
X63791697Y-123246896D01*
X63886220Y-123018662D01*
X63848216Y-122840000D01*
X62920000Y-122840000D01*
X62620000Y-122840000D01*
X61691784Y-122840000D01*
X61653780Y-123018662D01*
X61346220Y-123018662D01*
X61308216Y-122840000D01*
X60380000Y-122840000D01*
X60080000Y-122840000D01*
X59151784Y-122840000D01*
X59113780Y-123018662D01*
X36295000Y-123018662D01*
X36295000Y-122361338D01*
X59113780Y-122361338D01*
X59151784Y-122540000D01*
X60080000Y-122540000D01*
X60080000Y-121611094D01*
X60380000Y-121611094D01*
X60380000Y-122540000D01*
X61308216Y-122540000D01*
X61346220Y-122361338D01*
X61653780Y-122361338D01*
X61691784Y-122540000D01*
X62620000Y-122540000D01*
X62620000Y-121611094D01*
X62920000Y-121611094D01*
X62920000Y-122540000D01*
X63848216Y-122540000D01*
X63886220Y-122361338D01*
X63831299Y-122228726D01*
X70349888Y-122228726D01*
X70448636Y-122467714D01*
X70631324Y-122650722D01*
X70870140Y-122749887D01*
X71128726Y-122750112D01*
X71367714Y-122651364D01*
X71550722Y-122468676D01*
X71649887Y-122229860D01*
X71650062Y-122028726D01*
X79749888Y-122028726D01*
X79848636Y-122267714D01*
X80031324Y-122450722D01*
X80270140Y-122549887D01*
X80528726Y-122550112D01*
X80767714Y-122451364D01*
X80950722Y-122268676D01*
X81049887Y-122029860D01*
X81050112Y-121771274D01*
X80991213Y-121628726D01*
X88149888Y-121628726D01*
X88248636Y-121867714D01*
X88431324Y-122050722D01*
X88670140Y-122149887D01*
X88928726Y-122150112D01*
X89167714Y-122051364D01*
X89350722Y-121868676D01*
X89449887Y-121629860D01*
X89450112Y-121371274D01*
X89351364Y-121132286D01*
X89168676Y-120949278D01*
X88929860Y-120850113D01*
X88671274Y-120849888D01*
X88432286Y-120948636D01*
X88249278Y-121131324D01*
X88150113Y-121370140D01*
X88149888Y-121628726D01*
X80991213Y-121628726D01*
X80951364Y-121532286D01*
X80768676Y-121349278D01*
X80529860Y-121250113D01*
X80271274Y-121249888D01*
X80032286Y-121348636D01*
X79849278Y-121531324D01*
X79750113Y-121770140D01*
X79749888Y-122028726D01*
X71650062Y-122028726D01*
X71650112Y-121971274D01*
X71551364Y-121732286D01*
X71368676Y-121549278D01*
X71129860Y-121450113D01*
X70871274Y-121449888D01*
X70632286Y-121548636D01*
X70449278Y-121731324D01*
X70350113Y-121970140D01*
X70349888Y-122228726D01*
X63831299Y-122228726D01*
X63791697Y-122133104D01*
X63500810Y-121784509D01*
X63098664Y-121573766D01*
X62920000Y-121611094D01*
X62620000Y-121611094D01*
X62441336Y-121573766D01*
X62039190Y-121784509D01*
X61748303Y-122133104D01*
X61653780Y-122361338D01*
X61346220Y-122361338D01*
X61251697Y-122133104D01*
X60960810Y-121784509D01*
X60558664Y-121573766D01*
X60380000Y-121611094D01*
X60080000Y-121611094D01*
X59901336Y-121573766D01*
X59499190Y-121784509D01*
X59208303Y-122133104D01*
X59113780Y-122361338D01*
X36295000Y-122361338D01*
X36295000Y-120150000D01*
X58992624Y-120150000D01*
X59085004Y-120614425D01*
X59348079Y-121008145D01*
X59741799Y-121271220D01*
X60206224Y-121363600D01*
X60253776Y-121363600D01*
X60718201Y-121271220D01*
X61111921Y-121008145D01*
X61374996Y-120614425D01*
X61467376Y-120150000D01*
X61532624Y-120150000D01*
X61625004Y-120614425D01*
X61888079Y-121008145D01*
X62281799Y-121271220D01*
X62746224Y-121363600D01*
X62793776Y-121363600D01*
X63258201Y-121271220D01*
X63651921Y-121008145D01*
X63771804Y-120828726D01*
X91049888Y-120828726D01*
X91148636Y-121067714D01*
X91331324Y-121250722D01*
X91570140Y-121349887D01*
X91828726Y-121350112D01*
X92067714Y-121251364D01*
X92250722Y-121068676D01*
X92349887Y-120829860D01*
X92350112Y-120571274D01*
X92251364Y-120332286D01*
X92068676Y-120149278D01*
X91829860Y-120050113D01*
X91571274Y-120049888D01*
X91332286Y-120148636D01*
X91149278Y-120331324D01*
X91050113Y-120570140D01*
X91049888Y-120828726D01*
X63771804Y-120828726D01*
X63914996Y-120614425D01*
X64007376Y-120150000D01*
X63923580Y-119728726D01*
X79849888Y-119728726D01*
X79948636Y-119967714D01*
X80131324Y-120150722D01*
X80370140Y-120249887D01*
X80628726Y-120250112D01*
X80867714Y-120151364D01*
X81050722Y-119968676D01*
X81129596Y-119778726D01*
X88149888Y-119778726D01*
X88248636Y-120017714D01*
X88431324Y-120200722D01*
X88670140Y-120299887D01*
X88928726Y-120300112D01*
X89167714Y-120201364D01*
X89350722Y-120018676D01*
X89449887Y-119779860D01*
X89450112Y-119521274D01*
X89351364Y-119282286D01*
X89168676Y-119099278D01*
X88929860Y-119000113D01*
X88671274Y-118999888D01*
X88432286Y-119098636D01*
X88249278Y-119281324D01*
X88150113Y-119520140D01*
X88149888Y-119778726D01*
X81129596Y-119778726D01*
X81149887Y-119729860D01*
X81150112Y-119471274D01*
X81051364Y-119232286D01*
X80868676Y-119049278D01*
X80629860Y-118950113D01*
X80371274Y-118949888D01*
X80132286Y-119048636D01*
X79949278Y-119231324D01*
X79850113Y-119470140D01*
X79849888Y-119728726D01*
X63923580Y-119728726D01*
X63914996Y-119685575D01*
X63651921Y-119291855D01*
X63258201Y-119028780D01*
X62793776Y-118936400D01*
X62746224Y-118936400D01*
X62281799Y-119028780D01*
X61888079Y-119291855D01*
X61625004Y-119685575D01*
X61532624Y-120150000D01*
X61467376Y-120150000D01*
X61374996Y-119685575D01*
X61111921Y-119291855D01*
X60718201Y-119028780D01*
X60253776Y-118936400D01*
X60206224Y-118936400D01*
X59741799Y-119028780D01*
X59348079Y-119291855D01*
X59085004Y-119685575D01*
X58992624Y-120150000D01*
X36295000Y-120150000D01*
X36295000Y-117610000D01*
X58992624Y-117610000D01*
X59085004Y-118074425D01*
X59348079Y-118468145D01*
X59741799Y-118731220D01*
X60206224Y-118823600D01*
X60253776Y-118823600D01*
X60718201Y-118731220D01*
X61111921Y-118468145D01*
X61374996Y-118074425D01*
X61467376Y-117610000D01*
X61532624Y-117610000D01*
X61625004Y-118074425D01*
X61888079Y-118468145D01*
X62281799Y-118731220D01*
X62746224Y-118823600D01*
X62793776Y-118823600D01*
X63258201Y-118731220D01*
X63651921Y-118468145D01*
X63745077Y-118328726D01*
X73499888Y-118328726D01*
X73598636Y-118567714D01*
X73781324Y-118750722D01*
X74020140Y-118849887D01*
X74278726Y-118850112D01*
X74517714Y-118751364D01*
X74574939Y-118694239D01*
X74631324Y-118750722D01*
X74870140Y-118849887D01*
X75128726Y-118850112D01*
X75367714Y-118751364D01*
X75550722Y-118568676D01*
X75567310Y-118528726D01*
X82449888Y-118528726D01*
X82548636Y-118767714D01*
X82731324Y-118950722D01*
X82970140Y-119049887D01*
X83228726Y-119050112D01*
X83467714Y-118951364D01*
X83650722Y-118768676D01*
X83749887Y-118529860D01*
X83749974Y-118428726D01*
X84449888Y-118428726D01*
X84548636Y-118667714D01*
X84731324Y-118850722D01*
X84970140Y-118949887D01*
X85228726Y-118950112D01*
X85467714Y-118851364D01*
X85650722Y-118668676D01*
X85742134Y-118448530D01*
X105249870Y-118448530D01*
X105363811Y-118724286D01*
X105574605Y-118935448D01*
X105850161Y-119049869D01*
X106049956Y-119050044D01*
X106049870Y-119148530D01*
X106163811Y-119424286D01*
X106374605Y-119635448D01*
X106650161Y-119749869D01*
X106948530Y-119750130D01*
X107224286Y-119636189D01*
X107435448Y-119425395D01*
X107549869Y-119149839D01*
X107550130Y-118851470D01*
X107537637Y-118821233D01*
X128405899Y-118821233D01*
X128586220Y-119042960D01*
X129258854Y-119288602D01*
X129974291Y-119258139D01*
X130493780Y-119042960D01*
X130674101Y-118821233D01*
X133485899Y-118821233D01*
X133666220Y-119042960D01*
X134338854Y-119288602D01*
X135054291Y-119258139D01*
X135573780Y-119042960D01*
X135754101Y-118821233D01*
X134620000Y-117687132D01*
X133485899Y-118821233D01*
X130674101Y-118821233D01*
X129540000Y-117687132D01*
X128405899Y-118821233D01*
X107537637Y-118821233D01*
X107436189Y-118575714D01*
X107225395Y-118364552D01*
X106949839Y-118250131D01*
X106750044Y-118249956D01*
X106750130Y-118151470D01*
X106636189Y-117875714D01*
X106425395Y-117664552D01*
X106149839Y-117550131D01*
X105851470Y-117549870D01*
X105575714Y-117663811D01*
X105364552Y-117874605D01*
X105250131Y-118150161D01*
X105249870Y-118448530D01*
X85742134Y-118448530D01*
X85749887Y-118429860D01*
X85750112Y-118171274D01*
X85651364Y-117932286D01*
X85468676Y-117749278D01*
X85229860Y-117650113D01*
X84971274Y-117649888D01*
X84732286Y-117748636D01*
X84549278Y-117931324D01*
X84450113Y-118170140D01*
X84449888Y-118428726D01*
X83749974Y-118428726D01*
X83750112Y-118271274D01*
X83651364Y-118032286D01*
X83468676Y-117849278D01*
X83229860Y-117750113D01*
X82971274Y-117749888D01*
X82732286Y-117848636D01*
X82549278Y-118031324D01*
X82450113Y-118270140D01*
X82449888Y-118528726D01*
X75567310Y-118528726D01*
X75649887Y-118329860D01*
X75650112Y-118071274D01*
X75551364Y-117832286D01*
X75368676Y-117649278D01*
X75129860Y-117550113D01*
X74871274Y-117549888D01*
X74632286Y-117648636D01*
X74575061Y-117705761D01*
X74518676Y-117649278D01*
X74279860Y-117550113D01*
X74021274Y-117549888D01*
X73782286Y-117648636D01*
X73599278Y-117831324D01*
X73500113Y-118070140D01*
X73499888Y-118328726D01*
X63745077Y-118328726D01*
X63914996Y-118074425D01*
X64007376Y-117610000D01*
X63924600Y-117193854D01*
X127726398Y-117193854D01*
X127756861Y-117909291D01*
X127972040Y-118428780D01*
X128193767Y-118609101D01*
X129327868Y-117475000D01*
X129752132Y-117475000D01*
X130886233Y-118609101D01*
X131107960Y-118428780D01*
X131353602Y-117756146D01*
X131329660Y-117193854D01*
X132806398Y-117193854D01*
X132836861Y-117909291D01*
X133052040Y-118428780D01*
X133273767Y-118609101D01*
X134407868Y-117475000D01*
X133273767Y-116340899D01*
X133052040Y-116521220D01*
X132806398Y-117193854D01*
X131329660Y-117193854D01*
X131323139Y-117040709D01*
X131107960Y-116521220D01*
X130886233Y-116340899D01*
X129752132Y-117475000D01*
X129327868Y-117475000D01*
X128193767Y-116340899D01*
X127972040Y-116521220D01*
X127726398Y-117193854D01*
X63924600Y-117193854D01*
X63914996Y-117145575D01*
X63651921Y-116751855D01*
X63258201Y-116488780D01*
X62793776Y-116396400D01*
X62746224Y-116396400D01*
X62281799Y-116488780D01*
X61888079Y-116751855D01*
X61625004Y-117145575D01*
X61532624Y-117610000D01*
X61467376Y-117610000D01*
X61374996Y-117145575D01*
X61111921Y-116751855D01*
X60718201Y-116488780D01*
X60253776Y-116396400D01*
X60206224Y-116396400D01*
X59741799Y-116488780D01*
X59348079Y-116751855D01*
X59085004Y-117145575D01*
X58992624Y-117610000D01*
X36295000Y-117610000D01*
X36295000Y-116328726D01*
X71349888Y-116328726D01*
X71448636Y-116567714D01*
X71631324Y-116750722D01*
X71870140Y-116849887D01*
X72128726Y-116850112D01*
X72367714Y-116751364D01*
X72550722Y-116568676D01*
X72649887Y-116329860D01*
X72650061Y-116128767D01*
X128405899Y-116128767D01*
X129540000Y-117262868D01*
X130674101Y-116128767D01*
X130493780Y-115907040D01*
X129821146Y-115661398D01*
X129105709Y-115691861D01*
X128586220Y-115907040D01*
X128405899Y-116128767D01*
X72650061Y-116128767D01*
X72650112Y-116071274D01*
X72551364Y-115832286D01*
X72368676Y-115649278D01*
X72129860Y-115550113D01*
X71871274Y-115549888D01*
X71632286Y-115648636D01*
X71449278Y-115831324D01*
X71350113Y-116070140D01*
X71349888Y-116328726D01*
X36295000Y-116328726D01*
X36295000Y-115070000D01*
X58992624Y-115070000D01*
X59085004Y-115534425D01*
X59348079Y-115928145D01*
X59741799Y-116191220D01*
X60206224Y-116283600D01*
X60253776Y-116283600D01*
X60718201Y-116191220D01*
X61111921Y-115928145D01*
X61374996Y-115534425D01*
X61467376Y-115070000D01*
X61374996Y-114605575D01*
X61111921Y-114211855D01*
X61103758Y-114206400D01*
X61549544Y-114206400D01*
X61549544Y-115933600D01*
X61573949Y-116063302D01*
X61650603Y-116182425D01*
X61767563Y-116262341D01*
X61906400Y-116290456D01*
X63633600Y-116290456D01*
X63763302Y-116266051D01*
X63882425Y-116189397D01*
X63962341Y-116072437D01*
X63990456Y-115933600D01*
X63990456Y-115261765D01*
X130429715Y-115261765D01*
X130680383Y-115868429D01*
X131144130Y-116332986D01*
X131750355Y-116584713D01*
X132406765Y-116585285D01*
X133013429Y-116334617D01*
X133219638Y-116128767D01*
X133485899Y-116128767D01*
X134620000Y-117262868D01*
X135754101Y-116128767D01*
X135573780Y-115907040D01*
X134901146Y-115661398D01*
X134185709Y-115691861D01*
X133666220Y-115907040D01*
X133485899Y-116128767D01*
X133219638Y-116128767D01*
X133477986Y-115870870D01*
X133729713Y-115264645D01*
X133730285Y-114608235D01*
X133479617Y-114001571D01*
X133219733Y-113741233D01*
X133485899Y-113741233D01*
X133666220Y-113962960D01*
X134338854Y-114208602D01*
X135054291Y-114178139D01*
X135573780Y-113962960D01*
X135754101Y-113741233D01*
X134620000Y-112607132D01*
X133485899Y-113741233D01*
X133219733Y-113741233D01*
X133015870Y-113537014D01*
X132409645Y-113285287D01*
X131753235Y-113284715D01*
X131146571Y-113535383D01*
X130682014Y-113999130D01*
X130430287Y-114605355D01*
X130429715Y-115261765D01*
X63990456Y-115261765D01*
X63990456Y-114278726D01*
X64249888Y-114278726D01*
X64348636Y-114517714D01*
X64531324Y-114700722D01*
X64770140Y-114799887D01*
X65028726Y-114800112D01*
X65267714Y-114701364D01*
X65428349Y-114541010D01*
X65570140Y-114599887D01*
X65828726Y-114600112D01*
X66067714Y-114501364D01*
X66250722Y-114318676D01*
X66265003Y-114284284D01*
X66331324Y-114350722D01*
X66570140Y-114449887D01*
X66828726Y-114450112D01*
X66907290Y-114417650D01*
X66948636Y-114517714D01*
X67131324Y-114700722D01*
X67370140Y-114799887D01*
X67628726Y-114800112D01*
X67867714Y-114701364D01*
X68050722Y-114518676D01*
X68149887Y-114279860D01*
X68150112Y-114021274D01*
X68070553Y-113828726D01*
X70749888Y-113828726D01*
X70848636Y-114067714D01*
X71031324Y-114250722D01*
X71270140Y-114349887D01*
X71528726Y-114350112D01*
X71767714Y-114251364D01*
X71811421Y-114207733D01*
X121004399Y-114207733D01*
X121245783Y-114481476D01*
X122099533Y-114810613D01*
X123014250Y-114787980D01*
X123754217Y-114481476D01*
X123995601Y-114207733D01*
X122500000Y-112712132D01*
X121004399Y-114207733D01*
X71811421Y-114207733D01*
X71950722Y-114068676D01*
X72049887Y-113829860D01*
X72050112Y-113571274D01*
X71951364Y-113332286D01*
X71768676Y-113149278D01*
X71529860Y-113050113D01*
X71271274Y-113049888D01*
X71032286Y-113148636D01*
X70849278Y-113331324D01*
X70750113Y-113570140D01*
X70749888Y-113828726D01*
X68070553Y-113828726D01*
X68051364Y-113782286D01*
X67868676Y-113599278D01*
X67629860Y-113500113D01*
X67371274Y-113499888D01*
X67292710Y-113532350D01*
X67251364Y-113432286D01*
X67068676Y-113249278D01*
X66829860Y-113150113D01*
X66571274Y-113149888D01*
X66332286Y-113248636D01*
X66149278Y-113431324D01*
X66134997Y-113465716D01*
X66068676Y-113399278D01*
X65829860Y-113300113D01*
X65571274Y-113299888D01*
X65332286Y-113398636D01*
X65171651Y-113558990D01*
X65029860Y-113500113D01*
X64771274Y-113499888D01*
X64532286Y-113598636D01*
X64349278Y-113781324D01*
X64250113Y-114020140D01*
X64249888Y-114278726D01*
X63990456Y-114278726D01*
X63990456Y-114206400D01*
X63966051Y-114076698D01*
X63889397Y-113957575D01*
X63772437Y-113877659D01*
X63633600Y-113849544D01*
X61906400Y-113849544D01*
X61776698Y-113873949D01*
X61657575Y-113950603D01*
X61577659Y-114067563D01*
X61549544Y-114206400D01*
X61103758Y-114206400D01*
X60718201Y-113948780D01*
X60253776Y-113856400D01*
X60206224Y-113856400D01*
X59741799Y-113948780D01*
X59348079Y-114211855D01*
X59085004Y-114605575D01*
X58992624Y-115070000D01*
X36295000Y-115070000D01*
X36295000Y-114207733D01*
X51004399Y-114207733D01*
X51245783Y-114481476D01*
X52099533Y-114810613D01*
X53014250Y-114787980D01*
X53754217Y-114481476D01*
X53995601Y-114207733D01*
X52500000Y-112712132D01*
X51004399Y-114207733D01*
X36295000Y-114207733D01*
X36295000Y-112099533D01*
X50189387Y-112099533D01*
X50212020Y-113014250D01*
X50518524Y-113754217D01*
X50792267Y-113995601D01*
X52287868Y-112500000D01*
X52712132Y-112500000D01*
X54207733Y-113995601D01*
X54481476Y-113754217D01*
X54810613Y-112900467D01*
X54801415Y-112528726D01*
X73849888Y-112528726D01*
X73948636Y-112767714D01*
X74131324Y-112950722D01*
X74370140Y-113049887D01*
X74628726Y-113050112D01*
X74867714Y-112951364D01*
X75050722Y-112768676D01*
X75149887Y-112529860D01*
X75150112Y-112271274D01*
X75079150Y-112099533D01*
X120189387Y-112099533D01*
X120212020Y-113014250D01*
X120518524Y-113754217D01*
X120792267Y-113995601D01*
X122287868Y-112500000D01*
X122712132Y-112500000D01*
X124207733Y-113995601D01*
X124481476Y-113754217D01*
X124486481Y-113741233D01*
X128405899Y-113741233D01*
X128586220Y-113962960D01*
X129258854Y-114208602D01*
X129974291Y-114178139D01*
X130493780Y-113962960D01*
X130674101Y-113741233D01*
X129540000Y-112607132D01*
X128405899Y-113741233D01*
X124486481Y-113741233D01*
X124810613Y-112900467D01*
X124791150Y-112113854D01*
X127726398Y-112113854D01*
X127756861Y-112829291D01*
X127972040Y-113348780D01*
X128193767Y-113529101D01*
X129327868Y-112395000D01*
X129752132Y-112395000D01*
X130886233Y-113529101D01*
X131107960Y-113348780D01*
X131353602Y-112676146D01*
X131329660Y-112113854D01*
X132806398Y-112113854D01*
X132836861Y-112829291D01*
X133052040Y-113348780D01*
X133273767Y-113529101D01*
X134407868Y-112395000D01*
X133273767Y-111260899D01*
X133052040Y-111441220D01*
X132806398Y-112113854D01*
X131329660Y-112113854D01*
X131323139Y-111960709D01*
X131107960Y-111441220D01*
X130886233Y-111260899D01*
X129752132Y-112395000D01*
X129327868Y-112395000D01*
X128193767Y-111260899D01*
X127972040Y-111441220D01*
X127726398Y-112113854D01*
X124791150Y-112113854D01*
X124787980Y-111985750D01*
X124481476Y-111245783D01*
X124258049Y-111048767D01*
X128405899Y-111048767D01*
X129540000Y-112182868D01*
X130674101Y-111048767D01*
X133485899Y-111048767D01*
X134620000Y-112182868D01*
X135754101Y-111048767D01*
X135573780Y-110827040D01*
X134901146Y-110581398D01*
X134185709Y-110611861D01*
X133666220Y-110827040D01*
X133485899Y-111048767D01*
X130674101Y-111048767D01*
X130493780Y-110827040D01*
X129821146Y-110581398D01*
X129105709Y-110611861D01*
X128586220Y-110827040D01*
X128405899Y-111048767D01*
X124258049Y-111048767D01*
X124207733Y-111004399D01*
X122712132Y-112500000D01*
X122287868Y-112500000D01*
X120792267Y-111004399D01*
X120518524Y-111245783D01*
X120189387Y-112099533D01*
X75079150Y-112099533D01*
X75051364Y-112032286D01*
X74868676Y-111849278D01*
X74629860Y-111750113D01*
X74371274Y-111749888D01*
X74132286Y-111848636D01*
X73949278Y-112031324D01*
X73850113Y-112270140D01*
X73849888Y-112528726D01*
X54801415Y-112528726D01*
X54787980Y-111985750D01*
X54481476Y-111245783D01*
X54207733Y-111004399D01*
X52712132Y-112500000D01*
X52287868Y-112500000D01*
X50792267Y-111004399D01*
X50518524Y-111245783D01*
X50189387Y-112099533D01*
X36295000Y-112099533D01*
X36295000Y-109831314D01*
X37700818Y-109831314D01*
X38185869Y-110313017D01*
X39762974Y-110975626D01*
X41473598Y-110984264D01*
X41943821Y-110792267D01*
X51004399Y-110792267D01*
X52500000Y-112287868D01*
X53939338Y-110848530D01*
X69849870Y-110848530D01*
X69963811Y-111124286D01*
X70174605Y-111335448D01*
X70450161Y-111449869D01*
X70748530Y-111450130D01*
X71024286Y-111336189D01*
X71235448Y-111125395D01*
X71349869Y-110849839D01*
X71350130Y-110551470D01*
X71236189Y-110275714D01*
X71025395Y-110064552D01*
X70939117Y-110028726D01*
X71249888Y-110028726D01*
X71348636Y-110267714D01*
X71531324Y-110450722D01*
X71770140Y-110549887D01*
X72028726Y-110550112D01*
X72201493Y-110478726D01*
X87399888Y-110478726D01*
X87498636Y-110717714D01*
X87681324Y-110900722D01*
X87920140Y-110999887D01*
X88178726Y-111000112D01*
X88417714Y-110901364D01*
X88527002Y-110792267D01*
X121004399Y-110792267D01*
X122500000Y-112287868D01*
X123995601Y-110792267D01*
X123754217Y-110518524D01*
X122900467Y-110189387D01*
X121985750Y-110212020D01*
X121245783Y-110518524D01*
X121004399Y-110792267D01*
X88527002Y-110792267D01*
X88600722Y-110718676D01*
X88699887Y-110479860D01*
X88700112Y-110221274D01*
X88670055Y-110148530D01*
X99249870Y-110148530D01*
X99363811Y-110424286D01*
X99574605Y-110635448D01*
X99850161Y-110749869D01*
X100148530Y-110750130D01*
X100424286Y-110636189D01*
X100635448Y-110425395D01*
X100749869Y-110149839D01*
X100750130Y-109851470D01*
X100741802Y-109831314D01*
X129140818Y-109831314D01*
X129625869Y-110313017D01*
X131202974Y-110975626D01*
X132913598Y-110984264D01*
X134497315Y-110337617D01*
X134534131Y-110313017D01*
X135019182Y-109831314D01*
X132080000Y-106892132D01*
X129140818Y-109831314D01*
X100741802Y-109831314D01*
X100636189Y-109575714D01*
X100425395Y-109364552D01*
X100149839Y-109250131D01*
X99851470Y-109249870D01*
X99575714Y-109363811D01*
X99364552Y-109574605D01*
X99250131Y-109850161D01*
X99249870Y-110148530D01*
X88670055Y-110148530D01*
X88601364Y-109982286D01*
X88418676Y-109799278D01*
X88179860Y-109700113D01*
X87921274Y-109699888D01*
X87682286Y-109798636D01*
X87499278Y-109981324D01*
X87400113Y-110220140D01*
X87399888Y-110478726D01*
X72201493Y-110478726D01*
X72267714Y-110451364D01*
X72450722Y-110268676D01*
X72549887Y-110029860D01*
X72550112Y-109771274D01*
X72451364Y-109532286D01*
X72268676Y-109349278D01*
X72029860Y-109250113D01*
X71771274Y-109249888D01*
X71532286Y-109348636D01*
X71349278Y-109531324D01*
X71250113Y-109770140D01*
X71249888Y-110028726D01*
X70939117Y-110028726D01*
X70749839Y-109950131D01*
X70451470Y-109949870D01*
X70175714Y-110063811D01*
X69964552Y-110274605D01*
X69850131Y-110550161D01*
X69849870Y-110848530D01*
X53939338Y-110848530D01*
X53995601Y-110792267D01*
X53754217Y-110518524D01*
X52900467Y-110189387D01*
X51985750Y-110212020D01*
X51245783Y-110518524D01*
X51004399Y-110792267D01*
X41943821Y-110792267D01*
X43057315Y-110337617D01*
X43094131Y-110313017D01*
X43380397Y-110028726D01*
X55849888Y-110028726D01*
X55948636Y-110267714D01*
X56131324Y-110450722D01*
X56370140Y-110549887D01*
X56628726Y-110550112D01*
X56867714Y-110451364D01*
X57050722Y-110268676D01*
X57149887Y-110029860D01*
X57149887Y-110028726D01*
X60349888Y-110028726D01*
X60448636Y-110267714D01*
X60631324Y-110450722D01*
X60870140Y-110549887D01*
X61128726Y-110550112D01*
X61367714Y-110451364D01*
X61550722Y-110268676D01*
X61649887Y-110029860D01*
X61649887Y-110028726D01*
X63349888Y-110028726D01*
X63448636Y-110267714D01*
X63631324Y-110450722D01*
X63870140Y-110549887D01*
X64128726Y-110550112D01*
X64367714Y-110451364D01*
X64550722Y-110268676D01*
X64649887Y-110029860D01*
X64649887Y-110028726D01*
X68349888Y-110028726D01*
X68448636Y-110267714D01*
X68631324Y-110450722D01*
X68870140Y-110549887D01*
X69128726Y-110550112D01*
X69367714Y-110451364D01*
X69550722Y-110268676D01*
X69649887Y-110029860D01*
X69650112Y-109771274D01*
X69551364Y-109532286D01*
X69368676Y-109349278D01*
X69129860Y-109250113D01*
X68871274Y-109249888D01*
X68632286Y-109348636D01*
X68449278Y-109531324D01*
X68350113Y-109770140D01*
X68349888Y-110028726D01*
X64649887Y-110028726D01*
X64650112Y-109771274D01*
X64551364Y-109532286D01*
X64368676Y-109349278D01*
X64129860Y-109250113D01*
X63871274Y-109249888D01*
X63632286Y-109348636D01*
X63449278Y-109531324D01*
X63350113Y-109770140D01*
X63349888Y-110028726D01*
X61649887Y-110028726D01*
X61650112Y-109771274D01*
X61551364Y-109532286D01*
X61368676Y-109349278D01*
X61129860Y-109250113D01*
X60871274Y-109249888D01*
X60632286Y-109348636D01*
X60449278Y-109531324D01*
X60350113Y-109770140D01*
X60349888Y-110028726D01*
X57149887Y-110028726D01*
X57150112Y-109771274D01*
X57051364Y-109532286D01*
X56868676Y-109349278D01*
X56629860Y-109250113D01*
X56371274Y-109249888D01*
X56132286Y-109348636D01*
X55949278Y-109531324D01*
X55850113Y-109770140D01*
X55849888Y-110028726D01*
X43380397Y-110028726D01*
X43579182Y-109831314D01*
X40640000Y-106892132D01*
X37700818Y-109831314D01*
X36295000Y-109831314D01*
X36295000Y-107513598D01*
X36335736Y-107513598D01*
X36982383Y-109097315D01*
X37006983Y-109134131D01*
X37488686Y-109619182D01*
X40427868Y-106680000D01*
X40852132Y-106680000D01*
X43791314Y-109619182D01*
X44273017Y-109134131D01*
X44935626Y-107557026D01*
X44938395Y-107008664D01*
X47143766Y-107008664D01*
X47354509Y-107410810D01*
X47703104Y-107701697D01*
X47931338Y-107796220D01*
X48110000Y-107758216D01*
X48110000Y-106830000D01*
X48410000Y-106830000D01*
X48410000Y-107758216D01*
X48588662Y-107796220D01*
X48816896Y-107701697D01*
X49165491Y-107410810D01*
X49376234Y-107008664D01*
X49683766Y-107008664D01*
X49894509Y-107410810D01*
X50243104Y-107701697D01*
X50471338Y-107796220D01*
X50650000Y-107758216D01*
X50650000Y-106830000D01*
X50950000Y-106830000D01*
X50950000Y-107758216D01*
X51128662Y-107796220D01*
X51356896Y-107701697D01*
X51705491Y-107410810D01*
X51916234Y-107008664D01*
X52223766Y-107008664D01*
X52434509Y-107410810D01*
X52783104Y-107701697D01*
X53011338Y-107796220D01*
X53190000Y-107758216D01*
X53190000Y-106830000D01*
X53490000Y-106830000D01*
X53490000Y-107758216D01*
X53668662Y-107796220D01*
X53896896Y-107701697D01*
X54245491Y-107410810D01*
X54456234Y-107008664D01*
X54763766Y-107008664D01*
X54974509Y-107410810D01*
X55323104Y-107701697D01*
X55551338Y-107796220D01*
X55730000Y-107758216D01*
X55730000Y-106830000D01*
X56030000Y-106830000D01*
X56030000Y-107758216D01*
X56208662Y-107796220D01*
X56436896Y-107701697D01*
X56785491Y-107410810D01*
X56996234Y-107008664D01*
X57303766Y-107008664D01*
X57514509Y-107410810D01*
X57863104Y-107701697D01*
X58091338Y-107796220D01*
X58270000Y-107758216D01*
X58270000Y-106830000D01*
X58570000Y-106830000D01*
X58570000Y-107758216D01*
X58748662Y-107796220D01*
X58976896Y-107701697D01*
X59325491Y-107410810D01*
X59536234Y-107008664D01*
X59843766Y-107008664D01*
X60054509Y-107410810D01*
X60403104Y-107701697D01*
X60631338Y-107796220D01*
X60810000Y-107758216D01*
X60810000Y-106830000D01*
X61110000Y-106830000D01*
X61110000Y-107758216D01*
X61288662Y-107796220D01*
X61516896Y-107701697D01*
X61865491Y-107410810D01*
X62076234Y-107008664D01*
X62383766Y-107008664D01*
X62594509Y-107410810D01*
X62943104Y-107701697D01*
X63171338Y-107796220D01*
X63350000Y-107758216D01*
X63350000Y-106830000D01*
X63650000Y-106830000D01*
X63650000Y-107758216D01*
X63828662Y-107796220D01*
X64056896Y-107701697D01*
X64405491Y-107410810D01*
X64616234Y-107008664D01*
X64923766Y-107008664D01*
X65134509Y-107410810D01*
X65483104Y-107701697D01*
X65711338Y-107796220D01*
X65890000Y-107758216D01*
X65890000Y-106830000D01*
X66190000Y-106830000D01*
X66190000Y-107758216D01*
X66368662Y-107796220D01*
X66596896Y-107701697D01*
X66945491Y-107410810D01*
X67156234Y-107008664D01*
X67463766Y-107008664D01*
X67674509Y-107410810D01*
X68023104Y-107701697D01*
X68251338Y-107796220D01*
X68430000Y-107758216D01*
X68430000Y-106830000D01*
X68730000Y-106830000D01*
X68730000Y-107758216D01*
X68908662Y-107796220D01*
X69136896Y-107701697D01*
X69485491Y-107410810D01*
X69696234Y-107008664D01*
X69658906Y-106830000D01*
X68730000Y-106830000D01*
X68430000Y-106830000D01*
X67501094Y-106830000D01*
X67463766Y-107008664D01*
X67156234Y-107008664D01*
X67118906Y-106830000D01*
X66190000Y-106830000D01*
X65890000Y-106830000D01*
X64961094Y-106830000D01*
X64923766Y-107008664D01*
X64616234Y-107008664D01*
X64578906Y-106830000D01*
X63650000Y-106830000D01*
X63350000Y-106830000D01*
X62421094Y-106830000D01*
X62383766Y-107008664D01*
X62076234Y-107008664D01*
X62038906Y-106830000D01*
X61110000Y-106830000D01*
X60810000Y-106830000D01*
X59881094Y-106830000D01*
X59843766Y-107008664D01*
X59536234Y-107008664D01*
X59498906Y-106830000D01*
X58570000Y-106830000D01*
X58270000Y-106830000D01*
X57341094Y-106830000D01*
X57303766Y-107008664D01*
X56996234Y-107008664D01*
X56958906Y-106830000D01*
X56030000Y-106830000D01*
X55730000Y-106830000D01*
X54801094Y-106830000D01*
X54763766Y-107008664D01*
X54456234Y-107008664D01*
X54418906Y-106830000D01*
X53490000Y-106830000D01*
X53190000Y-106830000D01*
X52261094Y-106830000D01*
X52223766Y-107008664D01*
X51916234Y-107008664D01*
X51878906Y-106830000D01*
X50950000Y-106830000D01*
X50650000Y-106830000D01*
X49721094Y-106830000D01*
X49683766Y-107008664D01*
X49376234Y-107008664D01*
X49338906Y-106830000D01*
X48410000Y-106830000D01*
X48110000Y-106830000D01*
X47181094Y-106830000D01*
X47143766Y-107008664D01*
X44938395Y-107008664D01*
X44940174Y-106656224D01*
X69906400Y-106656224D01*
X69906400Y-106703776D01*
X69998780Y-107168201D01*
X70261855Y-107561921D01*
X70655575Y-107824996D01*
X71120000Y-107917376D01*
X71584425Y-107824996D01*
X71978145Y-107561921D01*
X72241220Y-107168201D01*
X72293574Y-106905000D01*
X77576400Y-106905000D01*
X77576400Y-107755674D01*
X77622072Y-107865937D01*
X77706464Y-107950328D01*
X77816727Y-107996000D01*
X78515000Y-107996000D01*
X78590000Y-107921000D01*
X78590000Y-106830000D01*
X78890000Y-106830000D01*
X78890000Y-107921000D01*
X78965000Y-107996000D01*
X79663273Y-107996000D01*
X79773536Y-107950328D01*
X79857928Y-107865937D01*
X79903600Y-107755674D01*
X79903600Y-107012081D01*
X80130198Y-107012081D01*
X80286482Y-107438414D01*
X80594021Y-107772487D01*
X80951338Y-107948620D01*
X81130000Y-107910616D01*
X81130000Y-106830000D01*
X81430000Y-106830000D01*
X81430000Y-107910616D01*
X81608662Y-107948620D01*
X81965979Y-107772487D01*
X82273518Y-107438414D01*
X82429802Y-107012081D01*
X82368754Y-106830000D01*
X81430000Y-106830000D01*
X81130000Y-106830000D01*
X80191246Y-106830000D01*
X80130198Y-107012081D01*
X79903600Y-107012081D01*
X79903600Y-106905000D01*
X79828600Y-106830000D01*
X78890000Y-106830000D01*
X78590000Y-106830000D01*
X77651400Y-106830000D01*
X77576400Y-106905000D01*
X72293574Y-106905000D01*
X72333600Y-106703776D01*
X72333600Y-106656224D01*
X72241220Y-106191799D01*
X71978145Y-105798079D01*
X71688173Y-105604326D01*
X77576400Y-105604326D01*
X77576400Y-106455000D01*
X77651400Y-106530000D01*
X78590000Y-106530000D01*
X78590000Y-105439000D01*
X78890000Y-105439000D01*
X78890000Y-106530000D01*
X79828600Y-106530000D01*
X79903600Y-106455000D01*
X79903600Y-106347919D01*
X80130198Y-106347919D01*
X80191246Y-106530000D01*
X81130000Y-106530000D01*
X81130000Y-105449384D01*
X81430000Y-105449384D01*
X81430000Y-106530000D01*
X82368754Y-106530000D01*
X82378531Y-106500838D01*
X82606400Y-106500838D01*
X82606400Y-106859162D01*
X82698780Y-107323587D01*
X82961855Y-107717307D01*
X83355575Y-107980382D01*
X83820000Y-108072762D01*
X84284425Y-107980382D01*
X84678145Y-107717307D01*
X84941220Y-107323587D01*
X85033600Y-106859162D01*
X85033600Y-106500838D01*
X85146400Y-106500838D01*
X85146400Y-106859162D01*
X85238780Y-107323587D01*
X85501855Y-107717307D01*
X85895575Y-107980382D01*
X86360000Y-108072762D01*
X86824425Y-107980382D01*
X87218145Y-107717307D01*
X87481220Y-107323587D01*
X87573600Y-106859162D01*
X87573600Y-106500838D01*
X87686400Y-106500838D01*
X87686400Y-106859162D01*
X87778780Y-107323587D01*
X88041855Y-107717307D01*
X88435575Y-107980382D01*
X88900000Y-108072762D01*
X89364425Y-107980382D01*
X89758145Y-107717307D01*
X90021220Y-107323587D01*
X90113600Y-106859162D01*
X90113600Y-106500838D01*
X90226400Y-106500838D01*
X90226400Y-106859162D01*
X90318780Y-107323587D01*
X90581855Y-107717307D01*
X90975575Y-107980382D01*
X91440000Y-108072762D01*
X91904425Y-107980382D01*
X92298145Y-107717307D01*
X92434258Y-107513598D01*
X127775736Y-107513598D01*
X128422383Y-109097315D01*
X128446983Y-109134131D01*
X128928686Y-109619182D01*
X131867868Y-106680000D01*
X132292132Y-106680000D01*
X135231314Y-109619182D01*
X135713017Y-109134131D01*
X136375626Y-107557026D01*
X136384264Y-105846402D01*
X135737617Y-104262685D01*
X135713017Y-104225869D01*
X135231314Y-103740818D01*
X132292132Y-106680000D01*
X131867868Y-106680000D01*
X128928686Y-103740818D01*
X128446983Y-104225869D01*
X127784374Y-105802974D01*
X127775736Y-107513598D01*
X92434258Y-107513598D01*
X92561220Y-107323587D01*
X92653600Y-106859162D01*
X92653600Y-106500838D01*
X92561220Y-106036413D01*
X92298145Y-105642693D01*
X91904425Y-105379618D01*
X91440000Y-105287238D01*
X90975575Y-105379618D01*
X90581855Y-105642693D01*
X90318780Y-106036413D01*
X90226400Y-106500838D01*
X90113600Y-106500838D01*
X90021220Y-106036413D01*
X89758145Y-105642693D01*
X89364425Y-105379618D01*
X88900000Y-105287238D01*
X88435575Y-105379618D01*
X88041855Y-105642693D01*
X87778780Y-106036413D01*
X87686400Y-106500838D01*
X87573600Y-106500838D01*
X87481220Y-106036413D01*
X87218145Y-105642693D01*
X86824425Y-105379618D01*
X86360000Y-105287238D01*
X85895575Y-105379618D01*
X85501855Y-105642693D01*
X85238780Y-106036413D01*
X85146400Y-106500838D01*
X85033600Y-106500838D01*
X84941220Y-106036413D01*
X84678145Y-105642693D01*
X84284425Y-105379618D01*
X83820000Y-105287238D01*
X83355575Y-105379618D01*
X82961855Y-105642693D01*
X82698780Y-106036413D01*
X82606400Y-106500838D01*
X82378531Y-106500838D01*
X82429802Y-106347919D01*
X82273518Y-105921586D01*
X81965979Y-105587513D01*
X81608662Y-105411380D01*
X81430000Y-105449384D01*
X81130000Y-105449384D01*
X80951338Y-105411380D01*
X80594021Y-105587513D01*
X80286482Y-105921586D01*
X80130198Y-106347919D01*
X79903600Y-106347919D01*
X79903600Y-105604326D01*
X79857928Y-105494063D01*
X79773536Y-105409672D01*
X79663273Y-105364000D01*
X78965000Y-105364000D01*
X78890000Y-105439000D01*
X78590000Y-105439000D01*
X78515000Y-105364000D01*
X77816727Y-105364000D01*
X77706464Y-105409672D01*
X77622072Y-105494063D01*
X77576400Y-105604326D01*
X71688173Y-105604326D01*
X71584425Y-105535004D01*
X71120000Y-105442624D01*
X70655575Y-105535004D01*
X70261855Y-105798079D01*
X69998780Y-106191799D01*
X69906400Y-106656224D01*
X44940174Y-106656224D01*
X44941714Y-106351336D01*
X47143766Y-106351336D01*
X47181094Y-106530000D01*
X48110000Y-106530000D01*
X48110000Y-105601784D01*
X48410000Y-105601784D01*
X48410000Y-106530000D01*
X49338906Y-106530000D01*
X49376234Y-106351336D01*
X49683766Y-106351336D01*
X49721094Y-106530000D01*
X50650000Y-106530000D01*
X50650000Y-105601784D01*
X50950000Y-105601784D01*
X50950000Y-106530000D01*
X51878906Y-106530000D01*
X51916234Y-106351336D01*
X52223766Y-106351336D01*
X52261094Y-106530000D01*
X53190000Y-106530000D01*
X53190000Y-105601784D01*
X53490000Y-105601784D01*
X53490000Y-106530000D01*
X54418906Y-106530000D01*
X54456234Y-106351336D01*
X54763766Y-106351336D01*
X54801094Y-106530000D01*
X55730000Y-106530000D01*
X55730000Y-105601784D01*
X56030000Y-105601784D01*
X56030000Y-106530000D01*
X56958906Y-106530000D01*
X56996234Y-106351336D01*
X57303766Y-106351336D01*
X57341094Y-106530000D01*
X58270000Y-106530000D01*
X58270000Y-105601784D01*
X58570000Y-105601784D01*
X58570000Y-106530000D01*
X59498906Y-106530000D01*
X59536234Y-106351336D01*
X59843766Y-106351336D01*
X59881094Y-106530000D01*
X60810000Y-106530000D01*
X60810000Y-105601784D01*
X61110000Y-105601784D01*
X61110000Y-106530000D01*
X62038906Y-106530000D01*
X62076234Y-106351336D01*
X62383766Y-106351336D01*
X62421094Y-106530000D01*
X63350000Y-106530000D01*
X63350000Y-105601784D01*
X63650000Y-105601784D01*
X63650000Y-106530000D01*
X64578906Y-106530000D01*
X64616234Y-106351336D01*
X64923766Y-106351336D01*
X64961094Y-106530000D01*
X65890000Y-106530000D01*
X65890000Y-105601784D01*
X66190000Y-105601784D01*
X66190000Y-106530000D01*
X67118906Y-106530000D01*
X67156234Y-106351336D01*
X67463766Y-106351336D01*
X67501094Y-106530000D01*
X68430000Y-106530000D01*
X68430000Y-105601784D01*
X68730000Y-105601784D01*
X68730000Y-106530000D01*
X69658906Y-106530000D01*
X69696234Y-106351336D01*
X69485491Y-105949190D01*
X69136896Y-105658303D01*
X68908662Y-105563780D01*
X68730000Y-105601784D01*
X68430000Y-105601784D01*
X68251338Y-105563780D01*
X68023104Y-105658303D01*
X67674509Y-105949190D01*
X67463766Y-106351336D01*
X67156234Y-106351336D01*
X66945491Y-105949190D01*
X66596896Y-105658303D01*
X66368662Y-105563780D01*
X66190000Y-105601784D01*
X65890000Y-105601784D01*
X65711338Y-105563780D01*
X65483104Y-105658303D01*
X65134509Y-105949190D01*
X64923766Y-106351336D01*
X64616234Y-106351336D01*
X64405491Y-105949190D01*
X64056896Y-105658303D01*
X63828662Y-105563780D01*
X63650000Y-105601784D01*
X63350000Y-105601784D01*
X63171338Y-105563780D01*
X62943104Y-105658303D01*
X62594509Y-105949190D01*
X62383766Y-106351336D01*
X62076234Y-106351336D01*
X61865491Y-105949190D01*
X61516896Y-105658303D01*
X61288662Y-105563780D01*
X61110000Y-105601784D01*
X60810000Y-105601784D01*
X60631338Y-105563780D01*
X60403104Y-105658303D01*
X60054509Y-105949190D01*
X59843766Y-106351336D01*
X59536234Y-106351336D01*
X59325491Y-105949190D01*
X58976896Y-105658303D01*
X58748662Y-105563780D01*
X58570000Y-105601784D01*
X58270000Y-105601784D01*
X58091338Y-105563780D01*
X57863104Y-105658303D01*
X57514509Y-105949190D01*
X57303766Y-106351336D01*
X56996234Y-106351336D01*
X56785491Y-105949190D01*
X56436896Y-105658303D01*
X56208662Y-105563780D01*
X56030000Y-105601784D01*
X55730000Y-105601784D01*
X55551338Y-105563780D01*
X55323104Y-105658303D01*
X54974509Y-105949190D01*
X54763766Y-106351336D01*
X54456234Y-106351336D01*
X54245491Y-105949190D01*
X53896896Y-105658303D01*
X53668662Y-105563780D01*
X53490000Y-105601784D01*
X53190000Y-105601784D01*
X53011338Y-105563780D01*
X52783104Y-105658303D01*
X52434509Y-105949190D01*
X52223766Y-106351336D01*
X51916234Y-106351336D01*
X51705491Y-105949190D01*
X51356896Y-105658303D01*
X51128662Y-105563780D01*
X50950000Y-105601784D01*
X50650000Y-105601784D01*
X50471338Y-105563780D01*
X50243104Y-105658303D01*
X49894509Y-105949190D01*
X49683766Y-106351336D01*
X49376234Y-106351336D01*
X49165491Y-105949190D01*
X48816896Y-105658303D01*
X48588662Y-105563780D01*
X48410000Y-105601784D01*
X48110000Y-105601784D01*
X47931338Y-105563780D01*
X47703104Y-105658303D01*
X47354509Y-105949190D01*
X47143766Y-106351336D01*
X44941714Y-106351336D01*
X44944264Y-105846402D01*
X44297617Y-104262685D01*
X44273017Y-104225869D01*
X44164129Y-104116224D01*
X47046400Y-104116224D01*
X47046400Y-104163776D01*
X47138780Y-104628201D01*
X47401855Y-105021921D01*
X47795575Y-105284996D01*
X48260000Y-105377376D01*
X48724425Y-105284996D01*
X49118145Y-105021921D01*
X49381220Y-104628201D01*
X49473600Y-104163776D01*
X49473600Y-104116224D01*
X49586400Y-104116224D01*
X49586400Y-104163776D01*
X49678780Y-104628201D01*
X49941855Y-105021921D01*
X50335575Y-105284996D01*
X50800000Y-105377376D01*
X51264425Y-105284996D01*
X51658145Y-105021921D01*
X51921220Y-104628201D01*
X52013600Y-104163776D01*
X52013600Y-104116224D01*
X52126400Y-104116224D01*
X52126400Y-104163776D01*
X52218780Y-104628201D01*
X52481855Y-105021921D01*
X52875575Y-105284996D01*
X53340000Y-105377376D01*
X53804425Y-105284996D01*
X54198145Y-105021921D01*
X54461220Y-104628201D01*
X54553600Y-104163776D01*
X54553600Y-104116224D01*
X54666400Y-104116224D01*
X54666400Y-104163776D01*
X54758780Y-104628201D01*
X55021855Y-105021921D01*
X55415575Y-105284996D01*
X55880000Y-105377376D01*
X56344425Y-105284996D01*
X56738145Y-105021921D01*
X57001220Y-104628201D01*
X57093600Y-104163776D01*
X57093600Y-104116224D01*
X57206400Y-104116224D01*
X57206400Y-104163776D01*
X57298780Y-104628201D01*
X57561855Y-105021921D01*
X57955575Y-105284996D01*
X58420000Y-105377376D01*
X58884425Y-105284996D01*
X59278145Y-105021921D01*
X59541220Y-104628201D01*
X59633600Y-104163776D01*
X59633600Y-104116224D01*
X59746400Y-104116224D01*
X59746400Y-104163776D01*
X59838780Y-104628201D01*
X60101855Y-105021921D01*
X60495575Y-105284996D01*
X60960000Y-105377376D01*
X61424425Y-105284996D01*
X61818145Y-105021921D01*
X62081220Y-104628201D01*
X62173600Y-104163776D01*
X62173600Y-104116224D01*
X62286400Y-104116224D01*
X62286400Y-104163776D01*
X62378780Y-104628201D01*
X62641855Y-105021921D01*
X63035575Y-105284996D01*
X63500000Y-105377376D01*
X63964425Y-105284996D01*
X64358145Y-105021921D01*
X64621220Y-104628201D01*
X64713600Y-104163776D01*
X64713600Y-104116224D01*
X64826400Y-104116224D01*
X64826400Y-104163776D01*
X64918780Y-104628201D01*
X65181855Y-105021921D01*
X65575575Y-105284996D01*
X66040000Y-105377376D01*
X66504425Y-105284996D01*
X66898145Y-105021921D01*
X67161220Y-104628201D01*
X67253600Y-104163776D01*
X67253600Y-104116224D01*
X67366400Y-104116224D01*
X67366400Y-104163776D01*
X67458780Y-104628201D01*
X67721855Y-105021921D01*
X68115575Y-105284996D01*
X68580000Y-105377376D01*
X69044425Y-105284996D01*
X69438145Y-105021921D01*
X69701220Y-104628201D01*
X69793600Y-104163776D01*
X69793600Y-104116224D01*
X69701220Y-103651799D01*
X69450387Y-103276400D01*
X69899544Y-103276400D01*
X69899544Y-105003600D01*
X69923949Y-105133302D01*
X70000603Y-105252425D01*
X70117563Y-105332341D01*
X70256400Y-105360456D01*
X71983600Y-105360456D01*
X72113302Y-105336051D01*
X72232425Y-105259397D01*
X72312341Y-105142437D01*
X72340456Y-105003600D01*
X72340456Y-103528686D01*
X129140818Y-103528686D01*
X132080000Y-106467868D01*
X135019182Y-103528686D01*
X134534131Y-103046983D01*
X132957026Y-102384374D01*
X131246402Y-102375736D01*
X129662685Y-103022383D01*
X129625869Y-103046983D01*
X129140818Y-103528686D01*
X72340456Y-103528686D01*
X72340456Y-103276400D01*
X72316051Y-103146698D01*
X72239397Y-103027575D01*
X72122437Y-102947659D01*
X71983600Y-102919544D01*
X70256400Y-102919544D01*
X70126698Y-102943949D01*
X70007575Y-103020603D01*
X69927659Y-103137563D01*
X69899544Y-103276400D01*
X69450387Y-103276400D01*
X69438145Y-103258079D01*
X69044425Y-102995004D01*
X68580000Y-102902624D01*
X68115575Y-102995004D01*
X67721855Y-103258079D01*
X67458780Y-103651799D01*
X67366400Y-104116224D01*
X67253600Y-104116224D01*
X67161220Y-103651799D01*
X66898145Y-103258079D01*
X66504425Y-102995004D01*
X66040000Y-102902624D01*
X65575575Y-102995004D01*
X65181855Y-103258079D01*
X64918780Y-103651799D01*
X64826400Y-104116224D01*
X64713600Y-104116224D01*
X64621220Y-103651799D01*
X64358145Y-103258079D01*
X63964425Y-102995004D01*
X63500000Y-102902624D01*
X63035575Y-102995004D01*
X62641855Y-103258079D01*
X62378780Y-103651799D01*
X62286400Y-104116224D01*
X62173600Y-104116224D01*
X62081220Y-103651799D01*
X61818145Y-103258079D01*
X61424425Y-102995004D01*
X60960000Y-102902624D01*
X60495575Y-102995004D01*
X60101855Y-103258079D01*
X59838780Y-103651799D01*
X59746400Y-104116224D01*
X59633600Y-104116224D01*
X59541220Y-103651799D01*
X59278145Y-103258079D01*
X58884425Y-102995004D01*
X58420000Y-102902624D01*
X57955575Y-102995004D01*
X57561855Y-103258079D01*
X57298780Y-103651799D01*
X57206400Y-104116224D01*
X57093600Y-104116224D01*
X57001220Y-103651799D01*
X56738145Y-103258079D01*
X56344425Y-102995004D01*
X55880000Y-102902624D01*
X55415575Y-102995004D01*
X55021855Y-103258079D01*
X54758780Y-103651799D01*
X54666400Y-104116224D01*
X54553600Y-104116224D01*
X54461220Y-103651799D01*
X54198145Y-103258079D01*
X53804425Y-102995004D01*
X53340000Y-102902624D01*
X52875575Y-102995004D01*
X52481855Y-103258079D01*
X52218780Y-103651799D01*
X52126400Y-104116224D01*
X52013600Y-104116224D01*
X51921220Y-103651799D01*
X51658145Y-103258079D01*
X51264425Y-102995004D01*
X50800000Y-102902624D01*
X50335575Y-102995004D01*
X49941855Y-103258079D01*
X49678780Y-103651799D01*
X49586400Y-104116224D01*
X49473600Y-104116224D01*
X49381220Y-103651799D01*
X49118145Y-103258079D01*
X48724425Y-102995004D01*
X48260000Y-102902624D01*
X47795575Y-102995004D01*
X47401855Y-103258079D01*
X47138780Y-103651799D01*
X47046400Y-104116224D01*
X44164129Y-104116224D01*
X43791314Y-103740818D01*
X40852132Y-106680000D01*
X40427868Y-106680000D01*
X37488686Y-103740818D01*
X37006983Y-104225869D01*
X36344374Y-105802974D01*
X36335736Y-107513598D01*
X36295000Y-107513598D01*
X36295000Y-103528686D01*
X37700818Y-103528686D01*
X40640000Y-106467868D01*
X43579182Y-103528686D01*
X43094131Y-103046983D01*
X41517026Y-102384374D01*
X39806402Y-102375736D01*
X38222685Y-103022383D01*
X38185869Y-103046983D01*
X37700818Y-103528686D01*
X36295000Y-103528686D01*
X36295000Y-103276422D01*
X37236422Y-102335000D01*
X135483578Y-102335000D01*
X136425000Y-103276422D01*
M02*
