M48
;DRILL file {KiCad 4.0.3-stable} date 09/21/16 12:10:48
;FORMAT={3:3/ absolute / metric / suppress leading zeros}
FMAT,2
METRIC,TZ
T1C0.300
T2C0.400
T3C0.600
T4C0.800
T5C1.016
T6C1.700
T7C1.900
T8C2.200
T9C3.200
%
G90
G05
M71
T1
X56500Y-109900
X57200Y-136200
X61000Y-109900
X64000Y-109900
X64900Y-114150
X64900Y-115400
X65000Y-124400
X65300Y-138000
X65700Y-113950
X66000Y-134300
X66200Y-122100
X66200Y-124100
X66700Y-113800
X67500Y-114150
X67600Y-125200
X68100Y-126600
X68400Y-125600
X69000Y-109900
X69200Y-117100
X70200Y-137500
X71000Y-121100
X71000Y-122100
X71200Y-136800
X71400Y-113700
X71900Y-109900
X72000Y-116200
X72300Y-132900
X72500Y-118100
X73000Y-127600
X73500Y-113300
X74150Y-118200
X74400Y-132900
X74500Y-112400
X75000Y-113300
X75000Y-118200
X76500Y-127350
X77500Y-113300
X79500Y-125850
X80300Y-123700
X80400Y-121900
X80500Y-119600
X80500Y-126600
X80600Y-118700
X82500Y-124100
X83100Y-118400
X85100Y-118300
X85300Y-119600
X85300Y-122600
X88050Y-110350
X88800Y-119650
X88800Y-121500
X91700Y-120700
X93200Y-124500
X94800Y-126100
T2
X43500Y-132500
X50000Y-131700
X50000Y-138000
X51250Y-138000
X52500Y-138000
X53800Y-138050
X64900Y-132600
X65600Y-139100
X65600Y-142400
X69200Y-131700
X69200Y-135900
X70600Y-110700
X72700Y-130100
X73500Y-132400
X78100Y-145900
X79400Y-145900
X80600Y-145900
X81900Y-145900
X94100Y-147000
X96300Y-146100
X96300Y-148500
X96400Y-104600
X96400Y-107000
X96400Y-110100
X96400Y-113000
X96400Y-116100
X96400Y-119000
X96400Y-122100
X96400Y-125000
X96400Y-128100
X96400Y-131000
X96400Y-134100
X96400Y-137000
X96400Y-140100
X96400Y-143000
X98000Y-104600
X98000Y-148500
X98700Y-131800
X99500Y-118500
X99500Y-120100
X99500Y-121400
X99500Y-123000
X99500Y-124600
X100000Y-110000
X100200Y-131800
X101100Y-104600
X101100Y-148400
X101500Y-145200
X102800Y-112500
X102900Y-133600
X102900Y-135100
X102900Y-136600
X103000Y-145200
X103500Y-126000
X103700Y-138800
X103700Y-140400
X104000Y-104600
X104000Y-148400
X104500Y-145200
X104700Y-121100
X104700Y-122700
X105000Y-112500
X105500Y-121900
X106000Y-118300
X106300Y-121100
X106300Y-122700
X106800Y-119000
X107100Y-104600
X107100Y-148400
X107400Y-131300
X107600Y-132900
X107700Y-115700
X108700Y-125300
X108700Y-126800
X108700Y-128300
X108700Y-129800
X108783Y-139263
X108783Y-140138
X109000Y-146800
X109200Y-116600
X109658Y-139263
X109658Y-140138
X110000Y-104600
X110000Y-148400
X110200Y-137300
X111200Y-146800
X111300Y-133400
X111300Y-134900
X111300Y-136400
X111800Y-128700
X113100Y-104600
X113100Y-148400
X113600Y-116500
X113600Y-119500
X114200Y-122600
X114200Y-124100
X114200Y-146800
X114700Y-115300
X114700Y-120700
X114700Y-139600
X114700Y-141100
X115000Y-128100
X115100Y-137500
X116000Y-104600
X116000Y-148400
X116300Y-146800
X117500Y-115300
X117700Y-120800
X117900Y-126700
X117900Y-129500
X118400Y-132900
X118400Y-142000
X118600Y-116500
X118600Y-119200
X119100Y-104600
X119100Y-126700
X119100Y-129500
X119100Y-148400
X119300Y-120900
X119300Y-139700
X120200Y-129500
X120300Y-126700
X120600Y-134400
X121500Y-129700
X122000Y-104600
X122000Y-148400
X122500Y-125900
X122900Y-129700
X123400Y-134400
X124900Y-134400
X125100Y-104600
X125100Y-148500
X126700Y-104600
X126700Y-107000
X126700Y-110100
X126700Y-113000
X126700Y-116100
X126700Y-119000
X126700Y-122100
X126700Y-125000
X126700Y-128100
X126700Y-131000
X126700Y-134100
X126700Y-137000
X126700Y-140100
X126700Y-143000
X126700Y-146100
X126700Y-148500
T3
X98400Y-141000
X105500Y-132200
X113800Y-132000
T4
X39800Y-118300
X41100Y-125000
X44300Y-135700
X45100Y-118300
X45400Y-139700
X50400Y-118300
X50400Y-124700
X55700Y-118300
X69400Y-144200
X69500Y-142300
X74700Y-142300
X85300Y-144300
X90300Y-144300
T5
X38100Y-127000
X38100Y-129540
X38100Y-132080
X38100Y-134620
X38100Y-137160
X38100Y-139700
X48260Y-104140
X48260Y-106680
X48260Y-149860
X50800Y-104140
X50800Y-106680
X50800Y-149860
X53340Y-104140
X53340Y-106680
X53340Y-149860
X55880Y-104140
X55880Y-106680
X55880Y-149860
X58420Y-104140
X58420Y-106680
X58420Y-149860
X60230Y-115070
X60230Y-117610
X60230Y-120150
X60230Y-122690
X60230Y-125230
X60230Y-127770
X60230Y-130310
X60230Y-132850
X60230Y-135390
X60230Y-137930
X60960Y-104140
X60960Y-106680
X60960Y-149860
X62770Y-115070
X62770Y-117610
X62770Y-120150
X62770Y-122690
X62770Y-125230
X62770Y-127770
X62770Y-130310
X62770Y-132850
X62770Y-135390
X62770Y-137930
X63500Y-104140
X63500Y-106680
X63500Y-149860
X66040Y-104140
X66040Y-106680
X66040Y-149860
X68580Y-104140
X68580Y-106680
X68580Y-149860
X71120Y-104140
X71120Y-106680
X71120Y-149860
X78740Y-106680
X78740Y-149860
X81280Y-106680
X81280Y-149860
X83820Y-106680
X83820Y-149860
X86360Y-106680
X86360Y-149860
X88900Y-106680
X88900Y-149860
X91440Y-106680
X91440Y-149860
T6
X132080Y-114935
X132080Y-137160
T7
X129540Y-112395
X129540Y-117475
X129540Y-134620
X129540Y-139700
X134620Y-112395
X134620Y-117475
X134620Y-134620
X134620Y-139700
T8
X52500Y-112500
X52500Y-142500
X122500Y-112500
X122500Y-142500
T9
X40640Y-106680
X40640Y-147320
X132080Y-106680
X132080Y-147320
T0
M30
