<?xml version="1.0" encoding="UTF-8"?><svg xmlns="http://www.w3.org/2000/svg" xmlns:xlink="http://www.w3.org/1999/xlink" fill-opacity="1" color-rendering="auto" color-interpolation="auto" text-rendering="auto" stroke="black" stroke-linecap="square" width="446" stroke-miterlimit="10" shape-rendering="auto" stroke-opacity="1" fill="black" stroke-dasharray="none" font-weight="normal" stroke-width="1" height="879" font-family="'Dialog'" font-style="normal" stroke-linejoin="miter" font-size="12px" stroke-dashoffset="0" image-rendering="auto">
  <!--Generated by ySVG 2.5-->
  <defs id="genericDefs"/>
  <g>
    <defs id="defs1">
      <clipPath clipPathUnits="userSpaceOnUse" id="clipPath1">
        <path d="M0 0 L446 0 L446 879 L0 879 L0 0 Z"/>
      </clipPath>
      <clipPath clipPathUnits="userSpaceOnUse" id="clipPath2">
        <path d="M474 -69 L920 -69 L920 810 L474 810 L474 -69 Z"/>
      </clipPath>
    </defs>
    <g fill="white" text-rendering="geometricPrecision" shape-rendering="geometricPrecision" transform="translate(-474,69)" stroke="white">
      <rect x="474" width="446" height="879" y="-69" clip-path="url(#clipPath2)" stroke="none"/>
    </g>
    <g font-size="16px" stroke-linecap="butt" transform="matrix(1,0,0,1,-474,69)" text-rendering="geometricPrecision" font-family="sans-serif" shape-rendering="geometricPrecision" stroke-miterlimit="1.45">
      <text x="617.6758" xml:space="preserve" y="168.2917" clip-path="url(#clipPath2)" stroke="none">High altitude baloon</text>
      <text x="642.7109" xml:space="preserve" y="187.1354" clip-path="url(#clipPath2)" stroke="none">Helium, ropes</text>
      <ellipse clip-path="url(#clipPath2)" fill="none" rx="207.9258" cx="696.9258" ry="225.3333" cy="171.6667" stroke-width="2"/>
      <text x="594.405" xml:space="preserve" font-size="15px" y="481.8959" clip-path="url(#clipPath2)" stroke="none">Thermally insulated payload</text>
      <rect x="489" y="465.394" clip-path="url(#clipPath2)" fill="none" width="415.8516" stroke-dasharray="6,2" rx="4" ry="4" height="328.8613"/>
    </g>
    <g fill="rgb(153,204,0)" text-rendering="geometricPrecision" shape-rendering="geometricPrecision" transform="matrix(1,0,0,1,-474,69)" stroke="rgb(153,204,0)">
      <rect x="781.2344" width="108.6172" height="56.3984" y="674.8569" clip-path="url(#clipPath2)" stroke="none"/>
    </g>
    <g text-rendering="geometricPrecision" stroke-miterlimit="1.45" shape-rendering="geometricPrecision" font-family="sans-serif" transform="matrix(1,0,0,1,-474,69)" stroke-linecap="butt">
      <text x="798.1777" xml:space="preserve" y="700.5248" clip-path="url(#clipPath2)" stroke="none">Data logging</text>
      <text x="803.9932" xml:space="preserve" y="714.6577" clip-path="url(#clipPath2)" stroke="none">on SD card</text>
    </g>
    <g fill="rgb(153,204,0)" text-rendering="geometricPrecision" shape-rendering="geometricPrecision" transform="matrix(1,0,0,1,-474,69)" stroke="rgb(153,204,0)">
      <rect x="642.6172" width="108.6172" height="56.3984" y="674.8569" clip-path="url(#clipPath2)" stroke="none"/>
    </g>
    <g text-rendering="geometricPrecision" stroke-miterlimit="1.45" shape-rendering="geometricPrecision" font-family="sans-serif" transform="matrix(1,0,0,1,-474,69)" stroke-linecap="butt">
      <text x="660.2842" xml:space="preserve" y="700.5248" clip-path="url(#clipPath2)" stroke="none">GSM modem</text>
      <text x="660.1729" xml:space="preserve" y="714.6577" clip-path="url(#clipPath2)" stroke="none">for downlink</text>
    </g>
    <g fill="rgb(0,178,255)" text-rendering="geometricPrecision" shape-rendering="geometricPrecision" transform="matrix(1,0,0,1,-474,69)" stroke="rgb(0,178,255)">
      <rect x="504" width="108.6172" height="56.3984" y="502.06" clip-path="url(#clipPath2)" stroke="none"/>
    </g>
    <g text-rendering="geometricPrecision" stroke-miterlimit="1.45" shape-rendering="geometricPrecision" font-family="sans-serif" transform="matrix(1,0,0,1,-474,69)" stroke-linecap="butt">
      <text x="511" xml:space="preserve" y="527.728" clip-path="url(#clipPath2)" stroke="none">Candy detector/</text>
      <text x="529.0674" xml:space="preserve" y="541.8608" clip-path="url(#clipPath2)" stroke="none">dosimeter</text>
    </g>
    <g fill="rgb(0,178,255)" text-rendering="geometricPrecision" shape-rendering="geometricPrecision" transform="matrix(1,0,0,1,-474,69)" stroke="rgb(0,178,255)">
      <rect x="781.2344" width="108.6172" height="56.3984" y="502.06" clip-path="url(#clipPath2)" stroke="none"/>
    </g>
    <g text-rendering="geometricPrecision" stroke-miterlimit="1.45" shape-rendering="geometricPrecision" font-family="sans-serif" transform="matrix(1,0,0,1,-474,69)" stroke-linecap="butt">
      <text x="800.293" xml:space="preserve" y="534.7944" clip-path="url(#clipPath2)" stroke="none">Web camera</text>
    </g>
    <g fill="rgb(0,178,255)" text-rendering="geometricPrecision" shape-rendering="geometricPrecision" transform="matrix(1,0,0,1,-474,69)" stroke="rgb(0,178,255)">
      <rect x="504" width="108.6172" height="56.3984" y="588.4584" clip-path="url(#clipPath2)" stroke="none"/>
    </g>
    <g text-rendering="geometricPrecision" stroke-miterlimit="1.45" shape-rendering="geometricPrecision" font-family="sans-serif" transform="matrix(1,0,0,1,-474,69)" stroke-linecap="butt">
      <text x="517.7705" xml:space="preserve" y="607.06" clip-path="url(#clipPath2)" stroke="none">Temperature/</text>
      <text x="529.4893" xml:space="preserve" y="621.1928" clip-path="url(#clipPath2)" stroke="none">humidity/</text>
      <text x="514.4746" xml:space="preserve" y="635.3256" clip-path="url(#clipPath2)" stroke="none">pressure @ I2C</text>
    </g>
    <g fill="lime" text-rendering="geometricPrecision" shape-rendering="geometricPrecision" transform="matrix(1,0,0,1,-474,69)" stroke="lime">
      <rect x="504" width="108.6172" height="56.3984" y="674.8569" clip-path="url(#clipPath2)" stroke="none"/>
    </g>
    <g text-rendering="geometricPrecision" stroke-miterlimit="1.45" shape-rendering="geometricPrecision" font-family="sans-serif" transform="matrix(1,0,0,1,-474,69)" stroke-linecap="butt">
      <text x="524.9131" xml:space="preserve" y="707.5912" clip-path="url(#clipPath2)" stroke="none">System GPS</text>
    </g>
    <g fill="lime" text-rendering="geometricPrecision" shape-rendering="geometricPrecision" transform="matrix(1,0,0,1,-474,69)" stroke="lime">
      <rect x="642.6172" width="108.6172" height="56.3984" y="502.06" clip-path="url(#clipPath2)" stroke="none"/>
    </g>
    <g text-rendering="geometricPrecision" stroke-miterlimit="1.45" shape-rendering="geometricPrecision" font-family="sans-serif" transform="matrix(1,0,0,1,-474,69)" stroke-linecap="butt">
      <text x="660.4248" xml:space="preserve" y="527.728" clip-path="url(#clipPath2)" stroke="none">Independent</text>
      <text x="657.5479" xml:space="preserve" y="541.8608" clip-path="url(#clipPath2)" stroke="none">High. alt. GPS</text>
    </g>
    <g fill="rgb(255,0,23)" text-rendering="geometricPrecision" shape-rendering="geometricPrecision" transform="matrix(1,0,0,1,-474,69)" stroke="rgb(255,0,23)">
      <rect x="781.2344" width="108.6172" height="56.3984" y="588.4584" clip-path="url(#clipPath2)" stroke="none"/>
    </g>
    <g text-rendering="geometricPrecision" stroke-miterlimit="1.45" shape-rendering="geometricPrecision" font-family="sans-serif" transform="matrix(1,0,0,1,-474,69)" stroke-linecap="butt">
      <text x="791.0762" xml:space="preserve" y="621.1928" clip-path="url(#clipPath2)" stroke="none">Battery sensors</text>
    </g>
    <g fill="yellow" text-rendering="geometricPrecision" shape-rendering="geometricPrecision" transform="matrix(1,0,0,1,-474,69)" stroke="yellow">
      <rect x="642.6172" width="108.6172" height="56.3984" y="588.4584" clip-path="url(#clipPath2)" stroke="none"/>
    </g>
    <g text-rendering="geometricPrecision" stroke-miterlimit="1.45" shape-rendering="geometricPrecision" font-family="sans-serif" transform="matrix(1,0,0,1,-474,69)" stroke-linecap="butt">
      <text x="657.7441" xml:space="preserve" y="614.1264" clip-path="url(#clipPath2)" stroke="none">GNU/Linux @</text>
      <text x="656.9766" xml:space="preserve" y="628.2592" clip-path="url(#clipPath2)" stroke="none">ARM CPU unit</text>
    </g>
    <g fill="rgb(255,204,0)" text-rendering="geometricPrecision" shape-rendering="geometricPrecision" transform="matrix(1,0,0,1,-474,69)" stroke="rgb(255,204,0)">
      <rect x="642.6172" width="108.6172" height="30" y="749.2553" clip-path="url(#clipPath2)" stroke="none"/>
    </g>
    <g text-rendering="geometricPrecision" stroke-miterlimit="1.45" shape-rendering="geometricPrecision" font-family="sans-serif" transform="matrix(1,0,0,1,-474,69)" stroke-linecap="butt">
      <text x="657.8086" xml:space="preserve" y="768.7905" clip-path="url(#clipPath2)" stroke="none">Radio beacon</text>
      <path fill="none" d="M696.9258 396.9777 L696.9258 412.4904 L696.9258 457.3978" clip-path="url(#clipPath2)"/>
      <path d="M696.9258 465.3978 L701.9258 453.3978 L696.9258 456.3978 L691.9258 453.3978 Z" clip-path="url(#clipPath2)" stroke="none"/>
      <path fill="none" d="M603.5513 558.4584 L644.8939 584.2268" clip-path="url(#clipPath2)"/>
      <path d="M651.6831 588.4584 L644.1441 577.8677 L644.0452 583.6978 L638.8546 586.3542 Z" clip-path="url(#clipPath2)" stroke="none"/>
      <path fill="none" d="M790.3003 558.4584 L748.9576 584.2268" clip-path="url(#clipPath2)"/>
      <path d="M742.1685 588.4584 L754.997 586.3542 L749.8063 583.6978 L749.7075 577.8677 Z" clip-path="url(#clipPath2)" stroke="none"/>
      <path fill="none" d="M612.6172 616.6577 L634.6172 616.6577" clip-path="url(#clipPath2)"/>
      <path d="M642.6172 616.6577 L630.6172 611.6577 L633.6172 616.6577 L630.6172 621.6577 Z" clip-path="url(#clipPath2)" stroke="none"/>
      <path fill="none" d="M603.5513 674.8569 L644.8939 649.0885" clip-path="url(#clipPath2)"/>
      <path d="M651.6831 644.8569 L638.8546 646.9611 L644.0452 649.6175 L644.1441 655.4476 Z" clip-path="url(#clipPath2)" stroke="none"/>
      <path fill="none" d="M781.2344 616.6577 L759.2344 616.6577" clip-path="url(#clipPath2)"/>
      <path d="M751.2344 616.6577 L763.2344 621.6577 L760.2344 616.6577 L763.2344 611.6577 Z" clip-path="url(#clipPath2)" stroke="none"/>
      <path fill="none" d="M696.9258 644.8569 L696.9258 666.8569" clip-path="url(#clipPath2)"/>
      <path d="M696.9258 674.8569 L701.9258 662.8569 L696.9258 665.8569 L691.9258 662.8569 Z" clip-path="url(#clipPath2)" stroke="none"/>
      <path fill="none" d="M742.1685 644.8569 L783.5111 670.6252" clip-path="url(#clipPath2)"/>
      <path d="M790.3003 674.8569 L782.7613 664.2662 L782.6624 670.0963 L777.4717 672.7527 Z" clip-path="url(#clipPath2)" stroke="none"/>
    </g>
  </g>
</svg>
